version 1
nodes
0 "blender_implicit" -1
1 "b_root" -1
2 "b_ch_middle" 1
3 "b_ch_spine1" 2
4 "b_ch_spine2" 3
5 "b_ch_l_clavical" 4
6 "b_ch_l_upperarm" 5
7 "b_ch_l_forearm" 6
8 "b_ch_l_forearm_twist1" 7
9 "b_ch_l_forearm_twist2" 7
10 "b_ch_l_forearm_twist3" 7
11 "b_ch_l_forearm_twist4" 7
12 "b_ch_l_forearm_twist5" 7
13 "b_ch_l_forearm_twist6" 7
14 "b_ch_l_forearm_twist7" 7
15 "b_ch_l_hand" 7
16 "b_ch_l_finger_00" 15
17 "b_ch_l_finger_01" 16
18 "b_ch_l_finger_02" 17
19 "b_ch_l_finger_40" 15
20 "b_ch_l_finger_41" 19
21 "b_ch_l_finger_42" 20
22 "b_ch_l_finger_20" 15
23 "b_ch_l_finger_21" 22
24 "b_ch_l_finger_22" 23
25 "b_ch_l_finger_30" 15
26 "b_ch_l_finger_31" 25
27 "b_ch_l_finger_32" 26
28 "b_ch_l_finger_10" 15
29 "b_ch_l_finger_11" 28
30 "b_ch_l_finger_12" 29
31 "b_ch_r_clavical" 4
32 "b_ch_r_upperarm" 31
33 "b_ch_r_forearm" 32
34 "b_ch_r_forearm_twist1" 33
35 "b_ch_r_forearm_twist2" 33
36 "b_ch_r_forearm_twist3" 33
37 "b_ch_r_forearm_twist4" 33
38 "b_ch_r_forearm_twist5" 33
39 "b_ch_r_forearm_twist6" 33
40 "b_ch_r_forearm_twist7" 33
41 "b_ch_r_hand" 33
42 "b_ch_r_finger_00" 41
43 "b_ch_r_finger_01" 42
44 "b_ch_r_finger_02" 43
45 "b_ch_r_finger_10" 41
46 "b_ch_r_finger_11" 45
47 "b_ch_r_finger_12" 46
48 "b_ch_r_finger_20" 41
49 "b_ch_r_finger_21" 48
50 "b_ch_r_finger_22" 49
51 "b_ch_r_finger_30" 41
52 "b_ch_r_finger_31" 51
53 "b_ch_r_finger_32" 52
54 "b_ch_r_finger_40" 41
55 "b_ch_r_finger_41" 54
56 "b_ch_r_finger_42" 55
57 "ik_hand_root" 1
58 "ik_hand_r" 57
59 "ik_hand_l" 57
60 "b_camera" 1
61 "b_wpn" 1
62 "b_wpn_eject" 61
63 "b_wpn_fireselect" 61
64 "b_wpn_magrelease" 61
65 "b_wpn_muzzle" 61
66 "b_wpn_optic" 61
67 "b_wpn_suppressor" 61
68 "b_wpn_suppressor_muzzle" 67
69 "b_wpn_trigger" 61
70 "ik_hand_wpn_l" 61
71 "ik_hand_wpn_r" 61
72 "b_wpn_laser" 61
73 "b_wpn_laser_beam" 72
74 "b_wpn_flash" 61
75 "b_wpn_flash_beam" 74
76 "b_wpn_bipod" 61
77 "b_wpn_bipod_base" 76
78 "b_wpn_bipod_base_r" 77
79 "b_wpn_bipod_base_l" 77
80 "b_wpn_mag" 61
81 "b_wpn_mag_b1" 80
82 "b_wpn_mag_b2" 80
83 "b_wpn_mag_follow" 80
84 "b_wpn_mag_b3" 80
85 "b_wpn_mag_b4" 80
86 "b_wpn_mag_b5" 80
87 "b_wpn_mag_b6" 80
88 "b_wpn_mag_b7" 80
89 "b_wpn_mag_b8" 80
90 "b_wpn_mag_b9" 80
91 "b_wpn_mag_b10" 80
92 "b_wpn_mag_b11" 80
93 "b_wpn_mag_b12" 80
94 "b_wpn_mag_b13" 80
95 "b_wpn_mag_b14" 80
96 "b_wpn_mag_b15" 80
97 "b_wpn_mag_b16" 80
98 "b_wpn_mag_b17" 80
99 "b_wpn_mag_b18" 80
100 "b_wpn_mag_b19" 80
101 "b_wpn_mag_b20" 80
102 "b_wpn_mag_b21" 80
103 "b_wpn_mag_b22" 80
104 "b_wpn_mag_b23" 80
105 "b_wpn_mag_b24" 80
106 "b_wpn_mag_b25" 80
107 "b_wpn_mag_b26" 80
108 "b_wpn_mag_b27" 80
109 "b_wpn_mag_b28" 80
110 "b_wpn_mag_b29" 80
111 "b_wpn_bolt" 61
112 "b_wpn_foregrip" 61
113 "b_wpn_gl" 61
114 "b_wpn_gl_trigger" 113
115 "b_wpn_gl_round" 113
116 "b_wpn_gl_casing" 113
117 "b_wpn_gl_muzzle" 113
118 "b_wpn_bayonet" 61
119 "b_wpn_mag_2" 61
120 "b_wpn_chargehandle" 61
121 "b_wpn_spec_1" 61
122 "b_wpn_spec_2" 61
end
skeleton
time 0
0  0 0 0  0 0 0
1  0.000000 0.000000 0.000000  0.000000 -0.000000 0.000000
2  -0.000005 0.000022 -55.347748  0.000000 0.000000 -1.570795
3  -0.012872 0.000000 8.235027  -1.570859 -1.570796 0.000000
4  16.163132 -0.011646 0.005480  -0.439840 0.000341 -0.000076
5  16.163128 -0.000019 3.830556  -0.942182 -0.987478 -2.288169
6  12.326654 1.423320 -7.513749  -0.097473 0.653471 -1.057634
7  26.391911 0.000021 0.000022  0.008723 -0.000000 -1.096830
8  -0.000001 0.000009 -0.000001  -0.262689 0.000001 0.000002
9  3.093512 0.000019 -0.000005  -0.544144 0.000002 0.000004
10  6.187021 0.000019 -0.000008  -0.806835 0.000003 0.000004
11  9.280531 0.000018 -0.000014  -1.069527 0.000002 0.000006
12  12.374044 0.000020 -0.000013  -1.332218 0.000004 0.000005
13  15.467553 0.000025 -0.000018  -1.613673 0.000006 0.000006
14  18.561056 0.000025 -0.000028  -1.782548 0.000007 0.000006
15  21.654560 0.000131 -0.000106  2.832301 -0.058382 0.127451
16  1.410067 0.800529 -2.089133  2.211295 0.410304 0.468504
17  3.954704 -0.000002 -0.000003  -0.209453 0.043461 0.177143
18  3.101565 0.000006 0.000005  -0.062580 -0.249424 -0.194576
19  6.164460 -0.898140 2.574994  -0.417004 -0.191487 1.139905
20  2.805844 -0.000002 -0.000006  0.000003 0.000001 0.706114
21  2.307436 -0.000007 0.000014  -0.000000 0.000001 0.291314
22  7.145088 -0.676337 -1.382436  -0.259059 -0.701461 0.581578
23  3.672204 0.000011 -0.000016  0.000002 0.000003 1.221402
24  2.676515 -0.000005 0.000015  -0.000000 -0.000000 0.467635
25  6.831165 -0.870859 0.599896  -0.453883 -0.366117 1.120551
26  3.657088 0.000000 0.000009  0.000000 0.000003 0.933205
27  2.496790 -0.000008 -0.000005  0.000001 0.000000 0.132622
28  7.183339 -0.532089 -3.267610  -0.014035 -0.710372 0.213323
29  3.511593 -0.000004 -0.000011  0.000002 0.000001 0.806800
30  2.199397 0.000007 0.000002  0.000001 -0.000000 0.682256
31  16.163147 0.000005 -3.830496  1.572460 0.321936 -1.566335
32  18.574484 -12.791302 -2.705167  -0.192076 -0.856099 2.698685
33  26.391933 -0.000033 -0.000026  -0.000001 -0.000002 -0.000002
34  -0.000006 0.000003 0.000002  0.265073 -0.000000 -0.000000
35  3.093505 0.000005 0.000005  0.549078 -0.000005 -0.000001
36  6.187011 0.000008 0.000007  0.814152 -0.000004 -0.000002
37  9.280521 0.000008 0.000012  1.079223 -0.000005 -0.000004
38  12.374024 0.000007 0.000013  1.344295 -0.000008 -0.000005
39  15.467531 0.000012 0.000016  1.590434 -0.000006 -0.000007
40  18.561041 0.000012 0.000013  1.798704 -0.000004 -0.000008
41  21.654686 -0.000191 0.000125  -2.684501 0.808357 0.308537
42  1.410069 0.800524 2.089126  -2.664032 -0.210310 0.731685
43  3.954699 0.000020 0.000007  -0.000000 0.000001 0.473340
44  3.101538 0.000001 -0.000003  -0.000001 -0.000003 0.695788
45  7.183358 -0.532104 3.267578  -0.018105 -0.013580 -0.274192
46  3.511592 0.000004 -0.000009  0.000000 -0.000001 0.688360
47  2.199408 0.000011 0.000002  0.000001 -0.000001 0.614369
48  7.145099 -0.676341 1.382409  -0.063482 0.264314 0.489192
49  3.672212 0.000014 -0.000008  -0.000000 -0.000001 1.439416
50  2.676512 0.000016 -0.000002  0.000003 -0.000004 0.929881
51  6.831172 -0.870866 -0.599929  0.019208 0.157866 0.797382
52  3.657080 0.000010 -0.000005  0.000002 -0.000002 1.260971
53  2.496795 -0.000004 -0.000009  0.000002 0.000000 0.828597
54  6.164465 -0.898139 -2.575016  0.039777 0.038365 0.536837
55  2.805828 0.000010 -0.000004  -0.000000 -0.000002 1.022902
56  2.307434 0.000006 -0.000006  0.000004 -0.000003 0.873580
57  0.000000 0.000000 0.000000  0.000000 -0.000000 -0.000000
58  -3.909109 -8.093704 -48.413029  0.102678 0.009438 -1.313721
59  3.673434 -35.709038 -44.668324  1.918819 0.054282 -2.074698
60  0.000000 0.000000 0.000000  0.000000 -0.000000 0.000000
61  -0.000000 -0.000001 0.000000  -0.000002 -0.000000 0.000000
62  -1.423414 0.840569 2.463940  0.070979 -0.251142 -2.936741
63  0.000002 4.267597 -2.659982  0.000001 0.000000 -0.000000
64  0.006625 -2.068269 -5.046101  0.000001 0.000000 -0.000000
65  -0.011944 -41.058357 0.851352  1.570797 0.000000 -1.570797
66  0.017424 -3.441989 3.418781  -0.000001 0.000001 -1.570796
67  -0.016579 -39.238560 0.582043  0.000001 0.000000 0.000000
68  0.003497 -22.270653 0.000185  1.570797 0.000002 -1.570797
69  -0.004438 1.833257 -4.192916  0.000001 0.000000 -0.000000
70  3.673410 -35.708946 -44.668404  1.918819 0.054282 -2.074699
71  -3.909124 -8.093597 -48.413055  0.102678 0.009441 -1.313720
72  0.014070 -23.151661 2.984060  -0.000001 3.141592 1.570796
73  8.352061 2.772896 0.000541  -3.141589 0.000003 -0.000002
74  0.014070 -23.151661 2.984056  3.141592 -0.000000 -1.570796
75  8.352061 2.772896 0.000538  -3.141589 0.000003 -0.000002
76  0.000874 -24.581495 -3.899806  -0.000000 0.000000 -0.000000
77  -0.000000 0.000000 -0.000005  0.000000 0.000000 0.000000
78  -2.630316 -2.716866 -1.696104  -1.289760 0.447831 0.588003
79  2.629956 -2.717388 -1.695316  -1.289760 -0.447831 -0.588003
80  0.020787 -5.829869 -8.803610  0.000003 0.000000 -0.000000
81  -0.361572 0.184692 6.808872  -0.000001 -0.000000 0.000000
82  0.319987 0.169418 6.340207  -0.000000 -0.000000 0.000000
83  -0.000002 0.000004 6.715871  -0.000000 -0.000001 0.000000
84  -0.361572 0.169418 5.909943  -0.000000 -0.000000 0.000000
85  0.319987 0.133893 5.442022  -0.000000 -0.000000 0.000000
86  -0.361572 0.133892 5.011759  -0.000000 -0.000000 0.000000
87  0.319987 0.081033 4.553842  -0.000000 -0.000000 0.000000
88  -0.361572 0.081032 4.123580  -0.000000 -0.000000 0.000000
89  0.319987 0.011232 3.671650  -0.000000 -0.000000 0.000000
90  -0.361572 0.011232 3.241387  -0.000000 -0.000000 0.000000
91  0.319987 -0.075229 2.801106  -0.000000 -0.000000 0.000000
92  -0.361572 -0.075229 2.370842  -0.000000 -0.000000 0.000000
93  0.319987 -0.176880 1.910491  -0.000000 -0.000000 0.000000
94  -0.361572 -0.176880 1.480227  -0.000000 -0.000000 0.000000
95  0.319987 -0.297869 1.040115  -0.000000 -0.000000 0.000000
96  -0.361572 -0.297869 0.609850  -0.000000 -0.000000 0.000000
97  0.319987 -0.431575 0.173174  -0.000000 -0.000000 0.000000
98  -0.361572 -0.431576 -0.257090  -0.000000 -0.000000 0.000000
99  0.319987 -0.581092 -0.676165  -0.000000 -0.000000 0.000000
100  -0.361572 -0.581094 -1.106429  -0.000000 -0.000000 0.000000
101  0.319987 -0.744358 -1.523146  -0.000000 -0.000000 0.000000
102  -0.361572 -0.744359 -1.953411  -0.000000 -0.000000 0.000000
103  0.319987 -0.927452 -2.373697  -0.000000 -0.000000 0.000000
104  -0.361572 -0.927452 -2.803959  -0.000000 -0.000000 0.000000
105  0.319987 -1.125115 -3.211363  -0.000000 -0.000000 0.000000
106  -0.361572 -1.125115 -3.641625  -0.000000 -0.000000 0.000000
107  0.319987 -1.337540 -4.057123  -0.000000 -0.000000 0.000000
108  -0.361572 -1.337541 -4.487387  -0.000000 -0.000000 0.000000
109  0.319987 -1.565090 -4.901084  -0.000000 -0.000000 0.000000
110  -0.361572 -1.565091 -5.331349  -0.000000 -0.000000 0.000000
111  0.000001 -8.571775 1.140268  -0.000001 -0.000001 1.306533
112  0.013646 -12.479187 -0.492760  -0.000000 0.000000 0.000000
113  0.013646 -12.479191 -0.492751  1.570796 0.000001 -1.570796
114  1.137635 -2.923955 0.003061  0.000000 0.000000 0.000001
115  15.442324 -3.429656 0.003061  -1.570798 1.570796 0.000000
116  10.376177 -3.978421 0.003053  -1.570797 1.570796 0.000000
117  19.819700 -3.429652 0.003059  0.000000 0.000000 0.000000
118  0.028059 -40.043079 0.755307  -0.000001 0.000000 0.000000
119  11.545938 73.768410 -3.792057  -0.000000 0.000000 0.000000
120  -0.000000 10.861878 0.000000  0.000000 -0.000000 0.000000
121  -1.707580 8.764289 -0.082707  0.000001 0.000000 -0.000000
122  2.259084 -9.906526 0.526929  0.000001 0.000000 0.000000
time 1
0  0 0 0  0 0 0
1  0.000000 0.000000 0.000000  0.000000 -0.000000 0.000000
2  -0.000005 0.000022 -55.347748  0.000000 0.000000 -1.570795
3  -0.012872 0.000000 8.235027  -1.570859 -1.570796 0.000000
4  16.163132 -0.011646 0.005480  -0.439840 0.000341 -0.000076
5  16.163128 -0.000019 3.830556  -0.942182 -0.987478 -2.288169
6  12.326654 1.423320 -7.513749  -0.097473 0.653471 -1.057634
7  26.391911 0.000021 0.000022  0.008723 -0.000000 -1.096830
8  -0.000001 0.000009 -0.000001  -0.262689 0.000001 0.000002
9  3.093512 0.000019 -0.000005  -0.544144 0.000002 0.000004
10  6.187021 0.000019 -0.000008  -0.806835 0.000003 0.000004
11  9.280531 0.000018 -0.000014  -1.069527 0.000002 0.000006
12  12.374044 0.000020 -0.000013  -1.332218 0.000004 0.000005
13  15.467553 0.000025 -0.000018  -1.613673 0.000006 0.000006
14  18.561056 0.000025 -0.000028  -1.782548 0.000007 0.000006
15  21.654560 0.000131 -0.000106  2.832301 -0.058382 0.127451
16  1.410067 0.800529 -2.089133  2.211295 0.410304 0.468504
17  3.954704 -0.000002 -0.000003  -0.209453 0.043461 0.177143
18  3.101565 0.000006 0.000005  -0.062580 -0.249424 -0.194576
19  6.164460 -0.898140 2.574994  -0.417004 -0.191487 1.139905
20  2.805844 -0.000002 -0.000006  0.000003 0.000001 0.706114
21  2.307436 -0.000007 0.000014  -0.000000 0.000001 0.291314
22  7.145088 -0.676337 -1.382436  -0.259059 -0.701461 0.581578
23  3.672204 0.000011 -0.000016  0.000002 0.000003 1.221402
24  2.676515 -0.000005 0.000015  -0.000000 -0.000000 0.467635
25  6.831165 -0.870859 0.599896  -0.453883 -0.366117 1.120551
26  3.657088 0.000000 0.000009  0.000000 0.000003 0.933205
27  2.496790 -0.000008 -0.000005  0.000001 0.000000 0.132622
28  7.183339 -0.532089 -3.267610  -0.014035 -0.710372 0.213323
29  3.511593 -0.000004 -0.000011  0.000002 0.000001 0.806800
30  2.199397 0.000007 0.000002  0.000001 -0.000000 0.682256
31  16.163147 0.000005 -3.830496  1.572460 0.321936 -1.566335
32  18.574484 -12.791302 -2.705167  -0.192076 -0.856099 2.698685
33  26.391933 -0.000033 -0.000026  -0.000001 -0.000002 -0.000002
34  -0.000006 0.000003 0.000002  0.265073 -0.000000 -0.000000
35  3.093505 0.000005 0.000005  0.549078 -0.000005 -0.000001
36  6.187011 0.000008 0.000007  0.814152 -0.000004 -0.000002
37  9.280521 0.000008 0.000012  1.079223 -0.000005 -0.000004
38  12.374024 0.000007 0.000013  1.344295 -0.000008 -0.000005
39  15.467531 0.000012 0.000016  1.590434 -0.000006 -0.000007
40  18.561041 0.000012 0.000013  1.798704 -0.000004 -0.000008
41  21.654686 -0.000191 0.000125  -2.684501 0.808357 0.308537
42  1.410069 0.800524 2.089126  -2.664032 -0.210310 0.731685
43  3.954699 0.000020 0.000007  -0.000000 0.000001 0.473340
44  3.101538 0.000001 -0.000003  -0.000001 -0.000003 0.695788
45  7.183358 -0.532104 3.267578  -0.018105 -0.013580 -0.274192
46  3.511592 0.000004 -0.000009  0.000000 -0.000001 0.688360
47  2.199408 0.000011 0.000002  0.000001 -0.000001 0.614369
48  7.145099 -0.676341 1.382409  -0.063482 0.264314 0.489192
49  3.672212 0.000014 -0.000008  -0.000000 -0.000001 1.439416
50  2.676512 0.000016 -0.000002  0.000003 -0.000004 0.929881
51  6.831172 -0.870866 -0.599929  0.019208 0.157866 0.797382
52  3.657080 0.000010 -0.000005  0.000002 -0.000002 1.260971
53  2.496795 -0.000004 -0.000009  0.000002 0.000000 0.828597
54  6.164465 -0.898139 -2.575016  0.039777 0.038365 0.536837
55  2.805828 0.000010 -0.000004  -0.000000 -0.000002 1.022902
56  2.307434 0.000006 -0.000006  0.000004 -0.000003 0.873580
57  0.000000 0.000000 0.000000  0.000000 -0.000000 -0.000000
58  -3.909109 -8.093704 -48.413029  0.102678 0.009438 -1.313721
59  3.673434 -35.709038 -44.668324  1.918819 0.054282 -2.074698
60  0.000000 0.000000 0.000000  0.000000 -0.000000 0.000000
61  -0.000000 -0.000001 0.000000  -0.000002 -0.000000 0.000000
62  -1.423414 0.840569 2.463940  0.070979 -0.251142 -2.936741
63  0.000002 4.267597 -2.659982  0.000001 0.000000 -0.000000
64  0.006625 -2.068269 -5.046101  0.000001 0.000000 -0.000000
65  -0.011944 -41.058357 0.851352  1.570797 0.000000 -1.570797
66  0.017424 -3.441989 3.418781  -0.000001 0.000001 -1.570796
67  -0.016579 -39.238560 0.582043  0.000001 0.000000 0.000000
68  0.003497 -22.270653 0.000185  1.570797 0.000002 -1.570797
69  -0.004438 1.833257 -4.192916  0.000001 0.000000 -0.000000
70  3.673410 -35.708946 -44.668404  1.918819 0.054282 -2.074699
71  -3.909124 -8.093597 -48.413055  0.102678 0.009441 -1.313720
72  0.014070 -23.151661 2.984060  -0.000001 3.141592 1.570796
73  8.352061 2.772896 0.000541  -3.141589 0.000003 -0.000002
74  0.014070 -23.151661 2.984056  3.141592 -0.000000 -1.570796
75  8.352061 2.772896 0.000538  -3.141589 0.000003 -0.000002
76  0.000874 -24.581495 -3.899806  -0.000000 0.000000 -0.000000
77  -0.000000 0.000000 -0.000005  0.000000 0.000000 0.000000
78  -2.630316 -2.716866 -1.696104  -1.289760 0.447831 0.588003
79  2.629956 -2.717388 -1.695316  -1.289760 -0.447831 -0.588003
80  0.020787 -5.829869 -8.803610  0.000003 0.000000 -0.000000
81  -0.361572 0.184692 6.808872  -0.000001 -0.000000 0.000000
82  0.319987 0.169418 6.340207  -0.000000 -0.000000 0.000000
83  -0.000002 0.000004 6.715871  -0.000000 -0.000001 0.000000
84  -0.361572 0.169418 5.909943  -0.000000 -0.000000 0.000000
85  0.319987 0.133893 5.442022  -0.000000 -0.000000 0.000000
86  -0.361572 0.133892 5.011759  -0.000000 -0.000000 0.000000
87  0.319987 0.081033 4.553842  -0.000000 -0.000000 0.000000
88  -0.361572 0.081032 4.123580  -0.000000 -0.000000 0.000000
89  0.319987 0.011232 3.671650  -0.000000 -0.000000 0.000000
90  -0.361572 0.011232 3.241387  -0.000000 -0.000000 0.000000
91  0.319987 -0.075229 2.801106  -0.000000 -0.000000 0.000000
92  -0.361572 -0.075229 2.370842  -0.000000 -0.000000 0.000000
93  0.319987 -0.176880 1.910491  -0.000000 -0.000000 0.000000
94  -0.361572 -0.176880 1.480227  -0.000000 -0.000000 0.000000
95  0.319987 -0.297869 1.040115  -0.000000 -0.000000 0.000000
96  -0.361572 -0.297869 0.609850  -0.000000 -0.000000 0.000000
97  0.319987 -0.431575 0.173174  -0.000000 -0.000000 0.000000
98  -0.361572 -0.431576 -0.257090  -0.000000 -0.000000 0.000000
99  0.319987 -0.581092 -0.676165  -0.000000 -0.000000 0.000000
100  -0.361572 -0.581094 -1.106429  -0.000000 -0.000000 0.000000
101  0.319987 -0.744358 -1.523146  -0.000000 -0.000000 0.000000
102  -0.361572 -0.744359 -1.953411  -0.000000 -0.000000 0.000000
103  0.319987 -0.927452 -2.373697  -0.000000 -0.000000 0.000000
104  -0.361572 -0.927452 -2.803959  -0.000000 -0.000000 0.000000
105  0.319987 -1.125115 -3.211363  -0.000000 -0.000000 0.000000
106  -0.361572 -1.125115 -3.641625  -0.000000 -0.000000 0.000000
107  0.319987 -1.337540 -4.057123  -0.000000 -0.000000 0.000000
108  -0.361572 -1.337541 -4.487387  -0.000000 -0.000000 0.000000
109  0.319987 -1.565090 -4.901084  -0.000000 -0.000000 0.000000
110  -0.361572 -1.565091 -5.331349  -0.000000 -0.000000 0.000000
111  0.000001 -8.571775 1.140268  -0.000001 -0.000001 1.306533
112  0.013646 -12.479187 -0.492760  -0.000000 0.000000 0.000000
113  0.013646 -12.479191 -0.492751  1.570796 0.000001 -1.570796
114  1.137635 -2.923955 0.003061  0.000000 0.000000 0.000001
115  15.442324 -3.429656 0.003061  -1.570798 1.570796 0.000000
116  10.376177 -3.978421 0.003053  -1.570797 1.570796 0.000000
117  19.819700 -3.429652 0.003059  0.000000 0.000000 0.000000
118  0.028059 -40.043079 0.755307  -0.000001 0.000000 0.000000
119  11.545938 73.768410 -3.792057  -0.000000 0.000000 0.000000
120  -0.000000 10.861878 0.000000  0.000000 -0.000000 0.000000
121  -1.707580 8.764289 -0.082707  0.000001 0.000000 -0.000000
122  2.259084 -9.906526 0.526929  0.000001 0.000000 0.000000
end
