version 1
nodes
0 "blender_implicit" -1
1 "b_root" -1
2 "b_ch_middle" 1
3 "b_ch_spine1" 2
4 "b_ch_spine2" 3
5 "b_ch_l_clavical" 4
6 "b_ch_l_upperarm" 5
7 "b_ch_l_forearm" 6
8 "b_ch_l_forearm_twist1" 7
9 "b_ch_l_forearm_twist2" 7
10 "b_ch_l_forearm_twist3" 7
11 "b_ch_l_forearm_twist4" 7
12 "b_ch_l_forearm_twist5" 7
13 "b_ch_l_forearm_twist6" 7
14 "b_ch_l_forearm_twist7" 7
15 "b_ch_l_hand" 7
16 "b_ch_l_finger_00" 15
17 "b_ch_l_finger_01" 16
18 "b_ch_l_finger_02" 17
19 "b_ch_l_finger_40" 15
20 "b_ch_l_finger_41" 19
21 "b_ch_l_finger_42" 20
22 "b_ch_l_finger_20" 15
23 "b_ch_l_finger_21" 22
24 "b_ch_l_finger_22" 23
25 "b_ch_l_finger_30" 15
26 "b_ch_l_finger_31" 25
27 "b_ch_l_finger_32" 26
28 "b_ch_l_finger_10" 15
29 "b_ch_l_finger_11" 28
30 "b_ch_l_finger_12" 29
31 "b_ch_r_clavical" 4
32 "b_ch_r_upperarm" 31
33 "b_ch_r_forearm" 32
34 "b_ch_r_forearm_twist1" 33
35 "b_ch_r_forearm_twist2" 33
36 "b_ch_r_forearm_twist3" 33
37 "b_ch_r_forearm_twist4" 33
38 "b_ch_r_forearm_twist5" 33
39 "b_ch_r_forearm_twist6" 33
40 "b_ch_r_forearm_twist7" 33
41 "b_ch_r_hand" 33
42 "b_ch_r_finger_00" 41
43 "b_ch_r_finger_01" 42
44 "b_ch_r_finger_02" 43
45 "b_ch_r_finger_10" 41
46 "b_ch_r_finger_11" 45
47 "b_ch_r_finger_12" 46
48 "b_ch_r_finger_20" 41
49 "b_ch_r_finger_21" 48
50 "b_ch_r_finger_22" 49
51 "b_ch_r_finger_30" 41
52 "b_ch_r_finger_31" 51
53 "b_ch_r_finger_32" 52
54 "b_ch_r_finger_40" 41
55 "b_ch_r_finger_41" 54
56 "b_ch_r_finger_42" 55
57 "ik_hand_root" 1
58 "ik_hand_r" 57
59 "ik_hand_l" 57
60 "b_camera" 1
61 "Camera" 60
62 "b_wpn" 1
63 "b_wpn_eject" 62
64 "b_wpn_fireselect" 62
65 "b_wpn_magrelease" 62
66 "b_wpn_muzzle" 62
67 "b_wpn_optic" 62
68 "b_wpn_suppressor" 62
69 "b_wpn_suppressor_muzzle" 68
70 "b_wpn_trigger" 62
71 "ik_hand_wpn_l" 62
72 "ik_hand_wpn_r" 62
73 "b_wpn_laser" 62
74 "b_wpn_laser_beam" 73
75 "b_wpn_flash" 62
76 "b_wpn_flash_beam" 75
77 "b_wpn_bipod" 62
78 "b_wpn_bipod_base" 77
79 "b_wpn_bipod_base_r" 78
80 "b_wpn_bipod_base_l" 78
81 "Rag" 78
82 "b_wpn_mag" 62
83 "b_wpn_mag_b1" 82
84 "b_wpn_mag_b2" 82
85 "b_wpn_mag_follow" 82
86 "b_wpn_mag_b3" 82
87 "b_wpn_mag_b4" 82
88 "b_wpn_mag_b5" 82
89 "b_wpn_mag_b6" 82
90 "b_wpn_mag_b7" 82
91 "b_wpn_mag_b8" 82
92 "b_wpn_mag_b9" 82
93 "b_wpn_mag_b10" 82
94 "b_wpn_mag_b11" 82
95 "b_wpn_mag_b12" 82
96 "b_wpn_mag_b13" 82
97 "b_wpn_mag_b14" 82
98 "b_wpn_mag_b15" 82
99 "b_wpn_mag_b16" 82
100 "b_wpn_mag_b17" 82
101 "b_wpn_mag_b18" 82
102 "b_wpn_mag_b19" 82
103 "b_wpn_mag_b20" 82
104 "b_wpn_mag_b21" 82
105 "b_wpn_mag_b22" 82
106 "b_wpn_mag_b23" 82
107 "b_wpn_mag_b24" 82
108 "b_wpn_mag_b25" 82
109 "b_wpn_mag_b26" 82
110 "b_wpn_mag_b27" 82
111 "b_wpn_mag_b28" 82
112 "b_wpn_mag_b29" 82
113 "Lighter" 82
114 "MagExtended" 82
115 "MagStandard" 82
116 "b_wpn_bolt" 62
117 "b_wpn_foregrip" 62
118 "b_wpn_gl" 62
119 "b_wpn_gl_trigger" 118
120 "b_wpn_gl_round" 118
121 "b_wpn_gl_casing" 118
122 "b_wpn_gl_muzzle" 118
123 "b_wpn_bayonet" 62
124 "b_wpn_mag_2" 62
125 "MagStandard2" 124
126 "MagExtended2" 124
127 "b_wpn_chargehandle" 62
128 "b_wpn_spec_1" 62
129 "b_wpn_spec_2" 62
130 "Eject" 62
131 "Muzzle" 62
132 "A_AC_Rail_T" 62
133 "A_B_Suppressor" 62
134 "A_S_APCompM2" 62
135 "A_S_OKP" 62
136 "A_S_Kobra" 62
137 "A_S_Eotech" 62
138 "A_S_2xAPCompM2" 62
139 "A_S_C79" 62
140 "A_S_2xEotech" 62
141 "A_AC_Rail_B" 62
142 "A_FG_Main" 62
143 "A_AC_Rail_L" 62
144 "A_LS_Generic" 62
145 "A_AC_Rail_R" 62
146 "A_FL_Generic" 62
147 "Muzzle.001" 62
148 "Eject.001" 62
149 "A_AC_Rail_R.001" 62
150 "A_AC_Rail_L.001" 62
151 "A_S_Iron" 62
152 "A_AC_Rail_B.001" 62
153 "A_AC_Rail_T.001" 62
154 "A_S_APCompM2.001" 62
155 "A_FG_Main.001" 62
156 "A_B_Suppressor.001" 62
157 "A_FL_Generic.001" 62
158 "A_LS_Generic.001" 62
159 "A_S_C79.001" 62
160 "A_S_2xAPCompM2.001" 62
161 "A_S_Eotech.001" 62
162 "A_S_Kobra.001" 62
163 "A_S_PO" 62
164 "A_S_2xEotech.001" 62
165 "A_S_Scope" 62
166 "A_MK_Main" 62
167 "A_S_OKP.001" 62
168 "A_S_PKAS" 62
169 "KitSelect" 62
170 "LauncherSmoke" 62
171 "Link" 62
172 "A_S_PU" 62
173 "SightAlignment" 62
174 "A_S_FG_AFG" 62
175 "Root" 1
176 "Menu" 1
end
skeleton
time 0
0  0 0 0  0 0 0
1  0.000000 0.000000 0.000000  0.000000 -0.000000 0.000000
2  0.000000 -0.000000 -55.347755  0.000000 0.000000 -1.570730
3  -0.012873 0.000001 8.235027  -0.784778 -1.570710 -0.786431
4  16.163130 -0.011636 0.005478  -0.439829 0.000002 -0.000000
5  16.163136 -0.000004 3.830549  -0.942248 -0.987324 -2.287912
6  12.326651 1.423317 -7.513761  -0.659743 0.069865 -1.728493
7  26.391922 -0.000000 0.000014  0.008682 -0.000003 -0.964339
8  0.000002 -0.000003 -0.000000  -0.258293 0.000000 0.000000
9  3.093518 -0.000002 -0.000003  -0.535062 0.000000 -0.000000
10  6.187030 -0.000003 -0.000003  -0.793373 0.000001 -0.000000
11  9.280543 -0.000007 -0.000003  -1.051676 0.000001 -0.000000
12  12.374053 -0.000007 -0.000004  -1.309975 0.000000 -0.000000
13  15.467570 -0.000008 -0.000002  -1.586676 0.000001 -0.000000
14  18.561077 -0.000010 -0.000004  -1.752755 -0.000000 0.000000
15  21.654528 -0.000014 -0.000003  3.042046 0.383339 0.849410
16  1.410062 0.800539 -2.089136  2.421628 0.499566 0.565693
17  3.954709 -0.000001 0.000000  -0.030474 -0.211478 0.313250
18  3.101568 0.000000 0.000000  -0.086351 -0.027390 -0.242474
19  6.164466 -0.898147 2.574999  -0.437350 -0.135164 1.265078
20  2.805841 0.000000 0.000002  0.000000 0.000000 0.706064
21  2.307438 -0.000003 0.000000  -0.000000 0.000001 0.291259
22  7.145092 -0.676329 -1.382441  -0.336641 -0.672382 0.703848
23  3.672211 0.000003 -0.000007  0.000001 0.000001 1.221330
24  2.676520 -0.000001 -0.000002  0.000000 -0.000000 0.467580
25  6.831165 -0.870858 0.599898  -0.491396 -0.311618 1.233332
26  3.657090 -0.000002 0.000003  -0.000000 0.000001 0.933179
27  2.496795 -0.000001 0.000000  -0.000000 -0.000000 0.132608
28  7.183334 -0.532074 -3.267617  -0.157511 -0.679210 0.420354
29  3.511598 0.000002 -0.000003  0.000000 -0.000000 0.806760
30  2.199401 0.000002 -0.000001  -0.000000 0.000000 0.765462
31  16.163147 -0.000002 -3.830505  1.572433 0.321932 -1.566305
32  18.574528 -12.791351 -2.705146  0.658021 -0.641882 -2.819558
33  26.392042 0.000010 0.000005  -0.000000 0.000000 -1.685338
34  0.000005 0.000000 -0.000004  0.111756 -0.000001 0.000001
35  3.093515 0.000004 -0.000001  0.231541 -0.000001 0.000001
36  6.187026 0.000008 -0.000000  0.343369 -0.000000 0.000001
37  9.280540 0.000010 0.000005  0.455165 -0.000001 0.000001
38  12.374044 0.000013 0.000006  0.566967 -0.000001 0.000001
39  15.467557 0.000018 0.000006  0.670790 -0.000000 0.000001
40  18.561073 0.000021 0.000008  0.758623 -0.000000 0.000001
41  21.654413 0.000023 0.000011  2.357413 -0.032745 0.780847
42  1.410070 0.800528 2.089144  -2.663979 -0.210302 0.731682
43  3.954702 -0.000001 -0.000003  0.000000 0.000001 0.473291
44  3.101538 0.000000 0.000000  -0.000000 -0.000001 0.695731
45  7.183362 -0.532101 3.267601  -0.018098 -0.013525 -0.274139
46  3.511595 0.000000 -0.000001  0.000000 -0.000000 0.688334
47  2.199411 -0.000001 0.000002  -0.000000 -0.000000 0.614307
48  7.145103 -0.676342 1.382419  -0.063482 0.264277 0.489142
49  3.672215 0.000000 -0.000003  0.000000 0.000000 1.439345
50  2.676512 -0.000001 0.000000  -0.000000 0.000000 0.929832
51  6.831175 -0.870870 -0.599926  0.019238 0.157803 0.797349
52  3.657082 0.000003 0.000002  0.000001 -0.000000 1.260944
53  2.496794 -0.000002 0.000000  -0.000000 0.000001 0.828578
54  6.164468 -0.898146 -2.575021  0.039734 0.038335 0.536793
55  2.805828 -0.000003 0.000001  0.000001 0.000000 1.022861
56  2.307434 -0.000000 0.000000  0.000000 0.000000 0.873545
57  0.000000 0.000000 0.000000  0.000000 -0.000000 0.000000
58  -10.092804 -10.095335 -15.915676  0.101820 0.009670 -1.313886
59  -2.744394 -37.025921 -11.335876  2.022516 0.108621 -2.100946
60  0.000000 0.000000 0.000000  0.000000 -0.000000 -0.000000
61  -0.000000 0.000000 0.000000  0.000000 3.141593 1.570796
62  -6.411819 -23.234236 -7.417365  0.000000 -0.000000 0.000000
63  -1.423414 0.840569 2.463941  0.070898 -0.251099 -2.936438
64  -0.000000 4.267597 -2.659982  0.000000 0.000000 -0.000000
65  0.006625 -2.068270 -5.046101  -0.000000 0.000000 -0.000000
66  -0.011944 -41.058357 0.851352  1.570735 -0.000060 -1.570735
67  0.017425 -3.441990 3.418782  0.000000 0.000000 -1.570730
68  -0.016579 -39.238556 0.582044  -0.000000 0.000000 0.000000
69  0.003497 -22.270653 -0.000000  1.570735 -0.000060 -1.570735
70  -0.004438 1.833258 -4.192916  -0.000000 0.000000 0.000000
71  3.673428 -13.790918 -3.915414  2.023286 0.109078 -2.100699
72  -3.676264 13.138216 -8.501435  0.102618 0.009427 -1.313694
73  0.014071 -23.151659 2.984060  3.141592 0.000001 -1.570796
74  8.352064 2.772897 0.000540  -3.141591 -0.000000 -0.000001
75  0.014071 -23.151659 2.984055  3.141593 0.000000 -1.570796
76  8.352064 2.772897 0.000540  -3.141591 0.000000 -0.000001
77  0.000874 -24.581499 -3.899806  -0.000000 0.000000 -0.000000
78  0.000000 -0.000000 0.000000  0.000000 -0.000000 0.000000
79  -2.630317 -2.716866 -1.696103  -1.289716 0.447781 0.587963
80  2.629957 -2.717388 -1.695315  -1.289716 -0.447781 -0.587963
81  0.000000 -0.000000 0.000000  0.000000 0.000000 0.000000
82  0.020787 -5.829868 -8.803609  -0.000000 0.000000 -0.000000
83  -0.361571 0.184688 6.808873  0.000000 -0.000000 -0.000000
84  0.319987 0.169414 6.340208  0.000000 0.000000 -0.000000
85  0.000000 -0.000003 6.715872  0.000000 0.000000 0.000000
86  -0.361571 0.169416 5.909944  0.000000 0.000000 -0.000000
87  0.319988 0.133889 5.442024  0.000000 0.000000 -0.000000
88  -0.361571 0.133891 5.011760  0.000000 0.000000 -0.000000
89  0.319988 0.081029 4.553843  0.000000 0.000000 -0.000000
90  -0.361571 0.081029 4.123580  0.000000 0.000000 -0.000000
91  0.319988 0.011232 3.671652  0.000000 0.000000 -0.000000
92  -0.361571 0.011230 3.241387  0.000000 0.000000 -0.000000
93  0.319987 -0.075228 2.801107  0.000000 0.000000 -0.000000
94  -0.361572 -0.075230 2.370843  0.000000 0.000000 -0.000000
95  0.319987 -0.176880 1.910492  0.000000 0.000000 -0.000000
96  -0.361572 -0.176882 1.480228  0.000000 0.000000 -0.000000
97  0.319988 -0.297869 1.040116  0.000000 0.000000 -0.000000
98  -0.361572 -0.297867 0.609850  0.000000 0.000000 -0.000000
99  0.319988 -0.431576 0.173173  0.000000 0.000000 -0.000000
100  -0.361571 -0.431576 -0.257091  0.000000 0.000000 -0.000000
101  0.319987 -0.581093 -0.676162  0.000000 0.000000 -0.000000
102  -0.361572 -0.581091 -1.106428  0.000000 0.000000 -0.000000
103  0.319987 -0.744358 -1.523145  0.000000 0.000000 -0.000000
104  -0.361572 -0.744358 -1.953411  0.000000 0.000000 -0.000000
105  0.319987 -0.927450 -2.373697  0.000000 0.000000 -0.000000
106  -0.361571 -0.927448 -2.803958  0.000000 0.000000 -0.000000
107  0.319988 -1.125114 -3.211364  0.000000 0.000000 -0.000000
108  -0.361571 -1.125112 -3.641626  0.000000 0.000000 -0.000000
109  0.319987 -1.337536 -4.057125  0.000000 0.000000 -0.000000
110  -0.361572 -1.337537 -4.487386  0.000000 0.000000 -0.000000
111  0.319987 -1.565088 -4.901083  0.000000 0.000000 -0.000000
112  -0.361572 -1.565088 -5.331350  0.000000 0.000000 -0.000000
113  0.000000 -0.000000 0.000001  0.000000 -0.000000 0.000000
114  0.000000 -0.000000 0.000001  0.000000 -0.000000 0.000000
115  0.000000 -0.000000 0.000001  0.000000 -0.000000 0.000000
116  -0.000000 -8.571775 1.140268  -0.000000 0.000000 1.306514
117  0.013645 -12.479189 -0.492760  0.000000 0.000000 0.000000
118  0.013645 -12.479189 -0.492751  1.570735 -0.000061 -1.570735
119  1.137633 -2.923957 0.003060  -0.000000 0.000000 -0.000000
120  15.442325 -3.429668 0.003061  -0.785987 1.570710 0.785191
121  10.376178 -3.978429 0.003053  -0.785988 1.570710 0.784274
122  19.819700 -3.429667 0.003058  -0.000000 0.000000 -0.000000
123  0.028059 -40.043076 0.755307  -0.000000 0.000000 -0.000000
124  11.545938 73.768425 -3.792057  -0.000000 -0.000000 0.000000
125  -0.000000 -0.000000 -0.000000  0.000000 0.000000 -0.000000
126  -0.000000 -0.000000 -0.000000  0.000000 0.000000 -0.000000
127  -0.548690 -9.448412 1.300524  -0.000000 0.000000 0.000000
128  -1.707580 8.764291 -0.082707  0.000000 0.000000 0.000000
129  2.259084 -9.906527 0.526930  -0.000000 0.000000 0.000000
130  -0.518263 -3.070307 0.292418  -0.000000 -0.349070 3.054310
131  0.000022 -13.033236 -0.318351  0.000000 -0.000000 -1.570799
132  0.000069 -0.043226 0.921783  0.000000 0.000000 0.000000
133  0.000081 -11.566893 -0.324370  -0.000000 -0.000000 -1.570780
134  -0.000013 0.726725 1.123049  -0.000000 0.000000 -1.570788
135  -0.000013 0.801544 1.146486  0.000000 0.000000 -1.570765
136  -0.000001 0.616360 1.146486  -0.000000 0.000000 -1.570796
137  -0.000000 0.257853 1.146486  0.000000 0.000000 -1.570796
138  -0.000037 0.730188 1.146486  0.000000 0.000000 -1.570796
139  -0.000025 0.146780 1.146486  -0.000000 0.000000 -1.570783
140  -0.042000 1.350000 1.146486  0.000000 0.000000 -1.570796
141  0.000016 -7.377871 -1.535721  0.000000 0.000000 -1.570783
142  0.000002 -7.853422 -1.607728  0.000000 0.000000 -1.570789
143  -0.484979 -5.998167 0.406854  0.000000 -1.308995 -0.000047
144  -0.750639 -5.807665 0.481152  -1.832625 0.000001 -1.570771
145  -0.000000 -0.000015 -0.308638  -0.000000 0.000000 -0.000000
146  -0.731387 -5.783985 0.474800  -1.832622 -0.000001 -1.570787
147  -0.000000 0.000000 0.000000  0.000000 0.000000 0.000000
148  -0.000000 0.000000 0.000000  0.000000 0.000000 0.000000
149  -0.966726 -2.645744 2.292701  -0.000000 0.000000 -0.000000
150  -0.000000 0.000000 0.000000  0.000000 0.000000 0.000000
151  -0.000000 0.000000 0.000000  0.000000 0.000000 0.000000
152  -0.000000 0.000000 0.000000  0.000000 0.000000 0.000000
153  -0.000000 0.000000 0.000000  0.000000 0.000000 0.000000
154  -0.000000 0.000000 0.000000  0.000000 0.000000 0.000000
155  -0.000000 0.000000 0.000000  0.000000 0.000000 0.000000
156  -0.000000 0.000000 0.000000  0.000000 0.000000 0.000000
157  -0.000000 0.000000 0.000000  0.000000 0.000000 0.000000
158  -0.000000 0.000000 0.000000  0.000000 0.000000 0.000000
159  -0.000000 0.000000 0.000000  0.000000 0.000000 0.000000
160  -0.000000 -2.289436 2.922000  -0.000000 0.000000 -1.570796
161  -0.000000 -2.737309 2.922000  -0.000000 0.000000 -1.570796
162  -0.000000 -2.737309 2.922000  -0.000000 0.000000 -1.570796
163  -0.045000 4.872000 3.222000  -0.000000 0.000000 -1.570796
164  -0.042000 5.676798 3.248000  -0.000000 0.000000 -1.570796
165  -0.000000 0.000000 0.000000  0.000000 0.000000 0.000000
166  -0.000000 0.000000 0.000000  0.000000 0.000000 0.000000
167  -0.000000 0.000000 0.000000  0.000000 0.000000 0.000000
168  -0.000000 0.000000 0.000000  0.000000 0.000000 0.000000
169  -0.000000 0.000000 0.000000  0.000000 0.000000 0.000000
170  -2.385109 -16.230593 -6.154008  0.000000 0.000000 0.000000
171  -0.000000 0.000000 0.000000  0.000000 0.000000 0.000000
172  -0.000000 0.000000 0.000000  0.000000 0.000000 0.000000
173  -0.000000 0.000000 0.000000  0.000000 0.000000 0.000000
174  -0.000012 -3.473581 1.549959  0.000000 0.000000 -3.141593
175  0.000000 0.000000 0.000000  0.000000 3.141593 1.570796
176  0.000000 0.000000 0.000000  0.000000 -0.000000 0.000000
time 1
0  0 0 0  0 0 0
1  0.000000 0.000000 0.000000  0.000000 -0.000000 0.000000
2  0.000000 -0.000000 -55.347755  0.000000 0.000000 -1.570730
3  -0.012873 0.000001 8.235027  -0.784778 -1.570710 -0.786431
4  16.163130 -0.011636 0.005478  -0.439829 0.000002 -0.000000
5  16.163136 -0.000004 3.830549  -0.942248 -0.987324 -2.287912
6  12.326651 1.423317 -7.513761  -0.659743 0.069865 -1.728493
7  26.391922 -0.000000 0.000014  0.008682 -0.000003 -0.964339
8  0.000002 -0.000003 -0.000000  -0.258293 0.000000 0.000000
9  3.093518 -0.000002 -0.000003  -0.535062 0.000000 -0.000000
10  6.187030 -0.000003 -0.000003  -0.793373 0.000001 -0.000000
11  9.280543 -0.000007 -0.000003  -1.051676 0.000001 -0.000000
12  12.374053 -0.000007 -0.000004  -1.309975 0.000000 -0.000000
13  15.467570 -0.000008 -0.000002  -1.586676 0.000001 -0.000000
14  18.561077 -0.000010 -0.000004  -1.752755 -0.000000 0.000000
15  21.654528 -0.000014 -0.000003  3.042046 0.383339 0.849410
16  1.410062 0.800539 -2.089136  2.421628 0.499566 0.565693
17  3.954709 -0.000001 0.000000  -0.030474 -0.211478 0.313250
18  3.101568 0.000000 0.000000  -0.086351 -0.027390 -0.242474
19  6.164466 -0.898147 2.574999  -0.437350 -0.135164 1.265078
20  2.805841 0.000000 0.000002  0.000000 0.000000 0.706064
21  2.307438 -0.000003 0.000000  -0.000000 0.000001 0.291259
22  7.145092 -0.676329 -1.382441  -0.336641 -0.672382 0.703848
23  3.672211 0.000003 -0.000007  0.000001 0.000001 1.221330
24  2.676520 -0.000001 -0.000002  0.000000 -0.000000 0.467580
25  6.831165 -0.870858 0.599898  -0.491396 -0.311618 1.233332
26  3.657090 -0.000002 0.000003  -0.000000 0.000001 0.933179
27  2.496795 -0.000001 0.000000  -0.000000 -0.000000 0.132608
28  7.183334 -0.532074 -3.267617  -0.157511 -0.679210 0.420354
29  3.511598 0.000002 -0.000003  0.000000 -0.000000 0.806760
30  2.199401 0.000002 -0.000001  -0.000000 0.000000 0.765462
31  16.163147 -0.000002 -3.830505  1.572433 0.321932 -1.566305
32  18.574528 -12.791351 -2.705146  0.658021 -0.641882 -2.819558
33  26.392042 0.000010 0.000005  -0.000000 0.000000 -1.685338
34  0.000005 0.000000 -0.000004  0.111756 -0.000001 0.000001
35  3.093515 0.000004 -0.000001  0.231541 -0.000001 0.000001
36  6.187026 0.000008 -0.000000  0.343369 -0.000000 0.000001
37  9.280540 0.000010 0.000005  0.455165 -0.000001 0.000001
38  12.374044 0.000013 0.000006  0.566967 -0.000001 0.000001
39  15.467557 0.000018 0.000006  0.670790 -0.000000 0.000001
40  18.561073 0.000021 0.000008  0.758623 -0.000000 0.000001
41  21.654413 0.000023 0.000011  2.357413 -0.032745 0.780847
42  1.410070 0.800528 2.089144  -2.663979 -0.210302 0.731682
43  3.954702 -0.000001 -0.000003  0.000000 0.000001 0.473291
44  3.101538 0.000000 0.000000  -0.000000 -0.000001 0.695731
45  7.183362 -0.532101 3.267601  -0.018098 -0.013525 -0.274139
46  3.511595 0.000000 -0.000001  0.000000 -0.000000 0.688334
47  2.199411 -0.000001 0.000002  -0.000000 -0.000000 0.614307
48  7.145103 -0.676342 1.382419  -0.063482 0.264277 0.489142
49  3.672215 0.000000 -0.000003  0.000000 0.000000 1.439345
50  2.676512 -0.000001 0.000000  -0.000000 0.000000 0.929832
51  6.831175 -0.870870 -0.599926  0.019238 0.157803 0.797349
52  3.657082 0.000003 0.000002  0.000001 -0.000000 1.260944
53  2.496794 -0.000002 0.000000  -0.000000 0.000001 0.828578
54  6.164468 -0.898146 -2.575021  0.039734 0.038335 0.536793
55  2.805828 -0.000003 0.000001  0.000001 0.000000 1.022861
56  2.307434 -0.000000 0.000000  0.000000 0.000000 0.873545
57  0.000000 0.000000 0.000000  0.000000 -0.000000 0.000000
58  -10.092804 -10.095335 -15.915676  0.101820 0.009670 -1.313886
59  -2.744394 -37.025921 -11.335876  2.022516 0.108621 -2.100946
60  0.000000 0.000000 0.000000  0.000000 -0.000000 -0.000000
61  -0.000000 0.000000 0.000000  0.000000 3.141593 1.570796
62  -6.411819 -23.234236 -7.417365  0.000000 -0.000000 0.000000
63  -1.423414 0.840569 2.463941  0.070898 -0.251099 -2.936438
64  -0.000000 4.267597 -2.659982  0.000000 0.000000 -0.000000
65  0.006625 -2.068270 -5.046101  -0.000000 0.000000 -0.000000
66  -0.011944 -41.058357 0.851352  1.570735 -0.000060 -1.570735
67  0.017425 -3.441990 3.418782  0.000000 0.000000 -1.570730
68  -0.016579 -39.238556 0.582044  -0.000000 0.000000 0.000000
69  0.003497 -22.270653 -0.000000  1.570735 -0.000060 -1.570735
70  -0.004438 1.833258 -4.192916  -0.000000 0.000000 0.000000
71  3.673428 -13.790918 -3.915414  2.023286 0.109078 -2.100699
72  -3.676264 13.138216 -8.501435  0.102618 0.009427 -1.313694
73  0.014071 -23.151659 2.984060  3.141592 0.000001 -1.570796
74  8.352064 2.772897 0.000540  -3.141591 -0.000000 -0.000001
75  0.014071 -23.151659 2.984055  3.141593 0.000000 -1.570796
76  8.352064 2.772897 0.000540  -3.141591 0.000000 -0.000001
77  0.000874 -24.581499 -3.899806  -0.000000 0.000000 -0.000000
78  0.000000 -0.000000 0.000000  0.000000 -0.000000 0.000000
79  -2.630317 -2.716866 -1.696103  -1.289716 0.447781 0.587963
80  2.629957 -2.717388 -1.695315  -1.289716 -0.447781 -0.587963
81  0.000000 -0.000000 0.000000  0.000000 0.000000 0.000000
82  0.020787 -5.829868 -8.803609  -0.000000 0.000000 -0.000000
83  -0.361571 0.184688 6.808873  0.000000 -0.000000 -0.000000
84  0.319987 0.169414 6.340208  0.000000 0.000000 -0.000000
85  0.000000 -0.000003 6.715872  0.000000 0.000000 0.000000
86  -0.361571 0.169416 5.909944  0.000000 0.000000 -0.000000
87  0.319988 0.133889 5.442024  0.000000 0.000000 -0.000000
88  -0.361571 0.133891 5.011760  0.000000 0.000000 -0.000000
89  0.319988 0.081029 4.553843  0.000000 0.000000 -0.000000
90  -0.361571 0.081029 4.123580  0.000000 0.000000 -0.000000
91  0.319988 0.011232 3.671652  0.000000 0.000000 -0.000000
92  -0.361571 0.011230 3.241387  0.000000 0.000000 -0.000000
93  0.319987 -0.075228 2.801107  0.000000 0.000000 -0.000000
94  -0.361572 -0.075230 2.370843  0.000000 0.000000 -0.000000
95  0.319987 -0.176880 1.910492  0.000000 0.000000 -0.000000
96  -0.361572 -0.176882 1.480228  0.000000 0.000000 -0.000000
97  0.319988 -0.297869 1.040116  0.000000 0.000000 -0.000000
98  -0.361572 -0.297867 0.609850  0.000000 0.000000 -0.000000
99  0.319988 -0.431576 0.173173  0.000000 0.000000 -0.000000
100  -0.361571 -0.431576 -0.257091  0.000000 0.000000 -0.000000
101  0.319987 -0.581093 -0.676162  0.000000 0.000000 -0.000000
102  -0.361572 -0.581091 -1.106428  0.000000 0.000000 -0.000000
103  0.319987 -0.744358 -1.523145  0.000000 0.000000 -0.000000
104  -0.361572 -0.744358 -1.953411  0.000000 0.000000 -0.000000
105  0.319987 -0.927450 -2.373697  0.000000 0.000000 -0.000000
106  -0.361571 -0.927448 -2.803958  0.000000 0.000000 -0.000000
107  0.319988 -1.125114 -3.211364  0.000000 0.000000 -0.000000
108  -0.361571 -1.125112 -3.641626  0.000000 0.000000 -0.000000
109  0.319987 -1.337536 -4.057125  0.000000 0.000000 -0.000000
110  -0.361572 -1.337537 -4.487386  0.000000 0.000000 -0.000000
111  0.319987 -1.565088 -4.901083  0.000000 0.000000 -0.000000
112  -0.361572 -1.565088 -5.331350  0.000000 0.000000 -0.000000
113  0.000000 -0.000000 0.000001  0.000000 -0.000000 0.000000
114  0.000000 -0.000000 0.000001  0.000000 -0.000000 0.000000
115  0.000000 -0.000000 0.000001  0.000000 -0.000000 0.000000
116  -0.000000 -8.571775 1.140268  -0.000000 0.000000 1.306514
117  0.013645 -12.479189 -0.492760  0.000000 0.000000 0.000000
118  0.013645 -12.479189 -0.492751  1.570735 -0.000061 -1.570735
119  1.137633 -2.923957 0.003060  -0.000000 0.000000 -0.000000
120  15.442325 -3.429668 0.003061  -0.785987 1.570710 0.785191
121  10.376178 -3.978429 0.003053  -0.785988 1.570710 0.784274
122  19.819700 -3.429667 0.003058  -0.000000 0.000000 -0.000000
123  0.028059 -40.043076 0.755307  -0.000000 0.000000 -0.000000
124  11.545938 73.768425 -3.792057  -0.000000 -0.000000 0.000000
125  -0.000000 -0.000000 -0.000000  0.000000 0.000000 -0.000000
126  -0.000000 -0.000000 -0.000000  0.000000 0.000000 -0.000000
127  -0.548690 -9.448412 1.300524  -0.000000 0.000000 0.000000
128  -1.707580 8.764291 -0.082707  0.000000 0.000000 0.000000
129  2.259084 -9.906527 0.526930  -0.000000 0.000000 0.000000
130  -0.518263 -3.070307 0.292418  -0.000000 -0.349070 3.054310
131  0.000022 -13.033236 -0.318351  0.000000 -0.000000 -1.570799
132  0.000069 -0.043226 0.921783  0.000000 0.000000 0.000000
133  0.000081 -11.566893 -0.324370  -0.000000 -0.000000 -1.570780
134  -0.000013 0.726725 1.123049  -0.000000 0.000000 -1.570788
135  -0.000013 0.801544 1.146486  0.000000 0.000000 -1.570765
136  -0.000001 0.616360 1.146486  -0.000000 0.000000 -1.570796
137  -0.000000 0.257853 1.146486  0.000000 0.000000 -1.570796
138  -0.000037 0.730188 1.146486  0.000000 0.000000 -1.570796
139  -0.000025 0.146780 1.146486  -0.000000 0.000000 -1.570783
140  -0.042000 1.350000 1.146486  0.000000 0.000000 -1.570796
141  0.000016 -7.377871 -1.535721  0.000000 0.000000 -1.570783
142  0.000002 -7.853422 -1.607728  0.000000 0.000000 -1.570789
143  -0.484979 -5.998167 0.406854  0.000000 -1.308995 -0.000047
144  -0.750639 -5.807665 0.481152  -1.832625 0.000001 -1.570771
145  -0.000000 -0.000015 -0.308638  -0.000000 0.000000 -0.000000
146  -0.731387 -5.783985 0.474800  -1.832622 -0.000001 -1.570787
147  -0.000000 0.000000 0.000000  0.000000 0.000000 0.000000
148  -0.000000 0.000000 0.000000  0.000000 0.000000 0.000000
149  -0.966726 -2.645744 2.292701  -0.000000 0.000000 -0.000000
150  -0.000000 0.000000 0.000000  0.000000 0.000000 0.000000
151  -0.000000 0.000000 0.000000  0.000000 0.000000 0.000000
152  -0.000000 0.000000 0.000000  0.000000 0.000000 0.000000
153  -0.000000 0.000000 0.000000  0.000000 0.000000 0.000000
154  -0.000000 0.000000 0.000000  0.000000 0.000000 0.000000
155  -0.000000 0.000000 0.000000  0.000000 0.000000 0.000000
156  -0.000000 0.000000 0.000000  0.000000 0.000000 0.000000
157  -0.000000 0.000000 0.000000  0.000000 0.000000 0.000000
158  -0.000000 0.000000 0.000000  0.000000 0.000000 0.000000
159  -0.000000 0.000000 0.000000  0.000000 0.000000 0.000000
160  -0.000000 -2.289436 2.922000  -0.000000 0.000000 -1.570796
161  -0.000000 -2.737309 2.922000  -0.000000 0.000000 -1.570796
162  -0.000000 -2.737309 2.922000  -0.000000 0.000000 -1.570796
163  -0.045000 4.872000 3.222000  -0.000000 0.000000 -1.570796
164  -0.042000 5.676798 3.248000  -0.000000 0.000000 -1.570796
165  -0.000000 0.000000 0.000000  0.000000 0.000000 0.000000
166  -0.000000 0.000000 0.000000  0.000000 0.000000 0.000000
167  -0.000000 0.000000 0.000000  0.000000 0.000000 0.000000
168  -0.000000 0.000000 0.000000  0.000000 0.000000 0.000000
169  -0.000000 0.000000 0.000000  0.000000 0.000000 0.000000
170  -2.385109 -16.230593 -6.154008  0.000000 0.000000 0.000000
171  -0.000000 0.000000 0.000000  0.000000 0.000000 0.000000
172  -0.000000 0.000000 0.000000  0.000000 0.000000 0.000000
173  -0.000000 0.000000 0.000000  0.000000 0.000000 0.000000
174  -0.000012 -3.473581 1.549959  0.000000 0.000000 -3.141593
175  0.000000 0.000000 0.000000  0.000000 3.141593 1.570796
176  0.000000 0.000000 0.000000  0.000000 -0.000000 0.000000
time 2
0  0 0 0  0 0 0
1  0.000000 0.000000 0.000000  0.000000 -0.000000 0.000000
2  0.000000 -0.000000 -55.347755  0.000000 0.000000 -1.570730
3  -0.012873 0.000001 8.235027  -0.784778 -1.570710 -0.786431
4  16.163130 -0.011636 0.005478  -0.439829 0.000002 -0.000000
5  16.163136 -0.000004 3.830549  -0.942248 -0.987324 -2.287912
6  12.326651 1.423317 -7.513761  -0.659743 0.069865 -1.728493
7  26.391922 -0.000000 0.000014  0.008682 -0.000003 -0.964339
8  0.000002 -0.000003 -0.000000  -0.258293 0.000000 0.000000
9  3.093518 -0.000002 -0.000003  -0.535062 0.000000 -0.000000
10  6.187030 -0.000003 -0.000003  -0.793373 0.000001 -0.000000
11  9.280543 -0.000007 -0.000003  -1.051676 0.000001 -0.000000
12  12.374053 -0.000007 -0.000004  -1.309975 0.000000 -0.000000
13  15.467570 -0.000008 -0.000002  -1.586676 0.000001 -0.000000
14  18.561077 -0.000010 -0.000004  -1.752755 -0.000000 0.000000
15  21.654528 -0.000014 -0.000003  3.042046 0.383339 0.849410
16  1.410062 0.800539 -2.089136  2.421628 0.499566 0.565693
17  3.954709 -0.000001 0.000000  -0.030474 -0.211478 0.313250
18  3.101568 0.000000 0.000000  -0.086351 -0.027390 -0.242474
19  6.164466 -0.898147 2.574999  -0.437350 -0.135164 1.265078
20  2.805841 0.000000 0.000002  0.000000 0.000000 0.706064
21  2.307438 -0.000003 0.000000  -0.000000 0.000001 0.291259
22  7.145092 -0.676329 -1.382441  -0.336641 -0.672382 0.703848
23  3.672211 0.000003 -0.000007  0.000001 0.000001 1.221330
24  2.676520 -0.000001 -0.000002  0.000000 -0.000000 0.467580
25  6.831165 -0.870858 0.599898  -0.491396 -0.311618 1.233332
26  3.657090 -0.000002 0.000003  -0.000000 0.000001 0.933179
27  2.496795 -0.000001 0.000000  -0.000000 -0.000000 0.132608
28  7.183334 -0.532074 -3.267617  -0.157511 -0.679210 0.420354
29  3.511598 0.000002 -0.000003  0.000000 -0.000000 0.806760
30  2.199401 0.000002 -0.000001  -0.000000 0.000000 0.765462
31  16.163147 -0.000002 -3.830505  1.572433 0.321932 -1.566305
32  18.574528 -12.791351 -2.705146  0.658021 -0.641882 -2.819558
33  26.392042 0.000010 0.000005  -0.000000 0.000000 -1.685338
34  0.000005 0.000000 -0.000004  0.111756 -0.000001 0.000001
35  3.093515 0.000004 -0.000001  0.231541 -0.000001 0.000001
36  6.187026 0.000008 -0.000000  0.343369 -0.000000 0.000001
37  9.280540 0.000010 0.000005  0.455165 -0.000001 0.000001
38  12.374044 0.000013 0.000006  0.566967 -0.000001 0.000001
39  15.467557 0.000018 0.000006  0.670790 -0.000000 0.000001
40  18.561073 0.000021 0.000008  0.758623 -0.000000 0.000001
41  21.654413 0.000023 0.000011  2.357413 -0.032745 0.780847
42  1.410070 0.800528 2.089144  -2.663979 -0.210302 0.731682
43  3.954702 -0.000001 -0.000003  0.000000 0.000001 0.473291
44  3.101538 0.000000 0.000000  -0.000000 -0.000001 0.695731
45  7.183362 -0.532101 3.267601  -0.018098 -0.013525 -0.274139
46  3.511595 0.000000 -0.000001  0.000000 -0.000000 0.688334
47  2.199411 -0.000001 0.000002  -0.000000 -0.000000 0.614307
48  7.145103 -0.676342 1.382419  -0.063482 0.264277 0.489142
49  3.672215 0.000000 -0.000003  0.000000 0.000000 1.439345
50  2.676512 -0.000001 0.000000  -0.000000 0.000000 0.929832
51  6.831175 -0.870870 -0.599926  0.019238 0.157803 0.797349
52  3.657082 0.000003 0.000002  0.000001 -0.000000 1.260944
53  2.496794 -0.000002 0.000000  -0.000000 0.000001 0.828578
54  6.164468 -0.898146 -2.575021  0.039734 0.038335 0.536793
55  2.805828 -0.000003 0.000001  0.000001 0.000000 1.022861
56  2.307434 -0.000000 0.000000  0.000000 0.000000 0.873545
57  0.000000 0.000000 0.000000  0.000000 -0.000000 0.000000
58  -10.092804 -10.095335 -15.915676  0.101820 0.009670 -1.313886
59  -2.744394 -37.025921 -11.335876  2.022516 0.108621 -2.100946
60  0.000000 0.000000 0.000000  0.000000 -0.000000 -0.000000
61  -0.000000 0.000000 0.000000  0.000000 3.141593 1.570796
62  -6.411819 -23.234236 -7.417365  0.000000 -0.000000 0.000000
63  -1.423414 0.840569 2.463941  0.070898 -0.251099 -2.936438
64  -0.000000 4.267597 -2.659982  0.000000 0.000000 -0.000000
65  0.006625 -2.068270 -5.046101  -0.000000 0.000000 -0.000000
66  -0.011944 -41.058357 0.851352  1.570735 -0.000060 -1.570735
67  0.017425 -3.441990 3.418782  0.000000 0.000000 -1.570730
68  -0.016579 -39.238556 0.582044  -0.000000 0.000000 0.000000
69  0.003497 -22.270653 -0.000000  1.570735 -0.000060 -1.570735
70  -0.004438 1.833258 -4.192916  -0.000000 0.000000 0.000000
71  3.673428 -13.790918 -3.915414  2.023286 0.109078 -2.100699
72  -3.676264 13.138216 -8.501435  0.102618 0.009427 -1.313694
73  0.014071 -23.151659 2.984060  3.141592 0.000001 -1.570796
74  8.352064 2.772897 0.000540  -3.141591 -0.000000 -0.000001
75  0.014071 -23.151659 2.984055  3.141593 0.000000 -1.570796
76  8.352064 2.772897 0.000540  -3.141591 0.000000 -0.000001
77  0.000874 -24.581499 -3.899806  -0.000000 0.000000 -0.000000
78  0.000000 -0.000000 0.000000  0.000000 -0.000000 0.000000
79  -2.630317 -2.716866 -1.696103  -1.289716 0.447781 0.587963
80  2.629957 -2.717388 -1.695315  -1.289716 -0.447781 -0.587963
81  0.000000 -0.000000 0.000000  0.000000 0.000000 0.000000
82  0.020787 -5.829868 -8.803609  -0.000000 0.000000 -0.000000
83  -0.361571 0.184688 6.808873  0.000000 -0.000000 -0.000000
84  0.319987 0.169414 6.340208  0.000000 0.000000 -0.000000
85  0.000000 -0.000003 6.715872  0.000000 0.000000 0.000000
86  -0.361571 0.169416 5.909944  0.000000 0.000000 -0.000000
87  0.319988 0.133889 5.442024  0.000000 0.000000 -0.000000
88  -0.361571 0.133891 5.011760  0.000000 0.000000 -0.000000
89  0.319988 0.081029 4.553843  0.000000 0.000000 -0.000000
90  -0.361571 0.081029 4.123580  0.000000 0.000000 -0.000000
91  0.319988 0.011232 3.671652  0.000000 0.000000 -0.000000
92  -0.361571 0.011230 3.241387  0.000000 0.000000 -0.000000
93  0.319987 -0.075228 2.801107  0.000000 0.000000 -0.000000
94  -0.361572 -0.075230 2.370843  0.000000 0.000000 -0.000000
95  0.319987 -0.176880 1.910492  0.000000 0.000000 -0.000000
96  -0.361572 -0.176882 1.480228  0.000000 0.000000 -0.000000
97  0.319988 -0.297869 1.040116  0.000000 0.000000 -0.000000
98  -0.361572 -0.297867 0.609850  0.000000 0.000000 -0.000000
99  0.319988 -0.431576 0.173173  0.000000 0.000000 -0.000000
100  -0.361571 -0.431576 -0.257091  0.000000 0.000000 -0.000000
101  0.319987 -0.581093 -0.676162  0.000000 0.000000 -0.000000
102  -0.361572 -0.581091 -1.106428  0.000000 0.000000 -0.000000
103  0.319987 -0.744358 -1.523145  0.000000 0.000000 -0.000000
104  -0.361572 -0.744358 -1.953411  0.000000 0.000000 -0.000000
105  0.319987 -0.927450 -2.373697  0.000000 0.000000 -0.000000
106  -0.361571 -0.927448 -2.803958  0.000000 0.000000 -0.000000
107  0.319988 -1.125114 -3.211364  0.000000 0.000000 -0.000000
108  -0.361571 -1.125112 -3.641626  0.000000 0.000000 -0.000000
109  0.319987 -1.337536 -4.057125  0.000000 0.000000 -0.000000
110  -0.361572 -1.337537 -4.487386  0.000000 0.000000 -0.000000
111  0.319987 -1.565088 -4.901083  0.000000 0.000000 -0.000000
112  -0.361572 -1.565088 -5.331350  0.000000 0.000000 -0.000000
113  0.000000 -0.000000 0.000001  0.000000 -0.000000 0.000000
114  0.000000 -0.000000 0.000001  0.000000 -0.000000 0.000000
115  0.000000 -0.000000 0.000001  0.000000 -0.000000 0.000000
116  -0.000000 -8.571775 1.140268  -0.000000 0.000000 1.306514
117  0.013645 -12.479189 -0.492760  0.000000 0.000000 0.000000
118  0.013645 -12.479189 -0.492751  1.570735 -0.000061 -1.570735
119  1.137633 -2.923957 0.003060  -0.000000 0.000000 -0.000000
120  15.442325 -3.429668 0.003061  -0.785987 1.570710 0.785191
121  10.376178 -3.978429 0.003053  -0.785988 1.570710 0.784274
122  19.819700 -3.429667 0.003058  -0.000000 0.000000 -0.000000
123  0.028059 -40.043076 0.755307  -0.000000 0.000000 -0.000000
124  11.545938 73.768425 -3.792057  -0.000000 -0.000000 0.000000
125  -0.000000 -0.000000 -0.000000  0.000000 0.000000 -0.000000
126  -0.000000 -0.000000 -0.000000  0.000000 0.000000 -0.000000
127  -0.548690 -9.448412 1.300524  -0.000000 0.000000 0.000000
128  -1.707580 8.764291 -0.082707  0.000000 0.000000 0.000000
129  2.259084 -9.906527 0.526930  -0.000000 0.000000 0.000000
130  -0.518263 -3.070307 0.292418  -0.000000 -0.349070 3.054310
131  0.000022 -13.033236 -0.318351  0.000000 -0.000000 -1.570799
132  0.000069 -0.043226 0.921783  0.000000 0.000000 0.000000
133  0.000081 -11.566893 -0.324370  -0.000000 -0.000000 -1.570780
134  -0.000013 0.726725 1.123049  -0.000000 0.000000 -1.570788
135  -0.000013 0.801544 1.146486  0.000000 0.000000 -1.570765
136  -0.000001 0.616360 1.146486  -0.000000 0.000000 -1.570796
137  -0.000000 0.257853 1.146486  0.000000 0.000000 -1.570796
138  -0.000037 0.730188 1.146486  0.000000 0.000000 -1.570796
139  -0.000025 0.146780 1.146486  -0.000000 0.000000 -1.570783
140  -0.042000 1.350000 1.146486  0.000000 0.000000 -1.570796
141  0.000016 -7.377871 -1.535721  0.000000 0.000000 -1.570783
142  0.000002 -7.853422 -1.607728  0.000000 0.000000 -1.570789
143  -0.484979 -5.998167 0.406854  0.000000 -1.308995 -0.000047
144  -0.750639 -5.807665 0.481152  -1.832625 0.000001 -1.570771
145  -0.000000 -0.000015 -0.308638  -0.000000 0.000000 -0.000000
146  -0.731387 -5.783985 0.474800  -1.832622 -0.000001 -1.570787
147  -0.000000 0.000000 0.000000  0.000000 0.000000 0.000000
148  -0.000000 0.000000 0.000000  0.000000 0.000000 0.000000
149  -0.966726 -2.645744 2.292701  -0.000000 0.000000 -0.000000
150  -0.000000 0.000000 0.000000  0.000000 0.000000 0.000000
151  -0.000000 0.000000 0.000000  0.000000 0.000000 0.000000
152  -0.000000 0.000000 0.000000  0.000000 0.000000 0.000000
153  -0.000000 0.000000 0.000000  0.000000 0.000000 0.000000
154  -0.000000 0.000000 0.000000  0.000000 0.000000 0.000000
155  -0.000000 0.000000 0.000000  0.000000 0.000000 0.000000
156  -0.000000 0.000000 0.000000  0.000000 0.000000 0.000000
157  -0.000000 0.000000 0.000000  0.000000 0.000000 0.000000
158  -0.000000 0.000000 0.000000  0.000000 0.000000 0.000000
159  -0.000000 0.000000 0.000000  0.000000 0.000000 0.000000
160  -0.000000 -2.289436 2.922000  -0.000000 0.000000 -1.570796
161  -0.000000 -2.737309 2.922000  -0.000000 0.000000 -1.570796
162  -0.000000 -2.737309 2.922000  -0.000000 0.000000 -1.570796
163  -0.045000 4.872000 3.222000  -0.000000 0.000000 -1.570796
164  -0.042000 5.676798 3.248000  -0.000000 0.000000 -1.570796
165  -0.000000 0.000000 0.000000  0.000000 0.000000 0.000000
166  -0.000000 0.000000 0.000000  0.000000 0.000000 0.000000
167  -0.000000 0.000000 0.000000  0.000000 0.000000 0.000000
168  -0.000000 0.000000 0.000000  0.000000 0.000000 0.000000
169  -0.000000 0.000000 0.000000  0.000000 0.000000 0.000000
170  -2.385109 -16.230593 -6.154008  0.000000 0.000000 0.000000
171  -0.000000 0.000000 0.000000  0.000000 0.000000 0.000000
172  -0.000000 0.000000 0.000000  0.000000 0.000000 0.000000
173  -0.000000 0.000000 0.000000  0.000000 0.000000 0.000000
174  -0.000012 -3.473581 1.549959  0.000000 0.000000 -3.141593
175  0.000000 0.000000 0.000000  0.000000 3.141593 1.570796
176  0.000000 0.000000 0.000000  0.000000 -0.000000 0.000000
end
