version 1
nodes
0 "blender_implicit" -1
1 "b_root" -1
2 "b_ch_middle" 1
3 "b_ch_spine1" 2
4 "b_ch_spine2" 3
5 "b_ch_l_clavical" 4
6 "b_ch_l_upperarm" 5
7 "b_ch_l_forearm" 6
8 "b_ch_l_forearm_twist1" 7
9 "b_ch_l_forearm_twist2" 7
10 "b_ch_l_forearm_twist3" 7
11 "b_ch_l_forearm_twist4" 7
12 "b_ch_l_forearm_twist5" 7
13 "b_ch_l_forearm_twist6" 7
14 "b_ch_l_forearm_twist7" 7
15 "b_ch_l_hand" 7
16 "b_ch_l_finger_00" 15
17 "b_ch_l_finger_01" 16
18 "b_ch_l_finger_02" 17
19 "b_ch_l_finger_40" 15
20 "b_ch_l_finger_41" 19
21 "b_ch_l_finger_42" 20
22 "b_ch_l_finger_20" 15
23 "b_ch_l_finger_21" 22
24 "b_ch_l_finger_22" 23
25 "b_ch_l_finger_30" 15
26 "b_ch_l_finger_31" 25
27 "b_ch_l_finger_32" 26
28 "b_ch_l_finger_10" 15
29 "b_ch_l_finger_11" 28
30 "b_ch_l_finger_12" 29
31 "b_ch_r_clavical" 4
32 "b_ch_r_upperarm" 31
33 "b_ch_r_forearm" 32
34 "b_ch_r_forearm_twist1" 33
35 "b_ch_r_forearm_twist2" 33
36 "b_ch_r_forearm_twist3" 33
37 "b_ch_r_forearm_twist4" 33
38 "b_ch_r_forearm_twist5" 33
39 "b_ch_r_forearm_twist6" 33
40 "b_ch_r_forearm_twist7" 33
41 "b_ch_r_hand" 33
42 "b_ch_r_finger_00" 41
43 "b_ch_r_finger_01" 42
44 "b_ch_r_finger_02" 43
45 "b_ch_r_finger_10" 41
46 "b_ch_r_finger_11" 45
47 "b_ch_r_finger_12" 46
48 "b_ch_r_finger_20" 41
49 "b_ch_r_finger_21" 48
50 "b_ch_r_finger_22" 49
51 "b_ch_r_finger_30" 41
52 "b_ch_r_finger_31" 51
53 "b_ch_r_finger_32" 52
54 "b_ch_r_finger_40" 41
55 "b_ch_r_finger_41" 54
56 "b_ch_r_finger_42" 55
57 "ik_hand_root" 1
58 "ik_hand_r" 57
59 "ik_hand_l" 57
60 "b_camera" 1
61 "b_wpn" 1
62 "b_wpn_eject" 61
63 "b_wpn_fireselect" 61
64 "b_wpn_magrelease" 61
65 "b_wpn_muzzle" 61
66 "b_wpn_optic" 61
67 "b_wpn_suppressor" 61
68 "b_wpn_suppressor_muzzle" 67
69 "b_wpn_trigger" 61
70 "ik_hand_wpn_l" 61
71 "ik_hand_wpn_r" 61
72 "b_wpn_laser" 61
73 "b_wpn_laser_beam" 72
74 "b_wpn_flash" 61
75 "b_wpn_flash_beam" 74
76 "b_wpn_bipod" 61
77 "b_wpn_bipod_base" 76
78 "b_wpn_bipod_base_r" 77
79 "b_wpn_bipod_base_l" 77
80 "b_wpn_mag" 61
81 "b_wpn_mag_b1" 80
82 "b_wpn_mag_b2" 80
83 "b_wpn_mag_follow" 80
84 "b_wpn_mag_b3" 80
85 "b_wpn_mag_b4" 80
86 "b_wpn_mag_b5" 80
87 "b_wpn_mag_b6" 80
88 "b_wpn_mag_b7" 80
89 "b_wpn_mag_b8" 80
90 "b_wpn_mag_b9" 80
91 "b_wpn_mag_b10" 80
92 "b_wpn_mag_b11" 80
93 "b_wpn_mag_b12" 80
94 "b_wpn_mag_b13" 80
95 "b_wpn_mag_b14" 80
96 "b_wpn_mag_b15" 80
97 "b_wpn_mag_b16" 80
98 "b_wpn_mag_b17" 80
99 "b_wpn_mag_b18" 80
100 "b_wpn_mag_b19" 80
101 "b_wpn_mag_b20" 80
102 "b_wpn_mag_b21" 80
103 "b_wpn_mag_b22" 80
104 "b_wpn_mag_b23" 80
105 "b_wpn_mag_b24" 80
106 "b_wpn_mag_b25" 80
107 "b_wpn_mag_b26" 80
108 "b_wpn_mag_b27" 80
109 "b_wpn_mag_b28" 80
110 "b_wpn_mag_b29" 80
111 "b_wpn_bolt" 61
112 "b_wpn_foregrip" 61
113 "b_wpn_gl" 61
114 "b_wpn_gl_trigger" 113
115 "b_wpn_gl_round" 113
116 "b_wpn_gl_casing" 113
117 "b_wpn_gl_muzzle" 113
118 "b_wpn_bayonet" 61
119 "b_wpn_mag_2" 61
120 "b_wpn_chargehandle" 61
121 "b_wpn_spec_1" 61
122 "b_wpn_spec_2" 61
end
skeleton
time 0
0  0 0 0  0 0 0
1  0.000000 0.000000 0.000000  0.000000 -0.000000 0.000000
2  -0.000000 0.000000 -55.347755  0.000000 -0.000000 -1.570730
3  -0.012872 -0.000000 8.235027  -0.786761 -1.570710 -0.784096
4  16.163132 -0.011641 0.005479  -0.439829 0.000000 0.000000
5  16.163139 -0.000001 3.830525  -0.942250 -0.987325 -2.287910
6  12.326647 1.423317 -7.513758  -0.659743 0.069865 -1.728493
7  26.391907 0.000006 0.000021  0.008681 -0.000004 -0.964339
8  0.000000 0.000003 -0.000001  -0.258294 0.000000 -0.000000
9  3.093515 -0.000003 0.000001  -0.535062 0.000000 0.000000
10  6.187022 -0.000003 -0.000001  -0.793373 0.000001 -0.000001
11  9.280533 -0.000006 -0.000001  -1.051676 0.000001 -0.000001
12  12.374044 -0.000009 -0.000002  -1.309975 0.000000 -0.000000
13  15.467553 -0.000013 -0.000000  -1.586676 0.000001 -0.000000
14  18.561064 -0.000015 -0.000002  -1.752754 0.000001 -0.000000
15  21.654512 -0.000019 0.000001  3.042045 0.383340 0.849409
16  1.410070 0.800535 -2.089126  2.421628 0.499564 0.565693
17  3.954704 0.000001 0.000000  -0.030473 -0.211478 0.313250
18  3.101560 -0.000002 -0.000002  -0.086351 -0.027391 -0.242473
19  6.164455 -0.898145 2.574997  -0.437352 -0.135166 1.265078
20  2.805839 -0.000001 0.000001  0.000000 -0.000001 0.706064
21  2.307434 -0.000001 0.000000  -0.000000 -0.000000 0.291259
22  7.145089 -0.676330 -1.382431  -0.336641 -0.672383 0.703847
23  3.672202 0.000007 0.000000  -0.000001 -0.000002 1.221330
24  2.676514 -0.000000 -0.000003  0.000002 0.000004 0.467579
25  6.831162 -0.870858 0.599898  -0.491397 -0.311619 1.233331
26  3.657088 0.000009 0.000004  0.000000 -0.000002 0.933179
27  2.496787 -0.000003 0.000003  -0.000000 -0.000000 0.132609
28  7.183339 -0.532075 -3.267604  -0.157511 -0.679210 0.420353
29  3.511590 0.000007 0.000002  -0.000000 -0.000001 0.806760
30  2.199398 0.000010 0.000001  0.000000 -0.000001 0.765462
31  16.163139 -0.000001 -3.830526  1.572432 0.321931 -1.566305
32  18.574524 -12.791346 -2.705142  0.658021 -0.641882 -2.819558
33  26.392012 -0.000006 -0.000002  0.000000 -0.000000 -1.685337
34  -0.000003 0.000002 0.000003  0.111756 0.000000 0.000000
35  3.093505 0.000001 -0.000000  0.231542 0.000000 0.000000
36  6.187013 -0.000000 0.000003  0.343369 0.000000 0.000000
37  9.280521 -0.000001 0.000001  0.455165 -0.000000 0.000000
38  12.374026 -0.000003 -0.000001  0.566968 -0.000000 0.000000
39  15.467529 -0.000001 0.000001  0.670790 -0.000000 0.000000
40  18.561047 -0.000003 0.000000  0.758624 -0.000000 -0.000000
41  21.654377 -0.000005 0.000000  2.357414 -0.032745 0.780845
42  1.410071 0.800526 2.089133  -2.663979 -0.210303 0.731681
43  3.954700 0.000002 0.000008  0.000000 0.000001 0.473292
44  3.101535 0.000001 0.000007  -0.000002 -0.000003 0.695730
45  7.183360 -0.532104 3.267585  -0.018098 -0.013524 -0.274139
46  3.511588 0.000001 0.000005  -0.000001 -0.000001 0.688334
47  2.199407 -0.000002 -0.000002  0.000000 0.000000 0.614308
48  7.145095 -0.676343 1.382407  -0.063482 0.264277 0.489142
49  3.672209 -0.000001 0.000001  0.000000 0.000001 1.439346
50  2.676516 -0.000001 -0.000001  0.000001 0.000000 0.929831
51  6.831172 -0.870869 -0.599927  0.019238 0.157804 0.797349
52  3.657082 0.000002 -0.000004  0.000000 0.000000 1.260944
53  2.496794 0.000000 -0.000001  -0.000001 0.000001 0.828578
54  6.164465 -0.898144 -2.575019  0.039734 0.038335 0.536793
55  2.805828 0.000000 -0.000001  0.000001 0.000000 1.022861
56  2.307432 -0.000003 -0.000002  0.000000 -0.000000 0.873545
57  0.000000 0.000000 0.000000  0.000000 -0.000000 -0.000000
58  -10.092800 -10.095339 -15.915672  0.101820 0.009670 -1.313886
59  -2.744398 -37.025917 -11.335869  2.022516 0.108621 -2.100946
60  0.000000 0.000000 0.000000  0.000000 -0.000000 0.000000
61  -6.411819 -23.234236 -7.417365  0.000000 0.000000 -0.000000
62  -1.423414 0.840569 2.463941  0.070898 -0.251101 -2.936439
63  -0.000000 4.267597 -2.659982  0.000000 -0.000000 -0.000000
64  0.006625 -2.068270 -5.046101  0.000000 -0.000000 -0.000000
65  -0.011944 -41.058361 0.851352  1.570735 -0.000061 -1.570735
66  0.017425 -3.441990 3.418782  -0.000000 -0.000000 -1.570730
67  -0.016579 -39.238560 0.582044  -0.000000 -0.000000 0.000000
68  0.003497 -22.270653 0.000000  1.570735 -0.000061 -1.570735
69  -0.004438 1.833258 -4.192916  0.000000 -0.000000 -0.000000
70  3.673443 -13.790949 -3.915407  2.023285 0.109079 -2.100699
71  -3.676271 13.138208 -8.501431  0.102618 0.009427 -1.313694
72  0.014071 -23.151663 2.984060  3.141592 0.000001 -1.570796
73  8.352066 2.772899 0.000540  -3.141593 -0.000000 0.000000
74  0.014071 -23.151663 2.984055  3.141593 0.000000 -1.570796
75  8.352066 2.772899 0.000540  3.141593 -0.000000 0.000000
76  0.000874 -24.581499 -3.899806  -0.000000 -0.000000 0.000000
77  -0.000000 0.000000 -0.000000  -0.000000 0.000000 -0.000000
78  -2.630317 -2.716866 -1.696104  -1.289716 0.447781 0.587963
79  2.629957 -2.717388 -1.695316  -1.289716 -0.447781 -0.587963
80  0.020787 -5.829870 -8.803609  -0.000000 0.000000 0.000000
81  -0.361571 0.184690 6.808872  -0.000000 -0.000000 -0.000000
82  0.319987 0.169416 6.340206  -0.000000 -0.000000 -0.000000
83  -0.000000 -0.000000 6.715872  -0.000000 0.000000 -0.000000
84  -0.361571 0.169418 5.909944  0.000000 -0.000000 -0.000000
85  0.319988 0.133890 5.442022  -0.000000 -0.000000 -0.000000
86  -0.361571 0.133892 5.011761  0.000000 -0.000000 -0.000000
87  0.319988 0.081032 4.553843  0.000000 -0.000000 -0.000000
88  -0.361571 0.081030 4.123579  0.000000 -0.000000 -0.000000
89  0.319988 0.011232 3.671651  0.000000 -0.000000 -0.000000
90  -0.361571 0.011232 3.241386  0.000000 -0.000000 -0.000000
91  0.319987 -0.075230 2.801106  -0.000000 -0.000000 -0.000000
92  -0.361572 -0.075230 2.370843  -0.000000 -0.000000 -0.000000
93  0.319987 -0.176880 1.910490  0.000000 -0.000000 -0.000000
94  -0.361572 -0.176880 1.480227  0.000000 -0.000000 -0.000000
95  0.319988 -0.297869 1.040114  0.000000 -0.000000 -0.000000
96  -0.361572 -0.297867 0.609850  -0.000000 -0.000000 0.000000
97  0.319988 -0.431576 0.173172  -0.000000 -0.000000 0.000000
98  -0.361571 -0.431576 -0.257093  -0.000000 -0.000000 0.000000
99  0.319987 -0.581093 -0.676163  -0.000000 -0.000000 0.000000
100  -0.361572 -0.581091 -1.106428  -0.000000 -0.000000 0.000000
101  0.319987 -0.744358 -1.523146  -0.000000 -0.000000 0.000000
102  -0.361572 -0.744356 -1.953411  -0.000000 -0.000000 0.000000
103  0.319988 -0.927452 -2.373697  0.000000 -0.000000 -0.000000
104  -0.361571 -0.927450 -2.803959  0.000000 -0.000000 -0.000000
105  0.319988 -1.125113 -3.211363  0.000000 -0.000000 -0.000000
106  -0.361571 -1.125113 -3.641624  0.000000 -0.000000 -0.000000
107  0.319987 -1.337538 -4.057123  0.000000 -0.000000 -0.000000
108  -0.361571 -1.337540 -4.487389  0.000000 -0.000000 -0.000000
109  0.319987 -1.565088 -4.901085  -0.000000 -0.000000 -0.000000
110  -0.361572 -1.565088 -5.331348  -0.000000 -0.000000 -0.000000
111  -0.000000 -8.571775 1.140268  0.000000 -0.000000 1.306514
112  0.013645 -12.479193 -0.492760  0.000000 -0.000000 -0.000000
113  0.013645 -12.479189 -0.492751  1.570735 -0.000061 -1.570735
114  1.137635 -2.923956 0.003061  -0.000000 -0.000000 -0.000000
115  15.442327 -3.429664 0.003061  -0.785013 1.570710 0.785723
116  10.376180 -3.978427 0.003053  -0.785013 1.570710 0.785723
117  19.819710 -3.429661 0.003058  0.000000 -0.000000 0.000000
118  0.028059 -40.043079 0.755307  -0.000000 0.000000 0.000000
119  11.545938 73.768425 -3.792057  -0.000000 0.000000 0.000000
120  -0.548690 -9.448412 1.300524  0.000000 -0.000000 -0.000000
121  -1.707580 8.764292 -0.082707  0.000000 0.000000 -0.000000
122  2.259084 -9.906527 0.526930  -0.000000 -0.000000 0.000000
time 1
0  0 0 0  0 0 0
1  0.000000 0.000000 0.000000  0.000000 -0.000000 0.000000
2  -0.000000 0.000000 -55.347755  0.000000 -0.000000 -1.570730
3  -0.012872 -0.000000 8.235027  -0.786761 -1.570710 -0.784096
4  16.163132 -0.011641 0.005479  -0.439829 0.000000 0.000000
5  16.163139 -0.000001 3.830525  -0.942250 -0.987325 -2.287910
6  12.326647 1.423317 -7.513758  -0.659743 0.069865 -1.728493
7  26.391907 0.000006 0.000021  0.008681 -0.000004 -0.964339
8  0.000000 0.000003 -0.000001  -0.258294 0.000000 -0.000000
9  3.093515 -0.000003 0.000001  -0.535062 0.000000 0.000000
10  6.187022 -0.000003 -0.000001  -0.793373 0.000001 -0.000001
11  9.280533 -0.000006 -0.000001  -1.051676 0.000001 -0.000001
12  12.374044 -0.000009 -0.000002  -1.309975 0.000000 -0.000000
13  15.467553 -0.000013 -0.000000  -1.586676 0.000001 -0.000000
14  18.561064 -0.000015 -0.000002  -1.752754 0.000001 -0.000000
15  21.654512 -0.000019 0.000001  3.042045 0.383340 0.849409
16  1.410070 0.800535 -2.089126  2.421628 0.499564 0.565693
17  3.954704 0.000001 0.000000  -0.030473 -0.211478 0.313250
18  3.101560 -0.000002 -0.000002  -0.086351 -0.027391 -0.242473
19  6.164455 -0.898145 2.574997  -0.437352 -0.135166 1.265078
20  2.805839 -0.000001 0.000001  0.000000 -0.000001 0.706064
21  2.307434 -0.000001 0.000000  -0.000000 -0.000000 0.291259
22  7.145089 -0.676330 -1.382431  -0.336641 -0.672383 0.703847
23  3.672202 0.000007 0.000000  -0.000001 -0.000002 1.221330
24  2.676514 -0.000000 -0.000003  0.000002 0.000004 0.467579
25  6.831162 -0.870858 0.599898  -0.491397 -0.311619 1.233331
26  3.657088 0.000009 0.000004  0.000000 -0.000002 0.933179
27  2.496787 -0.000003 0.000003  -0.000000 -0.000000 0.132609
28  7.183339 -0.532075 -3.267604  -0.157511 -0.679210 0.420353
29  3.511590 0.000007 0.000002  -0.000000 -0.000001 0.806760
30  2.199398 0.000010 0.000001  0.000000 -0.000001 0.765462
31  16.163139 -0.000001 -3.830526  1.572432 0.321931 -1.566305
32  18.574524 -12.791346 -2.705142  0.658021 -0.641882 -2.819558
33  26.392012 -0.000006 -0.000002  0.000000 -0.000000 -1.685337
34  -0.000003 0.000002 0.000003  0.111756 0.000000 0.000000
35  3.093505 0.000001 -0.000000  0.231542 0.000000 0.000000
36  6.187013 -0.000000 0.000003  0.343369 0.000000 0.000000
37  9.280521 -0.000001 0.000001  0.455165 -0.000000 0.000000
38  12.374026 -0.000003 -0.000001  0.566968 -0.000000 0.000000
39  15.467529 -0.000001 0.000001  0.670790 -0.000000 0.000000
40  18.561047 -0.000003 0.000000  0.758624 -0.000000 -0.000000
41  21.654377 -0.000005 0.000000  2.357414 -0.032745 0.780845
42  1.410071 0.800526 2.089133  -2.663979 -0.210303 0.731681
43  3.954700 0.000002 0.000008  0.000000 0.000001 0.473292
44  3.101535 0.000001 0.000007  -0.000002 -0.000003 0.695730
45  7.183360 -0.532104 3.267585  -0.018098 -0.013524 -0.274139
46  3.511588 0.000001 0.000005  -0.000001 -0.000001 0.688334
47  2.199407 -0.000002 -0.000002  0.000000 0.000000 0.614308
48  7.145095 -0.676343 1.382407  -0.063482 0.264277 0.489142
49  3.672209 -0.000001 0.000001  0.000000 0.000001 1.439346
50  2.676516 -0.000001 -0.000001  0.000001 0.000000 0.929831
51  6.831172 -0.870869 -0.599927  0.019238 0.157804 0.797349
52  3.657082 0.000002 -0.000004  0.000000 0.000000 1.260944
53  2.496794 0.000000 -0.000001  -0.000001 0.000001 0.828578
54  6.164465 -0.898144 -2.575019  0.039734 0.038335 0.536793
55  2.805828 0.000000 -0.000001  0.000001 0.000000 1.022861
56  2.307432 -0.000003 -0.000002  0.000000 -0.000000 0.873545
57  0.000000 0.000000 0.000000  0.000000 -0.000000 -0.000000
58  -10.092800 -10.095339 -15.915672  0.101820 0.009670 -1.313886
59  -2.744398 -37.025917 -11.335869  2.022516 0.108621 -2.100946
60  0.000000 0.000000 0.000000  0.000000 -0.000000 0.000000
61  -6.411819 -23.234236 -7.417365  0.000000 0.000000 -0.000000
62  -1.423414 0.840569 2.463941  0.070898 -0.251101 -2.936439
63  -0.000000 4.267597 -2.659982  0.000000 -0.000000 -0.000000
64  0.006625 -2.068270 -5.046101  0.000000 -0.000000 -0.000000
65  -0.011944 -41.058361 0.851352  1.570735 -0.000061 -1.570735
66  0.017425 -3.441990 3.418782  -0.000000 -0.000000 -1.570730
67  -0.016579 -39.238560 0.582044  -0.000000 -0.000000 0.000000
68  0.003497 -22.270653 0.000000  1.570735 -0.000061 -1.570735
69  -0.004438 1.833258 -4.192916  0.000000 -0.000000 -0.000000
70  3.673443 -13.790949 -3.915407  2.023285 0.109079 -2.100699
71  -3.676271 13.138208 -8.501431  0.102618 0.009427 -1.313694
72  0.014071 -23.151663 2.984060  3.141592 0.000001 -1.570796
73  8.352066 2.772899 0.000540  -3.141593 -0.000000 0.000000
74  0.014071 -23.151663 2.984055  3.141593 0.000000 -1.570796
75  8.352066 2.772899 0.000540  3.141593 -0.000000 0.000000
76  0.000874 -24.581499 -3.899806  -0.000000 -0.000000 0.000000
77  -0.000000 0.000000 -0.000000  -0.000000 0.000000 -0.000000
78  -2.630317 -2.716866 -1.696104  -1.289716 0.447781 0.587963
79  2.629957 -2.717388 -1.695316  -1.289716 -0.447781 -0.587963
80  0.020787 -5.829870 -8.803609  -0.000000 0.000000 0.000000
81  -0.361571 0.184690 6.808872  -0.000000 -0.000000 -0.000000
82  0.319987 0.169416 6.340206  -0.000000 -0.000000 -0.000000
83  -0.000000 -0.000000 6.715872  -0.000000 0.000000 -0.000000
84  -0.361571 0.169418 5.909944  0.000000 -0.000000 -0.000000
85  0.319988 0.133890 5.442022  -0.000000 -0.000000 -0.000000
86  -0.361571 0.133892 5.011761  0.000000 -0.000000 -0.000000
87  0.319988 0.081032 4.553843  0.000000 -0.000000 -0.000000
88  -0.361571 0.081030 4.123579  0.000000 -0.000000 -0.000000
89  0.319988 0.011232 3.671651  0.000000 -0.000000 -0.000000
90  -0.361571 0.011232 3.241386  0.000000 -0.000000 -0.000000
91  0.319987 -0.075230 2.801106  -0.000000 -0.000000 -0.000000
92  -0.361572 -0.075230 2.370843  -0.000000 -0.000000 -0.000000
93  0.319987 -0.176880 1.910490  0.000000 -0.000000 -0.000000
94  -0.361572 -0.176880 1.480227  0.000000 -0.000000 -0.000000
95  0.319988 -0.297869 1.040114  0.000000 -0.000000 -0.000000
96  -0.361572 -0.297867 0.609850  -0.000000 -0.000000 0.000000
97  0.319988 -0.431576 0.173172  -0.000000 -0.000000 0.000000
98  -0.361571 -0.431576 -0.257093  -0.000000 -0.000000 0.000000
99  0.319987 -0.581093 -0.676163  -0.000000 -0.000000 0.000000
100  -0.361572 -0.581091 -1.106428  -0.000000 -0.000000 0.000000
101  0.319987 -0.744358 -1.523146  -0.000000 -0.000000 0.000000
102  -0.361572 -0.744356 -1.953411  -0.000000 -0.000000 0.000000
103  0.319988 -0.927452 -2.373697  0.000000 -0.000000 -0.000000
104  -0.361571 -0.927450 -2.803959  0.000000 -0.000000 -0.000000
105  0.319988 -1.125113 -3.211363  0.000000 -0.000000 -0.000000
106  -0.361571 -1.125113 -3.641624  0.000000 -0.000000 -0.000000
107  0.319987 -1.337538 -4.057123  0.000000 -0.000000 -0.000000
108  -0.361571 -1.337540 -4.487389  0.000000 -0.000000 -0.000000
109  0.319987 -1.565088 -4.901085  -0.000000 -0.000000 -0.000000
110  -0.361572 -1.565088 -5.331348  -0.000000 -0.000000 -0.000000
111  -0.000000 -8.571775 1.140268  0.000000 -0.000000 1.306514
112  0.013645 -12.479193 -0.492760  0.000000 -0.000000 -0.000000
113  0.013645 -12.479189 -0.492751  1.570735 -0.000061 -1.570735
114  1.137635 -2.923956 0.003061  -0.000000 -0.000000 -0.000000
115  15.442327 -3.429664 0.003061  -0.785013 1.570710 0.785723
116  10.376180 -3.978427 0.003053  -0.785013 1.570710 0.785723
117  19.819710 -3.429661 0.003058  0.000000 -0.000000 0.000000
118  0.028059 -40.043079 0.755307  -0.000000 0.000000 0.000000
119  11.545938 73.768425 -3.792057  -0.000000 0.000000 0.000000
120  -0.548690 -9.448412 1.300524  0.000000 -0.000000 -0.000000
121  -1.707580 8.764292 -0.082707  0.000000 0.000000 -0.000000
122  2.259084 -9.906527 0.526930  -0.000000 -0.000000 0.000000
time 2
0  0 0 0  0 0 0
1  0.000000 0.000000 0.000000  0.000000 -0.000000 0.000000
2  -0.000000 0.000000 -55.347755  0.000000 -0.000000 -1.570730
3  -0.012872 -0.000000 8.235027  -0.786761 -1.570710 -0.784096
4  16.163132 -0.011641 0.005479  -0.439829 0.000000 0.000000
5  16.163139 -0.000001 3.830525  -0.942250 -0.987325 -2.287910
6  12.326647 1.423317 -7.513758  -0.659743 0.069865 -1.728493
7  26.391907 0.000006 0.000021  0.008681 -0.000004 -0.964339
8  0.000000 0.000003 -0.000001  -0.258294 0.000000 -0.000000
9  3.093515 -0.000003 0.000001  -0.535062 0.000000 0.000000
10  6.187022 -0.000003 -0.000001  -0.793373 0.000001 -0.000001
11  9.280533 -0.000006 -0.000001  -1.051676 0.000001 -0.000001
12  12.374044 -0.000009 -0.000002  -1.309975 0.000000 -0.000000
13  15.467553 -0.000013 -0.000000  -1.586676 0.000001 -0.000000
14  18.561064 -0.000015 -0.000002  -1.752754 0.000001 -0.000000
15  21.654512 -0.000019 0.000001  3.042045 0.383340 0.849409
16  1.410070 0.800535 -2.089126  2.421628 0.499564 0.565693
17  3.954704 0.000001 0.000000  -0.030473 -0.211478 0.313250
18  3.101560 -0.000002 -0.000002  -0.086351 -0.027391 -0.242473
19  6.164455 -0.898145 2.574997  -0.437352 -0.135166 1.265078
20  2.805839 -0.000001 0.000001  0.000000 -0.000001 0.706064
21  2.307434 -0.000001 0.000000  -0.000000 -0.000000 0.291259
22  7.145089 -0.676330 -1.382431  -0.336641 -0.672383 0.703847
23  3.672202 0.000007 0.000000  -0.000001 -0.000002 1.221330
24  2.676514 -0.000000 -0.000003  0.000002 0.000004 0.467579
25  6.831162 -0.870858 0.599898  -0.491397 -0.311619 1.233331
26  3.657088 0.000009 0.000004  0.000000 -0.000002 0.933179
27  2.496787 -0.000003 0.000003  -0.000000 -0.000000 0.132609
28  7.183339 -0.532075 -3.267604  -0.157511 -0.679210 0.420353
29  3.511590 0.000007 0.000002  -0.000000 -0.000001 0.806760
30  2.199398 0.000010 0.000001  0.000000 -0.000001 0.765462
31  16.163139 -0.000001 -3.830526  1.572432 0.321931 -1.566305
32  18.574524 -12.791346 -2.705142  0.658021 -0.641882 -2.819558
33  26.392012 -0.000006 -0.000002  0.000000 -0.000000 -1.685337
34  -0.000003 0.000002 0.000003  0.111756 0.000000 0.000000
35  3.093505 0.000001 -0.000000  0.231542 0.000000 0.000000
36  6.187013 -0.000000 0.000003  0.343369 0.000000 0.000000
37  9.280521 -0.000001 0.000001  0.455165 -0.000000 0.000000
38  12.374026 -0.000003 -0.000001  0.566968 -0.000000 0.000000
39  15.467529 -0.000001 0.000001  0.670790 -0.000000 0.000000
40  18.561047 -0.000003 0.000000  0.758624 -0.000000 -0.000000
41  21.654377 -0.000005 0.000000  2.357414 -0.032745 0.780845
42  1.410071 0.800526 2.089133  -2.663979 -0.210303 0.731681
43  3.954700 0.000002 0.000008  0.000000 0.000001 0.473292
44  3.101535 0.000001 0.000007  -0.000002 -0.000003 0.695730
45  7.183360 -0.532104 3.267585  -0.018098 -0.013524 -0.274139
46  3.511588 0.000001 0.000005  -0.000001 -0.000001 0.688334
47  2.199407 -0.000002 -0.000002  0.000000 0.000000 0.614308
48  7.145095 -0.676343 1.382407  -0.063482 0.264277 0.489142
49  3.672209 -0.000001 0.000001  0.000000 0.000001 1.439346
50  2.676516 -0.000001 -0.000001  0.000001 0.000000 0.929831
51  6.831172 -0.870869 -0.599927  0.019238 0.157804 0.797349
52  3.657082 0.000002 -0.000004  0.000000 0.000000 1.260944
53  2.496794 0.000000 -0.000001  -0.000001 0.000001 0.828578
54  6.164465 -0.898144 -2.575019  0.039734 0.038335 0.536793
55  2.805828 0.000000 -0.000001  0.000001 0.000000 1.022861
56  2.307432 -0.000003 -0.000002  0.000000 -0.000000 0.873545
57  0.000000 0.000000 0.000000  0.000000 -0.000000 -0.000000
58  -10.092800 -10.095339 -15.915672  0.101820 0.009670 -1.313886
59  -2.744398 -37.025917 -11.335869  2.022516 0.108621 -2.100946
60  0.000000 0.000000 0.000000  0.000000 -0.000000 0.000000
61  -6.411819 -23.234236 -7.417365  0.000000 0.000000 -0.000000
62  -1.423414 0.840569 2.463941  0.070898 -0.251101 -2.936439
63  -0.000000 4.267597 -2.659982  0.000000 -0.000000 -0.000000
64  0.006625 -2.068270 -5.046101  0.000000 -0.000000 -0.000000
65  -0.011944 -41.058361 0.851352  1.570735 -0.000061 -1.570735
66  0.017425 -3.441990 3.418782  -0.000000 -0.000000 -1.570730
67  -0.016579 -39.238560 0.582044  -0.000000 -0.000000 0.000000
68  0.003497 -22.270653 0.000000  1.570735 -0.000061 -1.570735
69  -0.004438 1.833258 -4.192916  0.000000 -0.000000 -0.000000
70  3.673443 -13.790949 -3.915407  2.023285 0.109079 -2.100699
71  -3.676271 13.138208 -8.501431  0.102618 0.009427 -1.313694
72  0.014071 -23.151663 2.984060  3.141592 0.000001 -1.570796
73  8.352066 2.772899 0.000540  -3.141593 -0.000000 0.000000
74  0.014071 -23.151663 2.984055  3.141593 0.000000 -1.570796
75  8.352066 2.772899 0.000540  3.141593 -0.000000 0.000000
76  0.000874 -24.581499 -3.899806  -0.000000 -0.000000 0.000000
77  -0.000000 0.000000 -0.000000  -0.000000 0.000000 -0.000000
78  -2.630317 -2.716866 -1.696104  -1.289716 0.447781 0.587963
79  2.629957 -2.717388 -1.695316  -1.289716 -0.447781 -0.587963
80  0.020787 -5.829870 -8.803609  -0.000000 0.000000 0.000000
81  -0.361571 0.184690 6.808872  -0.000000 -0.000000 -0.000000
82  0.319987 0.169416 6.340206  -0.000000 -0.000000 -0.000000
83  -0.000000 -0.000000 6.715872  -0.000000 0.000000 -0.000000
84  -0.361571 0.169418 5.909944  0.000000 -0.000000 -0.000000
85  0.319988 0.133890 5.442022  -0.000000 -0.000000 -0.000000
86  -0.361571 0.133892 5.011761  0.000000 -0.000000 -0.000000
87  0.319988 0.081032 4.553843  0.000000 -0.000000 -0.000000
88  -0.361571 0.081030 4.123579  0.000000 -0.000000 -0.000000
89  0.319988 0.011232 3.671651  0.000000 -0.000000 -0.000000
90  -0.361571 0.011232 3.241386  0.000000 -0.000000 -0.000000
91  0.319987 -0.075230 2.801106  -0.000000 -0.000000 -0.000000
92  -0.361572 -0.075230 2.370843  -0.000000 -0.000000 -0.000000
93  0.319987 -0.176880 1.910490  0.000000 -0.000000 -0.000000
94  -0.361572 -0.176880 1.480227  0.000000 -0.000000 -0.000000
95  0.319988 -0.297869 1.040114  0.000000 -0.000000 -0.000000
96  -0.361572 -0.297867 0.609850  -0.000000 -0.000000 0.000000
97  0.319988 -0.431576 0.173172  -0.000000 -0.000000 0.000000
98  -0.361571 -0.431576 -0.257093  -0.000000 -0.000000 0.000000
99  0.319987 -0.581093 -0.676163  -0.000000 -0.000000 0.000000
100  -0.361572 -0.581091 -1.106428  -0.000000 -0.000000 0.000000
101  0.319987 -0.744358 -1.523146  -0.000000 -0.000000 0.000000
102  -0.361572 -0.744356 -1.953411  -0.000000 -0.000000 0.000000
103  0.319988 -0.927452 -2.373697  0.000000 -0.000000 -0.000000
104  -0.361571 -0.927450 -2.803959  0.000000 -0.000000 -0.000000
105  0.319988 -1.125113 -3.211363  0.000000 -0.000000 -0.000000
106  -0.361571 -1.125113 -3.641624  0.000000 -0.000000 -0.000000
107  0.319987 -1.337538 -4.057123  0.000000 -0.000000 -0.000000
108  -0.361571 -1.337540 -4.487389  0.000000 -0.000000 -0.000000
109  0.319987 -1.565088 -4.901085  -0.000000 -0.000000 -0.000000
110  -0.361572 -1.565088 -5.331348  -0.000000 -0.000000 -0.000000
111  -0.000000 -8.571775 1.140268  0.000000 -0.000000 1.306514
112  0.013645 -12.479193 -0.492760  0.000000 -0.000000 -0.000000
113  0.013645 -12.479189 -0.492751  1.570735 -0.000061 -1.570735
114  1.137635 -2.923956 0.003061  -0.000000 -0.000000 -0.000000
115  15.442327 -3.429664 0.003061  -0.785013 1.570710 0.785723
116  10.376180 -3.978427 0.003053  -0.785013 1.570710 0.785723
117  19.819710 -3.429661 0.003058  0.000000 -0.000000 0.000000
118  0.028059 -40.043079 0.755307  -0.000000 0.000000 0.000000
119  11.545938 73.768425 -3.792057  -0.000000 0.000000 0.000000
120  -0.548690 -9.448412 1.300524  0.000000 -0.000000 -0.000000
121  -1.707580 8.764292 -0.082707  0.000000 0.000000 -0.000000
122  2.259084 -9.906527 0.526930  -0.000000 -0.000000 0.000000
end
