version 1
nodes
0 "blender_implicit" -1
1 "b_root" -1
2 "b_ch_middle" 1
3 "b_ch_spine1" 2
4 "b_ch_spine2" 3
5 "b_ch_l_clavical" 4
6 "b_ch_l_upperarm" 5
7 "b_ch_l_forearm" 6
8 "b_ch_l_forearm_twist1" 7
9 "b_ch_l_forearm_twist2" 7
10 "b_ch_l_forearm_twist3" 7
11 "b_ch_l_forearm_twist4" 7
12 "b_ch_l_forearm_twist5" 7
13 "b_ch_l_forearm_twist6" 7
14 "b_ch_l_forearm_twist7" 7
15 "b_ch_l_hand" 7
16 "b_ch_l_finger_00" 15
17 "b_ch_l_finger_01" 16
18 "b_ch_l_finger_02" 17
19 "b_ch_l_finger_40" 15
20 "b_ch_l_finger_41" 19
21 "b_ch_l_finger_42" 20
22 "b_ch_l_finger_20" 15
23 "b_ch_l_finger_21" 22
24 "b_ch_l_finger_22" 23
25 "b_ch_l_finger_30" 15
26 "b_ch_l_finger_31" 25
27 "b_ch_l_finger_32" 26
28 "b_ch_l_finger_10" 15
29 "b_ch_l_finger_11" 28
30 "b_ch_l_finger_12" 29
31 "b_ch_r_clavical" 4
32 "b_ch_r_upperarm" 31
33 "b_ch_r_forearm" 32
34 "b_ch_r_forearm_twist1" 33
35 "b_ch_r_forearm_twist2" 33
36 "b_ch_r_forearm_twist3" 33
37 "b_ch_r_forearm_twist4" 33
38 "b_ch_r_forearm_twist5" 33
39 "b_ch_r_forearm_twist6" 33
40 "b_ch_r_forearm_twist7" 33
41 "b_ch_r_hand" 33
42 "b_ch_r_finger_00" 41
43 "b_ch_r_finger_01" 42
44 "b_ch_r_finger_02" 43
45 "b_ch_r_finger_10" 41
46 "b_ch_r_finger_11" 45
47 "b_ch_r_finger_12" 46
48 "b_ch_r_finger_20" 41
49 "b_ch_r_finger_21" 48
50 "b_ch_r_finger_22" 49
51 "b_ch_r_finger_30" 41
52 "b_ch_r_finger_31" 51
53 "b_ch_r_finger_32" 52
54 "b_ch_r_finger_40" 41
55 "b_ch_r_finger_41" 54
56 "b_ch_r_finger_42" 55
57 "ik_hand_root" 1
58 "ik_hand_r" 57
59 "ik_hand_l" 57
60 "b_camera" 1
61 "b_wpn" 1
62 "b_wpn_eject" 61
63 "b_wpn_fireselect" 61
64 "b_wpn_magrelease" 61
65 "b_wpn_muzzle" 61
66 "b_wpn_optic" 61
67 "b_wpn_suppressor" 61
68 "b_wpn_suppressor_muzzle" 67
69 "b_wpn_trigger" 61
70 "ik_hand_wpn_l" 61
71 "ik_hand_wpn_r" 61
72 "b_wpn_laser" 61
73 "b_wpn_laser_beam" 72
74 "b_wpn_flash" 61
75 "b_wpn_flash_beam" 74
76 "b_wpn_bipod" 61
77 "b_wpn_bipod_base" 76
78 "b_wpn_bipod_base_r" 77
79 "b_wpn_bipod_base_l" 77
80 "b_wpn_mag" 61
81 "b_wpn_mag_b1" 80
82 "b_wpn_mag_b2" 80
83 "b_wpn_mag_follow" 80
84 "b_wpn_mag_b3" 80
85 "b_wpn_mag_b4" 80
86 "b_wpn_mag_b5" 80
87 "b_wpn_mag_b6" 80
88 "b_wpn_mag_b7" 80
89 "b_wpn_mag_b8" 80
90 "b_wpn_mag_b9" 80
91 "b_wpn_mag_b10" 80
92 "b_wpn_mag_b11" 80
93 "b_wpn_mag_b12" 80
94 "b_wpn_mag_b13" 80
95 "b_wpn_mag_b14" 80
96 "b_wpn_mag_b15" 80
97 "b_wpn_mag_b16" 80
98 "b_wpn_mag_b17" 80
99 "b_wpn_mag_b18" 80
100 "b_wpn_mag_b19" 80
101 "b_wpn_mag_b20" 80
102 "b_wpn_mag_b21" 80
103 "b_wpn_mag_b22" 80
104 "b_wpn_mag_b23" 80
105 "b_wpn_mag_b24" 80
106 "b_wpn_mag_b25" 80
107 "b_wpn_mag_b26" 80
108 "b_wpn_mag_b27" 80
109 "b_wpn_mag_b28" 80
110 "b_wpn_mag_b29" 80
111 "b_wpn_bolt" 61
112 "b_wpn_foregrip" 61
113 "b_wpn_gl" 61
114 "b_wpn_gl_trigger" 113
115 "b_wpn_gl_round" 113
116 "b_wpn_gl_casing" 113
117 "b_wpn_gl_muzzle" 113
118 "b_wpn_bayonet" 61
119 "b_wpn_mag_2" 61
120 "b_wpn_chargehandle" 61
121 "b_wpn_spec_1" 61
122 "b_wpn_spec_2" 61
end
skeleton
time 0
0  0 0 0  0 0 0
1  0.000000 0.000000 0.000000  0.000000 -0.000000 0.000000
2  -0.000000 0.000000 -55.347755  0.000000 -0.000000 -1.570730
3  -0.012872 -0.000000 8.235027  -0.786761 -1.570710 -0.784096
4  16.163132 -0.011641 0.005479  -0.439829 0.000000 0.000000
5  16.163139 -0.000001 3.830525  -0.942250 -0.987325 -2.287910
6  12.326647 1.423317 -7.513758  -0.724319 0.021983 -1.542016
7  26.391907 0.000008 0.000020  0.008706 0.000006 -1.403683
8  0.000002 0.000001 -0.000001  -0.291013 0.000000 -0.000000
9  3.093515 -0.000004 0.000002  -0.602856 0.000000 0.000000
10  6.187023 -0.000004 0.000001  -0.893936 0.000001 -0.000001
11  9.280532 -0.000005 0.000001  -1.184978 0.000001 -0.000001
12  12.374043 -0.000011 -0.000001  -1.476086 0.000000 -0.000000
13  15.467551 -0.000017 0.000002  -1.787941 0.000001 -0.000000
14  18.561060 -0.000016 -0.000002  -1.974996 0.000001 -0.000000
15  21.654495 -0.000021 0.000000  2.969861 0.504572 1.165967
16  1.410065 0.800539 -2.089126  2.211190 0.410256 0.468479
17  3.954709 0.000001 0.000001  -0.209412 0.043433 0.177146
18  3.101567 -0.000001 -0.000000  -0.062585 -0.249375 -0.194548
19  6.164447 -0.898143 2.574998  -0.416956 -0.191511 1.139845
20  2.805838 0.000003 -0.000002  0.000000 -0.000001 0.706064
21  2.307438 0.000001 0.000001  -0.000000 -0.000000 0.291259
22  7.145080 -0.676326 -1.382428  -0.259007 -0.701419 0.581508
23  3.672202 0.000008 0.000003  -0.000001 -0.000002 1.221330
24  2.676514 -0.000001 0.000001  0.000002 0.000004 0.467579
25  6.831163 -0.870856 0.599895  -0.453827 -0.366099 1.120515
26  3.657087 0.000003 0.000004  0.000000 -0.000001 0.933179
27  2.496792 -0.000002 0.000004  0.000000 0.000000 0.132609
28  7.183334 -0.532072 -3.267604  -0.014087 -0.710359 0.213340
29  3.511593 0.000006 -0.000008  -0.000000 -0.000001 0.806760
30  2.199400 0.000003 -0.000005  0.000000 -0.000002 0.682243
31  16.163139 -0.000001 -3.830526  1.572432 0.321931 -1.566305
32  18.574505 -12.791340 -2.705150  0.575157 -0.551918 -2.978180
33  26.391987 -0.000007 -0.000002  0.000000 0.000000 -1.934071
34  -0.000001 -0.000001 0.000002  0.117809 0.000000 0.000000
35  3.093504 -0.000002 -0.000001  0.244082 0.000000 0.000000
36  6.187014 -0.000003 -0.000000  0.361969 0.000000 0.000000
37  9.280521 -0.000003 -0.000000  0.479824 -0.000000 0.000000
38  12.374026 -0.000004 -0.000000  0.597680 -0.000000 0.000000
39  15.467530 -0.000005 -0.000002  0.707104 -0.000000 0.000000
40  18.561043 -0.000006 0.000000  0.799664 -0.000000 -0.000000
41  21.654312 -0.000007 -0.000003  2.475060 0.089092 1.198870
42  1.410070 0.800525 2.089134  -2.663979 -0.210303 0.731681
43  3.954699 0.000005 0.000009  0.000000 0.000001 0.473292
44  3.101536 -0.000001 0.000004  -0.000002 -0.000003 0.695730
45  7.183358 -0.532104 3.267588  -0.018001 -0.013614 -0.278329
46  3.511590 0.000000 0.000005  -0.000001 -0.000001 0.684121
47  2.199407 -0.000000 -0.000001  0.000000 0.000000 0.610147
48  7.145096 -0.676343 1.382409  -0.063482 0.264277 0.489142
49  3.672210 0.000001 0.000002  0.000000 0.000001 1.439346
50  2.676513 0.000000 -0.000002  0.000001 0.000000 0.929831
51  6.831171 -0.870870 -0.599925  0.019238 0.157804 0.797349
52  3.657082 -0.000000 -0.000000  0.000000 0.000000 1.260944
53  2.496792 -0.000001 -0.000002  -0.000001 0.000001 0.828578
54  6.164463 -0.898143 -2.575016  0.039734 0.038335 0.536793
55  2.805828 0.000001 -0.000001  0.000001 0.000000 1.022861
56  2.307432 -0.000002 -0.000003  0.000000 -0.000000 0.873545
57  0.000000 0.000000 0.000000  0.000000 -0.000000 -0.000000
58  -3.680876 -3.953847 -12.528885  0.104044 0.018099 -1.313879
59  3.667320 -30.923473 -8.184265  1.913757 0.061302 -2.075078
60  0.000000 0.000000 0.000000  0.000000 -0.000000 0.000000
61  -0.000000 -17.166492 -4.145552  0.008667 0.000793 0.000003
62  -1.423414 0.840570 2.463941  0.070898 -0.251101 -2.936439
63  0.000000 4.267598 -2.659982  -0.000000 0.000000 -0.000000
64  0.006625 -2.068269 -5.046101  -0.000000 0.000000 -0.000000
65  -0.011944 -41.058361 0.851352  1.570735 -0.000061 -1.570735
66  0.017424 -3.441989 3.418782  0.000000 -0.000000 -1.570730
67  -0.016579 -39.238560 0.582044  -0.000000 0.000000 0.000000
68  0.003497 -22.270657 -0.000000  1.570735 -0.000061 -1.570735
69  -0.004438 1.833259 -4.192915  -0.000000 0.000000 -0.000000
70  3.673435 -13.790949 -3.915415  1.918769 0.054174 -2.074634
71  -3.676276 13.138270 -8.501425  0.102618 0.009427 -1.313694
72  0.014070 -23.151661 2.984060  3.141592 0.000001 -1.570796
73  8.352064 2.772899 0.000540  3.141593 -0.000000 0.000000
74  0.014070 -23.151661 2.984056  3.141593 0.000000 -1.570796
75  8.352067 2.772899 0.000540  3.141593 0.000000 0.000000
76  0.000874 -24.581497 -3.899806  -0.000000 0.000000 0.000000
77  0.000000 -0.000001 0.000001  -0.000000 0.000000 0.000000
78  -2.630317 -2.716869 -1.696103  -1.289716 0.447781 0.587963
79  2.629957 -2.717391 -1.695315  -1.289716 -0.447781 -0.587963
80  0.020787 -5.829871 -8.803610  -0.000000 0.000000 -0.000000
81  -0.361572 0.184690 6.808872  -0.000000 0.000000 0.000000
82  0.319987 0.169413 6.340206  -0.000000 0.000000 0.000000
83  0.004895 -1.910967 -5.864453  -0.314406 0.007011 0.002906
84  -0.361572 0.169415 5.909943  -0.000000 0.000000 0.000000
85  0.319987 0.133889 5.442021  -0.000000 0.000000 0.000000
86  -0.361572 0.133887 5.011759  -0.000000 0.000000 0.000000
87  0.319987 0.081029 4.553842  -0.000000 0.000000 0.000000
88  -0.361572 0.081027 4.123578  -0.000000 0.000000 0.000000
89  0.319987 0.011231 3.671649  -0.000000 0.000000 0.000000
90  -0.361572 0.011231 3.241385  -0.000000 0.000000 0.000000
91  0.319987 -0.075231 2.801105  -0.000000 0.000000 0.000000
92  -0.361572 -0.075233 2.370842  -0.000000 0.000000 0.000000
93  0.319987 -0.176881 1.910489  -0.000000 0.000000 0.000000
94  -0.361572 -0.176881 1.480225  -0.000000 0.000000 0.000000
95  0.319987 -0.297870 1.040114  -0.000000 0.000000 0.000000
96  -0.361572 -0.297871 0.609849  -0.000000 0.000000 0.000000
97  0.319987 -0.431578 0.173172  -0.000000 0.000000 0.000000
98  -0.361572 -0.431578 -0.257092  -0.000000 0.000000 0.000000
99  0.319987 -0.581091 -0.676165  -0.000000 0.000000 0.000000
100  -0.361572 -0.581095 -1.106429  -0.000000 0.000000 0.000000
101  0.319987 -0.744361 -1.523146  -0.000000 0.000000 0.000000
102  -0.361572 -0.744358 -1.953412  -0.000000 0.000000 0.000000
103  0.319987 -0.927453 -2.373698  -0.000000 0.000000 0.000000
104  -0.361572 -0.927453 -2.803960  -0.000000 0.000000 0.000000
105  0.319987 -1.125117 -3.211364  -0.000000 0.000000 0.000000
106  -0.361572 -1.125115 -3.641627  -0.000000 0.000000 0.000000
107  0.319987 -1.337539 -4.057124  -0.000000 0.000000 0.000000
108  -0.361572 -1.337541 -4.487388  -0.000000 0.000000 0.000000
109  0.319987 -1.565092 -4.901086  -0.000000 0.000000 0.000000
110  -0.361572 -1.565091 -5.331349  -0.000000 0.000000 0.000000
111  0.000000 -8.571774 1.140268  -0.000000 0.000000 1.306514
112  0.013646 -12.479188 -0.492759  -0.000000 0.000000 0.000000
113  0.013646 -12.479192 -0.492750  1.570735 -0.000061 -1.570735
114  1.137636 -2.923955 0.003061  -0.000000 -0.000000 0.000000
115  15.442327 -3.429664 0.003063  -0.785013 1.570710 0.785723
116  10.376175 -3.978426 0.003054  -0.785013 1.570710 0.785723
117  19.819704 -3.429661 0.003061  0.000000 -0.000000 0.000000
118  0.028059 -40.043087 0.755307  -0.000000 0.000000 0.000000
119  11.545938 73.768410 -3.792057  -0.000000 0.000000 0.000000
120  -0.548690 -9.448413 1.300524  -0.000000 0.000000 -0.000000
121  -1.707580 8.764293 -0.082707  -0.000000 0.000000 -0.000000
122  2.259084 -9.906526 0.526930  -0.000000 0.000000 0.000000
time 1
0  0 0 0  0 0 0
1  0.000000 0.000000 0.000000  0.000000 -0.000000 0.000000
2  -0.000000 0.000000 -55.347755  0.000000 -0.000000 -1.570730
3  -0.012872 -0.000000 8.235027  -0.786761 -1.570710 -0.784096
4  16.163132 -0.011641 0.005479  -0.439829 0.000000 0.000000
5  16.163139 -0.000001 3.830525  -0.942250 -0.987325 -2.287910
6  12.326647 1.423317 -7.513758  -0.724319 0.021983 -1.542016
7  26.391907 0.000008 0.000020  0.008706 0.000006 -1.403683
8  0.000002 0.000001 -0.000001  -0.291013 0.000000 -0.000000
9  3.093515 -0.000004 0.000002  -0.602856 0.000000 0.000000
10  6.187023 -0.000004 0.000001  -0.893936 0.000001 -0.000001
11  9.280532 -0.000005 0.000001  -1.184978 0.000001 -0.000001
12  12.374043 -0.000011 -0.000001  -1.476086 0.000000 -0.000000
13  15.467551 -0.000017 0.000002  -1.787941 0.000001 -0.000000
14  18.561060 -0.000016 -0.000002  -1.974996 0.000001 -0.000000
15  21.654495 -0.000021 0.000000  2.969861 0.504572 1.165967
16  1.410065 0.800539 -2.089126  2.211190 0.410256 0.468479
17  3.954709 0.000001 0.000001  -0.209412 0.043433 0.177146
18  3.101567 -0.000001 -0.000000  -0.062585 -0.249375 -0.194548
19  6.164447 -0.898143 2.574998  -0.416956 -0.191511 1.139845
20  2.805838 0.000003 -0.000002  0.000000 -0.000001 0.706064
21  2.307438 0.000001 0.000001  -0.000000 -0.000000 0.291259
22  7.145080 -0.676326 -1.382428  -0.259007 -0.701419 0.581508
23  3.672202 0.000008 0.000003  -0.000001 -0.000002 1.221330
24  2.676514 -0.000001 0.000001  0.000002 0.000004 0.467579
25  6.831163 -0.870856 0.599895  -0.453827 -0.366099 1.120515
26  3.657087 0.000003 0.000004  0.000000 -0.000001 0.933179
27  2.496792 -0.000002 0.000004  0.000000 0.000000 0.132609
28  7.183334 -0.532072 -3.267604  -0.014087 -0.710359 0.213340
29  3.511593 0.000006 -0.000008  -0.000000 -0.000001 0.806760
30  2.199400 0.000003 -0.000005  0.000000 -0.000002 0.682243
31  16.163139 -0.000001 -3.830526  1.572432 0.321931 -1.566305
32  18.574505 -12.791340 -2.705150  0.575157 -0.551918 -2.978180
33  26.391987 -0.000007 -0.000002  0.000000 0.000000 -1.934071
34  -0.000001 -0.000001 0.000002  0.117809 0.000000 0.000000
35  3.093504 -0.000002 -0.000001  0.244082 0.000000 0.000000
36  6.187014 -0.000003 -0.000000  0.361969 0.000000 0.000000
37  9.280521 -0.000003 -0.000000  0.479824 -0.000000 0.000000
38  12.374026 -0.000004 -0.000000  0.597680 -0.000000 0.000000
39  15.467530 -0.000005 -0.000002  0.707104 -0.000000 0.000000
40  18.561043 -0.000006 0.000000  0.799664 -0.000000 -0.000000
41  21.654312 -0.000007 -0.000003  2.475060 0.089092 1.198870
42  1.410070 0.800525 2.089134  -2.663979 -0.210303 0.731681
43  3.954699 0.000005 0.000009  0.000000 0.000001 0.473292
44  3.101536 -0.000001 0.000004  -0.000002 -0.000003 0.695730
45  7.183358 -0.532104 3.267588  -0.018001 -0.013614 -0.278329
46  3.511590 0.000000 0.000005  -0.000001 -0.000001 0.684121
47  2.199407 -0.000000 -0.000001  0.000000 0.000000 0.610147
48  7.145096 -0.676343 1.382409  -0.063482 0.264277 0.489142
49  3.672210 0.000001 0.000002  0.000000 0.000001 1.439346
50  2.676513 0.000000 -0.000002  0.000001 0.000000 0.929831
51  6.831171 -0.870870 -0.599925  0.019238 0.157804 0.797349
52  3.657082 -0.000000 -0.000000  0.000000 0.000000 1.260944
53  2.496792 -0.000001 -0.000002  -0.000001 0.000001 0.828578
54  6.164463 -0.898143 -2.575016  0.039734 0.038335 0.536793
55  2.805828 0.000001 -0.000001  0.000001 0.000000 1.022861
56  2.307432 -0.000002 -0.000003  0.000000 -0.000000 0.873545
57  0.000000 0.000000 0.000000  0.000000 -0.000000 -0.000000
58  -3.680876 -3.953847 -12.528885  0.104044 0.018099 -1.313879
59  3.667320 -30.923473 -8.184265  1.913757 0.061302 -2.075078
60  0.000000 0.000000 0.000000  0.001892 0.000000 -0.000000
61  -0.000000 -17.166492 -4.145552  0.008667 0.000793 0.000003
62  -1.423414 0.840570 2.463941  0.070898 -0.251101 -2.936439
63  0.000000 4.267598 -2.659982  -0.000000 0.000000 -0.000000
64  0.006625 -2.068269 -5.046101  -0.000000 0.000000 -0.000000
65  -0.011944 -41.058361 0.851352  1.570735 -0.000061 -1.570735
66  0.017424 -3.441989 3.418782  0.000000 -0.000000 -1.570730
67  -0.016579 -39.238560 0.582044  -0.000000 0.000000 0.000000
68  0.003497 -22.270657 -0.000000  1.570735 -0.000061 -1.570735
69  -0.004438 1.833259 -4.192915  -0.000000 0.000000 -0.000000
70  3.673435 -13.790949 -3.915415  1.918769 0.054174 -2.074634
71  -3.676276 13.138270 -8.501425  0.102618 0.009427 -1.313694
72  0.014070 -23.151661 2.984060  3.141592 0.000001 -1.570796
73  8.352064 2.772899 0.000540  3.141593 -0.000000 0.000000
74  0.014070 -23.151661 2.984056  3.141593 0.000000 -1.570796
75  8.352067 2.772899 0.000540  3.141593 0.000000 0.000000
76  0.000874 -24.581497 -3.899806  -0.000000 0.000000 0.000000
77  0.000000 -0.000001 0.000001  -0.000000 0.000000 0.000000
78  -2.630317 -2.716869 -1.696103  -1.289716 0.447781 0.587963
79  2.629957 -2.717391 -1.695315  -1.289716 -0.447781 -0.587963
80  0.020787 -5.829871 -8.803610  -0.000000 0.000000 -0.000000
81  -0.361572 0.184690 6.808872  -0.000000 0.000000 0.000000
82  0.319987 0.169413 6.340206  -0.000000 0.000000 0.000000
83  0.004895 -1.910967 -5.864453  -0.314406 0.007011 0.002906
84  -0.361572 0.169415 5.909943  -0.000000 0.000000 0.000000
85  0.319987 0.133889 5.442021  -0.000000 0.000000 0.000000
86  -0.361572 0.133887 5.011759  -0.000000 0.000000 0.000000
87  0.319987 0.081029 4.553842  -0.000000 0.000000 0.000000
88  -0.361572 0.081027 4.123578  -0.000000 0.000000 0.000000
89  0.319987 0.011231 3.671649  -0.000000 0.000000 0.000000
90  -0.361572 0.011231 3.241385  -0.000000 0.000000 0.000000
91  0.319987 -0.075231 2.801105  -0.000000 0.000000 0.000000
92  -0.361572 -0.075233 2.370842  -0.000000 0.000000 0.000000
93  0.319987 -0.176881 1.910489  -0.000000 0.000000 0.000000
94  -0.361572 -0.176881 1.480225  -0.000000 0.000000 0.000000
95  0.319987 -0.297870 1.040114  -0.000000 0.000000 0.000000
96  -0.361572 -0.297871 0.609849  -0.000000 0.000000 0.000000
97  0.319987 -0.431578 0.173172  -0.000000 0.000000 0.000000
98  -0.361572 -0.431578 -0.257092  -0.000000 0.000000 0.000000
99  0.319987 -0.581091 -0.676165  -0.000000 0.000000 0.000000
100  -0.361572 -0.581095 -1.106429  -0.000000 0.000000 0.000000
101  0.319987 -0.744361 -1.523146  -0.000000 0.000000 0.000000
102  -0.361572 -0.744358 -1.953412  -0.000000 0.000000 0.000000
103  0.319987 -0.927453 -2.373698  -0.000000 0.000000 0.000000
104  -0.361572 -0.927453 -2.803960  -0.000000 0.000000 0.000000
105  0.319987 -1.125117 -3.211364  -0.000000 0.000000 0.000000
106  -0.361572 -1.125115 -3.641627  -0.000000 0.000000 0.000000
107  0.319987 -1.337539 -4.057124  -0.000000 0.000000 0.000000
108  -0.361572 -1.337541 -4.487388  -0.000000 0.000000 0.000000
109  0.319987 -1.565092 -4.901086  -0.000000 0.000000 0.000000
110  -0.361572 -1.565091 -5.331349  -0.000000 0.000000 0.000000
111  0.000000 -8.571774 1.140268  -0.000000 0.000000 1.306514
112  0.013646 -12.479188 -0.492759  -0.000000 0.000000 0.000000
113  0.013646 -12.479192 -0.492750  1.570735 -0.000061 -1.570735
114  1.137636 -2.923955 0.003061  -0.000000 -0.000000 0.000000
115  15.442327 -3.429664 0.003063  -0.785013 1.570710 0.785723
116  10.376175 -3.978426 0.003054  -0.785013 1.570710 0.785723
117  19.819704 -3.429661 0.003061  0.000000 -0.000000 0.000000
118  0.028059 -40.043087 0.755307  -0.000000 0.000000 0.000000
119  11.545938 73.768410 -3.792057  -0.000000 0.000000 0.000000
120  -0.548690 -9.448413 1.300524  -0.000000 0.000000 -0.000000
121  -1.707580 8.764293 -0.082707  -0.000000 0.000000 -0.000000
122  2.259084 -9.906526 0.526930  -0.000000 0.000000 0.000000
end
