version 1
nodes
0 "blender_implicit" -1
1 "b_root" -1
2 "b_ch_middle" 1
3 "b_ch_spine1" 2
4 "b_ch_spine2" 3
5 "b_ch_l_clavical" 4
6 "b_ch_l_upperarm" 5
7 "b_ch_l_forearm" 6
8 "b_ch_l_forearm_twist1" 7
9 "b_ch_l_forearm_twist2" 7
10 "b_ch_l_forearm_twist3" 7
11 "b_ch_l_forearm_twist4" 7
12 "b_ch_l_forearm_twist5" 7
13 "b_ch_l_forearm_twist6" 7
14 "b_ch_l_forearm_twist7" 7
15 "b_ch_l_hand" 7
16 "b_ch_l_finger_00" 15
17 "b_ch_l_finger_01" 16
18 "b_ch_l_finger_02" 17
19 "b_ch_l_finger_40" 15
20 "b_ch_l_finger_41" 19
21 "b_ch_l_finger_42" 20
22 "b_ch_l_finger_20" 15
23 "b_ch_l_finger_21" 22
24 "b_ch_l_finger_22" 23
25 "b_ch_l_finger_30" 15
26 "b_ch_l_finger_31" 25
27 "b_ch_l_finger_32" 26
28 "b_ch_l_finger_10" 15
29 "b_ch_l_finger_11" 28
30 "b_ch_l_finger_12" 29
31 "b_ch_r_clavical" 4
32 "b_ch_r_upperarm" 31
33 "b_ch_r_forearm" 32
34 "b_ch_r_forearm_twist1" 33
35 "b_ch_r_forearm_twist2" 33
36 "b_ch_r_forearm_twist3" 33
37 "b_ch_r_forearm_twist4" 33
38 "b_ch_r_forearm_twist5" 33
39 "b_ch_r_forearm_twist6" 33
40 "b_ch_r_forearm_twist7" 33
41 "b_ch_r_hand" 33
42 "b_ch_r_finger_00" 41
43 "b_ch_r_finger_01" 42
44 "b_ch_r_finger_02" 43
45 "b_ch_r_finger_10" 41
46 "b_ch_r_finger_11" 45
47 "b_ch_r_finger_12" 46
48 "b_ch_r_finger_20" 41
49 "b_ch_r_finger_21" 48
50 "b_ch_r_finger_22" 49
51 "b_ch_r_finger_30" 41
52 "b_ch_r_finger_31" 51
53 "b_ch_r_finger_32" 52
54 "b_ch_r_finger_40" 41
55 "b_ch_r_finger_41" 54
56 "b_ch_r_finger_42" 55
57 "b_camera" 1
58 "ik_hand_root" 1
59 "ik_hand_r" 58
60 "ik_hand_l" 58
61 "b_wpn" 1
62 "b_wpn_eject" 61
63 "b_wpn_hammer" 61
64 "b_wpn_mag" 61
65 "b_wpn_mag_b1" 64
66 "b_wpn_mag_b2" 64
67 "b_wpn_muzzle" 61
68 "b_wpn_slide" 61
69 "b_wpn_sliderelease" 61
70 "b_wpn_trigger" 61
71 "ik_hand_wpn_r" 61
72 "ik_hand_wpn_l" 61
end
skeleton
time 0
0  0 0 0  0 0 0
1  0.000000 0.000000 0.000000  0.000000 -0.000000 -0.000000
2  -0.000000 0.000000 -52.527233  -0.000000 -0.000000 -1.570730
3  -0.012871 -0.000000 8.235031  -1.499598 -1.569940 -0.071202
4  16.163136 -0.010424 0.007552  -0.626037 0.000465 -0.000150
5  16.163143 -0.000000 3.830533  -1.570748 0.000053 -1.655185
6  14.868255 -0.000001 -0.000000  -0.865489 0.637927 -2.324559
7  26.391951 0.000000 0.000001  0.000000 -0.000000 -1.530562
8  0.000003 0.000002 0.000001  -0.113834 0.000000 -0.000000
9  3.093515 -0.000000 0.000001  -0.227671 0.000000 -0.000000
10  6.187029 -0.000003 0.000003  -0.341511 0.000000 0.000000
11  9.280539 -0.000000 0.000002  -0.455354 -0.000000 -0.000000
12  12.374056 -0.000004 0.000003  -0.569193 0.000000 -0.000000
13  15.467560 -0.000003 0.000001  -0.683020 0.000000 -0.000000
14  18.561073 -0.000005 0.000003  -0.796882 0.000000 -0.000000
15  21.654579 -0.000006 0.000003  -2.468963 -0.116247 0.435550
16  1.410070 0.800533 -2.089137  1.945422 0.548032 0.092234
17  3.954712 -0.000001 0.000001  -0.000000 -0.000000 0.382714
18  3.101563 -0.000001 -0.000000  0.000000 0.000000 0.939608
19  6.164473 -0.898157 2.575014  -0.374972 -0.352411 0.631281
20  2.805846 0.000001 0.000000  -0.000000 -0.000000 0.611427
21  2.307443 0.000000 0.000000  0.000000 0.000000 0.450280
22  7.145104 -0.676346 -1.382430  0.045141 -0.551748 0.158109
23  3.672216 -0.000003 -0.000002  -0.000000 0.000000 0.898135
24  2.676521 0.000006 -0.000001  0.000000 0.000000 0.653686
25  6.831186 -0.870865 0.599918  -0.203510 -0.477951 0.486786
26  3.657075 -0.000003 -0.000001  -0.000000 0.000000 0.734565
27  2.496796 0.000001 -0.000001  0.000000 -0.000000 0.459615
28  7.183354 -0.532084 -3.267613  0.099829 -0.537903 0.053239
29  3.511597 -0.000000 0.000000  0.000000 0.000000 0.693848
30  2.199404 0.000002 0.000000  0.000000 -0.000000 0.487871
31  16.163139 0.000000 -3.830517  1.651075 0.482928 -1.399798
32  14.868257 0.000007 -0.000000  0.821777 -0.225939 -2.932384
33  26.391951 0.000002 0.000002  0.000000 -0.000000 -1.126391
34  -0.000001 0.000001 -0.000000  0.068375 0.000000 -0.000000
35  3.093510 0.000000 -0.000000  0.136768 0.000000 -0.000000
36  6.187017 0.000001 -0.000001  0.205139 0.000000 -0.000000
37  9.280530 0.000001 -0.000001  0.273504 0.000000 0.000000
38  12.374034 -0.000001 -0.000001  0.341883 0.000000 -0.000000
39  15.467543 0.000000 -0.000000  0.410294 -0.000000 -0.000000
40  18.561058 -0.000001 -0.000001  0.478693 0.000000 0.000000
41  21.654560 -0.000001 -0.000001  2.158313 0.374347 0.388297
42  1.410075 0.800533 2.089137  -2.455008 -0.376592 0.824963
43  3.954713 -0.000001 -0.000001  0.622088 -0.016235 0.752890
44  3.101566 0.000001 -0.000000  -0.053371 -0.141564 0.750013
45  7.183352 -0.532085 3.267607  0.112844 0.608805 0.294928
46  3.511591 0.000000 0.000000  -0.000000 0.000000 0.461057
47  2.199406 0.000001 -0.000000  0.000000 0.000000 0.870918
48  7.145097 -0.676341 1.382427  0.427341 0.825415 1.068211
49  3.672216 0.000001 0.000001  -0.082098 -0.079434 0.954901
50  2.676522 0.000002 -0.000001  0.000000 -0.000000 1.219319
51  6.831174 -0.870863 -0.599915  0.539837 0.671509 1.287529
52  3.657071 -0.000002 -0.000003  -0.028033 -0.061971 0.969805
53  2.496795 0.000004 0.000001  0.000000 0.000000 0.893327
54  6.164472 -0.898149 -2.575014  0.639502 0.468388 1.413400
55  2.805844 -0.000002 0.000000  0.000000 0.000000 0.564425
56  2.307447 0.000002 0.000000  0.000000 -0.000000 0.716416
57  0.000000 0.000000 -0.000000  0.000000 -0.000000 0.000000
58  0.000000 0.000000 -0.000000  0.000000 -0.000000 -0.000000
59  -1.518866 -23.897346 -9.868583  -0.053109 -0.413186 -1.726166
60  3.948054 -24.147446 -13.529259  -0.383005 -2.725300 1.232621
61  -0.000000 -34.767918 -3.004698  0.000000 -0.000000 -0.000000
62  -0.180997 1.959579 1.849705  0.000310 -0.856756 3.140914
63  -0.001848 6.454235 0.137409  -1.367810 0.000000 -0.000000
64  -0.002977 4.936161 -4.445397  0.000000 -0.000000 -0.000000
65  0.001122 -1.588310 5.004890  0.000000 0.000000 -0.000000
66  0.001122 -1.588306 5.004890  0.000000 0.000000 -0.000000
67  -0.001022 -11.528439 1.778218  -0.000000 -0.000000 -1.570730
68  -0.000000 0.000000 1.143605  0.000000 -0.000000 -0.000000
69  1.294765 0.731003 -0.285225  0.000000 0.000000 -0.000000
70  -0.001845 0.225124 -1.444350  0.614500 -0.000000 0.000000
71  -1.518861 10.870565 -6.863901  -0.053109 -0.413186 -1.726166
72  3.948057 10.620466 -10.524573  -0.383005 -2.725300 1.232621
time 1
0  0 0 0  0 0 0
1  0.000000 0.000000 0.000000  0.000000 -0.000000 -0.000000
2  -0.000000 0.000000 -52.527233  -0.000000 -0.000000 -1.570730
3  -0.012871 -0.000000 8.235031  -1.499598 -1.569940 -0.071202
4  16.163136 -0.010424 0.007552  -0.626037 0.000465 -0.000150
5  16.163143 -0.000000 3.830533  -1.570748 0.000053 -1.655185
6  14.868255 -0.000001 -0.000000  -0.865489 0.637927 -2.324559
7  26.391951 0.000000 0.000001  0.000000 -0.000000 -1.530562
8  0.000003 0.000002 0.000001  -0.113834 0.000000 -0.000000
9  3.093515 -0.000000 0.000001  -0.227671 0.000000 -0.000000
10  6.187029 -0.000003 0.000003  -0.341511 0.000000 0.000000
11  9.280539 -0.000000 0.000002  -0.455354 -0.000000 -0.000000
12  12.374056 -0.000004 0.000003  -0.569193 0.000000 -0.000000
13  15.467560 -0.000003 0.000001  -0.683020 0.000000 -0.000000
14  18.561073 -0.000005 0.000003  -0.796882 0.000000 -0.000000
15  21.654579 -0.000006 0.000003  -2.468963 -0.116247 0.435550
16  1.410070 0.800533 -2.089137  1.945422 0.548032 0.092234
17  3.954712 -0.000001 0.000001  -0.000000 -0.000000 0.382714
18  3.101563 -0.000001 -0.000000  0.000000 0.000000 0.939608
19  6.164473 -0.898157 2.575014  -0.374972 -0.352411 0.631281
20  2.805846 0.000001 0.000000  -0.000000 -0.000000 0.611427
21  2.307443 0.000000 0.000000  0.000000 0.000000 0.450280
22  7.145104 -0.676346 -1.382430  0.045141 -0.551748 0.158109
23  3.672216 -0.000003 -0.000002  -0.000000 0.000000 0.898135
24  2.676521 0.000006 -0.000001  0.000000 0.000000 0.653686
25  6.831186 -0.870865 0.599918  -0.203510 -0.477951 0.486786
26  3.657075 -0.000003 -0.000001  -0.000000 0.000000 0.734565
27  2.496796 0.000001 -0.000001  0.000000 -0.000000 0.459615
28  7.183354 -0.532084 -3.267613  0.099829 -0.537903 0.053239
29  3.511597 -0.000000 0.000000  0.000000 0.000000 0.693848
30  2.199404 0.000002 0.000000  0.000000 -0.000000 0.487871
31  16.163139 0.000000 -3.830517  1.651075 0.482928 -1.399798
32  14.868257 0.000007 -0.000000  0.821777 -0.225939 -2.932384
33  26.391951 0.000002 0.000002  0.000000 -0.000000 -1.126391
34  -0.000001 0.000001 -0.000000  0.068375 0.000000 -0.000000
35  3.093510 0.000000 -0.000000  0.136768 0.000000 -0.000000
36  6.187017 0.000001 -0.000001  0.205139 0.000000 -0.000000
37  9.280530 0.000001 -0.000001  0.273504 0.000000 0.000000
38  12.374034 -0.000001 -0.000001  0.341883 0.000000 -0.000000
39  15.467543 0.000000 -0.000000  0.410294 -0.000000 -0.000000
40  18.561058 -0.000001 -0.000001  0.478693 0.000000 0.000000
41  21.654560 -0.000001 -0.000001  2.158313 0.374347 0.388297
42  1.410075 0.800533 2.089137  -2.455008 -0.376592 0.824963
43  3.954713 -0.000001 -0.000001  0.622088 -0.016235 0.752890
44  3.101566 0.000001 -0.000000  -0.053371 -0.141564 0.750013
45  7.183352 -0.532085 3.267607  0.112844 0.608805 0.294928
46  3.511591 0.000000 0.000000  -0.000000 0.000000 0.461057
47  2.199406 0.000001 -0.000000  0.000000 0.000000 0.870918
48  7.145097 -0.676341 1.382427  0.427341 0.825415 1.068211
49  3.672216 0.000001 0.000001  -0.082098 -0.079434 0.954901
50  2.676522 0.000002 -0.000001  0.000000 -0.000000 1.219319
51  6.831174 -0.870863 -0.599915  0.539837 0.671509 1.287529
52  3.657071 -0.000002 -0.000003  -0.028033 -0.061971 0.969805
53  2.496795 0.000004 0.000001  0.000000 0.000000 0.893327
54  6.164472 -0.898149 -2.575014  0.639502 0.468388 1.413400
55  2.805844 -0.000002 0.000000  0.000000 0.000000 0.564425
56  2.307447 0.000002 0.000000  0.000000 -0.000000 0.716416
57  0.000000 0.000000 -0.000000  0.000000 -0.000000 0.000000
58  0.000000 0.000000 -0.000000  0.000000 -0.000000 -0.000000
59  -1.518866 -23.897346 -9.868583  -0.053109 -0.413186 -1.726166
60  3.948054 -24.147446 -13.529259  -0.383005 -2.725300 1.232621
61  -0.000000 -34.767918 -3.004698  0.000000 -0.000000 -0.000000
62  -0.180997 1.959579 1.849705  0.000310 -0.856756 3.140914
63  -0.001848 6.454235 0.137409  -1.367810 0.000000 -0.000000
64  -0.002977 4.936161 -4.445397  0.000000 -0.000000 -0.000000
65  0.001122 -1.588310 5.004890  0.000000 0.000000 -0.000000
66  0.001122 -1.588306 5.004890  0.000000 0.000000 -0.000000
67  -0.001022 -11.528439 1.778218  -0.000000 -0.000000 -1.570730
68  -0.000000 0.000000 1.143605  0.000000 -0.000000 -0.000000
69  1.294765 0.731003 -0.285225  0.000000 0.000000 -0.000000
70  -0.001845 0.225124 -1.444350  0.614500 -0.000000 0.000000
71  -1.518861 10.870565 -6.863901  -0.053109 -0.413186 -1.726166
72  3.948057 10.620466 -10.524573  -0.383005 -2.725300 1.232621
time 2
0  0 0 0  0 0 0
1  0.000000 0.000000 0.000000  0.000000 -0.000000 -0.000000
2  -0.000000 0.000000 -52.527233  -0.000000 -0.000000 -1.570730
3  -0.012871 -0.000000 8.235031  -1.499598 -1.569940 -0.071202
4  16.163136 -0.010424 0.007552  -0.626037 0.000465 -0.000150
5  16.163143 -0.000000 3.830533  -1.570748 0.000053 -1.655185
6  14.868255 -0.000001 -0.000000  -0.865489 0.637927 -2.324559
7  26.391951 0.000000 0.000001  0.000000 -0.000000 -1.530562
8  0.000003 0.000002 0.000001  -0.113834 0.000000 -0.000000
9  3.093515 -0.000000 0.000001  -0.227671 0.000000 -0.000000
10  6.187029 -0.000003 0.000003  -0.341511 0.000000 0.000000
11  9.280539 -0.000000 0.000002  -0.455354 -0.000000 -0.000000
12  12.374056 -0.000004 0.000003  -0.569193 0.000000 -0.000000
13  15.467560 -0.000003 0.000001  -0.683020 0.000000 -0.000000
14  18.561073 -0.000005 0.000003  -0.796882 0.000000 -0.000000
15  21.654579 -0.000006 0.000003  -2.468963 -0.116247 0.435550
16  1.410070 0.800533 -2.089137  1.945422 0.548032 0.092234
17  3.954712 -0.000001 0.000001  -0.000000 -0.000000 0.382714
18  3.101563 -0.000001 -0.000000  0.000000 0.000000 0.939608
19  6.164473 -0.898157 2.575014  -0.374972 -0.352411 0.631281
20  2.805846 0.000001 0.000000  -0.000000 -0.000000 0.611427
21  2.307443 0.000000 0.000000  0.000000 0.000000 0.450280
22  7.145104 -0.676346 -1.382430  0.045141 -0.551748 0.158109
23  3.672216 -0.000003 -0.000002  -0.000000 0.000000 0.898135
24  2.676521 0.000006 -0.000001  0.000000 0.000000 0.653686
25  6.831186 -0.870865 0.599918  -0.203510 -0.477951 0.486786
26  3.657075 -0.000003 -0.000001  -0.000000 0.000000 0.734565
27  2.496796 0.000001 -0.000001  0.000000 -0.000000 0.459615
28  7.183354 -0.532084 -3.267613  0.099829 -0.537903 0.053239
29  3.511597 -0.000000 0.000000  0.000000 0.000000 0.693848
30  2.199404 0.000002 0.000000  0.000000 -0.000000 0.487871
31  16.163139 0.000000 -3.830517  1.651075 0.482928 -1.399798
32  14.868257 0.000007 -0.000000  0.821777 -0.225939 -2.932384
33  26.391951 0.000002 0.000002  0.000000 -0.000000 -1.126391
34  -0.000001 0.000001 -0.000000  0.068375 0.000000 -0.000000
35  3.093510 0.000000 -0.000000  0.136768 0.000000 -0.000000
36  6.187017 0.000001 -0.000001  0.205139 0.000000 -0.000000
37  9.280530 0.000001 -0.000001  0.273504 0.000000 0.000000
38  12.374034 -0.000001 -0.000001  0.341883 0.000000 -0.000000
39  15.467543 0.000000 -0.000000  0.410294 -0.000000 -0.000000
40  18.561058 -0.000001 -0.000001  0.478693 0.000000 0.000000
41  21.654560 -0.000001 -0.000001  2.158313 0.374347 0.388297
42  1.410075 0.800533 2.089137  -2.455008 -0.376592 0.824963
43  3.954713 -0.000001 -0.000001  0.622088 -0.016235 0.752890
44  3.101566 0.000001 -0.000000  -0.053371 -0.141564 0.750013
45  7.183352 -0.532085 3.267607  0.112844 0.608805 0.294928
46  3.511591 0.000000 0.000000  -0.000000 0.000000 0.461057
47  2.199406 0.000001 -0.000000  0.000000 0.000000 0.870918
48  7.145097 -0.676341 1.382427  0.427341 0.825415 1.068211
49  3.672216 0.000001 0.000001  -0.082098 -0.079434 0.954901
50  2.676522 0.000002 -0.000001  0.000000 -0.000000 1.219319
51  6.831174 -0.870863 -0.599915  0.539837 0.671509 1.287529
52  3.657071 -0.000002 -0.000003  -0.028033 -0.061971 0.969805
53  2.496795 0.000004 0.000001  0.000000 0.000000 0.893327
54  6.164472 -0.898149 -2.575014  0.639502 0.468388 1.413400
55  2.805844 -0.000002 0.000000  0.000000 0.000000 0.564425
56  2.307447 0.000002 0.000000  0.000000 -0.000000 0.716416
57  0.000000 0.000000 -0.000000  0.000000 -0.000000 0.000000
58  0.000000 0.000000 -0.000000  0.000000 -0.000000 -0.000000
59  -1.518866 -23.897346 -9.868583  -0.053109 -0.413186 -1.726166
60  3.948054 -24.147446 -13.529259  -0.383005 -2.725300 1.232621
61  -0.000000 -34.767918 -3.004698  0.000000 -0.000000 -0.000000
62  -0.180997 1.959579 1.849705  0.000310 -0.856756 3.140914
63  -0.001848 6.454235 0.137409  -1.367810 0.000000 -0.000000
64  -0.002977 4.936161 -4.445397  0.000000 -0.000000 -0.000000
65  0.001122 -1.588310 5.004890  0.000000 0.000000 -0.000000
66  0.001122 -1.588306 5.004890  0.000000 0.000000 -0.000000
67  -0.001022 -11.528439 1.778218  -0.000000 -0.000000 -1.570730
68  -0.000000 0.000000 1.143605  0.000000 -0.000000 -0.000000
69  1.294765 0.731003 -0.285225  0.000000 0.000000 -0.000000
70  -0.001845 0.225124 -1.444350  0.614500 -0.000000 0.000000
71  -1.518861 10.870565 -6.863901  -0.053109 -0.413186 -1.726166
72  3.948057 10.620466 -10.524573  -0.383005 -2.725300 1.232621
end
