version 1
nodes
0 "blender_implicit" -1
1 "b_root" -1
2 "b_ch_middle" 1
3 "b_ch_spine1" 2
4 "b_ch_spine2" 3
5 "b_ch_l_clavical" 4
6 "b_ch_l_upperarm" 5
7 "b_ch_l_forearm" 6
8 "b_ch_l_forearm_twist1" 7
9 "b_ch_l_forearm_twist2" 7
10 "b_ch_l_forearm_twist3" 7
11 "b_ch_l_forearm_twist4" 7
12 "b_ch_l_forearm_twist5" 7
13 "b_ch_l_forearm_twist6" 7
14 "b_ch_l_forearm_twist7" 7
15 "b_ch_l_hand" 7
16 "b_ch_l_finger_00" 15
17 "b_ch_l_finger_01" 16
18 "b_ch_l_finger_02" 17
19 "b_ch_l_finger_40" 15
20 "b_ch_l_finger_41" 19
21 "b_ch_l_finger_42" 20
22 "b_ch_l_finger_20" 15
23 "b_ch_l_finger_21" 22
24 "b_ch_l_finger_22" 23
25 "b_ch_l_finger_30" 15
26 "b_ch_l_finger_31" 25
27 "b_ch_l_finger_32" 26
28 "b_ch_l_finger_10" 15
29 "b_ch_l_finger_11" 28
30 "b_ch_l_finger_12" 29
31 "b_ch_r_clavical" 4
32 "b_ch_r_upperarm" 31
33 "b_ch_r_forearm" 32
34 "b_ch_r_forearm_twist1" 33
35 "b_ch_r_forearm_twist2" 33
36 "b_ch_r_forearm_twist3" 33
37 "b_ch_r_forearm_twist4" 33
38 "b_ch_r_forearm_twist5" 33
39 "b_ch_r_forearm_twist6" 33
40 "b_ch_r_forearm_twist7" 33
41 "b_ch_r_hand" 33
42 "b_ch_r_finger_00" 41
43 "b_ch_r_finger_01" 42
44 "b_ch_r_finger_02" 43
45 "b_ch_r_finger_10" 41
46 "b_ch_r_finger_11" 45
47 "b_ch_r_finger_12" 46
48 "b_ch_r_finger_20" 41
49 "b_ch_r_finger_21" 48
50 "b_ch_r_finger_22" 49
51 "b_ch_r_finger_30" 41
52 "b_ch_r_finger_31" 51
53 "b_ch_r_finger_32" 52
54 "b_ch_r_finger_40" 41
55 "b_ch_r_finger_41" 54
56 "b_ch_r_finger_42" 55
57 "b_camera" 1
58 "ik_hand_root" 1
59 "ik_hand_r" 58
60 "ik_hand_l" 58
61 "b_wpn" 1
62 "b_wpn_eject" 61
63 "b_wpn_fireselect" 61
64 "b_wpn_foregrip" 61
65 "b_wpn_gl" 61
66 "b_wpn_gl_slide" 65
67 "b_wpn_gl_trigger" 65
68 "b_wpn_gl_round" 65
69 "b_wpn_gl_casing" 65
70 "b_wpn_gl_slidelock" 65
71 "b_wpn_gl_muzzle" 65
72 "b_wpn_flash" 61
73 "b_wpn_flash_beam" 72
74 "b_wpn_magrelease" 61
75 "b_wpn_muzzle" 61
76 "b_wpn_optic" 61
77 "b_wpn_sliderelease" 61
78 "b_wpn_spec_1" 61
79 "b_wpn_spec_2" 61
80 "b_wpn_suppressor" 61
81 "b_wpn_suppressor_muzzle" 80
82 "b_wpn_trigger" 61
83 "ik_hand_wpn_l" 61
84 "ik_hand_wpn_r" 61
85 "b_wpn_laser" 61
86 "b_wpn_laser_beam" 85
87 "b_wpn_bayonet" 61
88 "b_wpn_mag" 61
89 "b_wpn_mag_b1" 88
90 "b_wpn_mag_b2" 88
91 "b_wpn_mag_follow" 88
92 "b_wpn_chargehandle" 61
93 "b_wpn_bolt" 61
94 "b_wpn_mag_2" 61
95 "b_wpn_gripod" 61
96 "b_wpn_gripod_base" 95
97 "b_wpn_gripod_base_r" 96
98 "b_wpn_gripod_base_l" 96
99 "b_wpn_bipod" 61
100 "b_wpn_bipod_base" 99
101 "b_wpn_bipod_spring_l" 100
102 "b_wpn_bipod_spring_r" 100
103 "b_wpn_bipod_base_l" 100
104 "b_wpn_bipod_spring_base_l" 103
105 "b_wpn_bipod_base_r" 100
106 "b_wpn_bipod_spring_base_r" 105
107 "b_wpn_slide" 61
end
skeleton
time 0
0  0 0 0  0 0 0
1  0.000000 0.000000 0.000000  0.000000 -0.000000 -0.000000
2  -0.000000 0.000000 -61.375511  -0.000000 -0.000000 -1.570730
3  -0.012815 -0.000000 8.236240  -1.570101 -1.475785 -0.000632
4  16.160961 -0.011417 0.005532  -0.444158 0.000296 -0.187688
5  16.163136 0.000001 3.830527  -0.855081 -0.891075 -2.411998
6  14.868260 0.000000 0.000003  -0.592958 0.419800 -1.788996
7  26.391953 0.000002 -0.000003  0.000000 -0.000000 -0.971087
8  0.000000 0.000002 0.000000  -0.055123 -0.000000 -0.000000
9  3.093510 0.000006 0.000001  -0.110228 0.000000 -0.000000
10  6.187022 0.000001 0.000001  -0.165354 -0.000000 0.000000
11  9.280535 0.000005 0.000001  -0.220485 -0.000000 -0.000000
12  12.374046 0.000007 0.000001  -0.275661 -0.000000 0.000000
13  15.467556 0.000003 0.000000  -0.330801 0.000000 0.000000
14  18.561069 0.000004 0.000001  -0.385885 0.000000 0.000000
15  21.654579 0.000006 -0.000002  -2.007479 -0.462979 0.728608
16  1.410060 0.800540 -2.089134  1.962076 0.348660 0.647544
17  3.954706 -0.000003 -0.000001  -0.098492 -0.074758 0.473560
18  3.101571 -0.000001 -0.000002  0.031772 0.034348 1.090949
19  6.164459 -0.898152 2.575016  -0.159714 0.059418 1.010044
20  2.805842 -0.000006 -0.000001  0.000000 0.000001 0.800525
21  2.307443 0.000005 0.000001  -0.000000 -0.000000 0.740717
22  7.145090 -0.676342 -1.382422  -0.051126 -0.045585 1.299593
23  3.672215 0.000001 0.000000  0.000000 0.000000 1.251590
24  2.676518 -0.000001 0.000003  -0.000000 0.000000 1.225654
25  6.831169 -0.870865 0.599910  -0.113570 -0.001390 1.258688
26  3.657082 -0.000004 0.000003  0.000000 0.000000 1.122783
27  2.496790 -0.000003 0.000000  -0.000000 0.000000 1.071209
28  7.183341 -0.532078 -3.267604  -0.029344 -0.098457 1.158859
29  3.511592 0.000001 0.000000  -0.000000 0.000000 1.487253
30  2.199403 0.000003 -0.000000  0.000000 -0.000000 0.774813
31  16.163134 0.000001 -3.830524  1.797312 0.742339 -1.242921
32  14.868262 0.000000 -0.000001  0.833574 -0.300702 -2.350953
33  26.391949 -0.000001 -0.000001  0.000000 0.000000 -1.414242
34  -0.000003 0.000000 0.000000  0.118909 -0.000000 0.000000
35  3.093508 -0.000000 -0.000001  0.237811 0.000000 -0.000000
36  6.187012 0.000001 0.000001  0.356758 -0.000000 -0.000000
37  9.280529 0.000002 0.000001  0.475678 0.000000 -0.000000
38  12.374035 0.000000 0.000000  0.594616 -0.000000 -0.000000
39  15.467541 0.000003 0.000002  0.713549 -0.000000 -0.000000
40  18.561054 0.000002 0.000001  0.832447 -0.000000 -0.000000
41  21.654568 0.000000 -0.000001  2.367904 -0.076085 0.680952
42  1.410065 0.800534 2.089140  -2.043569 -0.463585 0.665938
43  3.954708 -0.000002 0.000000  0.000000 0.000000 0.689306
44  3.101568 -0.000001 0.000001  0.000000 -0.000000 0.638238
45  7.183354 -0.532091 3.267613  -0.013827 0.007103 -0.122387
46  3.511590 0.000001 0.000002  -0.000000 0.000000 0.822448
47  2.199410 -0.000001 -0.000001  0.000000 -0.000000 0.894343
48  7.145091 -0.676343 1.382430  0.062132 0.270294 0.703663
49  3.672211 0.000001 -0.000000  -0.000000 -0.000000 1.498228
50  2.676522 -0.000001 0.000001  0.000000 0.000000 1.006799
51  6.831175 -0.870867 -0.599914  0.231870 0.205730 0.934412
52  3.657080 0.000001 -0.000002  -0.000000 -0.000000 1.453512
53  2.496789 -0.000001 -0.000002  0.000000 -0.000000 0.750482
54  6.164466 -0.898149 -2.575011  0.332665 0.188119 0.821904
55  2.805844 -0.000003 0.000001  0.000000 -0.000000 0.963434
56  2.307445 -0.000002 -0.000002  -0.000000 0.000000 0.990530
57  0.000000 0.000000 -0.000000  0.000000 -0.000000 0.000000
58  0.000000 0.000000 -0.000000  0.000000 -0.000000 -0.000000
59  -9.906878 -20.992603 -17.286423  -0.008096 -0.065381 -1.488485
60  -5.052508 -37.339020 -19.502394  0.010650 -2.896044 1.534386
61  -7.599804 -32.675884 -10.684211  0.000000 -0.000000 0.000000
62  -1.920885 18.183334 1.683520  0.000111 -0.424416 3.141069
63  0.001272 4.285938 -0.189682  -0.000000 -0.000000 -0.000000
64  0.000000 -10.183979 -2.273293  -0.000000 -0.000000 -0.000000
65  -0.002044 -3.169754 2.277850  1.570735 -0.000061 -1.570735
66  8.769395 -2.675090 -2.292494  -0.000000 -0.000000 -0.000000
67  -1.584220 -9.364037 -0.000000  -0.000000 -0.000000 0.000000
68  10.555303 -5.113571 -0.000000  -0.786506 1.570710 0.784229
69  6.464094 -5.113573 -0.000000  -0.786019 1.570710 0.784716
70  7.053378 -1.968533 2.001228  -0.786214 1.570710 0.784521
71  26.793745 -5.113561 0.000001  -0.000000 -0.000000 0.000000
72  -2.662412 1.445786 40.667957  0.000344 3.141247 1.570796
73  8.352066 2.772896 0.000542  -3.141593 -0.000000 -0.000000
74  0.001274 21.193815 -3.302083  -0.000000 -0.000000 -0.000000
75  0.059852 -33.068928 1.081984  1.570735 -0.000061 -1.570735
76  0.064652 27.351343 72.195198  0.000000 -0.000000 -0.000000
77  -0.015972 22.874779 -3.467206  -0.000000 -0.000000 -0.000000
78  -1.910437 17.681803 0.736557  -0.000000 -0.000000 0.000000
79  1.907185 17.681807 0.736557  -0.000000 -0.000000 0.000000
80  0.059885 2.255373 54.398010  -0.000000 0.000000 0.000000
81  0.003497 -22.270643 0.000000  1.570735 -0.000061 -1.570735
82  0.000000 1.724012 -0.208863  -0.000000 -0.000000 -0.000000
83  2.547295 -4.663132 -8.818192  0.010650 -2.896044 1.534386
84  -2.307074 11.683281 -6.602227  -0.008096 -0.065381 -1.488485
85  -2.662412 1.445789 33.628742  0.000344 3.141247 1.570796
86  8.352063 2.772896 0.000540  -3.141593 -0.000000 -0.000000
87  0.006392 -45.818317 0.735938  1.570735 -0.000061 -1.570735
88  -0.108374 16.549215 -6.332990  -0.000000 -0.000000 -0.000000
89  -0.152044 -0.178986 6.405251  0.000000 0.000000 0.000000
90  0.326862 -0.178988 5.798759  0.000000 0.000000 0.000000
91  0.000000 0.000000 3.169724  0.000000 -0.000000 -1.570730
92  0.000000 -4.587574 4.619921  -0.000000 -0.000000 -0.000000
93  -0.000000 16.791761 1.045720  0.000000 -0.000000 -1.570730
94  22.846523 98.319473 -39.725815  0.000000 -0.000000 -0.000000
95  0.000000 -10.070927 -2.318768  -0.000000 -0.000000 0.000000
96  -0.000000 0.000000 -1.529051  -0.000000 -0.000000 -0.000000
97  -0.078942 0.000000 0.000000  -0.000000 0.000000 1.570730
98  0.097092 0.000000 0.000000  0.000001 -3.141592 1.570796
99  0.000000 -13.006138 -2.049211  -0.000000 -0.000000 0.000000
100  -0.000000 0.000000 0.000000  0.000000 -0.000000 -0.000000
101  1.754237 4.036758 -1.682666  0.392549 -0.010099 -1.546344
102  -1.755140 4.036758 -1.682667  -0.392547 -0.010382 -1.594901
103  1.907531 0.861420 -2.954427  -0.392858 -0.000004 1.570779
104  -11.350045 -0.729410 0.864871  0.000154 -0.025335 0.026430
105  -1.530660 0.861423 -3.109958  0.392682 0.000010 1.570745
106  -11.344179 1.135891 0.869270  0.000328 -0.024963 -0.026314
107  0.000000 -3.002972 4.619922  1.570735 0.000061 1.570735
time 1
0  0 0 0  0 0 0
1  0.000000 0.000000 0.000000  0.000000 -0.000000 -0.000000
2  -0.000000 0.000000 -61.375511  -0.000000 -0.000000 -1.570730
3  -0.012815 -0.000000 8.236240  -1.570101 -1.475785 -0.000632
4  16.160961 -0.011417 0.005532  -0.444158 0.000296 -0.187688
5  16.163136 0.000001 3.830527  -0.855081 -0.891075 -2.411998
6  14.868260 0.000000 0.000003  -0.592958 0.419800 -1.788996
7  26.391953 0.000002 -0.000003  0.000000 -0.000000 -0.971087
8  0.000000 0.000002 0.000000  -0.055123 -0.000000 -0.000000
9  3.093510 0.000006 0.000001  -0.110228 0.000000 -0.000000
10  6.187022 0.000001 0.000001  -0.165354 -0.000000 0.000000
11  9.280535 0.000005 0.000001  -0.220485 -0.000000 -0.000000
12  12.374046 0.000007 0.000001  -0.275661 -0.000000 0.000000
13  15.467556 0.000003 0.000000  -0.330801 0.000000 0.000000
14  18.561069 0.000004 0.000001  -0.385885 0.000000 0.000000
15  21.654579 0.000006 -0.000002  -2.007479 -0.462979 0.728608
16  1.410060 0.800540 -2.089134  1.962076 0.348660 0.647544
17  3.954706 -0.000003 -0.000001  -0.098492 -0.074758 0.473560
18  3.101571 -0.000001 -0.000002  0.031772 0.034348 1.090949
19  6.164459 -0.898152 2.575016  -0.159714 0.059418 1.010044
20  2.805842 -0.000006 -0.000001  0.000000 0.000001 0.800525
21  2.307443 0.000005 0.000001  -0.000000 -0.000000 0.740717
22  7.145090 -0.676342 -1.382422  -0.051126 -0.045585 1.299593
23  3.672215 0.000001 0.000000  0.000000 0.000000 1.251590
24  2.676518 -0.000001 0.000003  -0.000000 0.000000 1.225654
25  6.831169 -0.870865 0.599910  -0.113570 -0.001390 1.258688
26  3.657082 -0.000004 0.000003  0.000000 0.000000 1.122783
27  2.496790 -0.000003 0.000000  -0.000000 0.000000 1.071209
28  7.183341 -0.532078 -3.267604  -0.029344 -0.098457 1.158859
29  3.511592 0.000001 0.000000  -0.000000 0.000000 1.487253
30  2.199403 0.000003 -0.000000  0.000000 -0.000000 0.774813
31  16.163134 0.000001 -3.830524  1.797312 0.742339 -1.242921
32  14.868262 0.000000 -0.000001  0.833574 -0.300702 -2.350953
33  26.391949 -0.000001 -0.000001  0.000000 0.000000 -1.414242
34  -0.000003 0.000000 0.000000  0.118909 -0.000000 0.000000
35  3.093508 -0.000000 -0.000001  0.237811 0.000000 -0.000000
36  6.187012 0.000001 0.000001  0.356758 -0.000000 -0.000000
37  9.280529 0.000002 0.000001  0.475678 0.000000 -0.000000
38  12.374035 0.000000 0.000000  0.594616 -0.000000 -0.000000
39  15.467541 0.000003 0.000002  0.713549 -0.000000 -0.000000
40  18.561054 0.000002 0.000001  0.832447 -0.000000 -0.000000
41  21.654568 0.000000 -0.000001  2.367904 -0.076085 0.680952
42  1.410065 0.800534 2.089140  -2.043569 -0.463585 0.665938
43  3.954708 -0.000002 0.000000  0.000000 0.000000 0.689306
44  3.101568 -0.000001 0.000001  0.000000 -0.000000 0.638238
45  7.183354 -0.532091 3.267613  -0.013827 0.007103 -0.122387
46  3.511590 0.000001 0.000002  -0.000000 0.000000 0.822448
47  2.199410 -0.000001 -0.000001  0.000000 -0.000000 0.894343
48  7.145091 -0.676343 1.382430  0.062132 0.270294 0.703663
49  3.672211 0.000001 -0.000000  -0.000000 -0.000000 1.498228
50  2.676522 -0.000001 0.000001  0.000000 0.000000 1.006799
51  6.831175 -0.870867 -0.599914  0.231870 0.205730 0.934412
52  3.657080 0.000001 -0.000002  -0.000000 -0.000000 1.453512
53  2.496789 -0.000001 -0.000002  0.000000 -0.000000 0.750482
54  6.164466 -0.898149 -2.575011  0.332665 0.188119 0.821904
55  2.805844 -0.000003 0.000001  0.000000 -0.000000 0.963434
56  2.307445 -0.000002 -0.000002  -0.000000 0.000000 0.990530
57  0.000000 0.000000 -0.000000  0.000000 -0.000000 0.000000
58  0.000000 0.000000 -0.000000  0.000000 -0.000000 -0.000000
59  -9.906878 -20.992603 -17.286423  -0.008096 -0.065381 -1.488485
60  -5.052508 -37.339020 -19.502394  0.010650 -2.896044 1.534386
61  -7.599804 -32.675884 -10.684211  0.000000 -0.000000 0.000000
62  -1.920885 18.183334 1.683520  0.000111 -0.424416 3.141069
63  0.001272 4.285938 -0.189682  -0.000000 -0.000000 -0.000000
64  0.000000 -10.183979 -2.273293  -0.000000 -0.000000 -0.000000
65  -0.002044 -3.169754 2.277850  1.570735 -0.000061 -1.570735
66  8.769395 -2.675090 -2.292494  -0.000000 -0.000000 -0.000000
67  -1.584220 -9.364037 -0.000000  -0.000000 -0.000000 0.000000
68  10.555303 -5.113571 -0.000000  -0.786506 1.570710 0.784229
69  6.464094 -5.113573 -0.000000  -0.786019 1.570710 0.784716
70  7.053378 -1.968533 2.001228  -0.786214 1.570710 0.784521
71  26.793745 -5.113561 0.000001  -0.000000 -0.000000 0.000000
72  -2.662412 1.445786 40.667957  0.000344 3.141247 1.570796
73  8.352066 2.772896 0.000542  -3.141593 -0.000000 -0.000000
74  0.001274 21.193815 -3.302083  -0.000000 -0.000000 -0.000000
75  0.059852 -33.068928 1.081984  1.570735 -0.000061 -1.570735
76  0.064652 27.351343 72.195198  0.000000 -0.000000 -0.000000
77  -0.015972 22.874779 -3.467206  -0.000000 -0.000000 -0.000000
78  -1.910437 17.681803 0.736557  -0.000000 -0.000000 0.000000
79  1.907185 17.681807 0.736557  -0.000000 -0.000000 0.000000
80  0.059885 2.255373 54.398010  -0.000000 0.000000 0.000000
81  0.003497 -22.270643 0.000000  1.570735 -0.000061 -1.570735
82  0.000000 1.724012 -0.208863  -0.000000 -0.000000 -0.000000
83  2.547295 -4.663132 -8.818192  0.010650 -2.896044 1.534386
84  -2.307074 11.683281 -6.602227  -0.008096 -0.065381 -1.488485
85  -2.662412 1.445789 33.628742  0.000344 3.141247 1.570796
86  8.352063 2.772896 0.000540  -3.141593 -0.000000 -0.000000
87  0.006392 -45.818317 0.735938  1.570735 -0.000061 -1.570735
88  -0.108374 16.549215 -6.332990  -0.000000 -0.000000 -0.000000
89  -0.152044 -0.178986 6.405251  0.000000 0.000000 0.000000
90  0.326862 -0.178988 5.798759  0.000000 0.000000 0.000000
91  0.000000 0.000000 3.169724  0.000000 -0.000000 -1.570730
92  0.000000 -4.587574 4.619921  -0.000000 -0.000000 -0.000000
93  -0.000000 16.791761 1.045720  0.000000 -0.000000 -1.570730
94  22.846523 98.319473 -39.725815  0.000000 -0.000000 -0.000000
95  0.000000 -10.070927 -2.318768  -0.000000 -0.000000 0.000000
96  -0.000000 0.000000 -1.529051  -0.000000 -0.000000 -0.000000
97  -0.078942 0.000000 0.000000  -0.000000 0.000000 1.570730
98  0.097092 0.000000 0.000000  0.000001 -3.141592 1.570796
99  0.000000 -13.006138 -2.049211  -0.000000 -0.000000 0.000000
100  -0.000000 0.000000 0.000000  0.000000 -0.000000 -0.000000
101  1.754237 4.036758 -1.682666  0.392549 -0.010099 -1.546344
102  -1.755140 4.036758 -1.682667  -0.392547 -0.010382 -1.594901
103  1.907531 0.861420 -2.954427  -0.392858 -0.000004 1.570779
104  -11.350045 -0.729410 0.864871  0.000154 -0.025335 0.026430
105  -1.530660 0.861423 -3.109958  0.392682 0.000010 1.570745
106  -11.344179 1.135891 0.869270  0.000328 -0.024963 -0.026314
107  0.000000 -3.002972 4.619922  1.570735 0.000061 1.570735
end
