version 1
nodes
0 "blender_implicit" -1
1 "b_root" -1
2 "b_ch_middle" 1
3 "b_ch_spine1" 2
4 "b_ch_spine2" 3
5 "b_ch_l_clavical" 4
6 "b_ch_l_upperarm" 5
7 "b_ch_l_forearm" 6
8 "b_ch_l_forearm_twist1" 7
9 "b_ch_l_forearm_twist2" 7
10 "b_ch_l_forearm_twist3" 7
11 "b_ch_l_forearm_twist4" 7
12 "b_ch_l_forearm_twist5" 7
13 "b_ch_l_forearm_twist6" 7
14 "b_ch_l_forearm_twist7" 7
15 "b_ch_l_hand" 7
16 "b_ch_l_finger_00" 15
17 "b_ch_l_finger_01" 16
18 "b_ch_l_finger_02" 17
19 "b_ch_l_finger_40" 15
20 "b_ch_l_finger_41" 19
21 "b_ch_l_finger_42" 20
22 "b_ch_l_finger_20" 15
23 "b_ch_l_finger_21" 22
24 "b_ch_l_finger_22" 23
25 "b_ch_l_finger_30" 15
26 "b_ch_l_finger_31" 25
27 "b_ch_l_finger_32" 26
28 "b_ch_l_finger_10" 15
29 "b_ch_l_finger_11" 28
30 "b_ch_l_finger_12" 29
31 "b_ch_r_clavical" 4
32 "b_ch_r_upperarm" 31
33 "b_ch_r_forearm" 32
34 "b_ch_r_forearm_twist1" 33
35 "b_ch_r_forearm_twist2" 33
36 "b_ch_r_forearm_twist3" 33
37 "b_ch_r_forearm_twist4" 33
38 "b_ch_r_forearm_twist5" 33
39 "b_ch_r_forearm_twist6" 33
40 "b_ch_r_forearm_twist7" 33
41 "b_ch_r_hand" 33
42 "b_ch_r_finger_00" 41
43 "b_ch_r_finger_01" 42
44 "b_ch_r_finger_02" 43
45 "b_ch_r_finger_10" 41
46 "b_ch_r_finger_11" 45
47 "b_ch_r_finger_12" 46
48 "b_ch_r_finger_20" 41
49 "b_ch_r_finger_21" 48
50 "b_ch_r_finger_22" 49
51 "b_ch_r_finger_30" 41
52 "b_ch_r_finger_31" 51
53 "b_ch_r_finger_32" 52
54 "b_ch_r_finger_40" 41
55 "b_ch_r_finger_41" 54
56 "b_ch_r_finger_42" 55
57 "b_camera" 1
58 "b_wpn" 1
59 "b_wpn_bipod" 58
60 "b_wpn_bipod_l" 59
61 "b_wpn_bipod_r" 59
62 "b_wpn_bipod_base" 59
63 "b_wpn_bipod_base_r" 62
64 "b_wpn_bipod_spring_base_r" 63
65 "b_wpn_bipod_base_l" 62
66 "b_wpn_bipod_spring_base_l" 65
67 "b_wpn_bipod_spring_l" 62
68 "b_wpn_bipod_spring_r" 62
69 "b_wpn_bolt" 58
70 "b_wpn_chargehandle" 58
71 "b_wpn_eject" 58
72 "b_wpn_fireselect" 58
73 "b_wpn_foregrip" 58
74 "b_wpn_gl" 58
75 "b_wpn_gl_slide" 74
76 "b_wpn_gl_trigger" 74
77 "b_wpn_gl_round" 74
78 "b_wpn_gl_casing" 74
79 "b_wpn_gl_slidelock" 74
80 "b_wpn_gl_muzzle" 74
81 "b_wpn_gl_sight_back" 74
82 "b_wpn_gl_sight_front" 74
83 "b_wpn_hammer" 58
84 "b_wpn_laserflash" 58
85 "b_wpn_laserflash_beam" 84
86 "b_wpn_lid" 58
87 "b_wpn_mag" 58
88 "b_wpn_mag_b1" 87
89 "b_wpn_mag_casing_1" 88
90 "b_wpn_mag_bullet_1" 88
91 "b_wpn_mag_b2" 87
92 "b_wpn_mag_casing_2" 91
93 "b_wpn_mag_bullet_2" 91
94 "b_wpn_mag_b3" 87
95 "b_wpn_mag_casing_3" 94
96 "b_wpn_mag_bullet_3" 94
97 "b_wpn_mag_b4" 87
98 "b_wpn_mag_casing_4" 97
99 "b_wpn_mag_bullet_4" 97
100 "b_wpn_mag_b5" 87
101 "b_wpn_mag_casing_5" 100
102 "b_wpn_mag_bullet_5" 100
103 "b_wpn_mag_b6" 87
104 "b_wpn_mag_casing_6" 103
105 "b_wpn_mag_bullet_6" 103
106 "b_wpn_mag_b7" 87
107 "b_wpn_mag_b8" 87
108 "b_wpn_mag_b9" 87
109 "b_wpn_mag_follow" 87
110 "b_wpn_mag_b13" 87
111 "b_wpn_mag_b10" 87
112 "b_wpn_mag_b11" 87
113 "b_wpn_mag_b12" 87
114 "b_wpn_mag_b14" 87
115 "b_wpn_mag_b15" 87
116 "b_wpn_mag_tab" 87
117 "b_wpn_mag_b_link1" 87
118 "b_wpn_mag_b_link2" 87
119 "b_wpn_mag_b_link3" 87
120 "b_wpn_mag_b_link4" 87
121 "b_wpn_mag_b_link5" 87
122 "b_wpn_mag_b_link6" 87
123 "b_wpn_mag_b_link7" 87
124 "b_wpn_mag_b_link8" 87
125 "b_wpn_mag_b_link9" 87
126 "b_wpn_mag_b_link10" 87
127 "b_wpn_mag_b_link11" 87
128 "b_wpn_mag_b_link12" 87
129 "b_wpn_mag_b_link13" 87
130 "b_wpn_mag_b16" 87
131 "b_wpn_mag_b17" 87
132 "b_wpn_mag_b18" 87
133 "b_wpn_mag_b19" 87
134 "b_wpn_mag_b20" 87
135 "b_wpn_mag_b21" 87
136 "b_wpn_mag_b22" 87
137 "b_wpn_mag_b23" 87
138 "b_wpn_mag_b24" 87
139 "b_wpn_mag_b25" 87
140 "b_wpn_mag_b26" 87
141 "b_wpn_mag_b27" 87
142 "b_wpn_mag_b28" 87
143 "b_wpn_mag_b29" 87
144 "b_wpn_mag_b30" 87
145 "b_wpn_mag_spring_bottom" 87
146 "b_wpn_mag_b31" 87
147 "b_wpn_mag_b32" 87
148 "b_wpn_mag_b35" 87
149 "b_wpn_mag_b33" 87
150 "b_wpn_mag_b34" 87
151 "b_wpn_mag_b36" 87
152 "b_wpn_mag_b37" 87
153 "b_wpn_mag_b38" 87
154 "b_wpn_mag_b39" 87
155 "b_wpn_mag_b40" 87
156 "b_wpn_mag_b41" 87
157 "b_wpn_mag_b42" 87
158 "b_wpn_mag_b50" 87
159 "b_wpn_mag_b49" 87
160 "b_wpn_mag_b48" 87
161 "b_wpn_mag_b47" 87
162 "b_wpn_mag_b45" 87
163 "b_wpn_mag_b44" 87
164 "b_wpn_mag_b43" 87
165 "b_wpn_mag_b46" 87
166 "b_wpn_magrelease" 58
167 "b_wpn_muzzle" 58
168 "b_wpn_optic" 58
169 "b_wpn_pin" 58
170 "b_wpn_ring" 58
171 "b_wpn_slide" 58
172 "b_wpn_sliderelease" 58
173 "b_wpn_spec_1" 58
174 "b_wpn_spec_2" 58
175 "b_wpn_spoon" 58
176 "b_wpn_suppressor" 58
177 "b_wpn_suppressor_muzzle" 176
178 "b_wpn_trigger" 58
179 "ik_hand_wpn_l" 58
180 "ik_hand_wpn_r" 58
181 "b_wpn_laser" 58
182 "b_wpn_laser_beam" 181
183 "b_wpn_flash" 58
184 "b_wpn_flash_beam" 183
185 "b_wpn_stock" 58
186 "b_wpn_barrel" 58
187 "b_wpn_chain_01" 58
188 "b_wpn_chain_02" 187
189 "b_wpn_chain_03" 188
190 "b_wpn_chain_04" 189
191 "b_wpn_chain_05" 190
192 "b_wpn_chain_06" 191
193 "b_wpn_bayonet" 58
194 "b_wpn_mag_2" 58
195 "b_wpn_gripod" 58
196 "b_wpn_gripod_base" 195
197 "b_wpn_gripod_base_r" 196
198 "b_wpn_gripod_base_l" 196
199 "ik_hand_root" 1
200 "ik_hand_r" 199
201 "ik_hand_l" 199
end
skeleton
time 0
0  0 0 0  0 0 0
1  0.000000 0.000000 0.000000  0.000000 -0.000000 -0.000000
2  -0.000005 0.000023 -61.375507  0.000000 0.000000 -1.570795
3  -0.012872 0.000000 8.235020  -1.570799 -1.570796 0.000000
4  16.163128 -0.012870 -0.000002  -0.000000 -0.000000 0.000000
5  16.163143 -0.000009 3.830524  -3.089336 -1.570794 0.000000
6  -0.000031 -0.000001 -0.000000  0.187926 -0.295921 0.132731
7  -0.000002 -0.000007 0.000001  0.000000 0.000000 -0.305085
8  0.000000 0.000001 0.000003  0.040409 -0.000000 -0.000000
9  0.000000 0.000001 0.000001  0.080835 -0.000000 -0.000000
10  -0.000000 0.000001 0.000003  0.121294 -0.000000 -0.000000
11  -0.000002 0.000001 0.000004  0.161741 0.000000 -0.000000
12  -0.000002 0.000002 0.000004  0.202132 -0.000000 -0.000000
13  -0.000002 -0.000001 0.000002  0.242606 -0.000000 -0.000000
14  -0.000002 -0.000000 0.000004  0.282995 -0.000000 -0.000000
15  -0.000001 0.000003 0.000005  0.325479 0.057355 -0.127192
16  1.410071 0.800535 -2.089140  2.009774 0.630250 0.591915
17  3.954710 -0.000004 0.000006  -0.000004 -0.000001 0.166316
18  3.101568 0.000005 0.000001  0.000002 -0.000001 0.240238
19  6.164461 -0.898142 2.575017  0.090705 -0.013516 -0.151467
20  2.805849 0.000003 -0.000005  0.000002 0.000001 0.079095
21  2.307442 -0.000003 0.000001  -0.000000 -0.000001 -0.056423
22  7.145100 -0.676330 -1.382429  0.086918 -0.009133 -0.085503
23  3.672212 -0.000000 -0.000004  0.000003 0.000001 0.142941
24  2.676526 0.000001 -0.000001  -0.000001 -0.000001 -0.026075
25  6.831179 -0.870852 0.599919  0.130314 -0.006347 -0.065005
26  3.657084 -0.000009 -0.000000  0.000000 0.000000 0.057729
27  2.496794 0.000001 -0.000000  0.000000 0.000000 -0.091107
28  7.183355 -0.532073 -3.267611  0.123211 0.020356 -0.052484
29  3.511592 0.000006 -0.000001  -0.000001 -0.000001 0.099575
30  2.199412 0.000001 0.000001  0.000001 0.000001 0.029263
31  16.163136 0.000012 -3.830531  -3.098550 1.570794 0.000000
32  -0.000018 -0.000001 0.000001  -0.512391 -0.193818 0.030830
33  -0.000002 -0.000001 0.000000  0.000000 -0.000000 0.224047
34  0.000001 -0.000000 -0.000002  -0.036014 0.000000 -0.000000
35  -0.000002 -0.000003 -0.000001  -0.072100 0.000000 0.000000
36  -0.000002 -0.000000 -0.000002  -0.108149 0.000000 0.000000
37  -0.000000 -0.000000 -0.000002  -0.144172 -0.000000 0.000000
38  -0.000004 -0.000000 -0.000001  -0.180242 0.000000 -0.000000
39  -0.000004 -0.000001 -0.000001  -0.216309 0.000000 -0.000000
40  -0.000003 -0.000002 0.000000  -0.252386 0.000000 0.000000
41  -0.000008 -0.000003 -0.000003  -0.109691 -0.331753 -0.665062
42  1.410070 0.800524 2.089137  -2.009768 -0.630254 0.591907
43  3.954721 0.000011 0.000005  -0.000000 -0.000002 0.166319
44  3.101557 -0.000008 0.000005  -0.000001 -0.000000 0.240238
45  7.183349 -0.532110 3.267603  -0.123210 -0.020355 -0.052486
46  3.511604 0.000000 -0.000002  0.000003 0.000001 0.099571
47  2.199405 0.000004 -0.000001  -0.000001 -0.000001 0.029267
48  7.145098 -0.676363 1.382420  -0.086920 0.009133 -0.085505
49  3.672215 -0.000001 0.000000  0.000001 -0.000000 0.142941
50  2.676521 -0.000001 0.000003  -0.000001 -0.000001 -0.026075
51  6.831177 -0.870878 -0.599929  -0.130311 0.006346 -0.065012
52  3.657078 -0.000002 -0.000001  -0.000000 0.000001 0.057734
53  2.496795 0.000001 0.000004  -0.000000 -0.000001 -0.091108
54  6.164469 -0.898159 -2.575026  -0.090704 0.013515 -0.151468
55  2.805849 -0.000004 0.000003  -0.000002 -0.000001 0.079091
56  2.307435 -0.000000 -0.000000  0.000002 0.000001 -0.056419
57  0.000000 0.000000 0.000000  0.000001 -0.000000 -0.000000
58  4.128924 3.288414 -9.049171  -0.216713 -0.150282 0.223373
59  0.071247 114.357033 62.238792  -0.000000 -0.000000 0.000000
60  1.986529 0.000026 -3.123736  -2.705260 -0.000000 -1.570797
61  -1.986686 0.000028 -3.123742  0.436333 0.000001 1.570797
62  0.000003 0.000011 -0.000001  0.000000 -0.000000 0.000000
63  -1.986690 0.000016 -3.123730  0.436333 0.000001 1.570797
64  -11.344162 1.135887 0.869280  0.000002 -0.025019 -0.026324
65  1.986528 0.000021 -3.123726  -2.705260 -0.000000 -1.570797
66  -11.350029 -0.729412 0.864888  0.000197 -0.025367 0.026442
67  1.754237 4.036760 -1.682660  0.392575 -0.010120 -1.546363
68  -1.755136 4.036760 -1.682658  -0.392577 -0.010391 -1.594986
69  -0.164555 7.327704 3.928703  0.000000 0.000001 -1.570796
70  0.079083 36.742699 -0.508023  0.000001 -0.000000 0.000000
71  -1.260174 8.777410 6.736405  -0.000002 -0.424415 -3.141592
72  1.525193 18.283600 2.968622  0.000000 -0.000000 0.000000
73  0.060217 10.324389 74.469063  0.000008 -0.000000 0.000000
74  0.062810 75.918007 83.075447  1.570797 -0.000000 -1.570796
75  4.804187 -3.971749 0.000001  -0.000000 0.000000 -0.000000
76  -7.041556 -5.025996 0.000001  -0.000000 -0.000000 -0.000000
77  8.407188 -3.978438 0.003055  -1.570796 1.570795 0.000000
78  10.376199 -3.978450 0.003057  -1.570796 1.570796 0.000000
79  10.194019 -0.314067 -1.749549  -1.570796 1.570796 0.000000
80  20.857895 -4.015571 0.000002  0.000000 -0.000000 0.000000
81  3.258442 5.856952 -3.403526  -0.000000 -0.000000 -0.000000
82  15.153049 5.860575 -3.403523  0.000000 -0.000000 -0.000000
83  6.064256 77.294952 36.365795  1.570796 0.000000 1.570796
84  -2.662411 1.445755 40.667961  0.000000 3.141591 1.570796
85  8.352068 2.772897 0.000538  -3.141589 0.000002 -0.000000
86  6.064257 72.973694 32.593250  1.570796 0.000000 1.570796
87  -9.658461 1.471041 18.819557  0.259682 0.205764 -0.027745
88  -0.442609 1.284881 8.535291  0.000000 -0.000001 0.000000
89  0.000002 1.310211 -0.000001  0.000000 -0.000000 0.000000
90  0.000001 0.582259 -0.000001  0.000000 -0.000000 0.000000
91  0.036298 1.284881 7.928799  0.000000 -0.000001 0.000000
92  0.000001 1.310211 -0.000000  0.000000 0.000000 0.000000
93  -0.000000 0.582261 -0.000001  0.000000 0.000000 0.000000
94  5.969324 3.427459 -6.170650  -0.000000 -0.000001 -1.570797
95  -1.310211 0.000001 0.000001  0.000000 0.000000 -0.000000
96  -0.582259 -0.000000 0.000000  0.000000 -0.000000 -0.000000
97  5.969323 9.397399 -6.170659  -0.000000 -0.000001 -1.570796
98  -1.310209 -0.000000 0.000001  0.000000 0.000000 -0.000000
99  -0.582258 -0.000001 0.000000  0.000000 0.000000 -0.000000
100  5.969322 15.223770 -6.170671  -0.000000 -0.000001 -1.570796
101  -1.310214 0.000002 0.000001  -0.000000 0.000000 -0.000000
102  -0.582263 0.000001 0.000000  -0.000000 0.000000 -0.000000
103  5.969324 20.835571 -6.170671  -0.000000 -0.000001 -1.570796
104  -1.310212 0.000001 0.000001  -0.000000 0.000000 -0.000000
105  -0.582262 0.000000 0.000002  -0.000000 0.000000 -0.000000
106  5.969324 26.771210 -6.170672  -0.000000 -0.000001 -1.570796
107  5.969322 32.597599 -6.170675  -0.000000 -0.000001 -1.570796
108  5.969323 38.209396 -6.170686  -0.000000 -0.000001 -1.570800
109  5.969322 49.488464 -6.170684  -0.000000 -0.000001 -1.570800
110  -0.539089 -0.556808 -0.017363  -0.042462 2.681156 1.551919
111  -6.799125 -0.556807 0.818549  -0.272420 2.701993 1.452460
112  -4.615284 -0.556822 0.270327  -0.117230 2.684609 1.518878
113  -2.650969 -0.556808 0.063010  -0.042463 2.681158 1.551919
114  27.110338 1.284856 12.007549  0.000000 -0.000000 0.000000
115  28.133427 1.284856 12.007548  0.000001 -0.000000 0.000000
116  12.812887 2.241784 12.007549  0.000000 -0.000001 -0.000001
117  -9.955969 -0.319623 4.380216  -0.000001 -0.000000 -0.000001
118  -11.316472 -0.319623 4.380216  -0.000003 -0.000000 0.000000
119  -12.667812 -0.319622 4.380215  -0.000003 -0.000000 0.000001
120  -14.022142 -0.319622 4.380216  0.000010 -0.000000 -0.000011
121  -15.373240 -0.319622 4.380214  0.000015 -0.000000 -0.000015
122  -16.724144 -0.319621 4.380215  -0.000009 -0.000000 0.000006
123  -18.074574 -0.319621 4.380215  -0.000006 0.000000 0.000004
124  -19.423717 -0.319621 4.380216  0.000002 0.000000 -0.000004
125  -20.775272 -0.319620 4.380216  0.000003 0.000000 -0.000004
126  -22.126673 -0.319620 4.380215  0.000003 0.000000 -0.000004
127  -23.478125 -0.319619 4.380216  0.000005 0.000000 -0.000006
128  -24.830622 -0.319619 4.380216  0.000036 0.000000 -0.000038
129  -26.182028 -0.319618 4.380216  -0.000011 0.000000 0.000011
130  0.529180 -0.167129 0.629484  -0.101270 -0.000000 0.000000
131  -0.211445 -0.241684 0.155361  -0.145847 -0.000000 0.000000
132  0.529190 -0.280701 -0.110293  -0.145847 -0.000000 0.000000
133  -0.173927 -0.337325 -0.638496  -0.181751 -0.000000 0.000000
134  0.529189 -0.399246 -0.975394  -0.181751 -0.000000 0.000000
135  -0.211445 -0.464477 -1.431042  -0.192399 -0.000000 0.000000
136  0.529189 -0.515807 -1.694583  -0.192399 -0.000000 0.000000
137  -0.173927 -0.612152 -2.231911  -0.216703 -0.000000 0.000000
138  0.529188 -0.685806 -2.566440  -0.216703 -0.000000 0.000000
139  -0.211445 -0.769561 -3.027870  -0.237349 -0.000000 0.000000
140  0.529188 -0.832687 -3.288847  -0.237349 -0.000000 0.000000
141  -0.173937 -0.945282 -3.779564  -0.233859 0.000000 0.000000
142  0.529178 -1.024657 -4.112780  -0.233859 0.000000 0.000000
143  -0.211444 -1.132186 -4.577548  -0.262919 -0.000000 0.000000
144  0.529189 -1.201965 -4.836825  -0.262919 0.000000 0.000000
145  -0.000005 -2.810942 -10.636631  0.258454 0.000000 3.141592
146  -0.192456 -1.345779 -5.370046  -0.280373 0.000000 0.000000
147  0.533984 -1.413512 -5.605105  -0.276883 0.000000 0.000000
148  -0.206618 -1.795760 -6.909779  -0.287354 0.000000 0.000000
149  -0.205806 -1.564819 -6.138257  -0.290843 0.000000 0.000000
150  0.530458 -1.643676 -6.395215  -0.290844 0.000000 0.000000
151  0.535311 -1.790709 -7.204133  -0.287354 -0.000000 0.000000
152  -0.202704 -2.030486 -7.702830  -0.286180 -0.000000 0.000000
153  0.509548 -2.118896 -8.011624  -0.298398 -0.000000 0.000000
154  -0.202704 -2.255278 -8.465172  -0.283134 -0.000000 0.000000
155  0.509548 -2.352980 -8.771159  -0.295352 -0.000000 0.000000
156  -0.202704 -2.481596 -9.235472  -0.285437 -0.000000 0.000000
157  0.509547 -2.588683 -9.538638  -0.297654 -0.000000 0.000000
158  0.170123 -21.222092 -1.001140  -0.000001 -0.000001 0.000000
159  0.170122 -20.843864 -0.397183  -0.000001 -0.000001 0.000000
160  0.170122 -20.489746 -1.001142  -0.000001 -0.000001 0.000000
161  0.170123 -20.111069 -0.397183  -0.000001 -0.000001 0.000000
162  0.170122 -19.380089 -0.397187  -0.000001 -0.000001 0.000000
163  0.170123 -19.025110 -1.001145  -0.000001 -0.000001 0.000000
164  0.170122 -18.646662 -0.396448  -0.000001 -0.000001 0.000000
165  0.170124 -19.755760 -1.001142  -0.000001 -0.000001 0.000000
166  -0.015972 10.612518 2.686017  0.000001 -0.000000 0.000000
167  0.059851 -50.160706 6.449381  1.570797 -0.000000 -1.570797
168  0.064655 27.351288 72.195213  -0.000000 -0.000000 -0.000001
169  -10.344105 2.200186 18.215601  0.259682 0.205764 -0.027745
170  0.054187 102.845650 29.795361  0.000000 0.000001 -1.570796
171  6.064257 69.096565 37.164318  1.570796 0.000000 1.570796
172  1.974303 11.989234 4.589250  0.000000 -0.000000 0.000000
173  -9.471555 1.400919 19.460945  0.259682 0.205764 -0.027745
174  -9.475080 1.139311 18.474506  0.259682 0.205764 -0.027745
175  6.064260 89.329803 31.613916  -0.000000 -0.000001 1.570796
176  0.059886 2.255335 54.398006  -0.000000 -0.000000 0.000000
177  0.003495 -22.270645 0.000147  1.570797 -0.000000 -1.570797
178  -9.134656 0.809161 18.892572  0.259682 0.205764 -0.027745
179  4.504587 -0.449494 -17.618830  2.064741 -0.116498 -2.067531
180  -3.255359 24.458078 -23.114338  0.181523 0.048807 -1.277059
181  -2.662412 1.445758 33.628742  0.000000 3.141591 1.570796
182  8.352067 2.772897 0.000540  -3.141589 0.000002 -0.000000
183  -2.662411 1.445755 40.667961  0.000000 3.141591 1.570796
184  8.352068 2.772897 0.000538  -3.141589 0.000002 -0.000000
185  -1.431356 16.384779 4.137811  0.000001 -0.000000 0.000000
186  -0.001844 0.521683 -0.140289  0.000000 -0.000000 0.000000
187  7.323109 -5.136191 -5.166238  0.000000 0.000000 -0.610865
188  2.698278 -0.000000 0.000002  -0.000012 0.000000 0.000001
189  2.834160 -0.000002 -0.000000  0.000013 0.000000 -0.000000
190  2.648917 -0.000000 -0.000000  -0.000001 -0.000001 0.000000
191  2.667498 -0.000002 -0.000000  -0.000000 0.000000 -0.000000
192  2.426702 -0.000001 0.000001  0.000000 0.000000 -0.000000
193  -0.494744 -44.353451 -1.302299  1.570797 -0.000000 -1.570797
194  11.545938 73.768425 -3.792013  0.000000 -0.000000 0.000000
195  -0.011102 -16.902813 1.952047  0.000001 -0.000000 0.000000
196  -0.000001 -0.000001 -1.529051  -0.000000 -0.000000 -0.000000
197  -0.078942 0.000001 -0.000000  0.000000 0.000001 1.570796
198  0.097092 0.000001 -0.000000  -0.000000 -3.141592 1.570796
199  0.000000 0.000000 0.000000  0.000000 -0.000000 -0.000000
200  4.801723 -0.655448 -11.718955  -0.216713 -0.150282 0.223373
201  4.355405 4.167146 -8.091080  -0.216712 -0.150282 0.223373
time 1
0  0 0 0  0 0 0
1  0.000000 0.000000 0.000000  0.000000 -0.000000 -0.000000
2  -0.000005 0.000023 -61.375507  0.000000 0.000000 -1.570795
3  -0.012872 0.000000 8.235020  -1.570799 -1.570796 0.000000
4  16.163128 -0.012870 -0.000002  -0.000000 -0.000000 0.000000
5  16.163143 -0.000009 3.830524  -3.089336 -1.570794 0.000000
6  -0.000031 -0.000001 -0.000000  0.187926 -0.295921 0.132731
7  -0.000002 -0.000007 0.000001  0.000000 0.000000 -0.305085
8  0.000000 0.000001 0.000003  0.040409 -0.000000 -0.000000
9  0.000000 0.000001 0.000001  0.080835 -0.000000 -0.000000
10  -0.000000 0.000001 0.000003  0.121294 -0.000000 -0.000000
11  -0.000002 0.000001 0.000004  0.161741 0.000000 -0.000000
12  -0.000002 0.000002 0.000004  0.202132 -0.000000 -0.000000
13  -0.000002 -0.000001 0.000002  0.242606 -0.000000 -0.000000
14  -0.000002 -0.000000 0.000004  0.282995 -0.000000 -0.000000
15  -0.000001 0.000003 0.000005  0.325479 0.057355 -0.127192
16  1.410071 0.800535 -2.089140  2.009774 0.630250 0.591915
17  3.954710 -0.000004 0.000006  -0.000004 -0.000001 0.166316
18  3.101568 0.000005 0.000001  0.000002 -0.000001 0.240238
19  6.164461 -0.898142 2.575017  0.090705 -0.013516 -0.151467
20  2.805849 0.000003 -0.000005  0.000002 0.000001 0.079095
21  2.307442 -0.000003 0.000001  -0.000000 -0.000001 -0.056423
22  7.145100 -0.676330 -1.382429  0.086918 -0.009133 -0.085503
23  3.672212 -0.000000 -0.000004  0.000003 0.000001 0.142941
24  2.676526 0.000001 -0.000001  -0.000001 -0.000001 -0.026075
25  6.831179 -0.870852 0.599919  0.130314 -0.006347 -0.065005
26  3.657084 -0.000009 -0.000000  0.000000 0.000000 0.057729
27  2.496794 0.000001 -0.000000  0.000000 0.000000 -0.091107
28  7.183355 -0.532073 -3.267611  0.123211 0.020356 -0.052484
29  3.511592 0.000006 -0.000001  -0.000001 -0.000001 0.099575
30  2.199412 0.000001 0.000001  0.000001 0.000001 0.029263
31  16.163136 0.000012 -3.830531  -3.098550 1.570794 0.000000
32  -0.000018 -0.000001 0.000001  -0.512391 -0.193818 0.030830
33  -0.000002 -0.000001 0.000000  0.000000 -0.000000 0.224047
34  0.000001 -0.000000 -0.000002  -0.036014 0.000000 -0.000000
35  -0.000002 -0.000003 -0.000001  -0.072100 0.000000 0.000000
36  -0.000002 -0.000000 -0.000002  -0.108149 0.000000 0.000000
37  -0.000000 -0.000000 -0.000002  -0.144172 -0.000000 0.000000
38  -0.000004 -0.000000 -0.000001  -0.180242 0.000000 -0.000000
39  -0.000004 -0.000001 -0.000001  -0.216309 0.000000 -0.000000
40  -0.000003 -0.000002 0.000000  -0.252386 0.000000 0.000000
41  -0.000008 -0.000003 -0.000003  -0.109691 -0.331753 -0.665062
42  1.410070 0.800524 2.089137  -2.009768 -0.630254 0.591907
43  3.954721 0.000011 0.000005  -0.000000 -0.000002 0.166319
44  3.101557 -0.000008 0.000005  -0.000001 -0.000000 0.240238
45  7.183349 -0.532110 3.267603  -0.123210 -0.020355 -0.052486
46  3.511604 0.000000 -0.000002  0.000003 0.000001 0.099571
47  2.199405 0.000004 -0.000001  -0.000001 -0.000001 0.029267
48  7.145098 -0.676363 1.382420  -0.086920 0.009133 -0.085505
49  3.672215 -0.000001 0.000000  0.000001 -0.000000 0.142941
50  2.676521 -0.000001 0.000003  -0.000001 -0.000001 -0.026075
51  6.831177 -0.870878 -0.599929  -0.130311 0.006346 -0.065012
52  3.657078 -0.000002 -0.000001  -0.000000 0.000001 0.057734
53  2.496795 0.000001 0.000004  -0.000000 -0.000001 -0.091108
54  6.164469 -0.898159 -2.575026  -0.090704 0.013515 -0.151468
55  2.805849 -0.000004 0.000003  -0.000002 -0.000001 0.079091
56  2.307435 -0.000000 -0.000000  0.000002 0.000001 -0.056419
57  0.000000 0.000000 0.000000  0.000001 -0.000000 -0.000000
58  4.128924 3.288414 -9.049171  -0.216713 -0.150282 0.223373
59  0.071247 114.357033 62.238792  -0.000000 -0.000000 0.000000
60  1.986529 0.000026 -3.123736  -2.705260 -0.000000 -1.570797
61  -1.986686 0.000028 -3.123742  0.436333 0.000001 1.570797
62  0.000003 0.000011 -0.000001  0.000000 -0.000000 0.000000
63  -1.986690 0.000016 -3.123730  0.436333 0.000001 1.570797
64  -11.344162 1.135887 0.869280  0.000002 -0.025019 -0.026324
65  1.986528 0.000021 -3.123726  -2.705260 -0.000000 -1.570797
66  -11.350029 -0.729412 0.864888  0.000197 -0.025367 0.026442
67  1.754237 4.036760 -1.682660  0.392575 -0.010120 -1.546363
68  -1.755136 4.036760 -1.682658  -0.392577 -0.010391 -1.594986
69  -0.164555 7.327704 3.928703  0.000000 0.000001 -1.570796
70  0.079083 36.742699 -0.508023  0.000001 -0.000000 0.000000
71  -1.260174 8.777410 6.736405  -0.000002 -0.424415 -3.141592
72  1.525193 18.283600 2.968622  0.000000 -0.000000 0.000000
73  0.060217 10.324389 74.469063  0.000008 -0.000000 0.000000
74  0.062810 75.918007 83.075447  1.570797 -0.000000 -1.570796
75  4.804187 -3.971749 0.000001  -0.000000 0.000000 -0.000000
76  -7.041556 -5.025996 0.000001  -0.000000 -0.000000 -0.000000
77  8.407188 -3.978438 0.003055  -1.570796 1.570795 0.000000
78  10.376199 -3.978450 0.003057  -1.570796 1.570796 0.000000
79  10.194019 -0.314067 -1.749549  -1.570796 1.570796 0.000000
80  20.857895 -4.015571 0.000002  0.000000 -0.000000 0.000000
81  3.258442 5.856952 -3.403526  -0.000000 -0.000000 -0.000000
82  15.153049 5.860575 -3.403523  0.000000 -0.000000 -0.000000
83  6.064256 77.294952 36.365795  1.570796 0.000000 1.570796
84  -2.662411 1.445755 40.667961  0.000000 3.141591 1.570796
85  8.352068 2.772897 0.000538  -3.141589 0.000002 -0.000000
86  6.064257 72.973694 32.593250  1.570796 0.000000 1.570796
87  -9.658461 1.471041 18.819557  0.259682 0.205764 -0.027745
88  -0.442609 1.284881 8.535291  0.000000 -0.000001 0.000000
89  0.000002 1.310211 -0.000001  0.000000 -0.000000 0.000000
90  0.000001 0.582259 -0.000001  0.000000 -0.000000 0.000000
91  0.036298 1.284881 7.928799  0.000000 -0.000001 0.000000
92  0.000001 1.310211 -0.000000  0.000000 0.000000 0.000000
93  -0.000000 0.582261 -0.000001  0.000000 0.000000 0.000000
94  5.969324 3.427459 -6.170650  -0.000000 -0.000001 -1.570797
95  -1.310211 0.000001 0.000001  0.000000 0.000000 -0.000000
96  -0.582259 -0.000000 0.000000  0.000000 -0.000000 -0.000000
97  5.969323 9.397399 -6.170659  -0.000000 -0.000001 -1.570796
98  -1.310209 -0.000000 0.000001  0.000000 0.000000 -0.000000
99  -0.582258 -0.000001 0.000000  0.000000 0.000000 -0.000000
100  5.969322 15.223770 -6.170671  -0.000000 -0.000001 -1.570796
101  -1.310214 0.000002 0.000001  -0.000000 0.000000 -0.000000
102  -0.582263 0.000001 0.000000  -0.000000 0.000000 -0.000000
103  5.969324 20.835571 -6.170671  -0.000000 -0.000001 -1.570796
104  -1.310212 0.000001 0.000001  -0.000000 0.000000 -0.000000
105  -0.582262 0.000000 0.000002  -0.000000 0.000000 -0.000000
106  5.969324 26.771210 -6.170672  -0.000000 -0.000001 -1.570796
107  5.969322 32.597599 -6.170675  -0.000000 -0.000001 -1.570796
108  5.969323 38.209396 -6.170686  -0.000000 -0.000001 -1.570800
109  5.969322 49.488464 -6.170684  -0.000000 -0.000001 -1.570800
110  -0.539089 -0.556808 -0.017363  -0.042462 2.681156 1.551919
111  -6.799125 -0.556807 0.818549  -0.272420 2.701993 1.452460
112  -4.615284 -0.556822 0.270327  -0.117230 2.684609 1.518878
113  -2.650969 -0.556808 0.063010  -0.042463 2.681158 1.551919
114  27.110338 1.284856 12.007549  0.000000 -0.000000 0.000000
115  28.133427 1.284856 12.007548  0.000001 -0.000000 0.000000
116  12.812887 2.241784 12.007549  0.000000 -0.000001 -0.000001
117  -9.955969 -0.319623 4.380216  -0.000001 -0.000000 -0.000001
118  -11.316472 -0.319623 4.380216  -0.000003 -0.000000 0.000000
119  -12.667812 -0.319622 4.380215  -0.000003 -0.000000 0.000001
120  -14.022142 -0.319622 4.380216  0.000010 -0.000000 -0.000011
121  -15.373240 -0.319622 4.380214  0.000015 -0.000000 -0.000015
122  -16.724144 -0.319621 4.380215  -0.000009 -0.000000 0.000006
123  -18.074574 -0.319621 4.380215  -0.000006 0.000000 0.000004
124  -19.423717 -0.319621 4.380216  0.000002 0.000000 -0.000004
125  -20.775272 -0.319620 4.380216  0.000003 0.000000 -0.000004
126  -22.126673 -0.319620 4.380215  0.000003 0.000000 -0.000004
127  -23.478125 -0.319619 4.380216  0.000005 0.000000 -0.000006
128  -24.830622 -0.319619 4.380216  0.000036 0.000000 -0.000038
129  -26.182028 -0.319618 4.380216  -0.000011 0.000000 0.000011
130  0.529180 -0.167129 0.629484  -0.101270 -0.000000 0.000000
131  -0.211445 -0.241684 0.155361  -0.145847 -0.000000 0.000000
132  0.529190 -0.280701 -0.110293  -0.145847 -0.000000 0.000000
133  -0.173927 -0.337325 -0.638496  -0.181751 -0.000000 0.000000
134  0.529189 -0.399246 -0.975394  -0.181751 -0.000000 0.000000
135  -0.211445 -0.464477 -1.431042  -0.192399 -0.000000 0.000000
136  0.529189 -0.515807 -1.694583  -0.192399 -0.000000 0.000000
137  -0.173927 -0.612152 -2.231911  -0.216703 -0.000000 0.000000
138  0.529188 -0.685806 -2.566440  -0.216703 -0.000000 0.000000
139  -0.211445 -0.769561 -3.027870  -0.237349 -0.000000 0.000000
140  0.529188 -0.832687 -3.288847  -0.237349 -0.000000 0.000000
141  -0.173937 -0.945282 -3.779564  -0.233859 0.000000 0.000000
142  0.529178 -1.024657 -4.112780  -0.233859 0.000000 0.000000
143  -0.211444 -1.132186 -4.577548  -0.262919 -0.000000 0.000000
144  0.529189 -1.201965 -4.836825  -0.262919 0.000000 0.000000
145  -0.000005 -2.810942 -10.636631  0.258454 0.000000 3.141592
146  -0.192456 -1.345779 -5.370046  -0.280373 0.000000 0.000000
147  0.533984 -1.413512 -5.605105  -0.276883 0.000000 0.000000
148  -0.206618 -1.795760 -6.909779  -0.287354 0.000000 0.000000
149  -0.205806 -1.564819 -6.138257  -0.290843 0.000000 0.000000
150  0.530458 -1.643676 -6.395215  -0.290844 0.000000 0.000000
151  0.535311 -1.790709 -7.204133  -0.287354 -0.000000 0.000000
152  -0.202704 -2.030486 -7.702830  -0.286180 -0.000000 0.000000
153  0.509548 -2.118896 -8.011624  -0.298398 -0.000000 0.000000
154  -0.202704 -2.255278 -8.465172  -0.283134 -0.000000 0.000000
155  0.509548 -2.352980 -8.771159  -0.295352 -0.000000 0.000000
156  -0.202704 -2.481596 -9.235472  -0.285437 -0.000000 0.000000
157  0.509547 -2.588683 -9.538638  -0.297654 -0.000000 0.000000
158  0.170123 -21.222092 -1.001140  -0.000001 -0.000001 0.000000
159  0.170122 -20.843864 -0.397183  -0.000001 -0.000001 0.000000
160  0.170122 -20.489746 -1.001142  -0.000001 -0.000001 0.000000
161  0.170123 -20.111069 -0.397183  -0.000001 -0.000001 0.000000
162  0.170122 -19.380089 -0.397187  -0.000001 -0.000001 0.000000
163  0.170123 -19.025110 -1.001145  -0.000001 -0.000001 0.000000
164  0.170122 -18.646662 -0.396448  -0.000001 -0.000001 0.000000
165  0.170124 -19.755760 -1.001142  -0.000001 -0.000001 0.000000
166  -0.015972 10.612518 2.686017  0.000001 -0.000000 0.000000
167  0.059851 -50.160706 6.449381  1.570797 -0.000000 -1.570797
168  0.064655 27.351288 72.195213  -0.000000 -0.000000 -0.000001
169  -10.344105 2.200186 18.215601  0.259682 0.205764 -0.027745
170  0.054187 102.845650 29.795361  0.000000 0.000001 -1.570796
171  6.064257 69.096565 37.164318  1.570796 0.000000 1.570796
172  1.974303 11.989234 4.589250  0.000000 -0.000000 0.000000
173  -9.471555 1.400919 19.460945  0.259682 0.205764 -0.027745
174  -9.475080 1.139311 18.474506  0.259682 0.205764 -0.027745
175  6.064260 89.329803 31.613916  -0.000000 -0.000001 1.570796
176  0.059886 2.255335 54.398006  -0.000000 -0.000000 0.000000
177  0.003495 -22.270645 0.000147  1.570797 -0.000000 -1.570797
178  -9.134656 0.809161 18.892572  0.259682 0.205764 -0.027745
179  4.504587 -0.449494 -17.618830  2.064741 -0.116498 -2.067531
180  -3.255359 24.458078 -23.114338  0.181523 0.048807 -1.277059
181  -2.662412 1.445758 33.628742  0.000000 3.141591 1.570796
182  8.352067 2.772897 0.000540  -3.141589 0.000002 -0.000000
183  -2.662411 1.445755 40.667961  0.000000 3.141591 1.570796
184  8.352068 2.772897 0.000538  -3.141589 0.000002 -0.000000
185  -1.431356 16.384779 4.137811  0.000001 -0.000000 0.000000
186  -0.001844 0.521683 -0.140289  0.000000 -0.000000 0.000000
187  7.323109 -5.136191 -5.166238  0.000000 0.000000 -0.610865
188  2.698278 -0.000000 0.000002  -0.000012 0.000000 0.000001
189  2.834160 -0.000002 -0.000000  0.000013 0.000000 -0.000000
190  2.648917 -0.000000 -0.000000  -0.000001 -0.000001 0.000000
191  2.667498 -0.000002 -0.000000  -0.000000 0.000000 -0.000000
192  2.426702 -0.000001 0.000001  0.000000 0.000000 -0.000000
193  -0.494744 -44.353451 -1.302299  1.570797 -0.000000 -1.570797
194  11.545938 73.768425 -3.792013  0.000000 -0.000000 0.000000
195  -0.011102 -16.902813 1.952047  0.000001 -0.000000 0.000000
196  -0.000001 -0.000001 -1.529051  -0.000000 -0.000000 -0.000000
197  -0.078942 0.000001 -0.000000  0.000000 0.000001 1.570796
198  0.097092 0.000001 -0.000000  -0.000000 -3.141592 1.570796
199  0.000000 0.000000 0.000000  0.000000 -0.000000 -0.000000
200  4.801723 -0.655448 -11.718955  -0.216713 -0.150282 0.223373
201  4.355405 4.167146 -8.091080  -0.216712 -0.150282 0.223373
end
