version 1
nodes
0 "blender_implicit" -1
1 "b_root" -1
2 "b_ch_middle" 1
3 "b_ch_spine1" 2
4 "b_ch_spine2" 3
5 "b_ch_l_clavical" 4
6 "b_ch_l_upperarm" 5
7 "b_ch_l_forearm" 6
8 "b_ch_l_forearm_twist1" 7
9 "b_ch_l_forearm_twist2" 7
10 "b_ch_l_forearm_twist3" 7
11 "b_ch_l_forearm_twist4" 7
12 "b_ch_l_forearm_twist5" 7
13 "b_ch_l_forearm_twist6" 7
14 "b_ch_l_forearm_twist7" 7
15 "b_ch_l_hand" 7
16 "b_ch_l_finger_00" 15
17 "b_ch_l_finger_01" 16
18 "b_ch_l_finger_02" 17
19 "b_ch_l_finger_40" 15
20 "b_ch_l_finger_41" 19
21 "b_ch_l_finger_42" 20
22 "b_ch_l_finger_20" 15
23 "b_ch_l_finger_21" 22
24 "b_ch_l_finger_22" 23
25 "b_ch_l_finger_30" 15
26 "b_ch_l_finger_31" 25
27 "b_ch_l_finger_32" 26
28 "b_ch_l_finger_10" 15
29 "b_ch_l_finger_11" 28
30 "b_ch_l_finger_12" 29
31 "b_ch_r_clavical" 4
32 "b_ch_r_upperarm" 31
33 "b_ch_r_forearm" 32
34 "b_ch_r_forearm_twist1" 33
35 "b_ch_r_forearm_twist2" 33
36 "b_ch_r_forearm_twist3" 33
37 "b_ch_r_forearm_twist4" 33
38 "b_ch_r_forearm_twist5" 33
39 "b_ch_r_forearm_twist6" 33
40 "b_ch_r_forearm_twist7" 33
41 "b_ch_r_hand" 33
42 "b_ch_r_finger_00" 41
43 "b_ch_r_finger_01" 42
44 "b_ch_r_finger_02" 43
45 "b_ch_r_finger_10" 41
46 "b_ch_r_finger_11" 45
47 "b_ch_r_finger_12" 46
48 "b_ch_r_finger_20" 41
49 "b_ch_r_finger_21" 48
50 "b_ch_r_finger_22" 49
51 "b_ch_r_finger_30" 41
52 "b_ch_r_finger_31" 51
53 "b_ch_r_finger_32" 52
54 "b_ch_r_finger_40" 41
55 "b_ch_r_finger_41" 54
56 "b_ch_r_finger_42" 55
57 "b_camera" 1
58 "b_wpn" 1
59 "b_wpn_bipod" 58
60 "b_wpn_bipod_l" 59
61 "b_wpn_bipod_r" 59
62 "b_wpn_bipod_base" 59
63 "b_wpn_bipod_base_r" 62
64 "b_wpn_bipod_spring_base_r" 63
65 "b_wpn_bipod_base_l" 62
66 "b_wpn_bipod_spring_base_l" 65
67 "b_wpn_bipod_spring_l" 62
68 "b_wpn_bipod_spring_r" 62
69 "b_wpn_bolt" 58
70 "b_wpn_chargehandle" 58
71 "b_wpn_eject" 58
72 "b_wpn_fireselect" 58
73 "b_wpn_foregrip" 58
74 "b_wpn_gl" 58
75 "b_wpn_gl_slide" 74
76 "b_wpn_gl_trigger" 74
77 "b_wpn_gl_round" 74
78 "b_wpn_gl_casing" 74
79 "b_wpn_gl_slidelock" 74
80 "b_wpn_gl_muzzle" 74
81 "b_wpn_gl_sight_back" 74
82 "b_wpn_gl_sight_front" 74
83 "b_wpn_hammer" 58
84 "b_wpn_laserflash" 58
85 "b_wpn_laserflash_beam" 84
86 "b_wpn_lid" 58
87 "b_wpn_mag" 58
88 "b_wpn_mag_b1" 87
89 "b_wpn_mag_casing_1" 88
90 "b_wpn_mag_bullet_1" 88
91 "b_wpn_mag_b2" 87
92 "b_wpn_mag_casing_2" 91
93 "b_wpn_mag_bullet_2" 91
94 "b_wpn_mag_b3" 87
95 "b_wpn_mag_casing_3" 94
96 "b_wpn_mag_bullet_3" 94
97 "b_wpn_mag_b4" 87
98 "b_wpn_mag_casing_4" 97
99 "b_wpn_mag_bullet_4" 97
100 "b_wpn_mag_b5" 87
101 "b_wpn_mag_casing_5" 100
102 "b_wpn_mag_bullet_5" 100
103 "b_wpn_mag_b6" 87
104 "b_wpn_mag_casing_6" 103
105 "b_wpn_mag_bullet_6" 103
106 "b_wpn_mag_b7" 87
107 "b_wpn_mag_b8" 87
108 "b_wpn_mag_b9" 87
109 "b_wpn_mag_follow" 87
110 "b_wpn_mag_b13" 87
111 "b_wpn_mag_b10" 87
112 "b_wpn_mag_b11" 87
113 "b_wpn_mag_b12" 87
114 "b_wpn_mag_b14" 87
115 "b_wpn_mag_b15" 87
116 "b_wpn_mag_tab" 87
117 "b_wpn_mag_b_link1" 87
118 "b_wpn_mag_b_link2" 87
119 "b_wpn_mag_b_link3" 87
120 "b_wpn_mag_b_link4" 87
121 "b_wpn_mag_b_link5" 87
122 "b_wpn_mag_b_link6" 87
123 "b_wpn_mag_b_link7" 87
124 "b_wpn_mag_b_link8" 87
125 "b_wpn_mag_b_link9" 87
126 "b_wpn_mag_b_link10" 87
127 "b_wpn_mag_b_link11" 87
128 "b_wpn_mag_b_link12" 87
129 "b_wpn_mag_b_link13" 87
130 "b_wpn_mag_b16" 87
131 "b_wpn_mag_b17" 87
132 "b_wpn_mag_b18" 87
133 "b_wpn_mag_b19" 87
134 "b_wpn_mag_b20" 87
135 "b_wpn_mag_b21" 87
136 "b_wpn_mag_b22" 87
137 "b_wpn_mag_b23" 87
138 "b_wpn_mag_b24" 87
139 "b_wpn_mag_b25" 87
140 "b_wpn_mag_b26" 87
141 "b_wpn_mag_b27" 87
142 "b_wpn_mag_b28" 87
143 "b_wpn_mag_b29" 87
144 "b_wpn_mag_b30" 87
145 "b_wpn_mag_spring_bottom" 87
146 "b_wpn_mag_b31" 87
147 "b_wpn_mag_b32" 87
148 "b_wpn_mag_b35" 87
149 "b_wpn_mag_b33" 87
150 "b_wpn_mag_b34" 87
151 "b_wpn_mag_b36" 87
152 "b_wpn_mag_b37" 87
153 "b_wpn_mag_b38" 87
154 "b_wpn_mag_b39" 87
155 "b_wpn_mag_b40" 87
156 "b_wpn_mag_b41" 87
157 "b_wpn_mag_b42" 87
158 "b_wpn_mag_b50" 87
159 "b_wpn_mag_b49" 87
160 "b_wpn_mag_b48" 87
161 "b_wpn_mag_b47" 87
162 "b_wpn_mag_b45" 87
163 "b_wpn_mag_b44" 87
164 "b_wpn_mag_b43" 87
165 "b_wpn_mag_b46" 87
166 "b_wpn_magrelease" 58
167 "b_wpn_muzzle" 58
168 "b_wpn_optic" 58
169 "b_wpn_pin" 58
170 "b_wpn_ring" 58
171 "b_wpn_slide" 58
172 "b_wpn_sliderelease" 58
173 "b_wpn_spec_1" 58
174 "b_wpn_spec_2" 58
175 "b_wpn_spoon" 58
176 "b_wpn_suppressor" 58
177 "b_wpn_suppressor_muzzle" 176
178 "b_wpn_trigger" 58
179 "ik_hand_wpn_l" 58
180 "ik_hand_wpn_r" 58
181 "b_wpn_laser" 58
182 "b_wpn_laser_beam" 181
183 "b_wpn_flash" 58
184 "b_wpn_flash_beam" 183
185 "b_wpn_stock" 58
186 "b_wpn_barrel" 58
187 "b_wpn_chain_01" 58
188 "b_wpn_chain_02" 187
189 "b_wpn_chain_03" 188
190 "b_wpn_chain_04" 189
191 "b_wpn_chain_05" 190
192 "b_wpn_chain_06" 191
193 "b_wpn_bayonet" 58
194 "b_wpn_mag_2" 58
195 "b_wpn_gripod" 58
196 "b_wpn_gripod_base" 195
197 "b_wpn_gripod_base_r" 196
198 "b_wpn_gripod_base_l" 196
199 "ik_hand_root" 1
200 "ik_hand_r" 199
201 "ik_hand_l" 199
end
skeleton
time 0
0  0 0 0  0 0 0
1  0.000000 0.000000 0.000000  0.000000 -0.000000 -0.000000
2  -0.000005 0.000023 -61.375507  0.000000 0.000000 -1.570795
3  -0.012872 0.000000 8.235020  -1.570799 -1.570796 0.000000
4  16.163128 -0.012870 -0.000002  -0.000000 -0.000000 0.000000
5  -0.000000 0.000000 -0.000005  -0.509778 -0.266999 -0.441756
6  -0.000030 -0.000005 -0.000001  -0.355762 -0.352142 0.420984
7  -0.000004 -0.000008 0.000000  0.000000 0.000000 -0.098187
8  0.000006 -0.000001 -0.000001  0.081446 -0.000000 -0.000000
9  0.000007 -0.000001 -0.000001  0.162905 -0.000000 -0.000000
10  0.000006 -0.000000 -0.000002  0.244390 -0.000000 -0.000000
11  0.000002 -0.000001 -0.000000  0.325852 -0.000000 -0.000000
12  0.000002 -0.000001 -0.000001  0.407302 -0.000000 -0.000000
13  0.000006 -0.000002 -0.000003  0.488752 -0.000000 -0.000000
14  0.000003 -0.000003 -0.000001  0.570211 -0.000000 -0.000000
15  0.000006 0.000002 0.000001  0.638861 0.129600 -0.175282
16  1.410067 0.800534 -2.089134  2.009773 0.630250 0.591915
17  3.954709 -0.000004 0.000006  -0.000004 -0.000001 0.166316
18  3.101566 0.000004 0.000003  0.000002 -0.000001 0.240238
19  6.164460 -0.898141 2.575022  0.090705 -0.013516 -0.151467
20  2.805848 0.000005 -0.000004  0.000002 0.000001 0.079095
21  2.307442 -0.000003 0.000001  -0.000000 -0.000000 -0.056423
22  7.145098 -0.676330 -1.382422  0.086918 -0.009133 -0.085503
23  3.672213 0.000003 -0.000003  0.000003 0.000001 0.142941
24  2.676526 0.000002 0.000001  -0.000001 -0.000001 -0.026075
25  6.831177 -0.870853 0.599923  0.130314 -0.006347 -0.065005
26  3.657082 -0.000009 0.000000  0.000000 0.000000 0.057729
27  2.496792 0.000005 -0.000002  0.000000 0.000000 -0.091107
28  7.183352 -0.532073 -3.267606  0.123210 0.020356 -0.052484
29  3.511590 0.000005 -0.000001  -0.000001 -0.000001 0.099575
30  2.199411 0.000000 0.000006  0.000001 0.000001 0.029263
31  0.000004 -0.000000 0.000003  1.072159 0.979164 -0.008421
32  -0.000019 -0.000001 0.000001  0.440034 0.476695 1.152539
33  -0.000005 0.000000 -0.000007  0.000000 0.000000 -0.462624
34  0.000003 0.000001 0.000002  -0.030459 0.000000 -0.000000
35  0.000002 -0.000001 0.000004  -0.060863 0.000000 0.000000
36  -0.000001 -0.000001 0.000000  -0.091343 0.000000 0.000000
37  0.000001 -0.000001 -0.000001  -0.121783 -0.000000 -0.000000
38  -0.000001 0.000001 0.000005  -0.152251 -0.000000 -0.000000
39  -0.000002 -0.000000 0.000000  -0.182755 -0.000000 0.000000
40  -0.000003 -0.000002 0.000002  -0.213179 0.000000 0.000000
41  -0.000005 -0.000003 0.000000  -0.242148 0.244445 -0.142373
42  1.410070 0.800525 2.089138  -2.009768 -0.630254 0.591907
43  3.954724 0.000010 0.000004  -0.000000 -0.000002 0.166319
44  3.101559 -0.000009 0.000004  -0.000001 -0.000000 0.240238
45  7.183348 -0.532109 3.267603  -0.123210 -0.020355 -0.052486
46  3.511602 -0.000001 0.000000  0.000003 0.000001 0.099571
47  2.199404 0.000004 -0.000002  -0.000001 -0.000001 0.029267
48  7.145096 -0.676362 1.382423  -0.086920 0.009133 -0.085505
49  3.672218 -0.000003 -0.000003  0.000001 -0.000000 0.142941
50  2.676518 -0.000003 -0.000001  -0.000001 -0.000001 -0.026075
51  6.831177 -0.870878 -0.599924  -0.130311 0.006346 -0.065012
52  3.657080 -0.000003 -0.000004  -0.000000 0.000001 0.057734
53  2.496795 0.000000 0.000008  0.000000 -0.000001 -0.091108
54  6.164468 -0.898157 -2.575024  -0.090704 0.013515 -0.151468
55  2.805849 -0.000003 -0.000002  -0.000002 -0.000001 0.079091
56  2.307434 -0.000000 -0.000009  0.000002 0.000001 -0.056419
57  0.000000 0.000000 0.000000  0.000001 -0.000000 -0.000000
58  -4.520948 6.440933 2.605247  -0.818626 -0.181728 0.190754
59  0.071246 114.357025 62.238777  -0.000000 0.000000 0.000000
60  1.986525 0.000021 -3.123736  -2.705260 -0.000000 -1.570797
61  -1.986695 0.000028 -3.123752  0.436333 0.000001 1.570797
62  0.000000 0.000007 -0.000005  0.000000 0.000000 0.000000
63  -1.986693 0.000013 -3.123734  0.436333 0.000001 1.570797
64  -11.344165 1.135890 0.869287  0.000002 -0.025019 -0.026324
65  1.986525 0.000014 -3.123726  -2.705260 -0.000000 -1.570797
66  -11.350049 -0.729424 0.864896  0.000197 -0.025367 0.026442
67  1.754235 4.036754 -1.682665  0.392575 -0.010120 -1.546362
68  -1.755141 4.036760 -1.682666  -0.392577 -0.010391 -1.594986
69  -0.164556 7.327704 3.928703  -0.000000 0.000001 -1.570796
70  0.079082 36.742695 -0.508024  0.000001 0.000000 0.000000
71  -1.260174 8.777411 6.736406  -0.000002 -0.424415 -3.141592
72  1.525193 18.283598 2.968621  0.000000 0.000000 0.000000
73  0.060216 10.324389 74.469055  0.000008 0.000000 0.000000
74  0.062805 75.917999 83.075439  1.570797 -0.000000 -1.570796
75  4.804179 -3.971742 0.000004  -0.000000 0.000000 -0.000000
76  -7.041580 -5.025987 0.000001  -0.000000 -0.000000 -0.000001
77  8.407177 -3.978439 0.003056  -1.570796 1.570795 0.000000
78  10.376185 -3.978443 0.003056  -1.570796 1.570796 0.000000
79  10.194014 -0.314062 -1.749546  -1.570796 1.570796 0.000000
80  20.857880 -4.015561 0.000004  0.000000 -0.000000 0.000000
81  3.258434 5.856956 -3.403525  -0.000000 -0.000000 -0.000001
82  15.153045 5.860584 -3.403521  0.000000 -0.000000 0.000000
83  6.064258 77.294960 36.365795  1.570796 0.000000 1.570796
84  -2.662412 1.445754 40.667961  0.000000 3.141591 1.570796
85  8.352064 2.772895 0.000540  -3.141589 0.000002 0.000000
86  6.064259 72.973694 32.593250  1.570796 0.000000 1.570796
87  0.004365 73.768417 -3.792010  0.000000 0.000000 0.000000
88  -0.442609 1.284885 8.535288  0.000000 -0.000001 0.000000
89  0.000000 1.310220 -0.000001  0.000000 0.000000 0.000000
90  -0.000000 0.582265 -0.000005  0.000000 0.000000 0.000000
91  0.036299 1.284885 7.928797  0.000000 -0.000001 0.000000
92  0.000000 1.310215 0.000000  0.000000 0.000000 0.000000
93  -0.000000 0.582264 -0.000004  0.000000 0.000000 0.000000
94  5.969324 3.427462 -6.170654  -0.000000 -0.000001 -1.570797
95  -1.310204 0.000000 0.000007  0.000000 -0.000000 -0.000000
96  -0.582256 -0.000000 0.000003  0.000000 -0.000000 -0.000000
97  5.969324 9.397403 -6.170658  -0.000000 -0.000001 -1.570796
98  -1.310214 0.000002 0.000004  0.000000 0.000000 -0.000000
99  -0.582259 0.000000 -0.000000  0.000000 0.000000 -0.000000
100  5.969323 15.223777 -6.170671  0.000000 -0.000001 -1.570796
101  -1.310211 0.000003 -0.000004  -0.000000 0.000000 -0.000000
102  -0.582256 0.000002 -0.000005  -0.000000 0.000000 -0.000000
103  5.969325 20.835569 -6.170672  0.000000 -0.000001 -1.570796
104  -1.310211 0.000001 -0.000001  -0.000000 0.000000 -0.000000
105  -0.582260 0.000000 0.000003  -0.000000 0.000000 -0.000000
106  5.969323 26.771219 -6.170674  0.000000 -0.000001 -1.570796
107  5.969322 32.597607 -6.170676  0.000000 -0.000001 -1.570796
108  5.969323 38.209412 -6.170689  0.000000 -0.000001 -1.570800
109  5.969323 49.488480 -6.170688  0.000000 -0.000001 -1.570800
110  -0.539091 -0.556803 -0.017366  -0.042462 2.681156 1.551919
111  -6.799123 -0.556803 0.818552  -0.272420 2.701993 1.452460
112  -4.615283 -0.556820 0.270324  -0.117230 2.684609 1.518878
113  -2.650968 -0.556802 0.063013  -0.042463 2.681158 1.551919
114  27.110340 1.284860 12.007545  0.000000 -0.000000 0.000000
115  28.133429 1.284861 12.007549  0.000001 -0.000000 0.000000
116  12.812887 2.241788 12.007550  0.000000 -0.000001 -0.000001
117  -9.955967 -0.319620 4.380212  -0.000001 -0.000000 -0.000001
118  -11.316473 -0.319618 4.380213  -0.000003 -0.000000 0.000000
119  -12.667809 -0.319620 4.380215  -0.000003 -0.000000 0.000001
120  -14.022140 -0.319622 4.380211  0.000010 -0.000000 -0.000011
121  -15.373239 -0.319620 4.380210  0.000015 -0.000000 -0.000015
122  -16.724144 -0.319618 4.380210  -0.000009 -0.000000 0.000006
123  -18.074570 -0.319616 4.380213  -0.000006 -0.000000 0.000004
124  -19.423717 -0.319618 4.380211  0.000002 0.000000 -0.000004
125  -20.775270 -0.319616 4.380214  0.000003 0.000000 -0.000004
126  -22.126671 -0.319618 4.380208  0.000003 -0.000000 -0.000004
127  -23.478123 -0.319616 4.380212  0.000005 -0.000000 -0.000006
128  -24.830620 -0.319614 4.380210  0.000036 -0.000000 -0.000038
129  -26.182028 -0.319612 4.380211  -0.000011 -0.000000 0.000011
130  0.529180 -0.167123 0.629482  -0.101270 -0.000000 0.000000
131  -0.211444 -0.241680 0.155357  -0.145847 -0.000000 0.000000
132  0.529189 -0.280691 -0.110296  -0.145847 -0.000000 0.000000
133  -0.173927 -0.337317 -0.638501  -0.181751 -0.000000 0.000000
134  0.529189 -0.399240 -0.975400  -0.181751 -0.000000 0.000000
135  -0.211443 -0.464470 -1.431047  -0.192399 -0.000000 0.000000
136  0.529188 -0.515803 -1.694584  -0.192399 -0.000000 0.000000
137  -0.173928 -0.612148 -2.231911  -0.216703 -0.000000 0.000000
138  0.529188 -0.685800 -2.566442  -0.216703 -0.000000 0.000000
139  -0.211444 -0.769559 -3.027872  -0.237349 -0.000000 0.000000
140  0.529188 -0.832682 -3.288848  -0.237349 -0.000000 0.000000
141  -0.173937 -0.945278 -3.779569  -0.233859 0.000000 0.000000
142  0.529180 -1.024657 -4.112783  -0.233859 0.000000 0.000000
143  -0.211444 -1.132180 -4.577549  -0.262919 -0.000000 0.000000
144  0.529190 -1.201957 -4.836828  -0.262919 0.000000 0.000000
145  -0.000004 -2.810935 -10.636628  0.258454 0.000000 3.141592
146  -0.192456 -1.345773 -5.370048  -0.280373 0.000000 0.000000
147  0.533984 -1.413509 -5.605105  -0.276883 0.000000 0.000000
148  -0.206617 -1.795755 -6.909779  -0.287354 0.000000 0.000000
149  -0.205804 -1.564813 -6.138257  -0.290843 0.000000 0.000000
150  0.530459 -1.643673 -6.395223  -0.290844 0.000000 0.000000
151  0.535312 -1.790706 -7.204132  -0.287354 -0.000000 0.000000
152  -0.202703 -2.030481 -7.702834  -0.286180 -0.000000 0.000000
153  0.509548 -2.118897 -8.011629  -0.298398 -0.000000 0.000000
154  -0.202703 -2.255274 -8.465171  -0.283134 -0.000000 0.000000
155  0.509548 -2.352979 -8.771164  -0.295352 -0.000000 0.000000
156  -0.202704 -2.481593 -9.235469  -0.285437 -0.000000 0.000000
157  0.509547 -2.588674 -9.538639  -0.297654 -0.000000 0.000000
158  0.170123 -21.222090 -1.001142  -0.000001 -0.000001 0.000000
159  0.170124 -20.843861 -0.397183  -0.000001 -0.000001 0.000000
160  0.170124 -20.489742 -1.001142  -0.000001 -0.000001 0.000000
161  0.170124 -20.111067 -0.397182  -0.000001 -0.000001 0.000000
162  0.170123 -19.380087 -0.397187  -0.000001 -0.000001 0.000000
163  0.170123 -19.025106 -1.001146  -0.000001 -0.000001 0.000000
164  0.170123 -18.646656 -0.396450  -0.000001 -0.000001 0.000000
165  0.170124 -19.755756 -1.001143  -0.000001 -0.000001 0.000000
166  -0.015973 10.612517 2.686016  0.000001 0.000000 0.000000
167  0.059851 -50.160706 6.449386  1.570797 0.000000 -1.570797
168  0.064652 27.351290 72.195206  -0.000000 -0.000000 -0.000001
169  6.064260 95.114014 31.645491  0.000000 -0.000001 1.570796
170  0.054186 102.845642 29.795357  -0.000000 0.000001 -1.570796
171  6.064256 69.096558 37.164310  1.570796 0.000000 1.570796
172  1.974302 11.989234 4.589249  0.000000 0.000000 0.000000
173  -0.011481 23.944748 5.090360  0.000001 0.000000 0.000000
174  -1.691250 8.833343 5.763508  0.000001 0.000000 0.000000
175  6.064260 89.329811 31.613916  0.000000 -0.000001 1.570796
176  0.058455 13.169234 52.616833  -0.000000 0.000000 0.000000
177  0.000000 -9.421034 -0.000003  -0.000000 -0.000000 -0.000000
178  0.104010 15.380370 2.266152  0.000001 0.000000 0.000000
179  4.504587 -0.449495 -17.618832  2.064741 -0.116498 -2.067531
180  -3.255359 24.458078 -23.114336  0.181523 0.048807 -1.277059
181  -2.643331 12.454371 35.974297  -0.000002 -3.140902 0.000000
182  2.674278 2.772898 0.000538  -3.141593 -0.000000 -0.000000
183  -2.643331 9.000116 43.013512  0.000000 -3.141593 0.000000
184  2.674278 2.772899 0.000548  3.141593 0.000000 -0.000000
185  -1.431355 16.384779 4.137812  0.000001 0.000000 0.000000
186  -0.001844 0.521682 -0.140290  0.000000 0.000000 0.000000
187  7.323109 -5.136191 -5.166237  -0.000000 0.000000 -0.610865
188  2.698277 -0.000001 -0.000000  -0.000012 0.000000 0.000000
189  2.834160 -0.000001 -0.000000  0.000013 0.000000 0.000000
190  2.648917 -0.000001 0.000000  -0.000001 -0.000001 0.000000
191  2.667499 -0.000002 -0.000001  0.000000 -0.000000 0.000000
192  2.426701 -0.000001 0.000000  0.000000 -0.000000 -0.000000
193  -0.494744 -44.353447 -1.302296  1.570797 -0.000000 -1.570797
194  11.545939 73.768417 -3.792011  0.000000 0.000000 0.000000
195  -0.011103 -16.902813 1.952047  0.000001 0.000000 0.000000
196  -0.000000 -0.000001 -1.529052  -0.000000 -0.000000 0.000000
197  -0.078941 -0.000001 0.000000  0.000000 0.000001 1.570796
198  0.097092 -0.000002 0.000000  -0.000000 -3.141592 1.570796
199  0.000000 0.000000 0.000000  0.000000 -0.000000 -0.000000
200  -2.685993 -1.909307 -3.224822  -0.818626 -0.181728 0.190754
201  -1.922773 -3.352223 -0.856227  -0.818626 -0.181727 0.190754
time 1
0  0 0 0  0 0 0
1  0.000000 0.000000 0.000000  0.000000 -0.000000 -0.000000
2  -0.000005 0.000023 -61.375507  0.000000 0.000000 -1.570795
3  -0.012872 0.000000 8.235020  -1.570799 -1.570796 0.000000
4  16.163128 -0.012870 -0.000002  -0.000000 -0.000000 0.000000
5  -0.000000 0.000000 -0.000005  -0.509778 -0.266999 -0.441756
6  -0.000030 -0.000005 -0.000001  -0.355762 -0.352142 0.420984
7  -0.000004 -0.000008 0.000000  0.000000 0.000000 -0.098187
8  0.000006 -0.000001 -0.000001  0.081446 -0.000000 -0.000000
9  0.000007 -0.000001 -0.000001  0.162905 -0.000000 -0.000000
10  0.000006 -0.000000 -0.000002  0.244390 -0.000000 -0.000000
11  0.000002 -0.000001 -0.000000  0.325852 -0.000000 -0.000000
12  0.000002 -0.000001 -0.000001  0.407302 -0.000000 -0.000000
13  0.000006 -0.000002 -0.000003  0.488752 -0.000000 -0.000000
14  0.000003 -0.000003 -0.000001  0.570211 -0.000000 -0.000000
15  0.000006 0.000002 0.000001  0.638861 0.129600 -0.175282
16  1.410067 0.800534 -2.089134  2.009773 0.630250 0.591915
17  3.954709 -0.000004 0.000006  -0.000004 -0.000001 0.166316
18  3.101566 0.000004 0.000003  0.000002 -0.000001 0.240238
19  6.164460 -0.898141 2.575022  0.090705 -0.013516 -0.151467
20  2.805848 0.000005 -0.000004  0.000002 0.000001 0.079095
21  2.307442 -0.000003 0.000001  -0.000000 -0.000000 -0.056423
22  7.145098 -0.676330 -1.382422  0.086918 -0.009133 -0.085503
23  3.672213 0.000003 -0.000003  0.000003 0.000001 0.142941
24  2.676526 0.000002 0.000001  -0.000001 -0.000001 -0.026075
25  6.831177 -0.870853 0.599923  0.130314 -0.006347 -0.065005
26  3.657082 -0.000009 0.000000  0.000000 0.000000 0.057729
27  2.496792 0.000005 -0.000002  0.000000 0.000000 -0.091107
28  7.183352 -0.532073 -3.267606  0.123210 0.020356 -0.052484
29  3.511590 0.000005 -0.000001  -0.000001 -0.000001 0.099575
30  2.199411 0.000000 0.000006  0.000001 0.000001 0.029263
31  0.000004 -0.000000 0.000003  1.072159 0.979164 -0.008421
32  -0.000019 -0.000001 0.000001  0.440034 0.476695 1.152539
33  -0.000005 0.000000 -0.000007  0.000000 0.000000 -0.462624
34  0.000003 0.000001 0.000002  -0.030459 0.000000 -0.000000
35  0.000002 -0.000001 0.000004  -0.060863 0.000000 0.000000
36  -0.000001 -0.000001 0.000000  -0.091343 0.000000 0.000000
37  0.000001 -0.000001 -0.000001  -0.121783 -0.000000 -0.000000
38  -0.000001 0.000001 0.000005  -0.152251 -0.000000 -0.000000
39  -0.000002 -0.000000 0.000000  -0.182755 -0.000000 0.000000
40  -0.000003 -0.000002 0.000002  -0.213179 0.000000 0.000000
41  -0.000005 -0.000003 0.000000  -0.242148 0.244445 -0.142373
42  1.410070 0.800525 2.089138  -2.009768 -0.630254 0.591907
43  3.954724 0.000010 0.000004  -0.000000 -0.000002 0.166319
44  3.101559 -0.000009 0.000004  -0.000001 -0.000000 0.240238
45  7.183348 -0.532109 3.267603  -0.123210 -0.020355 -0.052486
46  3.511602 -0.000001 0.000000  0.000003 0.000001 0.099571
47  2.199404 0.000004 -0.000002  -0.000001 -0.000001 0.029267
48  7.145096 -0.676362 1.382423  -0.086920 0.009133 -0.085505
49  3.672218 -0.000003 -0.000003  0.000001 -0.000000 0.142941
50  2.676518 -0.000003 -0.000001  -0.000001 -0.000001 -0.026075
51  6.831177 -0.870878 -0.599924  -0.130311 0.006346 -0.065012
52  3.657080 -0.000003 -0.000004  -0.000000 0.000001 0.057734
53  2.496795 0.000000 0.000008  0.000000 -0.000001 -0.091108
54  6.164468 -0.898157 -2.575024  -0.090704 0.013515 -0.151468
55  2.805849 -0.000003 -0.000002  -0.000002 -0.000001 0.079091
56  2.307434 -0.000000 -0.000009  0.000002 0.000001 -0.056419
57  0.000000 0.000000 0.000000  0.000001 -0.000000 -0.000000
58  -4.520948 6.440933 2.605247  -0.818626 -0.181728 0.190754
59  0.071246 114.357025 62.238777  -0.000000 0.000000 0.000000
60  1.986525 0.000021 -3.123736  -2.705260 -0.000000 -1.570797
61  -1.986695 0.000028 -3.123752  0.436333 0.000001 1.570797
62  0.000000 0.000007 -0.000005  0.000000 0.000000 0.000000
63  -1.986693 0.000013 -3.123734  0.436333 0.000001 1.570797
64  -11.344165 1.135890 0.869287  0.000002 -0.025019 -0.026324
65  1.986525 0.000014 -3.123726  -2.705260 -0.000000 -1.570797
66  -11.350049 -0.729424 0.864896  0.000197 -0.025367 0.026442
67  1.754235 4.036754 -1.682665  0.392575 -0.010120 -1.546362
68  -1.755141 4.036760 -1.682666  -0.392577 -0.010391 -1.594986
69  -0.164556 7.327704 3.928703  -0.000000 0.000001 -1.570796
70  0.079082 36.742695 -0.508024  0.000001 0.000000 0.000000
71  -1.260174 8.777411 6.736406  -0.000002 -0.424415 -3.141592
72  1.525193 18.283598 2.968621  0.000000 0.000000 0.000000
73  0.060216 10.324389 74.469055  0.000008 0.000000 0.000000
74  0.062805 75.917999 83.075439  1.570797 -0.000000 -1.570796
75  4.804179 -3.971742 0.000004  -0.000000 0.000000 -0.000000
76  -7.041580 -5.025987 0.000001  -0.000000 -0.000000 -0.000001
77  8.407177 -3.978439 0.003056  -1.570796 1.570795 0.000000
78  10.376185 -3.978443 0.003056  -1.570796 1.570796 0.000000
79  10.194014 -0.314062 -1.749546  -1.570796 1.570796 0.000000
80  20.857880 -4.015561 0.000004  0.000000 -0.000000 0.000000
81  3.258434 5.856956 -3.403525  -0.000000 -0.000000 -0.000001
82  15.153045 5.860584 -3.403521  0.000000 -0.000000 0.000000
83  6.064258 77.294960 36.365795  1.570796 0.000000 1.570796
84  -2.662412 1.445754 40.667961  0.000000 3.141591 1.570796
85  8.352064 2.772895 0.000540  -3.141589 0.000002 0.000000
86  6.064259 72.973694 32.593250  1.570796 0.000000 1.570796
87  0.004365 73.768417 -3.792010  0.000000 0.000000 0.000000
88  -0.442609 1.284885 8.535288  0.000000 -0.000001 0.000000
89  0.000000 1.310220 -0.000001  0.000000 0.000000 0.000000
90  -0.000000 0.582265 -0.000005  0.000000 0.000000 0.000000
91  0.036299 1.284885 7.928797  0.000000 -0.000001 0.000000
92  0.000000 1.310215 0.000000  0.000000 0.000000 0.000000
93  -0.000000 0.582264 -0.000004  0.000000 0.000000 0.000000
94  5.969324 3.427462 -6.170654  -0.000000 -0.000001 -1.570797
95  -1.310204 0.000000 0.000007  0.000000 -0.000000 -0.000000
96  -0.582256 -0.000000 0.000003  0.000000 -0.000000 -0.000000
97  5.969324 9.397403 -6.170658  -0.000000 -0.000001 -1.570796
98  -1.310214 0.000002 0.000004  0.000000 0.000000 -0.000000
99  -0.582259 0.000000 -0.000000  0.000000 0.000000 -0.000000
100  5.969323 15.223777 -6.170671  0.000000 -0.000001 -1.570796
101  -1.310211 0.000003 -0.000004  -0.000000 0.000000 -0.000000
102  -0.582256 0.000002 -0.000005  -0.000000 0.000000 -0.000000
103  5.969325 20.835569 -6.170672  0.000000 -0.000001 -1.570796
104  -1.310211 0.000001 -0.000001  -0.000000 0.000000 -0.000000
105  -0.582260 0.000000 0.000003  -0.000000 0.000000 -0.000000
106  5.969323 26.771219 -6.170674  0.000000 -0.000001 -1.570796
107  5.969322 32.597607 -6.170676  0.000000 -0.000001 -1.570796
108  5.969323 38.209412 -6.170689  0.000000 -0.000001 -1.570800
109  5.969323 49.488480 -6.170688  0.000000 -0.000001 -1.570800
110  -0.539091 -0.556803 -0.017366  -0.042462 2.681156 1.551919
111  -6.799123 -0.556803 0.818552  -0.272420 2.701993 1.452460
112  -4.615283 -0.556820 0.270324  -0.117230 2.684609 1.518878
113  -2.650968 -0.556802 0.063013  -0.042463 2.681158 1.551919
114  27.110340 1.284860 12.007545  0.000000 -0.000000 0.000000
115  28.133429 1.284861 12.007549  0.000001 -0.000000 0.000000
116  12.812887 2.241788 12.007550  0.000000 -0.000001 -0.000001
117  -9.955967 -0.319620 4.380212  -0.000001 -0.000000 -0.000001
118  -11.316473 -0.319618 4.380213  -0.000003 -0.000000 0.000000
119  -12.667809 -0.319620 4.380215  -0.000003 -0.000000 0.000001
120  -14.022140 -0.319622 4.380211  0.000010 -0.000000 -0.000011
121  -15.373239 -0.319620 4.380210  0.000015 -0.000000 -0.000015
122  -16.724144 -0.319618 4.380210  -0.000009 -0.000000 0.000006
123  -18.074570 -0.319616 4.380213  -0.000006 -0.000000 0.000004
124  -19.423717 -0.319618 4.380211  0.000002 0.000000 -0.000004
125  -20.775270 -0.319616 4.380214  0.000003 0.000000 -0.000004
126  -22.126671 -0.319618 4.380208  0.000003 -0.000000 -0.000004
127  -23.478123 -0.319616 4.380212  0.000005 -0.000000 -0.000006
128  -24.830620 -0.319614 4.380210  0.000036 -0.000000 -0.000038
129  -26.182028 -0.319612 4.380211  -0.000011 -0.000000 0.000011
130  0.529180 -0.167123 0.629482  -0.101270 -0.000000 0.000000
131  -0.211444 -0.241680 0.155357  -0.145847 -0.000000 0.000000
132  0.529189 -0.280691 -0.110296  -0.145847 -0.000000 0.000000
133  -0.173927 -0.337317 -0.638501  -0.181751 -0.000000 0.000000
134  0.529189 -0.399240 -0.975400  -0.181751 -0.000000 0.000000
135  -0.211443 -0.464470 -1.431047  -0.192399 -0.000000 0.000000
136  0.529188 -0.515803 -1.694584  -0.192399 -0.000000 0.000000
137  -0.173928 -0.612148 -2.231911  -0.216703 -0.000000 0.000000
138  0.529188 -0.685800 -2.566442  -0.216703 -0.000000 0.000000
139  -0.211444 -0.769559 -3.027872  -0.237349 -0.000000 0.000000
140  0.529188 -0.832682 -3.288848  -0.237349 -0.000000 0.000000
141  -0.173937 -0.945278 -3.779569  -0.233859 0.000000 0.000000
142  0.529180 -1.024657 -4.112783  -0.233859 0.000000 0.000000
143  -0.211444 -1.132180 -4.577549  -0.262919 -0.000000 0.000000
144  0.529190 -1.201957 -4.836828  -0.262919 0.000000 0.000000
145  -0.000004 -2.810935 -10.636628  0.258454 0.000000 3.141592
146  -0.192456 -1.345773 -5.370048  -0.280373 0.000000 0.000000
147  0.533984 -1.413509 -5.605105  -0.276883 0.000000 0.000000
148  -0.206617 -1.795755 -6.909779  -0.287354 0.000000 0.000000
149  -0.205804 -1.564813 -6.138257  -0.290843 0.000000 0.000000
150  0.530459 -1.643673 -6.395223  -0.290844 0.000000 0.000000
151  0.535312 -1.790706 -7.204132  -0.287354 -0.000000 0.000000
152  -0.202703 -2.030481 -7.702834  -0.286180 -0.000000 0.000000
153  0.509548 -2.118897 -8.011629  -0.298398 -0.000000 0.000000
154  -0.202703 -2.255274 -8.465171  -0.283134 -0.000000 0.000000
155  0.509548 -2.352979 -8.771164  -0.295352 -0.000000 0.000000
156  -0.202704 -2.481593 -9.235469  -0.285437 -0.000000 0.000000
157  0.509547 -2.588674 -9.538639  -0.297654 -0.000000 0.000000
158  0.170123 -21.222090 -1.001142  -0.000001 -0.000001 0.000000
159  0.170124 -20.843861 -0.397183  -0.000001 -0.000001 0.000000
160  0.170124 -20.489742 -1.001142  -0.000001 -0.000001 0.000000
161  0.170124 -20.111067 -0.397182  -0.000001 -0.000001 0.000000
162  0.170123 -19.380087 -0.397187  -0.000001 -0.000001 0.000000
163  0.170123 -19.025106 -1.001146  -0.000001 -0.000001 0.000000
164  0.170123 -18.646656 -0.396450  -0.000001 -0.000001 0.000000
165  0.170124 -19.755756 -1.001143  -0.000001 -0.000001 0.000000
166  -0.015973 10.612517 2.686016  0.000001 0.000000 0.000000
167  0.059851 -50.160706 6.449386  1.570797 0.000000 -1.570797
168  0.064652 27.351290 72.195206  -0.000000 -0.000000 -0.000001
169  6.064260 95.114014 31.645491  0.000000 -0.000001 1.570796
170  0.054186 102.845642 29.795357  -0.000000 0.000001 -1.570796
171  6.064256 69.096558 37.164310  1.570796 0.000000 1.570796
172  1.974302 11.989234 4.589249  0.000000 0.000000 0.000000
173  -0.011481 23.944748 5.090360  0.000001 0.000000 0.000000
174  -1.691250 8.833343 5.763508  0.000001 0.000000 0.000000
175  6.064260 89.329811 31.613916  0.000000 -0.000001 1.570796
176  0.058455 13.169234 52.616833  -0.000000 0.000000 0.000000
177  0.000000 -9.421034 -0.000003  -0.000000 -0.000000 -0.000000
178  0.104010 15.380370 2.266152  0.000001 0.000000 0.000000
179  4.504587 -0.449495 -17.618832  2.064741 -0.116498 -2.067531
180  -3.255359 24.458078 -23.114336  0.181523 0.048807 -1.277059
181  -2.643331 12.454371 35.974297  -0.000002 -3.140902 0.000000
182  2.674278 2.772898 0.000538  -3.141593 -0.000000 -0.000000
183  -2.643331 9.000116 43.013512  0.000000 -3.141593 0.000000
184  2.674278 2.772899 0.000548  3.141593 0.000000 -0.000000
185  -1.431355 16.384779 4.137812  0.000001 0.000000 0.000000
186  -0.001844 0.521682 -0.140290  0.000000 0.000000 0.000000
187  7.323109 -5.136191 -5.166237  -0.000000 0.000000 -0.610865
188  2.698277 -0.000001 -0.000000  -0.000012 0.000000 0.000000
189  2.834160 -0.000001 -0.000000  0.000013 0.000000 0.000000
190  2.648917 -0.000001 0.000000  -0.000001 -0.000001 0.000000
191  2.667499 -0.000002 -0.000001  0.000000 -0.000000 0.000000
192  2.426701 -0.000001 0.000000  0.000000 -0.000000 -0.000000
193  -0.494744 -44.353447 -1.302296  1.570797 -0.000000 -1.570797
194  11.545939 73.768417 -3.792011  0.000000 0.000000 0.000000
195  -0.011103 -16.902813 1.952047  0.000001 0.000000 0.000000
196  -0.000000 -0.000001 -1.529052  -0.000000 -0.000000 0.000000
197  -0.078941 -0.000001 0.000000  0.000000 0.000001 1.570796
198  0.097092 -0.000002 0.000000  -0.000000 -3.141592 1.570796
199  0.000000 0.000000 0.000000  0.000000 -0.000000 -0.000000
200  -2.685993 -1.909307 -3.224822  -0.818626 -0.181728 0.190754
201  -1.922773 -3.352223 -0.856227  -0.818626 -0.181727 0.190754
time 2
0  0 0 0  0 0 0
1  0.000000 0.000000 0.000000  0.000000 -0.000000 -0.000000
2  -0.000005 0.000023 -61.375507  0.000000 0.000000 -1.570795
3  -0.012872 0.000000 8.235020  -1.570799 -1.570796 0.000000
4  16.163128 -0.012870 -0.000002  -0.000000 -0.000000 0.000000
5  -0.000000 0.000000 -0.000005  -0.509778 -0.266999 -0.441756
6  -0.000030 -0.000005 -0.000001  -0.355762 -0.352142 0.420984
7  -0.000004 -0.000008 0.000000  0.000000 0.000000 -0.098187
8  0.000006 -0.000001 -0.000001  0.081446 -0.000000 -0.000000
9  0.000007 -0.000001 -0.000001  0.162905 -0.000000 -0.000000
10  0.000006 -0.000000 -0.000002  0.244390 -0.000000 -0.000000
11  0.000002 -0.000001 -0.000000  0.325852 -0.000000 -0.000000
12  0.000002 -0.000001 -0.000001  0.407302 -0.000000 -0.000000
13  0.000006 -0.000002 -0.000003  0.488752 -0.000000 -0.000000
14  0.000003 -0.000003 -0.000001  0.570211 -0.000000 -0.000000
15  0.000006 0.000002 0.000001  0.638861 0.129600 -0.175282
16  1.410067 0.800534 -2.089134  2.009773 0.630250 0.591915
17  3.954709 -0.000004 0.000006  -0.000004 -0.000001 0.166316
18  3.101566 0.000004 0.000003  0.000002 -0.000001 0.240238
19  6.164460 -0.898141 2.575022  0.090705 -0.013516 -0.151467
20  2.805848 0.000005 -0.000004  0.000002 0.000001 0.079095
21  2.307442 -0.000003 0.000001  -0.000000 -0.000000 -0.056423
22  7.145098 -0.676330 -1.382422  0.086918 -0.009133 -0.085503
23  3.672213 0.000003 -0.000003  0.000003 0.000001 0.142941
24  2.676526 0.000002 0.000001  -0.000001 -0.000001 -0.026075
25  6.831177 -0.870853 0.599923  0.130314 -0.006347 -0.065005
26  3.657082 -0.000009 0.000000  0.000000 0.000000 0.057729
27  2.496792 0.000005 -0.000002  0.000000 0.000000 -0.091107
28  7.183352 -0.532073 -3.267606  0.123210 0.020356 -0.052484
29  3.511590 0.000005 -0.000001  -0.000001 -0.000001 0.099575
30  2.199411 0.000000 0.000006  0.000001 0.000001 0.029263
31  0.000004 -0.000000 0.000003  1.072159 0.979164 -0.008421
32  -0.000019 -0.000001 0.000001  0.440034 0.476695 1.152539
33  -0.000005 0.000000 -0.000007  0.000000 0.000000 -0.462624
34  0.000003 0.000001 0.000002  -0.030459 0.000000 -0.000000
35  0.000002 -0.000001 0.000004  -0.060863 0.000000 0.000000
36  -0.000001 -0.000001 0.000000  -0.091343 0.000000 0.000000
37  0.000001 -0.000001 -0.000001  -0.121783 -0.000000 -0.000000
38  -0.000001 0.000001 0.000005  -0.152251 -0.000000 -0.000000
39  -0.000002 -0.000000 0.000000  -0.182755 -0.000000 0.000000
40  -0.000003 -0.000002 0.000002  -0.213179 0.000000 0.000000
41  -0.000005 -0.000003 0.000000  -0.242148 0.244445 -0.142373
42  1.410070 0.800525 2.089138  -2.009768 -0.630254 0.591907
43  3.954724 0.000010 0.000004  -0.000000 -0.000002 0.166319
44  3.101559 -0.000009 0.000004  -0.000001 -0.000000 0.240238
45  7.183348 -0.532109 3.267603  -0.123210 -0.020355 -0.052486
46  3.511602 -0.000001 0.000000  0.000003 0.000001 0.099571
47  2.199404 0.000004 -0.000002  -0.000001 -0.000001 0.029267
48  7.145096 -0.676362 1.382423  -0.086920 0.009133 -0.085505
49  3.672218 -0.000003 -0.000003  0.000001 -0.000000 0.142941
50  2.676518 -0.000003 -0.000001  -0.000001 -0.000001 -0.026075
51  6.831177 -0.870878 -0.599924  -0.130311 0.006346 -0.065012
52  3.657080 -0.000003 -0.000004  -0.000000 0.000001 0.057734
53  2.496795 0.000000 0.000008  0.000000 -0.000001 -0.091108
54  6.164468 -0.898157 -2.575024  -0.090704 0.013515 -0.151468
55  2.805849 -0.000003 -0.000002  -0.000002 -0.000001 0.079091
56  2.307434 -0.000000 -0.000009  0.000002 0.000001 -0.056419
57  0.000000 0.000000 0.000000  0.000001 -0.000000 -0.000000
58  -4.520948 6.440933 2.605247  -0.818626 -0.181728 0.190754
59  0.071246 114.357025 62.238777  -0.000000 0.000000 0.000000
60  1.986525 0.000021 -3.123736  -2.705260 -0.000000 -1.570797
61  -1.986695 0.000028 -3.123752  0.436333 0.000001 1.570797
62  0.000000 0.000007 -0.000005  0.000000 0.000000 0.000000
63  -1.986693 0.000013 -3.123734  0.436333 0.000001 1.570797
64  -11.344165 1.135890 0.869287  0.000002 -0.025019 -0.026324
65  1.986525 0.000014 -3.123726  -2.705260 -0.000000 -1.570797
66  -11.350049 -0.729424 0.864896  0.000197 -0.025367 0.026442
67  1.754235 4.036754 -1.682665  0.392575 -0.010120 -1.546362
68  -1.755141 4.036760 -1.682666  -0.392577 -0.010391 -1.594986
69  -0.164556 7.327704 3.928703  -0.000000 0.000001 -1.570796
70  0.079082 36.742695 -0.508024  0.000001 0.000000 0.000000
71  -1.260174 8.777411 6.736406  -0.000002 -0.424415 -3.141592
72  1.525193 18.283598 2.968621  0.000000 0.000000 0.000000
73  0.060216 10.324389 74.469055  0.000008 0.000000 0.000000
74  0.062805 75.917999 83.075439  1.570797 -0.000000 -1.570796
75  4.804179 -3.971742 0.000004  -0.000000 0.000000 -0.000000
76  -7.041580 -5.025987 0.000001  -0.000000 -0.000000 -0.000001
77  8.407177 -3.978439 0.003056  -1.570796 1.570795 0.000000
78  10.376185 -3.978443 0.003056  -1.570796 1.570796 0.000000
79  10.194014 -0.314062 -1.749546  -1.570796 1.570796 0.000000
80  20.857880 -4.015561 0.000004  0.000000 -0.000000 0.000000
81  3.258434 5.856956 -3.403525  -0.000000 -0.000000 -0.000001
82  15.153045 5.860584 -3.403521  0.000000 -0.000000 0.000000
83  6.064258 77.294960 36.365795  1.570796 0.000000 1.570796
84  -2.662412 1.445754 40.667961  0.000000 3.141591 1.570796
85  8.352064 2.772895 0.000540  -3.141589 0.000002 0.000000
86  6.064259 72.973694 32.593250  1.570796 0.000000 1.570796
87  0.004365 73.768417 -3.792010  0.000000 0.000000 0.000000
88  -0.442609 1.284885 8.535288  0.000000 -0.000001 0.000000
89  0.000000 1.310220 -0.000001  0.000000 0.000000 0.000000
90  -0.000000 0.582265 -0.000005  0.000000 0.000000 0.000000
91  0.036299 1.284885 7.928797  0.000000 -0.000001 0.000000
92  0.000000 1.310215 0.000000  0.000000 0.000000 0.000000
93  -0.000000 0.582264 -0.000004  0.000000 0.000000 0.000000
94  5.969324 3.427462 -6.170654  -0.000000 -0.000001 -1.570797
95  -1.310204 0.000000 0.000007  0.000000 -0.000000 -0.000000
96  -0.582256 -0.000000 0.000003  0.000000 -0.000000 -0.000000
97  5.969324 9.397403 -6.170658  -0.000000 -0.000001 -1.570796
98  -1.310214 0.000002 0.000004  0.000000 0.000000 -0.000000
99  -0.582259 0.000000 -0.000000  0.000000 0.000000 -0.000000
100  5.969323 15.223777 -6.170671  0.000000 -0.000001 -1.570796
101  -1.310211 0.000003 -0.000004  -0.000000 0.000000 -0.000000
102  -0.582256 0.000002 -0.000005  -0.000000 0.000000 -0.000000
103  5.969325 20.835569 -6.170672  0.000000 -0.000001 -1.570796
104  -1.310211 0.000001 -0.000001  -0.000000 0.000000 -0.000000
105  -0.582260 0.000000 0.000003  -0.000000 0.000000 -0.000000
106  5.969323 26.771219 -6.170674  0.000000 -0.000001 -1.570796
107  5.969322 32.597607 -6.170676  0.000000 -0.000001 -1.570796
108  5.969323 38.209412 -6.170689  0.000000 -0.000001 -1.570800
109  5.969323 49.488480 -6.170688  0.000000 -0.000001 -1.570800
110  -0.539091 -0.556803 -0.017366  -0.042462 2.681156 1.551919
111  -6.799123 -0.556803 0.818552  -0.272420 2.701993 1.452460
112  -4.615283 -0.556820 0.270324  -0.117230 2.684609 1.518878
113  -2.650968 -0.556802 0.063013  -0.042463 2.681158 1.551919
114  27.110340 1.284860 12.007545  0.000000 -0.000000 0.000000
115  28.133429 1.284861 12.007549  0.000001 -0.000000 0.000000
116  12.812887 2.241788 12.007550  0.000000 -0.000001 -0.000001
117  -9.955967 -0.319620 4.380212  -0.000001 -0.000000 -0.000001
118  -11.316473 -0.319618 4.380213  -0.000003 -0.000000 0.000000
119  -12.667809 -0.319620 4.380215  -0.000003 -0.000000 0.000001
120  -14.022140 -0.319622 4.380211  0.000010 -0.000000 -0.000011
121  -15.373239 -0.319620 4.380210  0.000015 -0.000000 -0.000015
122  -16.724144 -0.319618 4.380210  -0.000009 -0.000000 0.000006
123  -18.074570 -0.319616 4.380213  -0.000006 -0.000000 0.000004
124  -19.423717 -0.319618 4.380211  0.000002 0.000000 -0.000004
125  -20.775270 -0.319616 4.380214  0.000003 0.000000 -0.000004
126  -22.126671 -0.319618 4.380208  0.000003 -0.000000 -0.000004
127  -23.478123 -0.319616 4.380212  0.000005 -0.000000 -0.000006
128  -24.830620 -0.319614 4.380210  0.000036 -0.000000 -0.000038
129  -26.182028 -0.319612 4.380211  -0.000011 -0.000000 0.000011
130  0.529180 -0.167123 0.629482  -0.101270 -0.000000 0.000000
131  -0.211444 -0.241680 0.155357  -0.145847 -0.000000 0.000000
132  0.529189 -0.280691 -0.110296  -0.145847 -0.000000 0.000000
133  -0.173927 -0.337317 -0.638501  -0.181751 -0.000000 0.000000
134  0.529189 -0.399240 -0.975400  -0.181751 -0.000000 0.000000
135  -0.211443 -0.464470 -1.431047  -0.192399 -0.000000 0.000000
136  0.529188 -0.515803 -1.694584  -0.192399 -0.000000 0.000000
137  -0.173928 -0.612148 -2.231911  -0.216703 -0.000000 0.000000
138  0.529188 -0.685800 -2.566442  -0.216703 -0.000000 0.000000
139  -0.211444 -0.769559 -3.027872  -0.237349 -0.000000 0.000000
140  0.529188 -0.832682 -3.288848  -0.237349 -0.000000 0.000000
141  -0.173937 -0.945278 -3.779569  -0.233859 0.000000 0.000000
142  0.529180 -1.024657 -4.112783  -0.233859 0.000000 0.000000
143  -0.211444 -1.132180 -4.577549  -0.262919 -0.000000 0.000000
144  0.529190 -1.201957 -4.836828  -0.262919 0.000000 0.000000
145  -0.000004 -2.810935 -10.636628  0.258454 0.000000 3.141592
146  -0.192456 -1.345773 -5.370048  -0.280373 0.000000 0.000000
147  0.533984 -1.413509 -5.605105  -0.276883 0.000000 0.000000
148  -0.206617 -1.795755 -6.909779  -0.287354 0.000000 0.000000
149  -0.205804 -1.564813 -6.138257  -0.290843 0.000000 0.000000
150  0.530459 -1.643673 -6.395223  -0.290844 0.000000 0.000000
151  0.535312 -1.790706 -7.204132  -0.287354 -0.000000 0.000000
152  -0.202703 -2.030481 -7.702834  -0.286180 -0.000000 0.000000
153  0.509548 -2.118897 -8.011629  -0.298398 -0.000000 0.000000
154  -0.202703 -2.255274 -8.465171  -0.283134 -0.000000 0.000000
155  0.509548 -2.352979 -8.771164  -0.295352 -0.000000 0.000000
156  -0.202704 -2.481593 -9.235469  -0.285437 -0.000000 0.000000
157  0.509547 -2.588674 -9.538639  -0.297654 -0.000000 0.000000
158  0.170123 -21.222090 -1.001142  -0.000001 -0.000001 0.000000
159  0.170124 -20.843861 -0.397183  -0.000001 -0.000001 0.000000
160  0.170124 -20.489742 -1.001142  -0.000001 -0.000001 0.000000
161  0.170124 -20.111067 -0.397182  -0.000001 -0.000001 0.000000
162  0.170123 -19.380087 -0.397187  -0.000001 -0.000001 0.000000
163  0.170123 -19.025106 -1.001146  -0.000001 -0.000001 0.000000
164  0.170123 -18.646656 -0.396450  -0.000001 -0.000001 0.000000
165  0.170124 -19.755756 -1.001143  -0.000001 -0.000001 0.000000
166  -0.015973 10.612517 2.686016  0.000001 0.000000 0.000000
167  0.059851 -50.160706 6.449386  1.570797 0.000000 -1.570797
168  0.064652 27.351290 72.195206  -0.000000 -0.000000 -0.000001
169  6.064260 95.114014 31.645491  0.000000 -0.000001 1.570796
170  0.054186 102.845642 29.795357  -0.000000 0.000001 -1.570796
171  6.064256 69.096558 37.164310  1.570796 0.000000 1.570796
172  1.974302 11.989234 4.589249  0.000000 0.000000 0.000000
173  -0.011481 23.944748 5.090360  0.000001 0.000000 0.000000
174  -1.691250 8.833343 5.763508  0.000001 0.000000 0.000000
175  6.064260 89.329811 31.613916  0.000000 -0.000001 1.570796
176  0.058455 13.169234 52.616833  -0.000000 0.000000 0.000000
177  0.000000 -9.421034 -0.000003  -0.000000 -0.000000 -0.000000
178  0.104010 15.380370 2.266152  0.000001 0.000000 0.000000
179  4.504587 -0.449495 -17.618832  2.064741 -0.116498 -2.067531
180  -3.255359 24.458078 -23.114336  0.181523 0.048807 -1.277059
181  -2.643331 12.454371 35.974297  -0.000002 -3.140902 0.000000
182  2.674278 2.772898 0.000538  -3.141593 -0.000000 -0.000000
183  -2.643331 9.000116 43.013512  0.000000 -3.141593 0.000000
184  2.674278 2.772899 0.000548  3.141593 0.000000 -0.000000
185  -1.431355 16.384779 4.137812  0.000001 0.000000 0.000000
186  -0.001844 0.521682 -0.140290  0.000000 0.000000 0.000000
187  7.323109 -5.136191 -5.166237  -0.000000 0.000000 -0.610865
188  2.698277 -0.000001 -0.000000  -0.000012 0.000000 0.000000
189  2.834160 -0.000001 -0.000000  0.000013 0.000000 0.000000
190  2.648917 -0.000001 0.000000  -0.000001 -0.000001 0.000000
191  2.667499 -0.000002 -0.000001  0.000000 -0.000000 0.000000
192  2.426701 -0.000001 0.000000  0.000000 -0.000000 -0.000000
193  -0.494744 -44.353447 -1.302296  1.570797 -0.000000 -1.570797
194  11.545939 73.768417 -3.792011  0.000000 0.000000 0.000000
195  -0.011103 -16.902813 1.952047  0.000001 0.000000 0.000000
196  -0.000000 -0.000001 -1.529052  -0.000000 -0.000000 0.000000
197  -0.078941 -0.000001 0.000000  0.000000 0.000001 1.570796
198  0.097092 -0.000002 0.000000  -0.000000 -3.141592 1.570796
199  0.000000 0.000000 0.000000  0.000000 -0.000000 -0.000000
200  -2.685993 -1.909307 -3.224822  -0.818626 -0.181728 0.190754
201  -1.922773 -3.352223 -0.856227  -0.818626 -0.181727 0.190754
time 3
0  0 0 0  0 0 0
1  0.000000 0.000000 0.000000  0.000000 -0.000000 -0.000000
2  -0.000005 0.000023 -61.375507  0.000000 0.000000 -1.570795
3  -0.012872 0.000000 8.235020  -1.570799 -1.570796 0.000000
4  16.163128 -0.012870 -0.000002  -0.000000 -0.000000 0.000000
5  -0.000000 0.000000 -0.000005  -0.509778 -0.266999 -0.441756
6  -0.000030 -0.000005 -0.000001  -0.355762 -0.352142 0.420984
7  -0.000004 -0.000008 0.000000  0.000000 0.000000 -0.098187
8  0.000006 -0.000001 -0.000001  0.081446 -0.000000 -0.000000
9  0.000007 -0.000001 -0.000001  0.162905 -0.000000 -0.000000
10  0.000006 -0.000000 -0.000002  0.244390 -0.000000 -0.000000
11  0.000002 -0.000001 -0.000000  0.325852 -0.000000 -0.000000
12  0.000002 -0.000001 -0.000001  0.407302 -0.000000 -0.000000
13  0.000006 -0.000002 -0.000003  0.488752 -0.000000 -0.000000
14  0.000003 -0.000003 -0.000001  0.570211 -0.000000 -0.000000
15  0.000006 0.000002 0.000001  0.638861 0.129600 -0.175282
16  1.410067 0.800534 -2.089134  2.009773 0.630250 0.591915
17  3.954709 -0.000004 0.000006  -0.000004 -0.000001 0.166316
18  3.101566 0.000004 0.000003  0.000002 -0.000001 0.240238
19  6.164460 -0.898141 2.575022  0.090705 -0.013516 -0.151467
20  2.805848 0.000005 -0.000004  0.000002 0.000001 0.079095
21  2.307442 -0.000003 0.000001  -0.000000 -0.000000 -0.056423
22  7.145098 -0.676330 -1.382422  0.086918 -0.009133 -0.085503
23  3.672213 0.000003 -0.000003  0.000003 0.000001 0.142941
24  2.676526 0.000002 0.000001  -0.000001 -0.000001 -0.026075
25  6.831177 -0.870853 0.599923  0.130314 -0.006347 -0.065005
26  3.657082 -0.000009 0.000000  0.000000 0.000000 0.057729
27  2.496792 0.000005 -0.000002  0.000000 0.000000 -0.091107
28  7.183352 -0.532073 -3.267606  0.123210 0.020356 -0.052484
29  3.511590 0.000005 -0.000001  -0.000001 -0.000001 0.099575
30  2.199411 0.000000 0.000006  0.000001 0.000001 0.029263
31  0.000004 -0.000000 0.000003  1.072159 0.979164 -0.008421
32  -0.000019 -0.000001 0.000001  0.440034 0.476695 1.152539
33  -0.000005 0.000000 -0.000007  0.000000 0.000000 -0.462624
34  0.000003 0.000001 0.000002  -0.030459 0.000000 -0.000000
35  0.000002 -0.000001 0.000004  -0.060863 0.000000 0.000000
36  -0.000001 -0.000001 0.000000  -0.091343 0.000000 0.000000
37  0.000001 -0.000001 -0.000001  -0.121783 -0.000000 -0.000000
38  -0.000001 0.000001 0.000005  -0.152251 -0.000000 -0.000000
39  -0.000002 -0.000000 0.000000  -0.182755 -0.000000 0.000000
40  -0.000003 -0.000002 0.000002  -0.213179 0.000000 0.000000
41  -0.000005 -0.000003 0.000000  -0.242148 0.244445 -0.142373
42  1.410070 0.800525 2.089138  -2.009768 -0.630254 0.591907
43  3.954724 0.000010 0.000004  -0.000000 -0.000002 0.166319
44  3.101559 -0.000009 0.000004  -0.000001 -0.000000 0.240238
45  7.183348 -0.532109 3.267603  -0.123210 -0.020355 -0.052486
46  3.511602 -0.000001 0.000000  0.000003 0.000001 0.099571
47  2.199404 0.000004 -0.000002  -0.000001 -0.000001 0.029267
48  7.145096 -0.676362 1.382423  -0.086920 0.009133 -0.085505
49  3.672218 -0.000003 -0.000003  0.000001 -0.000000 0.142941
50  2.676518 -0.000003 -0.000001  -0.000001 -0.000001 -0.026075
51  6.831177 -0.870878 -0.599924  -0.130311 0.006346 -0.065012
52  3.657080 -0.000003 -0.000004  -0.000000 0.000001 0.057734
53  2.496795 0.000000 0.000008  0.000000 -0.000001 -0.091108
54  6.164468 -0.898157 -2.575024  -0.090704 0.013515 -0.151468
55  2.805849 -0.000003 -0.000002  -0.000002 -0.000001 0.079091
56  2.307434 -0.000000 -0.000009  0.000002 0.000001 -0.056419
57  0.000000 0.000000 0.000000  0.000001 -0.000000 -0.000000
58  -4.520948 6.440933 2.605247  -0.818626 -0.181728 0.190754
59  0.071246 114.357025 62.238777  -0.000000 0.000000 0.000000
60  1.986525 0.000021 -3.123736  -2.705260 -0.000000 -1.570797
61  -1.986695 0.000028 -3.123752  0.436333 0.000001 1.570797
62  0.000000 0.000007 -0.000005  0.000000 0.000000 0.000000
63  -1.986693 0.000013 -3.123734  0.436333 0.000001 1.570797
64  -11.344165 1.135890 0.869287  0.000002 -0.025019 -0.026324
65  1.986525 0.000014 -3.123726  -2.705260 -0.000000 -1.570797
66  -11.350049 -0.729424 0.864896  0.000197 -0.025367 0.026442
67  1.754235 4.036754 -1.682665  0.392575 -0.010120 -1.546362
68  -1.755141 4.036760 -1.682666  -0.392577 -0.010391 -1.594986
69  -0.164556 7.327704 3.928703  -0.000000 0.000001 -1.570796
70  0.079082 36.742695 -0.508024  0.000001 0.000000 0.000000
71  -1.260174 8.777411 6.736406  -0.000002 -0.424415 -3.141592
72  1.525193 18.283598 2.968621  0.000000 0.000000 0.000000
73  0.060216 10.324389 74.469055  0.000008 0.000000 0.000000
74  0.062805 75.917999 83.075439  1.570797 -0.000000 -1.570796
75  4.804179 -3.971742 0.000004  -0.000000 0.000000 -0.000000
76  -7.041580 -5.025987 0.000001  -0.000000 -0.000000 -0.000001
77  8.407177 -3.978439 0.003056  -1.570796 1.570795 0.000000
78  10.376185 -3.978443 0.003056  -1.570796 1.570796 0.000000
79  10.194014 -0.314062 -1.749546  -1.570796 1.570796 0.000000
80  20.857880 -4.015561 0.000004  0.000000 -0.000000 0.000000
81  3.258434 5.856956 -3.403525  -0.000000 -0.000000 -0.000001
82  15.153045 5.860584 -3.403521  0.000000 -0.000000 0.000000
83  6.064258 77.294960 36.365795  1.570796 0.000000 1.570796
84  -2.662412 1.445754 40.667961  0.000000 3.141591 1.570796
85  8.352064 2.772895 0.000540  -3.141589 0.000002 0.000000
86  6.064259 72.973694 32.593250  1.570796 0.000000 1.570796
87  0.004365 73.768417 -3.792010  0.000000 0.000000 0.000000
88  -0.442609 1.284885 8.535288  0.000000 -0.000001 0.000000
89  0.000000 1.310220 -0.000001  0.000000 0.000000 0.000000
90  -0.000000 0.582265 -0.000005  0.000000 0.000000 0.000000
91  0.036299 1.284885 7.928797  0.000000 -0.000001 0.000000
92  0.000000 1.310215 0.000000  0.000000 0.000000 0.000000
93  -0.000000 0.582264 -0.000004  0.000000 0.000000 0.000000
94  5.969324 3.427462 -6.170654  -0.000000 -0.000001 -1.570797
95  -1.310204 0.000000 0.000007  0.000000 -0.000000 -0.000000
96  -0.582256 -0.000000 0.000003  0.000000 -0.000000 -0.000000
97  5.969324 9.397403 -6.170658  -0.000000 -0.000001 -1.570796
98  -1.310214 0.000002 0.000004  0.000000 0.000000 -0.000000
99  -0.582259 0.000000 -0.000000  0.000000 0.000000 -0.000000
100  5.969323 15.223777 -6.170671  0.000000 -0.000001 -1.570796
101  -1.310211 0.000003 -0.000004  -0.000000 0.000000 -0.000000
102  -0.582256 0.000002 -0.000005  -0.000000 0.000000 -0.000000
103  5.969325 20.835569 -6.170672  0.000000 -0.000001 -1.570796
104  -1.310211 0.000001 -0.000001  -0.000000 0.000000 -0.000000
105  -0.582260 0.000000 0.000003  -0.000000 0.000000 -0.000000
106  5.969323 26.771219 -6.170674  0.000000 -0.000001 -1.570796
107  5.969322 32.597607 -6.170676  0.000000 -0.000001 -1.570796
108  5.969323 38.209412 -6.170689  0.000000 -0.000001 -1.570800
109  5.969323 49.488480 -6.170688  0.000000 -0.000001 -1.570800
110  -0.539091 -0.556803 -0.017366  -0.042462 2.681156 1.551919
111  -6.799123 -0.556803 0.818552  -0.272420 2.701993 1.452460
112  -4.615283 -0.556820 0.270324  -0.117230 2.684609 1.518878
113  -2.650968 -0.556802 0.063013  -0.042463 2.681158 1.551919
114  27.110340 1.284860 12.007545  0.000000 -0.000000 0.000000
115  28.133429 1.284861 12.007549  0.000001 -0.000000 0.000000
116  12.812887 2.241788 12.007550  0.000000 -0.000001 -0.000001
117  -9.955967 -0.319620 4.380212  -0.000001 -0.000000 -0.000001
118  -11.316473 -0.319618 4.380213  -0.000003 -0.000000 0.000000
119  -12.667809 -0.319620 4.380215  -0.000003 -0.000000 0.000001
120  -14.022140 -0.319622 4.380211  0.000010 -0.000000 -0.000011
121  -15.373239 -0.319620 4.380210  0.000015 -0.000000 -0.000015
122  -16.724144 -0.319618 4.380210  -0.000009 -0.000000 0.000006
123  -18.074570 -0.319616 4.380213  -0.000006 -0.000000 0.000004
124  -19.423717 -0.319618 4.380211  0.000002 0.000000 -0.000004
125  -20.775270 -0.319616 4.380214  0.000003 0.000000 -0.000004
126  -22.126671 -0.319618 4.380208  0.000003 -0.000000 -0.000004
127  -23.478123 -0.319616 4.380212  0.000005 -0.000000 -0.000006
128  -24.830620 -0.319614 4.380210  0.000036 -0.000000 -0.000038
129  -26.182028 -0.319612 4.380211  -0.000011 -0.000000 0.000011
130  0.529180 -0.167123 0.629482  -0.101270 -0.000000 0.000000
131  -0.211444 -0.241680 0.155357  -0.145847 -0.000000 0.000000
132  0.529189 -0.280691 -0.110296  -0.145847 -0.000000 0.000000
133  -0.173927 -0.337317 -0.638501  -0.181751 -0.000000 0.000000
134  0.529189 -0.399240 -0.975400  -0.181751 -0.000000 0.000000
135  -0.211443 -0.464470 -1.431047  -0.192399 -0.000000 0.000000
136  0.529188 -0.515803 -1.694584  -0.192399 -0.000000 0.000000
137  -0.173928 -0.612148 -2.231911  -0.216703 -0.000000 0.000000
138  0.529188 -0.685800 -2.566442  -0.216703 -0.000000 0.000000
139  -0.211444 -0.769559 -3.027872  -0.237349 -0.000000 0.000000
140  0.529188 -0.832682 -3.288848  -0.237349 -0.000000 0.000000
141  -0.173937 -0.945278 -3.779569  -0.233859 0.000000 0.000000
142  0.529180 -1.024657 -4.112783  -0.233859 0.000000 0.000000
143  -0.211444 -1.132180 -4.577549  -0.262919 -0.000000 0.000000
144  0.529190 -1.201957 -4.836828  -0.262919 0.000000 0.000000
145  -0.000004 -2.810935 -10.636628  0.258454 0.000000 3.141592
146  -0.192456 -1.345773 -5.370048  -0.280373 0.000000 0.000000
147  0.533984 -1.413509 -5.605105  -0.276883 0.000000 0.000000
148  -0.206617 -1.795755 -6.909779  -0.287354 0.000000 0.000000
149  -0.205804 -1.564813 -6.138257  -0.290843 0.000000 0.000000
150  0.530459 -1.643673 -6.395223  -0.290844 0.000000 0.000000
151  0.535312 -1.790706 -7.204132  -0.287354 -0.000000 0.000000
152  -0.202703 -2.030481 -7.702834  -0.286180 -0.000000 0.000000
153  0.509548 -2.118897 -8.011629  -0.298398 -0.000000 0.000000
154  -0.202703 -2.255274 -8.465171  -0.283134 -0.000000 0.000000
155  0.509548 -2.352979 -8.771164  -0.295352 -0.000000 0.000000
156  -0.202704 -2.481593 -9.235469  -0.285437 -0.000000 0.000000
157  0.509547 -2.588674 -9.538639  -0.297654 -0.000000 0.000000
158  0.170123 -21.222090 -1.001142  -0.000001 -0.000001 0.000000
159  0.170124 -20.843861 -0.397183  -0.000001 -0.000001 0.000000
160  0.170124 -20.489742 -1.001142  -0.000001 -0.000001 0.000000
161  0.170124 -20.111067 -0.397182  -0.000001 -0.000001 0.000000
162  0.170123 -19.380087 -0.397187  -0.000001 -0.000001 0.000000
163  0.170123 -19.025106 -1.001146  -0.000001 -0.000001 0.000000
164  0.170123 -18.646656 -0.396450  -0.000001 -0.000001 0.000000
165  0.170124 -19.755756 -1.001143  -0.000001 -0.000001 0.000000
166  -0.015973 10.612517 2.686016  0.000001 0.000000 0.000000
167  0.059851 -50.160706 6.449386  1.570797 0.000000 -1.570797
168  0.064652 27.351290 72.195206  -0.000000 -0.000000 -0.000001
169  6.064260 95.114014 31.645491  0.000000 -0.000001 1.570796
170  0.054186 102.845642 29.795357  -0.000000 0.000001 -1.570796
171  6.064256 69.096558 37.164310  1.570796 0.000000 1.570796
172  1.974302 11.989234 4.589249  0.000000 0.000000 0.000000
173  -0.011481 23.944748 5.090360  0.000001 0.000000 0.000000
174  -1.691250 8.833343 5.763508  0.000001 0.000000 0.000000
175  6.064260 89.329811 31.613916  0.000000 -0.000001 1.570796
176  0.058455 13.169234 52.616833  -0.000000 0.000000 0.000000
177  0.000000 -9.421034 -0.000003  -0.000000 -0.000000 -0.000000
178  0.104010 15.380370 2.266152  0.000001 0.000000 0.000000
179  4.504587 -0.449495 -17.618832  2.064741 -0.116498 -2.067531
180  -3.255359 24.458078 -23.114336  0.181523 0.048807 -1.277059
181  -2.643331 12.454371 35.974297  -0.000002 -3.140902 0.000000
182  2.674278 2.772898 0.000538  -3.141593 -0.000000 -0.000000
183  -2.643331 9.000116 43.013512  0.000000 -3.141593 0.000000
184  2.674278 2.772899 0.000548  3.141593 0.000000 -0.000000
185  -1.431355 16.384779 4.137812  0.000001 0.000000 0.000000
186  -0.001844 0.521682 -0.140290  0.000000 0.000000 0.000000
187  7.323109 -5.136191 -5.166237  -0.000000 0.000000 -0.610865
188  2.698277 -0.000001 -0.000000  -0.000012 0.000000 0.000000
189  2.834160 -0.000001 -0.000000  0.000013 0.000000 0.000000
190  2.648917 -0.000001 0.000000  -0.000001 -0.000001 0.000000
191  2.667499 -0.000002 -0.000001  0.000000 -0.000000 0.000000
192  2.426701 -0.000001 0.000000  0.000000 -0.000000 -0.000000
193  -0.494744 -44.353447 -1.302296  1.570797 -0.000000 -1.570797
194  11.545939 73.768417 -3.792011  0.000000 0.000000 0.000000
195  -0.011103 -16.902813 1.952047  0.000001 0.000000 0.000000
196  -0.000000 -0.000001 -1.529052  -0.000000 -0.000000 0.000000
197  -0.078941 -0.000001 0.000000  0.000000 0.000001 1.570796
198  0.097092 -0.000002 0.000000  -0.000000 -3.141592 1.570796
199  0.000000 0.000000 0.000000  0.000000 -0.000000 -0.000000
200  -2.685993 -1.909307 -3.224822  -0.818626 -0.181728 0.190754
201  -1.922773 -3.352223 -0.856227  -0.818626 -0.181727 0.190754
time 4
0  0 0 0  0 0 0
1  0.000000 0.000000 0.000000  0.000000 -0.000000 -0.000000
2  -0.000005 0.000023 -61.375507  0.000000 0.000000 -1.570795
3  -0.012872 0.000000 8.235020  -1.570799 -1.570796 0.000000
4  16.163128 -0.012870 -0.000002  -0.000000 -0.000000 0.000000
5  -0.000000 0.000000 -0.000005  -0.509778 -0.266999 -0.441756
6  -0.000030 -0.000005 -0.000001  -0.355762 -0.352142 0.420984
7  -0.000004 -0.000008 0.000000  0.000000 0.000000 -0.098187
8  0.000006 -0.000001 -0.000001  0.081446 -0.000000 -0.000000
9  0.000007 -0.000001 -0.000001  0.162905 -0.000000 -0.000000
10  0.000006 -0.000000 -0.000002  0.244390 -0.000000 -0.000000
11  0.000002 -0.000001 -0.000000  0.325852 -0.000000 -0.000000
12  0.000002 -0.000001 -0.000001  0.407302 -0.000000 -0.000000
13  0.000006 -0.000002 -0.000003  0.488752 -0.000000 -0.000000
14  0.000003 -0.000003 -0.000001  0.570211 -0.000000 -0.000000
15  0.000006 0.000002 0.000001  0.638861 0.129600 -0.175282
16  1.410067 0.800534 -2.089134  2.009773 0.630250 0.591915
17  3.954709 -0.000004 0.000006  -0.000004 -0.000001 0.166316
18  3.101566 0.000004 0.000003  0.000002 -0.000001 0.240238
19  6.164460 -0.898141 2.575022  0.090705 -0.013516 -0.151467
20  2.805848 0.000005 -0.000004  0.000002 0.000001 0.079095
21  2.307442 -0.000003 0.000001  -0.000000 -0.000000 -0.056423
22  7.145098 -0.676330 -1.382422  0.086918 -0.009133 -0.085503
23  3.672213 0.000003 -0.000003  0.000003 0.000001 0.142941
24  2.676526 0.000002 0.000001  -0.000001 -0.000001 -0.026075
25  6.831177 -0.870853 0.599923  0.130314 -0.006347 -0.065005
26  3.657082 -0.000009 0.000000  0.000000 0.000000 0.057729
27  2.496792 0.000005 -0.000002  0.000000 0.000000 -0.091107
28  7.183352 -0.532073 -3.267606  0.123210 0.020356 -0.052484
29  3.511590 0.000005 -0.000001  -0.000001 -0.000001 0.099575
30  2.199411 0.000000 0.000006  0.000001 0.000001 0.029263
31  0.000004 -0.000000 0.000003  1.072159 0.979164 -0.008421
32  -0.000019 -0.000001 0.000001  0.440034 0.476695 1.152539
33  -0.000005 0.000000 -0.000007  0.000000 0.000000 -0.462624
34  0.000003 0.000001 0.000002  -0.030459 0.000000 -0.000000
35  0.000002 -0.000001 0.000004  -0.060863 0.000000 0.000000
36  -0.000001 -0.000001 0.000000  -0.091343 0.000000 0.000000
37  0.000001 -0.000001 -0.000001  -0.121783 -0.000000 -0.000000
38  -0.000001 0.000001 0.000005  -0.152251 -0.000000 -0.000000
39  -0.000002 -0.000000 0.000000  -0.182755 -0.000000 0.000000
40  -0.000003 -0.000002 0.000002  -0.213179 0.000000 0.000000
41  -0.000005 -0.000003 0.000000  -0.242148 0.244445 -0.142373
42  1.410070 0.800525 2.089138  -2.009768 -0.630254 0.591907
43  3.954724 0.000010 0.000004  -0.000000 -0.000002 0.166319
44  3.101559 -0.000009 0.000004  -0.000001 -0.000000 0.240238
45  7.183348 -0.532109 3.267603  -0.123210 -0.020355 -0.052486
46  3.511602 -0.000001 0.000000  0.000003 0.000001 0.099571
47  2.199404 0.000004 -0.000002  -0.000001 -0.000001 0.029267
48  7.145096 -0.676362 1.382423  -0.086920 0.009133 -0.085505
49  3.672218 -0.000003 -0.000003  0.000001 -0.000000 0.142941
50  2.676518 -0.000003 -0.000001  -0.000001 -0.000001 -0.026075
51  6.831177 -0.870878 -0.599924  -0.130311 0.006346 -0.065012
52  3.657080 -0.000003 -0.000004  -0.000000 0.000001 0.057734
53  2.496795 0.000000 0.000008  0.000000 -0.000001 -0.091108
54  6.164468 -0.898157 -2.575024  -0.090704 0.013515 -0.151468
55  2.805849 -0.000003 -0.000002  -0.000002 -0.000001 0.079091
56  2.307434 -0.000000 -0.000009  0.000002 0.000001 -0.056419
57  0.000000 0.000000 0.000000  0.000001 -0.000000 -0.000000
58  -4.520948 6.440933 2.605247  -0.818626 -0.181728 0.190754
59  0.071246 114.357025 62.238777  -0.000000 0.000000 0.000000
60  1.986525 0.000021 -3.123736  -2.705260 -0.000000 -1.570797
61  -1.986695 0.000028 -3.123752  0.436333 0.000001 1.570797
62  0.000000 0.000007 -0.000005  0.000000 0.000000 0.000000
63  -1.986693 0.000013 -3.123734  0.436333 0.000001 1.570797
64  -11.344165 1.135890 0.869287  0.000002 -0.025019 -0.026324
65  1.986525 0.000014 -3.123726  -2.705260 -0.000000 -1.570797
66  -11.350049 -0.729424 0.864896  0.000197 -0.025367 0.026442
67  1.754235 4.036754 -1.682665  0.392575 -0.010120 -1.546362
68  -1.755141 4.036760 -1.682666  -0.392577 -0.010391 -1.594986
69  -0.164556 7.327704 3.928703  -0.000000 0.000001 -1.570796
70  0.079082 36.742695 -0.508024  0.000001 0.000000 0.000000
71  -1.260174 8.777411 6.736406  -0.000002 -0.424415 -3.141592
72  1.525193 18.283598 2.968621  0.000000 0.000000 0.000000
73  0.060216 10.324389 74.469055  0.000008 0.000000 0.000000
74  0.062805 75.917999 83.075439  1.570797 -0.000000 -1.570796
75  4.804179 -3.971742 0.000004  -0.000000 0.000000 -0.000000
76  -7.041580 -5.025987 0.000001  -0.000000 -0.000000 -0.000001
77  8.407177 -3.978439 0.003056  -1.570796 1.570795 0.000000
78  10.376185 -3.978443 0.003056  -1.570796 1.570796 0.000000
79  10.194014 -0.314062 -1.749546  -1.570796 1.570796 0.000000
80  20.857880 -4.015561 0.000004  0.000000 -0.000000 0.000000
81  3.258434 5.856956 -3.403525  -0.000000 -0.000000 -0.000001
82  15.153045 5.860584 -3.403521  0.000000 -0.000000 0.000000
83  6.064258 77.294960 36.365795  1.570796 0.000000 1.570796
84  -2.662412 1.445754 40.667961  0.000000 3.141591 1.570796
85  8.352064 2.772895 0.000540  -3.141589 0.000002 0.000000
86  6.064259 72.973694 32.593250  1.570796 0.000000 1.570796
87  0.004365 73.768417 -3.792010  0.000000 0.000000 0.000000
88  -0.442609 1.284885 8.535288  0.000000 -0.000001 0.000000
89  0.000000 1.310220 -0.000001  0.000000 0.000000 0.000000
90  -0.000000 0.582265 -0.000005  0.000000 0.000000 0.000000
91  0.036299 1.284885 7.928797  0.000000 -0.000001 0.000000
92  0.000000 1.310215 0.000000  0.000000 0.000000 0.000000
93  -0.000000 0.582264 -0.000004  0.000000 0.000000 0.000000
94  5.969324 3.427462 -6.170654  -0.000000 -0.000001 -1.570797
95  -1.310204 0.000000 0.000007  0.000000 -0.000000 -0.000000
96  -0.582256 -0.000000 0.000003  0.000000 -0.000000 -0.000000
97  5.969324 9.397403 -6.170658  -0.000000 -0.000001 -1.570796
98  -1.310214 0.000002 0.000004  0.000000 0.000000 -0.000000
99  -0.582259 0.000000 -0.000000  0.000000 0.000000 -0.000000
100  5.969323 15.223777 -6.170671  0.000000 -0.000001 -1.570796
101  -1.310211 0.000003 -0.000004  -0.000000 0.000000 -0.000000
102  -0.582256 0.000002 -0.000005  -0.000000 0.000000 -0.000000
103  5.969325 20.835569 -6.170672  0.000000 -0.000001 -1.570796
104  -1.310211 0.000001 -0.000001  -0.000000 0.000000 -0.000000
105  -0.582260 0.000000 0.000003  -0.000000 0.000000 -0.000000
106  5.969323 26.771219 -6.170674  0.000000 -0.000001 -1.570796
107  5.969322 32.597607 -6.170676  0.000000 -0.000001 -1.570796
108  5.969323 38.209412 -6.170689  0.000000 -0.000001 -1.570800
109  5.969323 49.488480 -6.170688  0.000000 -0.000001 -1.570800
110  -0.539091 -0.556803 -0.017366  -0.042462 2.681156 1.551919
111  -6.799123 -0.556803 0.818552  -0.272420 2.701993 1.452460
112  -4.615283 -0.556820 0.270324  -0.117230 2.684609 1.518878
113  -2.650968 -0.556802 0.063013  -0.042463 2.681158 1.551919
114  27.110340 1.284860 12.007545  0.000000 -0.000000 0.000000
115  28.133429 1.284861 12.007549  0.000001 -0.000000 0.000000
116  12.812887 2.241788 12.007550  0.000000 -0.000001 -0.000001
117  -9.955967 -0.319620 4.380212  -0.000001 -0.000000 -0.000001
118  -11.316473 -0.319618 4.380213  -0.000003 -0.000000 0.000000
119  -12.667809 -0.319620 4.380215  -0.000003 -0.000000 0.000001
120  -14.022140 -0.319622 4.380211  0.000010 -0.000000 -0.000011
121  -15.373239 -0.319620 4.380210  0.000015 -0.000000 -0.000015
122  -16.724144 -0.319618 4.380210  -0.000009 -0.000000 0.000006
123  -18.074570 -0.319616 4.380213  -0.000006 -0.000000 0.000004
124  -19.423717 -0.319618 4.380211  0.000002 0.000000 -0.000004
125  -20.775270 -0.319616 4.380214  0.000003 0.000000 -0.000004
126  -22.126671 -0.319618 4.380208  0.000003 -0.000000 -0.000004
127  -23.478123 -0.319616 4.380212  0.000005 -0.000000 -0.000006
128  -24.830620 -0.319614 4.380210  0.000036 -0.000000 -0.000038
129  -26.182028 -0.319612 4.380211  -0.000011 -0.000000 0.000011
130  0.529180 -0.167123 0.629482  -0.101270 -0.000000 0.000000
131  -0.211444 -0.241680 0.155357  -0.145847 -0.000000 0.000000
132  0.529189 -0.280691 -0.110296  -0.145847 -0.000000 0.000000
133  -0.173927 -0.337317 -0.638501  -0.181751 -0.000000 0.000000
134  0.529189 -0.399240 -0.975400  -0.181751 -0.000000 0.000000
135  -0.211443 -0.464470 -1.431047  -0.192399 -0.000000 0.000000
136  0.529188 -0.515803 -1.694584  -0.192399 -0.000000 0.000000
137  -0.173928 -0.612148 -2.231911  -0.216703 -0.000000 0.000000
138  0.529188 -0.685800 -2.566442  -0.216703 -0.000000 0.000000
139  -0.211444 -0.769559 -3.027872  -0.237349 -0.000000 0.000000
140  0.529188 -0.832682 -3.288848  -0.237349 -0.000000 0.000000
141  -0.173937 -0.945278 -3.779569  -0.233859 0.000000 0.000000
142  0.529180 -1.024657 -4.112783  -0.233859 0.000000 0.000000
143  -0.211444 -1.132180 -4.577549  -0.262919 -0.000000 0.000000
144  0.529190 -1.201957 -4.836828  -0.262919 0.000000 0.000000
145  -0.000004 -2.810935 -10.636628  0.258454 0.000000 3.141592
146  -0.192456 -1.345773 -5.370048  -0.280373 0.000000 0.000000
147  0.533984 -1.413509 -5.605105  -0.276883 0.000000 0.000000
148  -0.206617 -1.795755 -6.909779  -0.287354 0.000000 0.000000
149  -0.205804 -1.564813 -6.138257  -0.290843 0.000000 0.000000
150  0.530459 -1.643673 -6.395223  -0.290844 0.000000 0.000000
151  0.535312 -1.790706 -7.204132  -0.287354 -0.000000 0.000000
152  -0.202703 -2.030481 -7.702834  -0.286180 -0.000000 0.000000
153  0.509548 -2.118897 -8.011629  -0.298398 -0.000000 0.000000
154  -0.202703 -2.255274 -8.465171  -0.283134 -0.000000 0.000000
155  0.509548 -2.352979 -8.771164  -0.295352 -0.000000 0.000000
156  -0.202704 -2.481593 -9.235469  -0.285437 -0.000000 0.000000
157  0.509547 -2.588674 -9.538639  -0.297654 -0.000000 0.000000
158  0.170123 -21.222090 -1.001142  -0.000001 -0.000001 0.000000
159  0.170124 -20.843861 -0.397183  -0.000001 -0.000001 0.000000
160  0.170124 -20.489742 -1.001142  -0.000001 -0.000001 0.000000
161  0.170124 -20.111067 -0.397182  -0.000001 -0.000001 0.000000
162  0.170123 -19.380087 -0.397187  -0.000001 -0.000001 0.000000
163  0.170123 -19.025106 -1.001146  -0.000001 -0.000001 0.000000
164  0.170123 -18.646656 -0.396450  -0.000001 -0.000001 0.000000
165  0.170124 -19.755756 -1.001143  -0.000001 -0.000001 0.000000
166  -0.015973 10.612517 2.686016  0.000001 0.000000 0.000000
167  0.059851 -50.160706 6.449386  1.570797 0.000000 -1.570797
168  0.064652 27.351290 72.195206  -0.000000 -0.000000 -0.000001
169  6.064260 95.114014 31.645491  0.000000 -0.000001 1.570796
170  0.054186 102.845642 29.795357  -0.000000 0.000001 -1.570796
171  6.064256 69.096558 37.164310  1.570796 0.000000 1.570796
172  1.974302 11.989234 4.589249  0.000000 0.000000 0.000000
173  -0.011481 23.944748 5.090360  0.000001 0.000000 0.000000
174  -1.691250 8.833343 5.763508  0.000001 0.000000 0.000000
175  6.064260 89.329811 31.613916  0.000000 -0.000001 1.570796
176  0.058455 13.169234 52.616833  -0.000000 0.000000 0.000000
177  0.000000 -9.421034 -0.000003  -0.000000 -0.000000 -0.000000
178  0.104010 15.380370 2.266152  0.000001 0.000000 0.000000
179  4.504587 -0.449495 -17.618832  2.064741 -0.116498 -2.067531
180  -3.255359 24.458078 -23.114336  0.181523 0.048807 -1.277059
181  -2.643331 12.454371 35.974297  -0.000002 -3.140902 0.000000
182  2.674278 2.772898 0.000538  -3.141593 -0.000000 -0.000000
183  -2.643331 9.000116 43.013512  0.000000 -3.141593 0.000000
184  2.674278 2.772899 0.000548  3.141593 0.000000 -0.000000
185  -1.431355 16.384779 4.137812  0.000001 0.000000 0.000000
186  -0.001844 0.521682 -0.140290  0.000000 0.000000 0.000000
187  7.323109 -5.136191 -5.166237  -0.000000 0.000000 -0.610865
188  2.698277 -0.000001 -0.000000  -0.000012 0.000000 0.000000
189  2.834160 -0.000001 -0.000000  0.000013 0.000000 0.000000
190  2.648917 -0.000001 0.000000  -0.000001 -0.000001 0.000000
191  2.667499 -0.000002 -0.000001  0.000000 -0.000000 0.000000
192  2.426701 -0.000001 0.000000  0.000000 -0.000000 -0.000000
193  -0.494744 -44.353447 -1.302296  1.570797 -0.000000 -1.570797
194  11.545939 73.768417 -3.792011  0.000000 0.000000 0.000000
195  -0.011103 -16.902813 1.952047  0.000001 0.000000 0.000000
196  -0.000000 -0.000001 -1.529052  -0.000000 -0.000000 0.000000
197  -0.078941 -0.000001 0.000000  0.000000 0.000001 1.570796
198  0.097092 -0.000002 0.000000  -0.000000 -3.141592 1.570796
199  0.000000 0.000000 0.000000  0.000000 -0.000000 -0.000000
200  -2.685993 -1.909307 -3.224822  -0.818626 -0.181728 0.190754
201  -1.922773 -3.352223 -0.856227  -0.818626 -0.181727 0.190754
end
