version 1
nodes
0 "blender_implicit" -1
1 "b_root" -1
2 "b_wpn" 1
3 "b_wpn_spec_1" 2
4 "Muzzle" 2
5 "Eject" 2
6 "A_AC_Rail_R" 2
7 "A_AC_Rail_L" 2
8 "A_S_Iron" 2
9 "A_AC_Rail_B" 2
10 "A_AC_Rail_T" 2
11 "A_S_APCompM2" 2
12 "A_FG_Main" 2
13 "A_B_Suppressor" 2
14 "A_FL_Generic" 2
15 "A_LS_Generic" 2
16 "A_S_C79" 2
17 "A_S_2xAPCompM2" 2
18 "A_S_Eotech" 2
19 "A_S_Kobra" 2
20 "A_S_PO" 2
21 "A_S_2xEotech" 2
22 "A_S_Scope" 2
23 "A_MK_Main" 2
24 "A_S_OKP" 2
25 "A_S_PKAS" 2
26 "KitSelect" 2
27 "LauncherSmoke" 2
28 "Link" 2
29 "A_S_PU" 2
30 "SightAlignment" 2
31 "A_S_FG_AFG" 2
32 "Root" 1
33 "Menu" 1
end
skeleton
time 0
0  0 0 0  0 0 0
1  0.000000 0.000000 0.000000  -0.000000 -0.000000 0.000000
2  -6.359474 -37.643005 -10.513220  0.000000 0.000000 0.000000
3  0.000002 7.667452 3.339380  0.000000 0.000000 0.000000
4  0.000000 0.000001 -0.000000  0.000000 -0.000000 -0.000000
5  0.000000 0.000001 -0.000000  0.000000 -0.000000 -0.000000
6  -0.966726 -2.645744 2.292698  0.000000 -0.000000 -0.000000
7  0.000000 0.000001 -0.000000  0.000000 -0.000000 -0.000000
8  0.000000 0.000001 -0.000000  0.000000 -0.000000 -0.000000
9  0.000000 0.000001 -0.000000  0.000000 -0.000000 -0.000000
10  0.000000 0.000001 -0.000000  0.000000 -0.000000 -0.000000
11  0.000000 0.000001 -0.000000  0.000000 -0.000000 -0.000000
12  0.000000 0.000001 -0.000000  0.000000 -0.000000 -0.000000
13  0.000000 0.000001 -0.000000  0.000000 -0.000000 -0.000000
14  0.000000 0.000001 -0.000000  0.000000 -0.000000 -0.000000
15  0.000000 0.000001 -0.000000  0.000000 -0.000000 -0.000000
16  0.000000 0.000001 -0.000000  0.000000 -0.000000 -0.000000
17  0.000000 -2.289436 2.921998  -0.000000 0.000001 -1.570797
18  -0.000000 -2.737309 2.921998  -0.000000 0.000000 -1.570797
19  0.000000 -2.737309 2.921998  -0.000000 0.000001 -1.570797
20  -0.045000 4.871998 3.222001  -0.000000 0.000001 -1.570797
21  -0.042000 5.676798 3.248002  0.000000 0.000001 -1.570796
22  0.000000 0.000001 -0.000000  0.000000 -0.000000 -0.000000
23  0.000000 0.000001 -0.000000  0.000000 -0.000000 -0.000000
24  0.000000 0.000001 -0.000000  0.000000 -0.000000 -0.000000
25  0.000000 0.000001 -0.000000  0.000000 -0.000000 -0.000000
26  0.000000 0.000001 -0.000000  0.000000 -0.000000 -0.000000
27  -2.385109 -16.230591 -6.154020  0.000000 0.000000 -0.000000
28  0.000000 0.000001 -0.000000  0.000000 -0.000000 -0.000000
29  0.000000 0.000001 -0.000000  0.000000 -0.000000 -0.000000
30  0.000000 0.000001 -0.000000  0.000000 -0.000000 -0.000000
31  -0.000012 -3.473583 1.549956  0.000000 -0.000000 -3.141593
32  0.000000 -0.000000 -0.000000  -0.000000 3.141593 1.570796
33  0.000000 -0.000000 -0.000000  0.000000 -0.000000 0.000000
end
triangles
MI_1P_Welrod
0  -5.827317 -26.462763 -4.993680  0.011852 0.019759 -0.999734  0.106567 0.271484 1 3 1.000000
0  -6.252774 -26.462763 -4.994965  0.003947 -0.003923 -0.999985  0.106567 0.237305 1 3 1.000000
0  -6.274847 -26.409475 -4.994964  0.011829 0.011882 -0.999859  0.108704 0.235840 1 3 1.000000
MI_1P_Welrod
0  -5.827317 -26.191563 -4.986401  0.011735 -0.843274 -0.537356  0.117371 0.271484 1 3 1.000000
0  -5.827317 -26.462763 -4.993680  0.011852 0.019759 -0.999734  0.106567 0.271484 1 3 1.000000
0  -6.274847 -26.409475 -4.994964  0.011829 0.011882 -0.999859  0.108704 0.235840 1 3 1.000000
MI_1P_Welrod
0  -6.359467 -26.374424 -4.994963  0.003983 0.035535 -0.999361  0.110107 0.229004 1 3 1.000000
0  -5.827317 -26.191563 -4.986401  0.011735 -0.843274 -0.537356  0.117371 0.271484 1 3 1.000000
0  -6.274847 -26.409475 -4.994964  0.011829 0.011882 -0.999859  0.108704 0.235840 1 3 1.000000
MI_1P_Welrod
0  -6.891616 -26.191563 -4.986398  -0.003926 -0.843327 -0.537387  0.117371 0.186523 1 3 1.000000
0  -5.827317 -26.191563 -4.986401  0.011735 -0.843274 -0.537356  0.117371 0.271484 1 3 1.000000
0  -6.359467 -26.374424 -4.994963  0.003983 0.035535 -0.999361  0.110107 0.229004 1 3 1.000000
MI_1P_Welrod
0  -6.359467 -26.374424 -4.994963  0.003983 0.035535 -0.999361  0.110107 0.229004 1 3 1.000000
0  -6.444087 -26.409475 -4.994963  -0.003993 0.011925 -0.999921  0.108704 0.222168 1 3 1.000000
0  -6.891616 -26.191563 -4.986398  -0.003926 -0.843327 -0.537387  0.117371 0.186523 1 3 1.000000
MI_1P_Welrod
0  -6.891616 -26.462763 -4.993679  -0.003956 0.019769 -0.999797  0.106567 0.186523 1 3 1.000000
0  -6.891616 -26.191563 -4.986398  -0.003926 -0.843327 -0.537387  0.117371 0.186523 1 3 1.000000
0  -6.444087 -26.409475 -4.994963  -0.003993 0.011925 -0.999921  0.108704 0.222168 1 3 1.000000
MI_1P_Welrod
0  -6.466160 -26.462763 -4.994963  0.003935 -0.003939 -0.999985  0.106567 0.220703 1 3 1.000000
0  -6.891616 -26.462763 -4.993679  -0.003956 0.019769 -0.999797  0.106567 0.186523 1 3 1.000000
0  -6.444087 -26.409475 -4.994963  -0.003993 0.011925 -0.999921  0.108704 0.222168 1 3 1.000000
MI_1P_Welrod
0  -5.827317 -26.191563 -4.986401  0.011735 -0.843274 -0.537356  0.117371 0.271484 1 3 1.000000
0  -6.891616 -26.191563 -4.986398  -0.003926 -0.843327 -0.537387  0.117371 0.186523 1 3 1.000000
0  -6.891616 -26.291735 -5.187611  0.003924 -0.852592 -0.522563  0.125977 0.186523 1 3 1.000000
MI_1P_Welrod
0  -5.827317 -26.191563 -4.986401  0.011735 -0.843274 -0.537356  0.117371 0.271484 1 3 1.000000
0  -6.891616 -26.291735 -5.187611  0.003924 -0.852592 -0.522563  0.125977 0.186523 1 3 1.000000
0  -5.827317 -26.291735 -5.187612  0.003923 -0.852591 -0.522564  0.125977 0.271484 1 3 1.000000
MI_1P_Welrod
0  -6.891616 -25.619904 -5.187611  0.003956 0.856094 -0.516804  0.152710 0.186523 1 3 1.000000
0  -5.827317 -26.291735 -5.187612  0.003923 -0.852591 -0.522564  0.125977 0.271484 1 3 1.000000
0  -6.891616 -26.291735 -5.187611  0.003924 -0.852592 -0.522563  0.125977 0.186523 1 3 1.000000
MI_1P_Welrod
0  -6.891616 -25.619904 -5.187611  0.003956 0.856094 -0.516804  0.152710 0.186523 1 3 1.000000
0  -5.827317 -25.619900 -5.187613  0.003938 0.856089 -0.516814  0.152710 0.271484 1 3 1.000000
0  -5.827317 -26.291735 -5.187612  0.003923 -0.852591 -0.522564  0.125977 0.271484 1 3 1.000000
MI_1P_Welrod
0  -6.891616 -25.619904 -5.187611  0.003956 0.856094 -0.516804  0.152710 0.186523 1 3 1.000000
0  -5.827318 -25.720074 -4.994963  -0.051471 0.867338 -0.495050  0.161377 0.271484 1 3 1.000000
0  -5.827317 -25.619900 -5.187613  0.003938 0.856089 -0.516814  0.152710 0.271484 1 3 1.000000
MI_1P_Welrod
0  -6.891616 -25.619904 -5.187611  0.003956 0.856094 -0.516804  0.152710 0.186523 1 3 1.000000
0  -6.891616 -25.720074 -4.994962  0.059377 0.866953 -0.494840  0.161377 0.186523 1 3 1.000000
0  -5.827318 -25.720074 -4.994963  -0.051471 0.867338 -0.495050  0.161377 0.271484 1 3 1.000000
MI_1P_Welrod
0  -5.827318 -25.720074 -4.994963  -0.051471 0.867338 -0.495050  0.161377 0.271484 1 3 1.000000
0  -6.891616 -25.720074 -4.994962  0.059377 0.866953 -0.494840  0.161377 0.186523 1 3 1.000000
0  -6.177314 -25.590073 -4.967068  -0.019818 0.099092 -0.994881  0.166504 0.243652 1 3 1.000000
MI_1P_Welrod
0  -5.827318 -25.460070 -4.994951  -0.067041 -0.019709 -0.997555  0.171753 0.271484 1 3 1.000000
0  -5.827318 -25.720074 -4.994963  -0.051471 0.867338 -0.495050  0.161377 0.271484 1 3 1.000000
0  -6.177314 -25.590073 -4.967068  -0.019818 0.099092 -0.994881  0.166504 0.243652 1 3 1.000000
MI_1P_Welrod
0  -6.177314 -25.470087 -4.976725  -0.043635 -0.083292 -0.995569  0.171753 0.243652 1 3 1.000000
0  -5.827318 -25.460070 -4.994951  -0.067041 -0.019709 -0.997555  0.171753 0.271484 1 3 1.000000
0  -6.177314 -25.590073 -4.967068  -0.019818 0.099092 -0.994881  0.166504 0.243652 1 3 1.000000
MI_1P_Welrod
0  -6.891616 -25.720074 -4.994962  0.059377 0.866953 -0.494840  0.161377 0.186523 1 3 1.000000
0  -6.541619 -25.590073 -4.967068  0.027740 0.099075 -0.994693  0.166504 0.214355 1 3 1.000000
0  -6.177314 -25.590073 -4.967068  -0.019818 0.099092 -0.994881  0.166504 0.243652 1 3 1.000000
MI_1P_Welrod
0  -6.891616 -25.720074 -4.994962  0.059377 0.866953 -0.494840  0.161377 0.186523 1 3 1.000000
0  -6.891616 -25.460070 -4.994950  0.074889 -0.019729 -0.996997  0.171753 0.186523 1 3 1.000000
0  -6.541619 -25.590073 -4.967068  0.027740 0.099075 -0.994693  0.166504 0.214355 1 3 1.000000
MI_1P_Welrod
0  -6.891616 -25.460070 -4.994950  0.074889 -0.019729 -0.996997  0.171753 0.186523 1 3 1.000000
0  -6.541619 -25.470087 -4.976725  0.051548 -0.083270 -0.995193  0.171753 0.214355 1 3 1.000000
0  -6.541619 -25.590073 -4.967068  0.027740 0.099075 -0.994693  0.166504 0.214355 1 3 1.000000
MI_1P_Welrod
0  -6.457853 -26.442709 -4.917295  0.921552 -0.388235 0.003926  0.750977 0.416016 1 3 1.000000
0  -6.466160 -26.462763 -4.994963  0.921548 -0.388243 0.003932  0.750000 0.409668 1 3 1.000000
0  -6.444087 -26.409475 -4.994963  0.707102 -0.707102 0.003827  0.752441 0.409668 1 3 1.000000
MI_1P_Welrod
0  -6.457853 -26.442709 -4.917295  0.921552 -0.388235 0.003926  0.750977 0.416016 1 3 1.000000
0  -6.444087 -26.409475 -4.994963  0.707102 -0.707102 0.003827  0.752441 0.409668 1 3 1.000000
0  -6.444087 -26.409475 -4.834390  0.488970 -0.872292 0.003924  0.752441 0.422363 1 3 1.000000
MI_1P_Welrod
0  -6.359467 -26.374424 -4.994963  0.003926 -0.999985 0.003926  0.755859 0.409668 1 3 1.000000
0  -6.444087 -26.409475 -4.834390  0.488970 -0.872292 0.003924  0.752441 0.422363 1 3 1.000000
0  -6.444087 -26.409475 -4.994963  0.707102 -0.707102 0.003827  0.752441 0.409668 1 3 1.000000
MI_1P_Welrod
0  -6.359467 -26.374424 -4.994963  0.003926 -0.999985 0.003926  0.755859 0.409668 1 3 1.000000
0  -6.359467 -26.374424 -4.761336  0.003927 -0.999985 0.003927  0.755859 0.428223 1 3 1.000000
0  -6.444087 -26.409475 -4.834390  0.488970 -0.872292 0.003924  0.752441 0.422363 1 3 1.000000
MI_1P_Welrod
0  -6.274847 -26.409475 -4.834389  -0.482973 -0.875626 0.003917  0.759766 0.422363 1 3 1.000000
0  -6.359467 -26.374424 -4.761336  0.003927 -0.999985 0.003927  0.755859 0.428223 1 3 1.000000
0  -6.359467 -26.374424 -4.994963  0.003926 -0.999985 0.003926  0.755859 0.409668 1 3 1.000000
MI_1P_Welrod
0  -6.274847 -26.409475 -4.834389  -0.482973 -0.875626 0.003917  0.759766 0.422363 1 3 1.000000
0  -6.359467 -26.374424 -4.994963  0.003926 -0.999985 0.003926  0.755859 0.409668 1 3 1.000000
0  -6.274847 -26.409475 -4.994964  -0.703167 -0.711014 0.003925  0.759766 0.409668 1 3 1.000000
MI_1P_Welrod
0  -6.260768 -26.442709 -4.917295  -0.920365 -0.391040 0.003934  0.761230 0.416016 1 3 1.000000
0  -6.274847 -26.409475 -4.834389  -0.482973 -0.875626 0.003917  0.759766 0.422363 1 3 1.000000
0  -6.274847 -26.409475 -4.994964  -0.703167 -0.711014 0.003925  0.759766 0.409668 1 3 1.000000
MI_1P_Welrod
0  -6.260768 -26.442709 -4.917295  -0.920365 -0.391040 0.003934  0.761230 0.416016 1 3 1.000000
0  -6.274847 -26.409475 -4.994964  -0.703167 -0.711014 0.003925  0.759766 0.409668 1 3 1.000000
0  -6.252774 -26.462763 -4.994965  -0.920348 -0.391080 0.003950  0.762207 0.409668 1 3 1.000000
MI_1P_Welrod
0  -5.827318 -25.460070 -4.994951  0.003925 0.899856 0.436170  0.701660 0.845581 1 3 1.000000
0  -6.177314 -25.470087 -4.976725  0.003921 0.899857 0.436167  0.701660 0.873413 1 3 1.000000
0  -6.177335 -25.649782 -4.600426  0.003955 0.898344 0.439275  0.687500 0.873413 1 3 1.000000
MI_1P_Welrod
0  -5.827316 -25.774206 -4.343305  0.003926 0.528222 0.849097  0.675781 0.845581 1 3 1.000000
0  -5.827318 -25.460070 -4.994951  0.003925 0.899856 0.436170  0.701660 0.845581 1 3 1.000000
0  -6.177335 -25.649782 -4.600426  0.003955 0.898344 0.439275  0.687500 0.873413 1 3 1.000000
MI_1P_Welrod
0  -6.199505 -25.694277 -4.508781  0.003948 0.898346 0.439271  0.683105 0.875122 1 3 1.000000
0  -5.827316 -25.774206 -4.343305  0.003926 0.528222 0.849097  0.675781 0.845581 1 3 1.000000
0  -6.177335 -25.649782 -4.600426  0.003955 0.898344 0.439275  0.687500 0.873413 1 3 1.000000
MI_1P_Welrod
0  -6.242608 -25.774206 -4.343303  0.003925 0.482972 0.875627  0.675781 0.878540 1 3 1.000000
0  -5.827316 -25.774206 -4.343305  0.003926 0.528222 0.849097  0.675781 0.845581 1 3 1.000000
0  -6.199505 -25.694277 -4.508781  0.003948 0.898346 0.439271  0.683105 0.875122 1 3 1.000000
MI_1P_Welrod
0  -5.827316 -25.833025 -4.343305  0.003888 -0.098304 0.995149  0.673340 0.845581 1 3 1.000000
0  -5.827316 -25.774206 -4.343305  0.003926 0.528222 0.849097  0.675781 0.845581 1 3 1.000000
0  -6.242608 -25.774206 -4.343303  0.003925 0.482972 0.875627  0.675781 0.878540 1 3 1.000000
MI_1P_Welrod
0  -5.827316 -25.833025 -4.343305  0.003888 -0.098304 0.995149  0.673340 0.845581 1 3 1.000000
0  -6.242608 -25.774206 -4.343303  0.003925 0.482972 0.875627  0.675781 0.878540 1 3 1.000000
0  -6.242608 -25.833025 -4.343303  0.003915 -0.098315 0.995148  0.673340 0.878540 1 3 1.000000
MI_1P_Welrod
0  -6.231406 -26.054689 -4.386311  0.003931 -0.365286 0.930887  0.664551 0.877686 1 3 1.000000
0  -5.827316 -25.833025 -4.343305  0.003888 -0.098304 0.995149  0.673340 0.845581 1 3 1.000000
0  -6.242608 -25.833025 -4.343303  0.003915 -0.098315 0.995148  0.673340 0.878540 1 3 1.000000
MI_1P_Welrod
0  -6.231406 -26.054689 -4.386311  0.003931 -0.365286 0.930887  0.664551 0.877686 1 3 1.000000
0  -5.827316 -26.054691 -4.386312  0.003887 -0.378765 0.925485  0.664551 0.845581 1 3 1.000000
0  -5.827316 -25.833025 -4.343305  0.003888 -0.098304 0.995149  0.673340 0.845581 1 3 1.000000
MI_1P_Welrod
0  -6.199505 -26.242607 -4.508780  0.003909 -0.654328 0.756201  0.655273 0.875122 1 3 1.000000
0  -5.827316 -26.054691 -4.386312  0.003887 -0.378765 0.925485  0.664551 0.845581 1 3 1.000000
0  -6.231406 -26.054689 -4.386311  0.003931 -0.365286 0.930887  0.664551 0.877686 1 3 1.000000
MI_1P_Welrod
0  -6.199505 -26.242607 -4.508780  0.003909 -0.654328 0.756201  0.655273 0.875122 1 3 1.000000
0  -5.827317 -26.242607 -4.508781  0.003917 -0.662655 0.748914  0.655273 0.845581 1 3 1.000000
0  -5.827316 -26.054691 -4.386312  0.003887 -0.378765 0.925485  0.664551 0.845581 1 3 1.000000
MI_1P_Welrod
0  -5.827317 -26.242607 -4.508781  0.003917 -0.662655 0.748914  0.655273 0.845581 1 3 1.000000
0  -6.199505 -26.242607 -4.508780  0.003909 -0.654328 0.756201  0.655273 0.875122 1 3 1.000000
0  -6.177335 -26.330809 -4.614782  0.003906 -0.861624 0.507531  0.650391 0.873413 1 3 1.000000
MI_1P_Welrod
0  -5.827317 -26.242607 -4.508781  0.003917 -0.662655 0.748914  0.655273 0.845581 1 3 1.000000
0  -6.177335 -26.330809 -4.614782  0.003906 -0.861624 0.507531  0.650391 0.873413 1 3 1.000000
0  -5.827317 -26.330809 -4.614401  0.003938 -0.843334 0.537375  0.650391 0.845581 1 3 1.000000
MI_1P_Welrod
0  -5.827317 -26.330809 -4.614401  0.003938 -0.843334 0.537375  0.650391 0.845581 1 3 1.000000
0  -6.177335 -26.330809 -4.614782  0.003906 -0.861624 0.507531  0.650391 0.873413 1 3 1.000000
0  -5.827317 -26.370262 -4.697856  -0.011808 -0.921508 0.388180  0.647461 0.845581 1 3 1.000000
MI_1P_Welrod
0  -6.891616 -26.370262 -4.697856  0.019588 -0.921387 0.388153  0.647461 0.930237 1 3 1.000000
0  -5.827317 -26.370262 -4.697856  -0.011808 -0.921508 0.388180  0.647461 0.845581 1 3 1.000000
0  -6.177335 -26.330809 -4.614782  0.003906 -0.861624 0.507531  0.650391 0.873413 1 3 1.000000
MI_1P_Welrod
0  -6.177335 -26.330809 -4.614782  0.003906 -0.861624 0.507531  0.650391 0.873413 1 3 1.000000
0  -6.541599 -26.330809 -4.614781  0.003932 -0.861624 0.507532  0.650391 0.902344 1 3 1.000000
0  -6.891616 -26.370262 -4.697856  0.019588 -0.921387 0.388153  0.647461 0.930237 1 3 1.000000
MI_1P_Welrod
0  -6.541599 -26.330809 -4.614781  0.003932 -0.861624 0.507532  0.650391 0.902344 1 3 1.000000
0  -6.891616 -26.330809 -4.614402  0.003925 -0.843332 0.537378  0.650391 0.930237 1 3 1.000000
0  -6.891616 -26.370262 -4.697856  0.019588 -0.921387 0.388153  0.647461 0.930237 1 3 1.000000
MI_1P_Welrod
0  -6.541599 -26.330809 -4.614781  0.003932 -0.861624 0.507532  0.650391 0.902344 1 3 1.000000
0  -6.891616 -26.242607 -4.508780  0.003925 -0.662652 0.748917  0.655273 0.930237 1 3 1.000000
0  -6.891616 -26.330809 -4.614402  0.003925 -0.843332 0.537378  0.650391 0.930237 1 3 1.000000
MI_1P_Welrod
0  -6.541599 -26.330809 -4.614781  0.003932 -0.861624 0.507532  0.650391 0.902344 1 3 1.000000
0  -6.519429 -26.242607 -4.508780  0.003906 -0.654327 0.756201  0.655273 0.900574 1 3 1.000000
0  -6.891616 -26.242607 -4.508780  0.003925 -0.662652 0.748917  0.655273 0.930237 1 3 1.000000
MI_1P_Welrod
0  -6.519429 -26.242607 -4.508780  0.003906 -0.654327 0.756201  0.655273 0.900574 1 3 1.000000
0  -6.891616 -26.054691 -4.386311  0.003889 -0.378768 0.925484  0.664551 0.930237 1 3 1.000000
0  -6.891616 -26.242607 -4.508780  0.003925 -0.662652 0.748917  0.655273 0.930237 1 3 1.000000
MI_1P_Welrod
0  -6.519429 -26.242607 -4.508780  0.003906 -0.654327 0.756201  0.655273 0.900574 1 3 1.000000
0  -6.487527 -26.054691 -4.386310  0.003928 -0.365285 0.930887  0.664551 0.898071 1 3 1.000000
0  -6.891616 -26.054691 -4.386311  0.003889 -0.378768 0.925484  0.664551 0.930237 1 3 1.000000
MI_1P_Welrod
0  -6.487527 -26.054691 -4.386310  0.003928 -0.365285 0.930887  0.664551 0.898071 1 3 1.000000
0  -6.891616 -25.833025 -4.343303  0.003908 -0.098317 0.995148  0.673340 0.930237 1 3 1.000000
0  -6.891616 -26.054691 -4.386311  0.003889 -0.378768 0.925484  0.664551 0.930237 1 3 1.000000
MI_1P_Welrod
0  -6.487527 -26.054691 -4.386310  0.003928 -0.365285 0.930887  0.664551 0.898071 1 3 1.000000
0  -6.476326 -25.833023 -4.343303  0.003881 -0.098279 0.995151  0.673340 0.897156 1 3 1.000000
0  -6.891616 -25.833025 -4.343303  0.003908 -0.098317 0.995148  0.673340 0.930237 1 3 1.000000
MI_1P_Welrod
0  -6.891616 -25.774206 -4.343303  0.003912 0.528236 0.849089  0.675781 0.930237 1 3 1.000000
0  -6.891616 -25.833025 -4.343303  0.003908 -0.098317 0.995148  0.673340 0.930237 1 3 1.000000
0  -6.476326 -25.833023 -4.343303  0.003881 -0.098279 0.995151  0.673340 0.897156 1 3 1.000000
MI_1P_Welrod
0  -6.891616 -25.774206 -4.343303  0.003912 0.528236 0.849089  0.675781 0.930237 1 3 1.000000
0  -6.476326 -25.833023 -4.343303  0.003881 -0.098279 0.995151  0.673340 0.897156 1 3 1.000000
0  -6.476326 -25.774206 -4.343303  0.003930 0.482965 0.875631  0.675781 0.897156 1 3 1.000000
MI_1P_Welrod
0  -6.891616 -25.774206 -4.343303  0.003912 0.528236 0.849089  0.675781 0.930237 1 3 1.000000
0  -6.476326 -25.774206 -4.343303  0.003930 0.482965 0.875631  0.675781 0.897156 1 3 1.000000
0  -6.519429 -25.694277 -4.508781  0.003938 0.898352 0.439259  0.683105 0.900574 1 3 1.000000
MI_1P_Welrod
0  -6.891616 -25.774206 -4.343303  0.003912 0.528236 0.849089  0.675781 0.930237 1 3 1.000000
0  -6.519429 -25.694277 -4.508781  0.003938 0.898352 0.439259  0.683105 0.900574 1 3 1.000000
0  -6.541599 -25.649780 -4.600426  0.003949 0.898348 0.439266  0.687500 0.902344 1 3 1.000000
MI_1P_Welrod
0  -6.541599 -25.649780 -4.600426  0.003949 0.898348 0.439266  0.687500 0.902344 1 3 1.000000
0  -6.891616 -25.460070 -4.994950  0.003932 0.899852 0.436177  0.701660 0.930237 1 3 1.000000
0  -6.891616 -25.774206 -4.343303  0.003912 0.528236 0.849089  0.675781 0.930237 1 3 1.000000
MI_1P_Welrod
0  -6.541599 -25.649780 -4.600426  0.003949 0.898348 0.439266  0.687500 0.902344 1 3 1.000000
0  -6.541619 -25.470087 -4.976725  0.003931 0.899847 0.436189  0.701660 0.902344 1 3 1.000000
0  -6.891616 -25.460070 -4.994950  0.003932 0.899852 0.436177  0.701660 0.930237 1 3 1.000000
MI_1P_Welrod
0  -5.827317 -26.370262 -4.697856  -0.011808 -0.921508 0.388180  0.647461 0.845581 1 3 1.000000
0  -6.891616 -26.370262 -4.697856  0.019588 -0.921387 0.388153  0.647461 0.930237 1 3 1.000000
0  -6.359467 -26.374424 -4.761336  0.003824 -0.981465 0.191605  0.646973 0.887878 1 3 1.000000
MI_1P_Welrod
0  -6.274847 -26.409475 -4.834389  -0.027451 -0.921218 0.388078  0.643555 0.881104 1 3 1.000000
0  -5.827317 -26.370262 -4.697856  -0.011808 -0.921508 0.388180  0.647461 0.845581 1 3 1.000000
0  -6.359467 -26.374424 -4.761336  0.003824 -0.981465 0.191605  0.646973 0.887878 1 3 1.000000
MI_1P_Welrod
0  -6.444087 -26.409475 -4.834390  0.035270 -0.921013 0.387933  0.643555 0.894592 1 3 1.000000
0  -6.359467 -26.374424 -4.761336  0.003824 -0.981465 0.191605  0.646973 0.887878 1 3 1.000000
0  -6.891616 -26.370262 -4.697856  0.019588 -0.921387 0.388153  0.647461 0.930237 1 3 1.000000
MI_1P_Welrod
0  -6.274847 -26.409475 -4.834389  -0.027451 -0.921218 0.388078  0.643555 0.881104 1 3 1.000000
0  -5.827317 -26.411011 -4.802625  -0.019513 -0.940415 0.339469  0.643555 0.845581 1 3 1.000000
0  -5.827317 -26.370262 -4.697856  -0.011808 -0.921508 0.388180  0.647461 0.845581 1 3 1.000000
MI_1P_Welrod
0  -6.444087 -26.409475 -4.834390  0.035270 -0.921013 0.387933  0.643555 0.894592 1 3 1.000000
0  -6.891616 -26.370262 -4.697856  0.019588 -0.921387 0.388153  0.647461 0.930237 1 3 1.000000
0  -6.891616 -26.411011 -4.802625  0.027316 -0.940236 0.339425  0.643555 0.930237 1 3 1.000000
MI_1P_Welrod
0  -6.260768 -26.442709 -4.917295  -0.011745 -0.950940 0.309151  0.640137 0.880005 1 3 1.000000
0  -5.827317 -26.411011 -4.802625  -0.019513 -0.940415 0.339469  0.643555 0.845581 1 3 1.000000
0  -6.274847 -26.409475 -4.834389  -0.027451 -0.921218 0.388078  0.643555 0.881104 1 3 1.000000
MI_1P_Welrod
0  -6.891616 -26.411011 -4.802625  0.027316 -0.940236 0.339425  0.643555 0.930237 1 3 1.000000
0  -6.457853 -26.442709 -4.917295  0.019477 -0.950846 0.309051  0.640137 0.895691 1 3 1.000000
0  -6.444087 -26.409475 -4.834390  0.035270 -0.921013 0.387933  0.643555 0.894592 1 3 1.000000
MI_1P_Welrod
0  -6.260768 -26.442709 -4.917295  -0.011745 -0.950940 0.309151  0.640137 0.880005 1 3 1.000000
0  -5.827317 -26.442709 -4.905419  -0.003923 -0.965122 0.261771  0.640137 0.845581 1 3 1.000000
0  -5.827317 -26.411011 -4.802625  -0.019513 -0.940415 0.339469  0.643555 0.845581 1 3 1.000000
MI_1P_Welrod
0  -6.891616 -26.411011 -4.802625  0.027316 -0.940236 0.339425  0.643555 0.930237 1 3 1.000000
0  -6.891616 -26.442709 -4.905420  0.011717 -0.965057 0.261776  0.640137 0.930237 1 3 1.000000
0  -6.457853 -26.442709 -4.917295  0.019477 -0.950846 0.309051  0.640137 0.895691 1 3 1.000000
MI_1P_Welrod
0  -5.827317 -26.442709 -4.905419  -0.003923 -0.965122 0.261771  0.640137 0.845581 1 3 1.000000
0  -6.260768 -26.442709 -4.917295  -0.011745 -0.950940 0.309151  0.640137 0.880005 1 3 1.000000
0  -6.252774 -26.462763 -4.994965  -0.003980 -0.968979 0.247112  0.637207 0.879395 1 3 1.000000
MI_1P_Welrod
0  -5.827317 -26.442709 -4.905419  -0.003923 -0.965122 0.261771  0.640137 0.845581 1 3 1.000000
0  -6.252774 -26.462763 -4.994965  -0.003980 -0.968979 0.247112  0.637207 0.879395 1 3 1.000000
0  -5.827317 -26.462763 -4.993680  0.003937 -0.974776 0.223150  0.637207 0.845581 1 3 1.000000
MI_1P_Welrod
0  -6.891616 -26.442709 -4.905420  0.011717 -0.965057 0.261776  0.640137 0.930237 1 3 1.000000
0  -6.466160 -26.462763 -4.994963  0.011758 -0.968911 0.247129  0.637207 0.896362 1 3 1.000000
0  -6.457853 -26.442709 -4.917295  0.019477 -0.950846 0.309051  0.640137 0.895691 1 3 1.000000
MI_1P_Welrod
0  -6.891616 -26.442709 -4.905420  0.011717 -0.965057 0.261776  0.640137 0.930237 1 3 1.000000
0  -6.891616 -26.462763 -4.993679  0.003969 -0.974772 0.223169  0.637207 0.930237 1 3 1.000000
0  -6.466160 -26.462763 -4.994963  0.011758 -0.968911 0.247129  0.637207 0.896362 1 3 1.000000
MI_1P_Welrod
0  -6.541599 -25.649780 -4.600426  0.996620 -0.003928 -0.082059  0.773438 0.995892 1 3 1.000000
0  -6.541619 -25.590073 -4.967068  0.999984 -0.003936 0.003936  0.785156 0.986969 1 3 1.000000
0  -6.541619 -25.470087 -4.976725  0.999985 -0.003936 0.003936  0.787598 0.996037 1 3 1.000000
MI_1P_Welrod
0  -6.541599 -25.649780 -4.600426  0.996620 -0.003928 -0.082059  0.773438 0.995892 1 3 1.000000
0  -6.541599 -25.730474 -4.600426  0.985633 -0.003926 -0.168854  0.771484 0.988968 1 3 1.000000
0  -6.541619 -25.590073 -4.967068  0.999984 -0.003936 0.003936  0.785156 0.986969 1 3 1.000000
MI_1P_Welrod
0  -6.541599 -25.649780 -4.600426  0.996620 -0.003928 -0.082059  0.773438 0.995892 1 3 1.000000
0  -6.519429 -25.694277 -4.508781  0.970824 -0.003917 -0.239763  0.769043 0.995949 1 3 1.000000
0  -6.541599 -25.730474 -4.600426  0.985633 -0.003926 -0.168854  0.771484 0.988968 1 3 1.000000
MI_1P_Welrod
0  -6.519429 -26.242607 -4.508780  0.976456 -0.003922 -0.215683  0.758301 0.956848 1 3 1.000000
0  -6.541599 -26.330809 -4.614781  0.978074 0.004000 -0.208221  0.759766 0.947083 1 3 1.000000
0  -6.541599 -25.730474 -4.600426  0.985633 -0.003926 -0.168854  0.771484 0.988968 1 3 1.000000
MI_1P_Welrod
0  -6.519429 -25.694277 -4.508781  0.970824 -0.003917 -0.239763  0.769043 0.995949 1 3 1.000000
0  -6.519429 -26.242607 -4.508780  0.976456 -0.003922 -0.215683  0.758301 0.956848 1 3 1.000000
0  -6.541599 -25.730474 -4.600426  0.985633 -0.003926 -0.168854  0.771484 0.988968 1 3 1.000000
MI_1P_Welrod
0  -6.487527 -26.054691 -4.386310  0.968971 -0.003925 -0.247143  0.757324 0.974808 1 3 1.000000
0  -6.519429 -26.242607 -4.508780  0.976456 -0.003922 -0.215683  0.758301 0.956848 1 3 1.000000
0  -6.519429 -25.694277 -4.508781  0.970824 -0.003917 -0.239763  0.769043 0.995949 1 3 1.000000
MI_1P_Welrod
0  -6.476326 -25.833023 -4.343303  0.968981 -0.003958 -0.247103  0.760254 0.991982 1 3 1.000000
0  -6.487527 -26.054691 -4.386310  0.968971 -0.003925 -0.247143  0.757324 0.974808 1 3 1.000000
0  -6.519429 -25.694277 -4.508781  0.970824 -0.003917 -0.239763  0.769043 0.995949 1 3 1.000000
MI_1P_Welrod
0  -6.519429 -25.694277 -4.508781  0.970824 -0.003917 -0.239763  0.769043 0.995949 1 3 1.000000
0  -6.476326 -25.774206 -4.343303  0.968973 -0.003932 -0.247135  0.761230 0.996082 1 3 1.000000
0  -6.476326 -25.833023 -4.343303  0.968981 -0.003958 -0.247103  0.760254 0.991982 1 3 1.000000
MI_1P_Welrod
0  -6.177335 -25.649782 -4.600426  -0.996564 -0.003904 -0.082739  0.979492 0.990730 1 3 1.000000
0  -6.177314 -25.470087 -4.976725  -0.999984 -0.003938 0.003938  0.965332 0.990791 1 3 1.000000
0  -6.177314 -25.590073 -4.967068  -0.999984 -0.003939 0.003938  0.967773 0.981735 1 3 1.000000
MI_1P_Welrod
0  -6.177335 -25.649782 -4.600426  -0.996564 -0.003904 -0.082739  0.979492 0.990730 1 3 1.000000
0  -6.177314 -25.590073 -4.967068  -0.999984 -0.003939 0.003938  0.967773 0.981735 1 3 1.000000
0  -6.177335 -25.730474 -4.600426  -0.985407 -0.003951 -0.170170  0.981445 0.983826 1 3 1.000000
MI_1P_Welrod
0  -6.199505 -25.694277 -4.508781  -0.970368 -0.003949 -0.241601  0.983887 0.990822 1 3 1.000000
0  -6.177335 -25.649782 -4.600426  -0.996564 -0.003904 -0.082739  0.979492 0.990730 1 3 1.000000
0  -6.177335 -25.730474 -4.600426  -0.985407 -0.003951 -0.170170  0.981445 0.983826 1 3 1.000000
MI_1P_Welrod
0  -6.177335 -26.330809 -4.614782  -0.977721 0.003889 -0.209872  0.993164 0.942017 1 3 1.000000
0  -6.199505 -26.242607 -4.508780  -0.976085 -0.003933 -0.217352  0.994629 0.951782 1 3 1.000000
0  -6.177335 -25.730474 -4.600426  -0.985407 -0.003951 -0.170170  0.981445 0.983826 1 3 1.000000
MI_1P_Welrod
0  -6.199505 -26.242607 -4.508780  -0.976085 -0.003933 -0.217352  0.994629 0.951782 1 3 1.000000
0  -6.199505 -25.694277 -4.508781  -0.970368 -0.003949 -0.241601  0.983887 0.990822 1 3 1.000000
0  -6.177335 -25.730474 -4.600426  -0.985407 -0.003951 -0.170170  0.981445 0.983826 1 3 1.000000
MI_1P_Welrod
0  -6.199505 -26.242607 -4.508780  -0.976085 -0.003933 -0.217352  0.994629 0.951782 1 3 1.000000
0  -6.231406 -26.054689 -4.386311  -0.968484 -0.003947 -0.249044  0.995117 0.969757 1 3 1.000000
0  -6.199505 -25.694277 -4.508781  -0.970368 -0.003949 -0.241601  0.983887 0.990822 1 3 1.000000
MI_1P_Welrod
0  -6.231406 -26.054689 -4.386311  -0.968484 -0.003947 -0.249044  0.995117 0.969757 1 3 1.000000
0  -6.242608 -25.833025 -4.343303  -0.968485 -0.003949 -0.249042  0.992676 0.986900 1 3 1.000000
0  -6.199505 -25.694277 -4.508781  -0.970368 -0.003949 -0.241601  0.983887 0.990822 1 3 1.000000
MI_1P_Welrod
0  -6.242608 -25.833025 -4.343303  -0.968485 -0.003949 -0.249042  0.992676 0.986900 1 3 1.000000
0  -6.242608 -25.774206 -4.343303  -0.968477 -0.003908 -0.249074  0.991699 0.990997 1 3 1.000000
0  -6.199505 -25.694277 -4.508781  -0.970368 -0.003949 -0.241601  0.983887 0.990822 1 3 1.000000
MI_1P_Welrod
0  -6.177335 -26.330809 -4.614782  0.003881 -0.027405 0.999617  0.306152 0.975861 1 3 1.000000
0  -6.541599 -25.730474 -4.600426  0.003949 0.555602 0.831439  0.282227 0.946869 1 3 1.000000
0  -6.541599 -26.330809 -4.614781  0.003881 -0.027406 0.999617  0.306152 0.946869 1 3 1.000000
MI_1P_Welrod
0  -6.177335 -26.330809 -4.614782  0.003881 -0.027405 0.999617  0.306152 0.975861 1 3 1.000000
0  -6.177335 -25.730474 -4.600426  0.003894 0.555620 0.831427  0.282227 0.975861 1 3 1.000000
0  -6.541599 -25.730474 -4.600426  0.003949 0.555602 0.831439  0.282227 0.946869 1 3 1.000000
MI_1P_Welrod
0  -6.541599 -25.730474 -4.600426  0.003949 0.555602 0.831439  0.282227 0.946869 1 3 1.000000
0  -6.177335 -25.730474 -4.600426  0.003894 0.555620 0.831427  0.282227 0.975861 1 3 1.000000
0  -6.177314 -25.590073 -4.967068  0.003974 0.933538 0.358456  0.268799 0.975861 1 3 1.000000
MI_1P_Welrod
0  -6.541599 -25.730474 -4.600426  0.003949 0.555602 0.831439  0.282227 0.946869 1 3 1.000000
0  -6.177314 -25.590073 -4.967068  0.003974 0.933538 0.358456  0.268799 0.975861 1 3 1.000000
0  -6.541619 -25.590073 -4.967068  0.003977 0.933538 0.358456  0.268799 0.946869 1 3 1.000000
MI_1P_Welrod
0  -6.891616 -25.774206 -4.343303  -0.999984 -0.003966 0.003966  0.992676 0.860962 1 3 1.000000
0  -6.891616 -25.460070 -4.994950  -0.999984 -0.003967 0.003967  0.970215 0.885925 1 3 1.000000
0  -6.891616 -25.720074 -4.994962  -0.999984 -0.003966 0.003966  0.970215 0.865234 1 3 1.000000
MI_1P_Welrod
0  -6.891616 -25.833025 -4.343303  -0.999984 -0.003966 0.003966  0.992676 0.856323 1 3 1.000000
0  -6.891616 -25.774206 -4.343303  -0.999984 -0.003966 0.003966  0.992676 0.860962 1 3 1.000000
0  -6.891616 -25.720074 -4.994962  -0.999984 -0.003966 0.003966  0.970215 0.865234 1 3 1.000000
MI_1P_Welrod
0  -6.891616 -26.054691 -4.386311  -0.999985 -0.003933 0.003933  0.991211 0.838623 1 3 1.000000
0  -6.891616 -25.833025 -4.343303  -0.999984 -0.003966 0.003966  0.992676 0.856323 1 3 1.000000
0  -6.891616 -25.720074 -4.994962  -0.999984 -0.003966 0.003966  0.970215 0.865234 1 3 1.000000
MI_1P_Welrod
0  -6.891616 -25.720074 -4.994962  -0.999984 -0.003966 0.003966  0.970215 0.865234 1 3 1.000000
0  -6.891616 -26.191563 -4.986398  -0.999984 -0.003966 0.003966  0.970215 0.827759 1 3 1.000000
0  -6.891616 -26.054691 -4.386311  -0.999985 -0.003933 0.003933  0.991211 0.838623 1 3 1.000000
MI_1P_Welrod
0  -6.891616 -25.720074 -4.994962  -0.999984 -0.003966 0.003966  0.970215 0.865234 1 3 1.000000
0  -6.891616 -25.619904 -5.187611  -0.999984 -0.003966 0.003966  0.962402 0.873169 1 3 1.000000
0  -6.891616 -26.191563 -4.986398  -0.999984 -0.003966 0.003966  0.970215 0.827759 1 3 1.000000
MI_1P_Welrod
0  -6.891616 -25.619904 -5.187611  -0.999984 -0.003966 0.003966  0.962402 0.873169 1 3 1.000000
0  -6.891616 -26.291735 -5.187611  -0.999984 -0.003966 0.003966  0.962402 0.819702 1 3 1.000000
0  -6.891616 -26.191563 -4.986398  -0.999984 -0.003966 0.003966  0.970215 0.827759 1 3 1.000000
MI_1P_Welrod
0  -6.891616 -26.242607 -4.508780  -0.999984 -0.003970 0.003970  0.986328 0.823730 1 3 1.000000
0  -6.891616 -26.054691 -4.386311  -0.999985 -0.003933 0.003933  0.991211 0.838623 1 3 1.000000
0  -6.891616 -26.191563 -4.986398  -0.999984 -0.003966 0.003966  0.970215 0.827759 1 3 1.000000
MI_1P_Welrod
0  -6.891616 -26.330809 -4.614402  -0.999984 -0.003967 0.003967  0.982422 0.816650 1 3 1.000000
0  -6.891616 -26.242607 -4.508780  -0.999984 -0.003970 0.003970  0.986328 0.823730 1 3 1.000000
0  -6.891616 -26.191563 -4.986398  -0.999984 -0.003966 0.003966  0.970215 0.827759 1 3 1.000000
MI_1P_Welrod
0  -6.891616 -26.370262 -4.697856  -0.999984 -0.003966 0.003966  0.979980 0.813477 1 3 1.000000
0  -6.891616 -26.330809 -4.614402  -0.999984 -0.003967 0.003967  0.982422 0.816650 1 3 1.000000
0  -6.891616 -26.191563 -4.986398  -0.999984 -0.003966 0.003966  0.970215 0.827759 1 3 1.000000
MI_1P_Welrod
0  -6.891616 -26.411011 -4.802625  -0.999984 -0.003963 0.003964  0.976562 0.810303 1 3 1.000000
0  -6.891616 -26.370262 -4.697856  -0.999984 -0.003966 0.003966  0.979980 0.813477 1 3 1.000000
0  -6.891616 -26.191563 -4.986398  -0.999984 -0.003966 0.003966  0.970215 0.827759 1 3 1.000000
MI_1P_Welrod
0  -6.891616 -26.191563 -4.986398  -0.999984 -0.003966 0.003966  0.970215 0.827759 1 3 1.000000
0  -6.891616 -26.442709 -4.905420  -0.999984 -0.003967 0.003967  0.973633 0.807739 1 3 1.000000
0  -6.891616 -26.411011 -4.802625  -0.999984 -0.003963 0.003964  0.976562 0.810303 1 3 1.000000
MI_1P_Welrod
0  -6.891616 -26.191563 -4.986398  -0.999984 -0.003966 0.003966  0.970215 0.827759 1 3 1.000000
0  -6.891616 -26.462763 -4.993679  -0.999984 -0.003969 0.003968  0.970215 0.806152 1 3 1.000000
0  -6.891616 -26.442709 -4.905420  -0.999984 -0.003967 0.003967  0.973633 0.807739 1 3 1.000000
MI_1P_Welrod
0  -5.827318 -25.720074 -4.994963  0.999985 -0.003898 0.003898  0.192749 0.850708 1 3 1.000000
0  -5.827318 -25.460070 -4.994951  0.999985 -0.003931 0.003931  0.203125 0.850708 1 3 1.000000
0  -5.827316 -25.774206 -4.343305  0.999985 -0.003931 0.003930  0.190552 0.895691 1 3 1.000000
MI_1P_Welrod
0  -5.827316 -25.774206 -4.343305  0.999985 -0.003931 0.003930  0.190552 0.895691 1 3 1.000000
0  -5.827316 -25.833025 -4.343305  0.999985 -0.003932 0.003932  0.188232 0.895691 1 3 1.000000
0  -5.827318 -25.720074 -4.994963  0.999985 -0.003898 0.003898  0.192749 0.850708 1 3 1.000000
MI_1P_Welrod
0  -5.827316 -25.833025 -4.343305  0.999985 -0.003932 0.003932  0.188232 0.895691 1 3 1.000000
0  -5.827316 -26.054691 -4.386312  0.999985 -0.003933 0.003933  0.179443 0.892273 1 3 1.000000
0  -5.827318 -25.720074 -4.994963  0.999985 -0.003898 0.003898  0.192749 0.850708 1 3 1.000000
MI_1P_Welrod
0  -5.827317 -26.291735 -5.187612  0.999985 -0.003932 0.003932  0.169922 0.835449 1 3 1.000000
0  -5.827317 -25.619900 -5.187613  0.999985 -0.003933 0.003933  0.196777 0.835449 1 3 1.000000
0  -5.827318 -25.720074 -4.994963  0.999985 -0.003898 0.003898  0.192749 0.850708 1 3 1.000000
MI_1P_Welrod
0  -5.827317 -26.191563 -4.986401  0.999985 -0.003898 0.003897  0.173950 0.850830 1 3 1.000000
0  -5.827317 -26.291735 -5.187612  0.999985 -0.003932 0.003932  0.169922 0.835449 1 3 1.000000
0  -5.827318 -25.720074 -4.994963  0.999985 -0.003898 0.003898  0.192749 0.850708 1 3 1.000000
MI_1P_Welrod
0  -5.827317 -26.191563 -4.986401  0.999985 -0.003898 0.003897  0.173950 0.850830 1 3 1.000000
0  -5.827318 -25.720074 -4.994963  0.999985 -0.003898 0.003898  0.192749 0.850708 1 3 1.000000
0  -5.827316 -26.054691 -4.386312  0.999985 -0.003933 0.003933  0.179443 0.892273 1 3 1.000000
MI_1P_Welrod
0  -5.827316 -26.054691 -4.386312  0.999985 -0.003933 0.003933  0.179443 0.892273 1 3 1.000000
0  -5.827317 -26.242607 -4.508781  0.999985 -0.003935 0.003935  0.171997 0.882568 1 3 1.000000
0  -5.827317 -26.191563 -4.986401  0.999985 -0.003898 0.003897  0.173950 0.850830 1 3 1.000000
MI_1P_Welrod
0  -5.827317 -26.242607 -4.508781  0.999985 -0.003935 0.003935  0.171997 0.882568 1 3 1.000000
0  -5.827317 -26.330809 -4.614401  0.999985 -0.003935 0.003934  0.168457 0.875244 1 3 1.000000
0  -5.827317 -26.191563 -4.986401  0.999985 -0.003898 0.003897  0.173950 0.850830 1 3 1.000000
MI_1P_Welrod
0  -5.827317 -26.330809 -4.614401  0.999985 -0.003935 0.003934  0.168457 0.875244 1 3 1.000000
0  -5.827317 -26.370262 -4.697856  0.999985 -0.003928 0.003928  0.166870 0.869995 1 3 1.000000
0  -5.827317 -26.191563 -4.986401  0.999985 -0.003898 0.003897  0.173950 0.850830 1 3 1.000000
MI_1P_Welrod
0  -5.827317 -26.370262 -4.697856  0.999985 -0.003928 0.003928  0.166870 0.869995 1 3 1.000000
0  -5.827317 -26.411011 -4.802625  0.999985 -0.003930 0.003931  0.165283 0.863525 1 3 1.000000
0  -5.827317 -26.191563 -4.986401  0.999985 -0.003898 0.003897  0.173950 0.850830 1 3 1.000000
MI_1P_Welrod
0  -5.827317 -26.411011 -4.802625  0.999985 -0.003930 0.003931  0.165283 0.863525 1 3 1.000000
0  -5.827317 -26.442709 -4.905419  0.999985 -0.003933 0.003933  0.163940 0.856934 1 3 1.000000
0  -5.827317 -26.191563 -4.986401  0.999985 -0.003898 0.003897  0.173950 0.850830 1 3 1.000000
MI_1P_Welrod
0  -5.827317 -26.442709 -4.905419  0.999985 -0.003933 0.003933  0.163940 0.856934 1 3 1.000000
0  -5.827317 -26.462763 -4.993680  0.999985 -0.003932 0.003932  0.163208 0.850830 1 3 1.000000
0  -5.827317 -26.191563 -4.986401  0.999985 -0.003898 0.003897  0.173950 0.850830 1 3 1.000000
end
