version 1
nodes
0 "blender_implicit" -1
1 "b_root" -1
2 "b_ch_middle" 1
3 "b_ch_spine1" 2
4 "b_ch_spine2" 3
5 "b_ch_l_clavical" 4
6 "b_ch_l_upperarm" 5
7 "b_ch_l_forearm" 6
8 "b_ch_l_forearm_twist1" 7
9 "b_ch_l_forearm_twist2" 7
10 "b_ch_l_forearm_twist3" 7
11 "b_ch_l_forearm_twist4" 7
12 "b_ch_l_forearm_twist5" 7
13 "b_ch_l_forearm_twist6" 7
14 "b_ch_l_forearm_twist7" 7
15 "b_ch_l_hand" 7
16 "b_ch_l_finger_00" 15
17 "b_ch_l_finger_01" 16
18 "b_ch_l_finger_02" 17
19 "b_ch_l_finger_40" 15
20 "b_ch_l_finger_41" 19
21 "b_ch_l_finger_42" 20
22 "b_ch_l_finger_20" 15
23 "b_ch_l_finger_21" 22
24 "b_ch_l_finger_22" 23
25 "b_ch_l_finger_30" 15
26 "b_ch_l_finger_31" 25
27 "b_ch_l_finger_32" 26
28 "b_ch_l_finger_10" 15
29 "b_ch_l_finger_11" 28
30 "b_ch_l_finger_12" 29
31 "b_ch_r_clavical" 4
32 "b_ch_r_upperarm" 31
33 "b_ch_r_forearm" 32
34 "b_ch_r_forearm_twist1" 33
35 "b_ch_r_forearm_twist2" 33
36 "b_ch_r_forearm_twist3" 33
37 "b_ch_r_forearm_twist4" 33
38 "b_ch_r_forearm_twist5" 33
39 "b_ch_r_forearm_twist6" 33
40 "b_ch_r_forearm_twist7" 33
41 "b_ch_r_hand" 33
42 "b_ch_r_finger_00" 41
43 "b_ch_r_finger_01" 42
44 "b_ch_r_finger_02" 43
45 "b_ch_r_finger_10" 41
46 "b_ch_r_finger_11" 45
47 "b_ch_r_finger_12" 46
48 "b_ch_r_finger_20" 41
49 "b_ch_r_finger_21" 48
50 "b_ch_r_finger_22" 49
51 "b_ch_r_finger_30" 41
52 "b_ch_r_finger_31" 51
53 "b_ch_r_finger_32" 52
54 "b_ch_r_finger_40" 41
55 "b_ch_r_finger_41" 54
56 "b_ch_r_finger_42" 55
57 "b_camera" 1
58 "b_wpn" 1
59 "b_wpn_bipod" 58
60 "b_wpn_bipod_l" 59
61 "b_wpn_bipod_r" 59
62 "b_wpn_bipod_base" 59
63 "b_wpn_bipod_base_r" 62
64 "b_wpn_bipod_spring_base_r" 63
65 "b_wpn_bipod_base_l" 62
66 "b_wpn_bipod_spring_base_l" 65
67 "b_wpn_bipod_spring_l" 62
68 "b_wpn_bipod_spring_r" 62
69 "b_wpn_bolt" 58
70 "b_wpn_chargehandle" 58
71 "b_wpn_eject" 58
72 "b_wpn_fireselect" 58
73 "b_wpn_foregrip" 58
74 "b_wpn_gl" 58
75 "b_wpn_gl_slide" 74
76 "b_wpn_gl_trigger" 74
77 "b_wpn_gl_round" 74
78 "b_wpn_gl_casing" 74
79 "b_wpn_gl_slidelock" 74
80 "b_wpn_gl_muzzle" 74
81 "b_wpn_gl_sight_back" 74
82 "b_wpn_gl_sight_front" 74
83 "b_wpn_hammer" 58
84 "b_wpn_laserflash" 58
85 "b_wpn_laserflash_beam" 84
86 "b_wpn_lid" 58
87 "b_wpn_mag" 58
88 "b_wpn_mag_b1" 87
89 "b_wpn_mag_casing_1" 88
90 "b_wpn_mag_bullet_1" 88
91 "b_wpn_mag_b2" 87
92 "b_wpn_mag_casing_2" 91
93 "b_wpn_mag_bullet_2" 91
94 "b_wpn_mag_b3" 87
95 "b_wpn_mag_casing_3" 94
96 "b_wpn_mag_bullet_3" 94
97 "b_wpn_mag_b4" 87
98 "b_wpn_mag_casing_4" 97
99 "b_wpn_mag_bullet_4" 97
100 "b_wpn_mag_b5" 87
101 "b_wpn_mag_casing_5" 100
102 "b_wpn_mag_bullet_5" 100
103 "b_wpn_mag_b6" 87
104 "b_wpn_mag_casing_6" 103
105 "b_wpn_mag_bullet_6" 103
106 "b_wpn_mag_b7" 87
107 "b_wpn_mag_b8" 87
108 "b_wpn_mag_b9" 87
109 "b_wpn_mag_follow" 87
110 "b_wpn_mag_b13" 87
111 "b_wpn_mag_b10" 87
112 "b_wpn_mag_b11" 87
113 "b_wpn_mag_b12" 87
114 "b_wpn_mag_b14" 87
115 "b_wpn_mag_b15" 87
116 "b_wpn_mag_tab" 87
117 "b_wpn_mag_b_link1" 87
118 "b_wpn_mag_b_link2" 87
119 "b_wpn_mag_b_link3" 87
120 "b_wpn_mag_b_link4" 87
121 "b_wpn_mag_b_link5" 87
122 "b_wpn_mag_b_link6" 87
123 "b_wpn_mag_b_link7" 87
124 "b_wpn_mag_b_link8" 87
125 "b_wpn_mag_b_link9" 87
126 "b_wpn_mag_b_link10" 87
127 "b_wpn_mag_b_link11" 87
128 "b_wpn_mag_b_link12" 87
129 "b_wpn_mag_b_link13" 87
130 "b_wpn_mag_b16" 87
131 "b_wpn_mag_b17" 87
132 "b_wpn_mag_b18" 87
133 "b_wpn_mag_b19" 87
134 "b_wpn_mag_b20" 87
135 "b_wpn_mag_b21" 87
136 "b_wpn_mag_b22" 87
137 "b_wpn_mag_b23" 87
138 "b_wpn_mag_b24" 87
139 "b_wpn_mag_b25" 87
140 "b_wpn_mag_b26" 87
141 "b_wpn_mag_b27" 87
142 "b_wpn_mag_b28" 87
143 "b_wpn_mag_b29" 87
144 "b_wpn_mag_b30" 87
145 "b_wpn_mag_spring_bottom" 87
146 "b_wpn_mag_b31" 87
147 "b_wpn_mag_b32" 87
148 "b_wpn_mag_b35" 87
149 "b_wpn_mag_b33" 87
150 "b_wpn_mag_b34" 87
151 "b_wpn_mag_b36" 87
152 "b_wpn_mag_b37" 87
153 "b_wpn_mag_b38" 87
154 "b_wpn_mag_b39" 87
155 "b_wpn_mag_b40" 87
156 "b_wpn_mag_b41" 87
157 "b_wpn_mag_b42" 87
158 "b_wpn_mag_b50" 87
159 "b_wpn_mag_b49" 87
160 "b_wpn_mag_b48" 87
161 "b_wpn_mag_b47" 87
162 "b_wpn_mag_b45" 87
163 "b_wpn_mag_b44" 87
164 "b_wpn_mag_b43" 87
165 "b_wpn_mag_b46" 87
166 "b_wpn_magrelease" 58
167 "b_wpn_muzzle" 58
168 "b_wpn_optic" 58
169 "b_wpn_pin" 58
170 "b_wpn_ring" 58
171 "b_wpn_slide" 58
172 "b_wpn_sliderelease" 58
173 "b_wpn_spec_1" 58
174 "b_wpn_spec_2" 58
175 "b_wpn_spoon" 58
176 "b_wpn_suppressor" 58
177 "b_wpn_suppressor_muzzle" 176
178 "b_wpn_trigger" 58
179 "ik_hand_wpn_l" 58
180 "ik_hand_wpn_r" 58
181 "b_wpn_laser" 58
182 "b_wpn_laser_beam" 181
183 "b_wpn_flash" 58
184 "b_wpn_flash_beam" 183
185 "b_wpn_stock" 58
186 "b_wpn_barrel" 58
187 "b_wpn_chain_01" 58
188 "b_wpn_chain_02" 187
189 "b_wpn_chain_03" 188
190 "b_wpn_chain_04" 189
191 "b_wpn_chain_05" 190
192 "b_wpn_chain_06" 191
193 "b_wpn_bayonet" 58
194 "b_wpn_mag_2" 58
195 "b_wpn_gripod" 58
196 "b_wpn_gripod_base" 195
197 "b_wpn_gripod_base_r" 196
198 "b_wpn_gripod_base_l" 196
199 "ik_hand_root" 1
200 "ik_hand_r" 199
201 "ik_hand_l" 199
end
skeleton
time 0
0  0 0 0  0 0 0
1  0.000000 0.000000 0.000000  0.000000 -0.000000 -0.000000
2  -0.000000 -0.000000 -55.423229  0.000000 -0.000000 -1.570730
3  -0.012872 0.000000 8.235027  -0.784749 -1.570710 -0.785986
4  16.163124 -0.010663 0.007211  -0.594297 0.000409 -0.000125
5  16.163134 -0.000000 3.830527  -0.087502 -0.852575 -3.076423
6  14.868233 0.000002 0.000000  -0.213474 -0.199532 -1.168036
7  26.391949 -0.000002 -0.000002  -0.000000 0.000000 -1.372381
8  0.000002 0.000002 0.000001  -0.210416 -0.000000 -0.000000
9  3.093514 0.000003 0.000000  -0.420774 -0.000000 -0.000000
10  6.187020 0.000001 0.000003  -0.631235 -0.000000 -0.000000
11  9.280537 -0.000002 0.000003  -0.841666 0.000000 -0.000000
12  12.374044 -0.000000 0.000003  -1.052029 -0.000000 -0.000000
13  15.467561 -0.000000 0.000004  -1.262456 -0.000000 -0.000000
14  18.561060 -0.000004 0.000003  -1.472871 -0.000000 -0.000000
15  21.654583 -0.000005 0.000003  3.023331 0.061159 1.038335
16  1.410070 0.800536 -2.089134  1.926816 0.229617 0.446891
17  3.954716 0.000001 0.000001  0.032650 -0.305879 0.082888
18  3.101562 -0.000001 0.000002  0.038488 -0.173200 0.020373
19  6.164473 -0.898152 2.575018  -0.464106 -0.015897 1.186542
20  2.805845 0.000000 -0.000001  -0.000000 -0.000000 0.521973
21  2.307445 0.000003 0.000003  0.000000 0.000000 0.361287
22  7.145104 -0.676341 -1.382426  0.048305 -0.466031 0.179016
23  3.672222 0.000001 0.000002  0.000000 0.000000 1.094786
24  2.676517 -0.000004 0.000002  -0.000000 0.000000 0.976405
25  6.831176 -0.870862 0.599916  -0.198373 -0.274978 0.706743
26  3.657083 -0.000007 -0.000003  0.000000 0.000000 1.196110
27  2.496804 -0.000000 0.000002  -0.000000 -0.000000 0.510610
28  7.183349 -0.532079 -3.267610  0.092002 -0.569205 -0.163901
29  3.511599 0.000004 -0.000001  -0.000000 -0.000000 0.459239
30  2.199404 0.000001 -0.000003  -0.000000 -0.000000 0.877656
31  16.163139 0.000000 -3.830525  1.570712 0.636065 -1.571478
32  14.868244 0.000000 0.000001  0.452403 -0.617742 -2.161073
33  26.391947 -0.000001 0.000001  0.000000 0.000000 -1.912417
34  0.000002 -0.000000 -0.000004  0.123434 0.000000 -0.000000
35  3.093507 -0.000001 -0.000002  0.246911 -0.000000 0.000000
36  6.187016 -0.000000 -0.000003  0.370411 -0.000000 0.000000
37  9.280523 0.000002 -0.000003  0.493849 0.000000 -0.000000
38  12.374031 -0.000000 -0.000003  0.617318 -0.000000 -0.000000
39  15.467542 0.000001 -0.000000  0.740848 -0.000000 -0.000000
40  18.561060 0.000001 -0.000001  0.864259 0.000000 0.000000
41  21.654560 -0.000000 -0.000001  2.387605 -0.082066 0.711826
42  1.410066 0.800529 2.089141  -1.966491 -0.287076 0.559263
43  3.954712 0.000001 -0.000002  0.000000 0.000000 0.375132
44  3.101564 -0.000003 -0.000000  0.000000 0.000000 0.790793
45  7.183348 -0.532091 3.267607  0.185268 0.155560 -0.149743
46  3.511595 -0.000001 -0.000002  0.000000 0.000000 1.069577
47  2.199409 -0.000003 0.000000  0.000000 -0.000000 0.903220
48  7.145091 -0.676343 1.382426  0.255424 0.283825 0.886075
49  3.672211 -0.000001 -0.000001  -0.000000 -0.000000 1.435616
50  2.676520 -0.000000 0.000001  0.000000 0.000000 1.062915
51  6.831165 -0.870864 -0.599918  0.339890 0.115856 1.057859
52  3.657081 -0.000001 0.000001  -0.000000 -0.000000 1.252193
53  2.496792 -0.000001 -0.000003  0.000000 0.000000 0.840195
54  6.164455 -0.898151 -2.575010  0.409526 -0.061317 1.152482
55  2.805844 0.000003 0.000002  -0.000000 -0.000000 0.666009
56  2.307444 -0.000002 0.000001  0.000000 -0.000000 0.844543
57  0.000000 0.000000 -0.000000  0.000000 -0.000000 0.000000
58  -7.022423 -35.565247 -13.115144  -0.061417 -0.084740 0.007433
59  0.000000 -19.069469 4.681030  0.000000 0.000000 0.000000
60  1.986524 0.000016 -3.123738  -2.705260 -0.000000 -1.570797
61  -1.986692 0.000019 -3.123744  0.436333 0.000001 1.570797
62  -0.000001 -0.000000 -0.000000  0.000000 0.000000 0.000000
63  -1.530660 0.861423 -3.109959  1.570562 -1.178052 0.000156
64  -11.344167 1.135884 0.869265  0.000002 0.310989 -0.030336
65  1.907531 0.861419 -2.954429  1.570905 -1.963657 -0.000164
66  -11.350054 -0.729404 0.864872  0.000263 0.310491 0.030500
67  1.754236 4.036757 -1.682666  0.845149 1.035980 -0.706034
68  -1.755141 4.036760 -1.682665  -0.845294 1.036168 -2.434512
69  -0.164554 5.734790 5.880445  -0.000000 0.000000 -1.570730
70  1.203549 5.503727 4.339430  0.000000 0.000000 0.000000
71  -1.260173 5.668905 5.788552  0.070161 -0.418898 2.970131
72  1.185470 17.272335 1.821942  0.000000 0.000000 0.000000
73  0.060218 10.324389 74.469055  0.000008 0.000000 0.000000
74  0.052675 -3.972624 3.515848  1.570735 -0.000061 -1.570735
75  4.804184 -3.856469 -0.006877  -0.000000 0.000000 -0.000000
76  -6.013984 -4.624463 0.000000  0.000000 0.000000 -0.000000
77  -65.574097 -37.156052 0.002938  -0.786975 1.570710 0.783768
78  1.602685 -3.785216 0.003048  -0.786563 1.570710 0.784221
79  11.681372 -1.114742 -1.027845  -0.785272 1.570710 0.785495
80  19.766773 -3.800924 0.000000  -0.000000 0.000000 -0.000000
81  3.258438 5.856954 -3.403524  -0.000000 -0.000000 -0.000000
82  15.153045 5.860581 -3.403521  -0.000000 -0.000000 -0.000000
83  6.064258 77.294960 36.365799  1.570796 -0.000000 1.570796
84  -2.662412 1.445755 40.667961  -0.000000 3.141591 1.570796
85  8.352063 2.772894 0.000541  -3.141589 0.000002 -0.000000
86  6.064258 72.973701 32.593250  1.570796 -0.000000 1.570796
87  -0.113678 5.957341 -0.188893  0.000000 0.000000 0.000000
88  0.097226 0.210960 3.469587  0.000000 0.000000 0.000000
89  0.000002 1.310211 0.000003  0.000000 0.000000 0.000000
90  0.000001 0.582261 0.000001  0.000000 0.000000 0.000000
91  0.036299 1.284880 7.928798  0.000000 -0.000001 0.000000
92  0.000002 1.310212 -0.000001  0.000000 0.000000 0.000000
93  0.000002 0.582262 0.000000  0.000000 0.000000 0.000000
94  5.969325 3.427458 -6.170651  -0.000000 -0.000001 -1.570797
95  -1.310211 0.000001 -0.000001  0.000000 -0.000000 -0.000000
96  -0.582261 -0.000000 -0.000001  0.000000 -0.000000 -0.000000
97  5.969325 9.397397 -6.170658  -0.000000 -0.000001 -1.570796
98  -1.310214 -0.000000 -0.000001  0.000000 0.000000 -0.000000
99  -0.582262 -0.000001 0.000001  0.000000 0.000000 -0.000000
100  5.969323 15.223766 -6.170670  -0.000000 -0.000001 -1.570796
101  -1.310211 0.000002 0.000003  -0.000000 0.000000 -0.000000
102  -0.582260 0.000001 0.000003  -0.000000 0.000000 -0.000000
103  5.969325 20.835566 -6.170671  -0.000000 -0.000001 -1.570796
104  -1.310211 0.000002 0.000001  -0.000000 0.000000 -0.000000
105  -0.582260 0.000000 0.000003  -0.000000 0.000000 -0.000000
106  5.969325 26.771204 -6.170672  -0.000000 -0.000001 -1.570796
107  5.969324 32.597595 -6.170675  -0.000000 -0.000001 -1.570796
108  5.969324 38.209396 -6.170685  -0.000000 -0.000001 -1.570800
109  5.969324 49.488464 -6.170683  -0.000000 -0.000001 -1.570800
110  -0.539089 -0.556812 -0.017362  -0.042462 2.681156 1.551919
111  -6.799122 -0.556808 0.818549  -0.272420 2.701993 1.452460
112  -4.615282 -0.556826 0.270328  -0.117230 2.684609 1.518878
113  -2.650968 -0.556810 0.063011  -0.042463 2.681158 1.551919
114  27.110340 1.284853 12.007548  0.000000 -0.000000 -0.000000
115  28.133427 1.284855 12.007547  0.000001 -0.000000 -0.000000
116  12.812888 2.241782 12.007550  0.000000 -0.000001 -0.000001
117  -9.955967 -0.319627 4.380215  -0.000001 -0.000000 -0.000001
118  -11.316473 -0.319625 4.380216  -0.000003 -0.000000 -0.000000
119  -12.667809 -0.319625 4.380215  -0.000003 -0.000000 0.000001
120  -14.022139 -0.319625 4.380215  0.000010 -0.000000 -0.000011
121  -15.373239 -0.319626 4.380215  0.000015 -0.000000 -0.000015
122  -16.724138 -0.319624 4.380215  -0.000009 -0.000000 0.000006
123  -18.074570 -0.319624 4.380215  -0.000006 0.000000 0.000004
124  -19.423712 -0.319622 4.380215  0.000002 0.000000 -0.000004
125  -20.775267 -0.319622 4.380215  0.000003 0.000000 -0.000004
126  -22.126671 -0.319624 4.380216  0.000003 0.000000 -0.000004
127  -23.478123 -0.319622 4.380215  0.000005 0.000000 -0.000006
128  -24.830618 -0.319622 4.380215  0.000036 0.000000 -0.000038
129  -26.182026 -0.319620 4.380215  -0.000011 0.000000 0.000011
130  0.529181 -0.167132 0.629484  -0.101270 -0.000000 0.000000
131  -0.211443 -0.241686 0.155361  -0.145847 -0.000000 0.000000
132  0.529191 -0.280704 -0.110292  -0.145847 -0.000000 0.000000
133  -0.173926 -0.337328 -0.638496  -0.181751 -0.000000 0.000000
134  0.529191 -0.399250 -0.975394  -0.181751 -0.000000 0.000000
135  -0.211443 -0.464478 -1.431041  -0.192399 -0.000000 0.000000
136  0.529190 -0.515810 -1.694582  -0.192399 -0.000000 0.000000
137  -0.173927 -0.612156 -2.231912  -0.216703 -0.000000 0.000000
138  0.529189 -0.685810 -2.566438  -0.216703 -0.000000 0.000000
139  -0.211444 -0.769564 -3.027869  -0.237349 -0.000000 0.000000
140  0.529189 -0.832690 -3.288848  -0.237349 -0.000000 0.000000
141  -0.173936 -0.945284 -3.779565  -0.233859 0.000000 0.000000
142  0.529180 -1.024660 -4.112782  -0.233859 0.000000 0.000000
143  -0.211442 -1.132188 -4.577548  -0.262919 -0.000000 0.000000
144  0.529191 -1.201969 -4.836824  -0.262919 0.000000 0.000000
145  -0.000004 -2.810947 -10.636631  0.258454 0.000000 3.141592
146  -0.192454 -1.345782 -5.370046  -0.280373 0.000000 0.000000
147  0.533985 -1.413514 -5.605104  -0.276883 0.000000 0.000000
148  -0.206617 -1.795762 -6.909780  -0.287354 0.000000 0.000000
149  -0.205804 -1.564821 -6.138256  -0.290843 0.000000 0.000000
150  0.530461 -1.643678 -6.395214  -0.290844 0.000000 0.000000
151  0.535312 -1.790712 -7.204131  -0.287354 -0.000000 0.000000
152  -0.202702 -2.030490 -7.702832  -0.286180 -0.000000 0.000000
153  0.509549 -2.118898 -8.011626  -0.298398 -0.000000 0.000000
154  -0.202703 -2.255279 -8.465174  -0.283134 -0.000000 0.000000
155  0.509549 -2.352983 -8.771160  -0.295352 -0.000000 0.000000
156  -0.202703 -2.481599 -9.235471  -0.285437 -0.000000 0.000000
157  0.509547 -2.588683 -9.538637  -0.297654 -0.000000 0.000000
158  0.170124 -21.222095 -1.001139  -0.000001 -0.000001 0.000000
159  0.170124 -20.843868 -0.397184  -0.000001 -0.000001 0.000000
160  0.170124 -20.489750 -1.001140  -0.000001 -0.000001 0.000000
161  0.170125 -20.111074 -0.397182  -0.000001 -0.000001 0.000000
162  0.170124 -19.380091 -0.397185  -0.000001 -0.000001 0.000000
163  0.170124 -19.025112 -1.001146  -0.000001 -0.000001 0.000000
164  0.170124 -18.646666 -0.396446  -0.000001 -0.000001 0.000000
165  0.170125 -19.755762 -1.001142  -0.000001 -0.000001 0.000000
166  -0.015972 10.035406 1.098089  0.000000 0.000000 0.000000
167  -0.104322 -52.163582 4.437342  1.570735 -0.000061 -1.570735
168  0.064655 27.351292 72.195213  0.000000 -0.000000 -0.000001
169  6.064261 95.114014 31.645500  0.000000 -0.000001 1.570796
170  -0.103715 -26.907873 3.305356  -0.000000 0.000000 -1.570730
171  6.064258 69.096558 37.164318  1.570796 -0.000000 1.570796
172  1.974303 11.989235 4.589251  0.000000 0.000000 0.000000
173  1.941736 0.883630 4.309754  -0.000000 0.000000 -1.483525
174  -0.115678 1.104778 6.744192  0.000000 0.000000 0.000000
175  6.064261 89.329803 31.613918  0.000000 -0.000001 1.570796
176  0.059887 2.255337 54.398014  0.000000 0.000000 0.000000
177  0.003498 -22.270645 0.000145  1.570797 -0.000000 -1.570797
178  0.104010 14.792243 1.530320  0.000000 0.000000 0.000000
179  3.000480 -2.985212 1.028950  2.067399 -0.085866 -1.929634
180  -2.951682 25.811062 -3.742305  -0.096365 0.008023 -1.450340
181  -2.662412 1.445758 33.628742  -0.000000 3.141591 1.570796
182  8.352066 2.772895 0.000543  -3.141589 0.000002 -0.000000
183  -2.662412 1.445755 40.667961  -0.000000 3.141591 1.570796
184  8.352063 2.772894 0.000541  -3.141589 0.000002 -0.000000
185  -1.431355 16.384779 4.137812  0.000001 0.000000 0.000000
186  -0.001844 0.521683 -0.140289  0.000000 0.000000 -0.000000
187  7.323110 -5.136193 -5.166235  -0.000000 0.000000 -0.610865
188  2.698277 0.000001 -0.000001  -0.000012 0.000000 0.000001
189  2.834160 0.000001 0.000003  0.000013 0.000000 0.000000
190  2.648921 -0.000007 -0.000001  -0.000001 -0.000001 0.000000
191  2.667500 -0.000003 -0.000001  0.000000 0.000000 -0.000000
192  2.426702 -0.000003 0.000000  0.000000 0.000000 -0.000000
193  -0.494743 -44.353447 -1.302299  1.570797 0.000000 -1.570797
194  11.545938 73.768425 -3.792010  0.000000 0.000000 0.000000
195  0.055852 -6.877705 2.864593  0.000000 0.000000 0.000000
196  0.000001 0.000005 -1.529053  0.000000 0.000000 0.000000
197  -0.078941 0.000005 0.000001  0.000000 0.000000 1.570730
198  0.097093 0.000004 0.000001  0.000001 -3.141592 1.570796
199  0.000000 0.000000 -0.000000  0.000000 -0.000000 -0.000000
200  -9.702712 -10.051979 -18.666414  -0.019416 -0.062944 -1.447580
201  -4.113632 -38.460079 -11.655025  2.169013 -0.113029 -1.934836
end
