version 1
nodes
0 "blender_implicit" -1
1 "b_root" -1
2 "b_ch_middle" 1
3 "b_ch_spine1" 2
4 "b_ch_spine2" 3
5 "b_ch_l_clavical" 4
6 "b_ch_l_upperarm" 5
7 "b_ch_l_forearm" 6
8 "b_ch_l_forearm_twist1" 7
9 "b_ch_l_forearm_twist2" 7
10 "b_ch_l_forearm_twist3" 7
11 "b_ch_l_forearm_twist4" 7
12 "b_ch_l_forearm_twist5" 7
13 "b_ch_l_forearm_twist6" 7
14 "b_ch_l_forearm_twist7" 7
15 "b_ch_l_hand" 7
16 "b_ch_l_finger_00" 15
17 "b_ch_l_finger_01" 16
18 "b_ch_l_finger_02" 17
19 "b_ch_l_finger_40" 15
20 "b_ch_l_finger_41" 19
21 "b_ch_l_finger_42" 20
22 "b_ch_l_finger_20" 15
23 "b_ch_l_finger_21" 22
24 "b_ch_l_finger_22" 23
25 "b_ch_l_finger_30" 15
26 "b_ch_l_finger_31" 25
27 "b_ch_l_finger_32" 26
28 "b_ch_l_finger_10" 15
29 "b_ch_l_finger_11" 28
30 "b_ch_l_finger_12" 29
31 "b_ch_r_clavical" 4
32 "b_ch_r_upperarm" 31
33 "b_ch_r_forearm" 32
34 "b_ch_r_forearm_twist1" 33
35 "b_ch_r_forearm_twist2" 33
36 "b_ch_r_forearm_twist3" 33
37 "b_ch_r_forearm_twist4" 33
38 "b_ch_r_forearm_twist5" 33
39 "b_ch_r_forearm_twist6" 33
40 "b_ch_r_forearm_twist7" 33
41 "b_ch_r_hand" 33
42 "b_ch_r_finger_00" 41
43 "b_ch_r_finger_01" 42
44 "b_ch_r_finger_02" 43
45 "b_ch_r_finger_10" 41
46 "b_ch_r_finger_11" 45
47 "b_ch_r_finger_12" 46
48 "b_ch_r_finger_20" 41
49 "b_ch_r_finger_21" 48
50 "b_ch_r_finger_22" 49
51 "b_ch_r_finger_30" 41
52 "b_ch_r_finger_31" 51
53 "b_ch_r_finger_32" 52
54 "b_ch_r_finger_40" 41
55 "b_ch_r_finger_41" 54
56 "b_ch_r_finger_42" 55
57 "b_camera" 1
58 "b_wpn" 1
59 "b_wpn_bipod" 58
60 "b_wpn_bipod_l" 59
61 "b_wpn_bipod_r" 59
62 "b_wpn_bipod_base" 59
63 "b_wpn_bipod_base_r" 62
64 "b_wpn_bipod_spring_base_r" 63
65 "b_wpn_bipod_base_l" 62
66 "b_wpn_bipod_spring_base_l" 65
67 "b_wpn_bipod_spring_l" 62
68 "b_wpn_bipod_spring_r" 62
69 "b_wpn_bolt" 58
70 "b_wpn_chargehandle" 58
71 "b_wpn_eject" 58
72 "b_wpn_fireselect" 58
73 "b_wpn_foregrip" 58
74 "b_wpn_gl" 58
75 "b_wpn_gl_slide" 74
76 "b_wpn_gl_trigger" 74
77 "b_wpn_gl_round" 74
78 "b_wpn_gl_casing" 74
79 "b_wpn_gl_slidelock" 74
80 "b_wpn_gl_muzzle" 74
81 "b_wpn_gl_sight_back" 74
82 "b_wpn_gl_sight_front" 74
83 "b_wpn_hammer" 58
84 "b_wpn_laserflash" 58
85 "b_wpn_laserflash_beam" 84
86 "b_wpn_lid" 58
87 "b_wpn_mag" 58
88 "b_wpn_mag_b1" 87
89 "b_wpn_mag_casing_1" 88
90 "b_wpn_mag_bullet_1" 88
91 "b_wpn_mag_b2" 87
92 "b_wpn_mag_casing_2" 91
93 "b_wpn_mag_bullet_2" 91
94 "b_wpn_mag_b3" 87
95 "b_wpn_mag_casing_3" 94
96 "b_wpn_mag_bullet_3" 94
97 "b_wpn_mag_b4" 87
98 "b_wpn_mag_casing_4" 97
99 "b_wpn_mag_bullet_4" 97
100 "b_wpn_mag_b5" 87
101 "b_wpn_mag_casing_5" 100
102 "b_wpn_mag_bullet_5" 100
103 "b_wpn_mag_b6" 87
104 "b_wpn_mag_casing_6" 103
105 "b_wpn_mag_bullet_6" 103
106 "b_wpn_mag_b7" 87
107 "b_wpn_mag_b8" 87
108 "b_wpn_mag_b9" 87
109 "b_wpn_mag_follow" 87
110 "b_wpn_mag_b13" 87
111 "b_wpn_mag_b10" 87
112 "b_wpn_mag_b11" 87
113 "b_wpn_mag_b12" 87
114 "b_wpn_mag_b14" 87
115 "b_wpn_mag_b15" 87
116 "b_wpn_mag_tab" 87
117 "b_wpn_mag_b_link1" 87
118 "b_wpn_mag_b_link2" 87
119 "b_wpn_mag_b_link3" 87
120 "b_wpn_mag_b_link4" 87
121 "b_wpn_mag_b_link5" 87
122 "b_wpn_mag_b_link6" 87
123 "b_wpn_mag_b_link7" 87
124 "b_wpn_mag_b_link8" 87
125 "b_wpn_mag_b_link9" 87
126 "b_wpn_mag_b_link10" 87
127 "b_wpn_mag_b_link11" 87
128 "b_wpn_mag_b_link12" 87
129 "b_wpn_mag_b_link13" 87
130 "b_wpn_mag_b16" 87
131 "b_wpn_mag_b17" 87
132 "b_wpn_mag_b18" 87
133 "b_wpn_mag_b19" 87
134 "b_wpn_mag_b20" 87
135 "b_wpn_mag_b21" 87
136 "b_wpn_mag_b22" 87
137 "b_wpn_mag_b23" 87
138 "b_wpn_mag_b24" 87
139 "b_wpn_mag_b25" 87
140 "b_wpn_mag_b26" 87
141 "b_wpn_mag_b27" 87
142 "b_wpn_mag_b28" 87
143 "b_wpn_mag_b29" 87
144 "b_wpn_mag_b30" 87
145 "b_wpn_mag_spring_bottom" 87
146 "b_wpn_mag_b31" 87
147 "b_wpn_mag_b32" 87
148 "b_wpn_mag_b35" 87
149 "b_wpn_mag_b33" 87
150 "b_wpn_mag_b34" 87
151 "b_wpn_mag_b36" 87
152 "b_wpn_mag_b37" 87
153 "b_wpn_mag_b38" 87
154 "b_wpn_mag_b39" 87
155 "b_wpn_mag_b40" 87
156 "b_wpn_mag_b41" 87
157 "b_wpn_mag_b42" 87
158 "b_wpn_mag_b50" 87
159 "b_wpn_mag_b49" 87
160 "b_wpn_mag_b48" 87
161 "b_wpn_mag_b47" 87
162 "b_wpn_mag_b45" 87
163 "b_wpn_mag_b44" 87
164 "b_wpn_mag_b43" 87
165 "b_wpn_mag_b46" 87
166 "b_wpn_magrelease" 58
167 "b_wpn_muzzle" 58
168 "b_wpn_optic" 58
169 "b_wpn_pin" 58
170 "b_wpn_ring" 58
171 "b_wpn_slide" 58
172 "b_wpn_sliderelease" 58
173 "b_wpn_spec_1" 58
174 "b_wpn_spec_2" 58
175 "b_wpn_spoon" 58
176 "b_wpn_suppressor" 58
177 "b_wpn_suppressor_muzzle" 176
178 "b_wpn_trigger" 58
179 "ik_hand_wpn_l" 58
180 "ik_hand_wpn_r" 58
181 "b_wpn_laser" 58
182 "b_wpn_laser_beam" 181
183 "b_wpn_flash" 58
184 "b_wpn_flash_beam" 183
185 "b_wpn_stock" 58
186 "b_wpn_barrel" 58
187 "b_wpn_chain_01" 58
188 "b_wpn_chain_02" 187
189 "b_wpn_chain_03" 188
190 "b_wpn_chain_04" 189
191 "b_wpn_chain_05" 190
192 "b_wpn_chain_06" 191
193 "b_wpn_bayonet" 58
194 "b_wpn_mag_2" 58
195 "b_wpn_gripod" 58
196 "b_wpn_gripod_base" 195
197 "b_wpn_gripod_base_r" 196
198 "b_wpn_gripod_base_l" 196
199 "ik_hand_root" 1
200 "ik_hand_r" 199
201 "ik_hand_l" 199
end
skeleton
time 0
0  0 0 0  0 0 0
1  0.000000 0.000000 0.000000  0.000000 -0.000000 -0.000000
2  -0.000005 0.000023 -61.375507  0.000000 0.000000 -1.570795
3  -0.012872 0.000000 8.235020  -1.570799 -1.570796 0.000000
4  16.163128 -0.012870 -0.000002  -0.000000 -0.000000 0.000000
5  -0.000000 0.000000 -0.000005  0.251755 0.198526 0.151469
6  -0.000026 -0.000002 0.000000  -0.094398 0.484795 -0.040351
7  -0.000001 -0.000006 0.000003  -0.000000 0.000000 -0.450906
8  -0.000001 -0.000000 -0.000004  -0.011109 -0.000000 -0.000000
9  -0.000000 -0.000000 -0.000005  -0.022279 -0.000000 -0.000000
10  -0.000002 -0.000001 -0.000003  -0.033450 -0.000000 -0.000000
11  -0.000002 -0.000001 -0.000003  -0.044622 -0.000000 -0.000000
12  -0.000002 -0.000000 -0.000003  -0.055734 -0.000000 -0.000000
13  -0.000002 -0.000002 -0.000003  -0.066909 -0.000000 -0.000000
14  -0.000004 -0.000002 -0.000005  -0.078086 -0.000000 -0.000000
15  0.000001 0.000002 -0.000001  0.200764 -0.275106 -0.982219
16  1.410070 0.800533 -2.089136  2.009773 0.630250 0.591915
17  3.954712 -0.000003 0.000004  -0.000004 -0.000001 0.166316
18  3.101567 0.000005 0.000002  0.000002 -0.000001 0.240238
19  6.164459 -0.898145 2.575019  0.090705 -0.013516 -0.151467
20  2.805850 0.000005 -0.000005  0.000002 0.000001 0.079095
21  2.307444 -0.000003 0.000001  -0.000000 -0.000000 -0.056423
22  7.145098 -0.676332 -1.382426  0.086918 -0.009133 -0.085503
23  3.672213 0.000004 -0.000001  0.000003 0.000001 0.142941
24  2.676527 0.000003 0.000002  -0.000001 -0.000001 -0.026075
25  6.831175 -0.870858 0.599921  0.130314 -0.006347 -0.065005
26  3.657083 -0.000012 0.000002  0.000000 0.000000 0.057729
27  2.496794 0.000006 0.000001  0.000000 0.000000 -0.091107
28  7.183351 -0.532078 -3.267607  0.123210 0.020356 -0.052484
29  3.511592 0.000010 -0.000000  -0.000001 -0.000001 0.099575
30  2.199410 -0.000004 0.000003  0.000001 0.000001 0.029263
31  0.000004 -0.000000 0.000003  0.765166 0.518306 -0.084911
32  -0.000021 -0.000001 0.000003  -0.084078 0.449823 0.163745
33  0.000000 0.000002 0.000001  0.000000 -0.000000 0.497312
34  0.000005 -0.000001 0.000003  -0.227917 0.000000 -0.000000
35  0.000001 -0.000003 -0.000000  -0.455792 -0.000000 0.000000
36  0.000001 -0.000002 0.000001  -0.683732 0.000000 0.000000
37  0.000002 -0.000001 0.000000  -0.911641 -0.000000 0.000000
38  -0.000005 -0.000001 0.000001  -1.139556 -0.000000 -0.000000
39  -0.000006 -0.000000 -0.000004  -1.367495 -0.000000 -0.000000
40  -0.000001 -0.000002 0.000002  -1.595397 -0.000000 0.000000
41  -0.000006 -0.000004 -0.000004  -1.740736 -0.377446 -0.588021
42  1.410069 0.800525 2.089138  -2.009768 -0.630254 0.591907
43  3.954718 0.000012 0.000002  -0.000000 -0.000002 0.166320
44  3.101559 -0.000007 0.000005  -0.000001 -0.000000 0.240238
45  7.183344 -0.532108 3.267603  -0.123210 -0.020355 -0.052486
46  3.511602 -0.000002 0.000000  0.000003 0.000001 0.099571
47  2.199404 0.000003 -0.000001  -0.000001 -0.000001 0.029267
48  7.145095 -0.676361 1.382421  -0.086920 0.009133 -0.085505
49  3.672217 -0.000001 0.000001  0.000001 -0.000000 0.142941
50  2.676520 -0.000004 0.000001  -0.000001 -0.000001 -0.026075
51  6.831176 -0.870879 -0.599926  -0.130311 0.006346 -0.065012
52  3.657079 -0.000003 -0.000002  -0.000000 0.000001 0.057734
53  2.496796 0.000001 0.000002  0.000000 -0.000001 -0.091108
54  6.164465 -0.898156 -2.575025  -0.090704 0.013515 -0.151468
55  2.805848 -0.000003 0.000001  -0.000002 -0.000001 0.079091
56  2.307434 -0.000001 -0.000002  0.000002 0.000001 -0.056419
57  0.000000 0.000000 0.000000  0.000001 -0.000000 -0.000000
58  13.899720 8.654610 8.796395  -1.474893 0.256543 -0.570387
59  0.071252 133.426544 57.557678  0.000000 0.000000 -0.000000
60  1.986530 0.000022 -3.123747  -2.705260 -0.000000 -1.570797
61  -1.986687 0.000024 -3.123754  0.436333 0.000001 1.570797
62  0.000002 -0.000002 -0.000008  0.000000 0.000000 -0.000000
63  -0.456028 -0.861408 -0.013783  -0.000000 0.043584 -0.000001
64  -11.344165 1.135889 0.869280  0.000002 -0.025019 -0.026324
65  0.078995 -0.861408 -0.169307  3.140931 -0.829230 0.000292
66  -11.350044 -0.729419 0.864889  0.000197 -0.025367 0.026442
67  1.754236 4.036770 -1.682664  0.392575 -0.010120 -1.546362
68  -1.755136 4.036763 -1.682669  -0.392577 -0.010391 -1.594986
69  -0.164555 7.327704 3.928702  -0.000000 0.000001 -1.570796
70  0.079082 36.742691 -0.508024  0.000001 0.000000 -0.000000
71  -1.260172 8.777410 6.736404  -0.000002 -0.424415 -3.141592
72  1.525194 18.283598 2.968620  0.000000 0.000000 -0.000000
73  0.060219 10.324390 74.469063  0.000008 0.000000 -0.000000
74  0.010142 79.890686 79.559547  0.000000 0.000000 -0.000000
75  -0.000002 -0.115267 0.006869  -0.000000 0.000000 0.000000
76  -1.027575 -0.401533 -0.000004  0.000000 0.000000 -0.000000
77  73.981270 33.177635 0.000004  0.000000 -0.000000 -0.000000
78  8.773499 -0.193210 -0.000005  0.000000 -0.000000 0.000000
79  -1.487356 0.800695 -0.721713  0.000000 -0.000000 0.000000
80  1.091118 -0.214615 -0.000004  -0.000000 -0.000000 0.000000
81  3.258440 5.856952 -3.403518  -0.000000 -0.000000 -0.000000
82  15.153046 5.860581 -3.403523  0.000000 -0.000000 0.000000
83  6.064258 77.294952 36.365795  1.570796 -0.000000 1.570796
84  -2.662414 1.445756 40.667953  -0.000000 3.141591 1.570796
85  8.352066 2.772894 0.000537  -3.141589 0.000002 0.000000
86  6.064255 72.973694 32.593246  1.570796 -0.000000 1.570796
87  0.004366 73.768417 -3.792008  0.000000 -0.000000 0.000000
88  -0.442609 1.284891 8.535286  -0.000000 -0.000001 0.000000
89  0.000000 1.310208 0.000001  0.000000 0.000000 0.000000
90  0.000000 0.582257 0.000000  0.000000 0.000000 0.000000
91  0.036297 1.284894 7.928797  -0.000000 -0.000001 0.000000
92  -0.000000 1.310217 0.000000  0.000000 0.000000 0.000000
93  -0.000000 0.582265 0.000000  0.000000 0.000000 0.000000
94  5.969321 3.427467 -6.170651  -0.000000 -0.000001 -1.570797
95  -1.310201 0.000000 -0.000003  0.000000 -0.000000 -0.000000
96  -0.582253 -0.000001 -0.000003  0.000000 -0.000000 -0.000000
97  5.969321 9.397408 -6.170660  -0.000000 -0.000001 -1.570796
98  -1.310205 -0.000002 0.000000  0.000000 0.000000 -0.000000
99  -0.582257 -0.000003 -0.000000  0.000000 0.000000 -0.000000
100  5.969321 15.223781 -6.170672  0.000000 -0.000001 -1.570796
101  -1.310214 0.000002 -0.000001  -0.000000 0.000000 -0.000000
102  -0.582258 0.000001 -0.000001  -0.000000 0.000000 -0.000000
103  5.969322 20.835577 -6.170674  0.000000 -0.000001 -1.570796
104  -1.310208 0.000000 -0.000000  -0.000000 0.000000 -0.000000
105  -0.582261 -0.000001 0.000003  -0.000000 0.000000 -0.000000
106  5.969321 26.771210 -6.170672  0.000000 -0.000001 -1.570796
107  5.969319 32.597599 -6.170676  0.000000 -0.000001 -1.570796
108  5.969322 38.209412 -6.170687  0.000000 -0.000001 -1.570800
109  5.969321 49.488472 -6.170685  0.000000 -0.000001 -1.570800
110  -0.539091 -0.556794 -0.017364  -0.042462 2.681156 1.551919
111  -6.799125 -0.556799 0.818549  -0.272420 2.701993 1.452460
112  -4.615284 -0.556813 0.270326  -0.117230 2.684609 1.518878
113  -2.650971 -0.556797 0.063009  -0.042463 2.681158 1.551919
114  27.110332 1.284870 12.007546  -0.000000 -0.000000 0.000000
115  28.133421 1.284868 12.007545  0.000001 -0.000000 0.000000
116  12.812885 2.241795 12.007547  -0.000000 -0.000001 -0.000001
117  -9.955967 -0.319613 4.380212  -0.000001 -0.000000 -0.000001
118  -11.316474 -0.319610 4.380212  -0.000003 -0.000000 0.000000
119  -12.667811 -0.319613 4.380211  -0.000003 -0.000000 0.000001
120  -14.022142 -0.319608 4.380213  0.000010 -0.000000 -0.000011
121  -15.373240 -0.319612 4.380210  0.000015 -0.000000 -0.000015
122  -16.724142 -0.319613 4.380211  -0.000009 -0.000000 0.000006
123  -18.074572 -0.319612 4.380211  -0.000006 -0.000000 0.000004
124  -19.423714 -0.319612 4.380210  0.000002 0.000000 -0.000004
125  -20.775270 -0.319610 4.380213  0.000003 0.000000 -0.000004
126  -22.126669 -0.319609 4.380214  0.000003 -0.000000 -0.000004
127  -23.478121 -0.319610 4.380214  0.000005 -0.000000 -0.000006
128  -24.830620 -0.319607 4.380212  0.000036 -0.000000 -0.000038
129  -26.182026 -0.319612 4.380211  -0.000011 -0.000000 0.000011
130  0.529179 -0.167122 0.629481  -0.101270 -0.000000 0.000000
131  -0.211444 -0.241672 0.155359  -0.145847 -0.000000 0.000000
132  0.529189 -0.280690 -0.110295  -0.145847 -0.000000 0.000000
133  -0.173928 -0.337316 -0.638497  -0.181751 -0.000000 0.000000
134  0.529188 -0.399238 -0.975395  -0.181751 -0.000000 0.000000
135  -0.211445 -0.464469 -1.431045  -0.192399 -0.000000 0.000000
136  0.529188 -0.515798 -1.694584  -0.192400 -0.000000 0.000000
137  -0.173929 -0.612143 -2.231914  -0.216703 -0.000000 0.000000
138  0.529187 -0.685798 -2.566442  -0.216703 -0.000000 0.000000
139  -0.211446 -0.769551 -3.027872  -0.237349 -0.000000 0.000000
140  0.529188 -0.832674 -3.288849  -0.237349 -0.000000 0.000000
141  -0.173939 -0.945272 -3.779565  -0.233859 0.000000 0.000000
142  0.529178 -1.024648 -4.112782  -0.233859 0.000000 0.000000
143  -0.211445 -1.132176 -4.577549  -0.262919 -0.000000 0.000000
144  0.529187 -1.201957 -4.836826  -0.262919 0.000000 0.000000
145  -0.000006 -2.810931 -10.636631  0.258454 0.000000 3.141592
146  -0.192457 -1.345766 -5.370046  -0.280373 0.000000 0.000000
147  0.533982 -1.413501 -5.605105  -0.276883 0.000000 0.000000
148  -0.206620 -1.795753 -6.909781  -0.287354 0.000000 0.000000
149  -0.205807 -1.564809 -6.138258  -0.290843 0.000000 0.000000
150  0.530458 -1.643668 -6.395216  -0.290844 0.000000 0.000000
151  0.535309 -1.790704 -7.204134  -0.287354 -0.000000 0.000000
152  -0.202704 -2.030475 -7.702832  -0.286180 -0.000000 0.000000
153  0.509546 -2.118888 -8.011625  -0.298398 -0.000000 0.000000
154  -0.202705 -2.255265 -8.465173  -0.283134 -0.000000 0.000000
155  0.509546 -2.352972 -8.771161  -0.295352 -0.000000 0.000000
156  -0.202705 -2.481586 -9.235473  -0.285437 -0.000000 0.000000
157  0.509545 -2.588671 -9.538640  -0.297654 -0.000000 0.000000
158  0.170123 -21.222082 -1.001143  -0.000001 -0.000001 0.000000
159  0.170121 -20.843853 -0.397184  -0.000001 -0.000001 0.000000
160  0.170122 -20.489735 -1.001142  -0.000001 -0.000001 0.000000
161  0.170123 -20.111057 -0.397185  -0.000001 -0.000001 0.000000
162  0.170122 -19.380077 -0.397188  -0.000001 -0.000001 0.000000
163  0.170121 -19.025099 -1.001146  -0.000001 -0.000001 0.000000
164  0.170122 -18.646646 -0.396449  -0.000001 -0.000001 0.000000
165  0.170123 -19.755747 -1.001144  -0.000001 -0.000001 0.000000
166  -0.015972 10.612517 2.686018  0.000001 0.000000 -0.000000
167  0.059851 -50.160706 6.449381  1.570797 -0.000000 -1.570797
168  0.064656 27.351292 72.195198  0.000000 -0.000000 -0.000001
169  6.064262 95.114006 31.645500  0.000000 -0.000001 1.570796
170  0.054190 102.845642 29.795359  -0.000000 0.000001 -1.570796
171  6.064262 69.096558 37.164318  1.570796 -0.000000 1.570796
172  1.974303 11.989233 4.589249  0.000000 0.000000 -0.000000
173  -0.011478 23.944746 5.090360  0.000001 -0.000000 0.000000
174  -1.691251 8.833342 5.763506  0.000001 0.000000 -0.000000
175  6.064262 89.329796 31.613914  0.000000 -0.000001 1.570796
176  0.059888 2.255336 54.398014  0.000000 0.000000 -0.000000
177  0.003499 -22.270645 0.000139  1.570797 -0.000000 -1.570797
178  0.104010 15.380371 2.266152  0.000001 0.000000 -0.000000
179  4.504587 -0.449495 -17.618832  2.064741 -0.116498 -2.067531
180  -3.255359 24.458078 -23.114338  0.181523 0.048807 -1.277059
181  -2.662409 1.445757 33.628738  -0.000000 3.141591 1.570796
182  8.352066 2.772894 0.000538  -3.141589 0.000002 0.000000
183  -2.662414 1.445756 40.667953  -0.000000 3.141591 1.570796
184  8.352066 2.772894 0.000537  -3.141589 0.000002 0.000000
185  -1.431355 16.384779 4.137811  0.000001 0.000000 0.000000
186  -0.001843 0.521683 -0.140290  0.000000 0.000000 -0.000000
187  7.323109 -5.136191 -5.166239  -0.000000 0.000000 -0.610865
188  2.698277 -0.000001 -0.000001  -0.000012 0.000000 0.000000
189  2.834159 -0.000002 -0.000000  0.000013 0.000000 -0.000000
190  2.648916 0.000002 -0.000000  -0.000001 -0.000001 0.000000
191  2.667497 -0.000004 -0.000000  -0.000000 0.000000 -0.000000
192  2.426702 -0.000003 -0.000001  -0.000000 0.000000 -0.000000
193  -0.494743 -44.353447 -1.302300  1.570797 -0.000000 -1.570797
194  11.545937 73.768410 -3.792011  0.000000 0.000000 -0.000000
195  -0.066954 -10.025105 -0.912533  0.000000 0.000000 -0.000000
196  0.000000 0.000001 -1.529053  -0.000000 0.000000 -0.000000
197  -0.078942 -0.000002 0.000000  0.000000 0.000001 1.570796
198  0.097091 -0.000001 0.000001  -0.000000 -3.141592 1.570796
199  0.000000 0.000000 0.000000  0.000000 -0.000000 -0.000000
200  8.207075 -13.102393 -11.910594  -1.474893 0.256543 -0.570387
201  14.396533 10.273877 9.975671  -1.474893 0.256543 -0.570387
time 1
0  0 0 0  0 0 0
1  0.000000 0.000000 0.000000  0.000000 -0.000000 -0.000000
2  -0.000005 0.000023 -61.375507  0.000000 0.000000 -1.570795
3  -0.012872 0.000000 8.235020  -1.570799 -1.570796 0.000000
4  16.163128 -0.012870 -0.000002  -0.000000 -0.000000 0.000000
5  -0.000000 0.000000 -0.000005  0.251755 0.198526 0.151469
6  -0.000026 -0.000002 0.000000  -0.094398 0.484795 -0.040351
7  -0.000001 -0.000006 0.000003  -0.000000 0.000000 -0.450906
8  -0.000001 -0.000000 -0.000004  -0.011109 -0.000000 -0.000000
9  -0.000000 -0.000000 -0.000005  -0.022279 -0.000000 -0.000000
10  -0.000002 -0.000001 -0.000003  -0.033450 -0.000000 -0.000000
11  -0.000002 -0.000001 -0.000003  -0.044622 -0.000000 -0.000000
12  -0.000002 -0.000000 -0.000003  -0.055734 -0.000000 -0.000000
13  -0.000002 -0.000002 -0.000003  -0.066909 -0.000000 -0.000000
14  -0.000004 -0.000002 -0.000005  -0.078086 -0.000000 -0.000000
15  0.000001 0.000002 -0.000001  0.200764 -0.275106 -0.982219
16  1.410070 0.800533 -2.089136  2.009773 0.630250 0.591915
17  3.954712 -0.000003 0.000004  -0.000004 -0.000001 0.166316
18  3.101567 0.000005 0.000002  0.000002 -0.000001 0.240238
19  6.164459 -0.898145 2.575019  0.090705 -0.013516 -0.151467
20  2.805850 0.000005 -0.000005  0.000002 0.000001 0.079095
21  2.307444 -0.000003 0.000001  -0.000000 -0.000000 -0.056423
22  7.145098 -0.676332 -1.382426  0.086918 -0.009133 -0.085503
23  3.672213 0.000004 -0.000001  0.000003 0.000001 0.142941
24  2.676527 0.000003 0.000002  -0.000001 -0.000001 -0.026075
25  6.831175 -0.870858 0.599921  0.130314 -0.006347 -0.065005
26  3.657083 -0.000012 0.000002  0.000000 0.000000 0.057729
27  2.496794 0.000006 0.000001  0.000000 0.000000 -0.091107
28  7.183351 -0.532078 -3.267607  0.123210 0.020356 -0.052484
29  3.511592 0.000010 -0.000000  -0.000001 -0.000001 0.099575
30  2.199410 -0.000004 0.000003  0.000001 0.000001 0.029263
31  0.000004 -0.000000 0.000003  0.765166 0.518306 -0.084911
32  -0.000021 -0.000001 0.000003  -0.084078 0.449823 0.163745
33  0.000000 0.000002 0.000001  0.000000 -0.000000 0.497312
34  0.000005 -0.000001 0.000003  -0.227917 0.000000 -0.000000
35  0.000001 -0.000003 -0.000000  -0.455792 -0.000000 0.000000
36  0.000001 -0.000002 0.000001  -0.683732 0.000000 0.000000
37  0.000002 -0.000001 0.000000  -0.911641 -0.000000 0.000000
38  -0.000005 -0.000001 0.000001  -1.139556 -0.000000 -0.000000
39  -0.000006 -0.000000 -0.000004  -1.367495 -0.000000 -0.000000
40  -0.000001 -0.000002 0.000002  -1.595397 -0.000000 0.000000
41  -0.000006 -0.000004 -0.000004  -1.740736 -0.377446 -0.588021
42  1.410069 0.800525 2.089138  -2.009768 -0.630254 0.591907
43  3.954718 0.000012 0.000002  -0.000000 -0.000002 0.166320
44  3.101559 -0.000007 0.000005  -0.000001 -0.000000 0.240238
45  7.183344 -0.532108 3.267603  -0.123210 -0.020355 -0.052486
46  3.511602 -0.000002 0.000000  0.000003 0.000001 0.099571
47  2.199404 0.000003 -0.000001  -0.000001 -0.000001 0.029267
48  7.145095 -0.676361 1.382421  -0.086920 0.009133 -0.085505
49  3.672217 -0.000001 0.000001  0.000001 -0.000000 0.142941
50  2.676520 -0.000004 0.000001  -0.000001 -0.000001 -0.026075
51  6.831176 -0.870879 -0.599926  -0.130311 0.006346 -0.065012
52  3.657079 -0.000003 -0.000002  -0.000000 0.000001 0.057734
53  2.496796 0.000001 0.000002  0.000000 -0.000001 -0.091108
54  6.164465 -0.898156 -2.575025  -0.090704 0.013515 -0.151468
55  2.805848 -0.000003 0.000001  -0.000002 -0.000001 0.079091
56  2.307434 -0.000001 -0.000002  0.000002 0.000001 -0.056419
57  0.000000 0.000000 0.000000  0.000001 -0.000000 -0.000000
58  13.899720 8.654610 8.796395  -1.474893 0.256543 -0.570387
59  0.071252 133.426544 57.557678  0.000000 0.000000 -0.000000
60  1.986530 0.000022 -3.123747  -2.705260 -0.000000 -1.570797
61  -1.986687 0.000024 -3.123754  0.436333 0.000001 1.570797
62  0.000002 -0.000002 -0.000008  0.000000 0.000000 -0.000000
63  -0.456028 -0.861408 -0.013783  -0.000000 0.043584 -0.000001
64  -11.344165 1.135889 0.869280  0.000002 -0.025019 -0.026324
65  0.078995 -0.861408 -0.169307  3.140931 -0.829230 0.000292
66  -11.350044 -0.729419 0.864889  0.000197 -0.025367 0.026442
67  1.754236 4.036770 -1.682664  0.392575 -0.010120 -1.546362
68  -1.755136 4.036763 -1.682669  -0.392577 -0.010391 -1.594986
69  -0.164555 7.327704 3.928702  -0.000000 0.000001 -1.570796
70  0.079082 36.742691 -0.508024  0.000001 0.000000 -0.000000
71  -1.260172 8.777410 6.736404  -0.000002 -0.424415 -3.141592
72  1.525194 18.283598 2.968620  0.000000 0.000000 -0.000000
73  0.060219 10.324390 74.469063  0.000008 0.000000 -0.000000
74  0.010142 79.890686 79.559547  0.000000 0.000000 -0.000000
75  -0.000002 -0.115267 0.006869  -0.000000 0.000000 0.000000
76  -1.027575 -0.401533 -0.000004  0.000000 0.000000 -0.000000
77  73.981270 33.177635 0.000004  0.000000 -0.000000 -0.000000
78  8.773499 -0.193210 -0.000005  0.000000 -0.000000 0.000000
79  -1.487356 0.800695 -0.721713  0.000000 -0.000000 0.000000
80  1.091118 -0.214615 -0.000004  -0.000000 -0.000000 0.000000
81  3.258440 5.856952 -3.403518  -0.000000 -0.000000 -0.000000
82  15.153046 5.860581 -3.403523  0.000000 -0.000000 0.000000
83  6.064258 77.294952 36.365795  1.570796 -0.000000 1.570796
84  -2.662414 1.445756 40.667953  -0.000000 3.141591 1.570796
85  8.352066 2.772894 0.000537  -3.141589 0.000002 0.000000
86  6.064255 72.973694 32.593246  1.570796 -0.000000 1.570796
87  0.004366 73.768417 -3.792008  0.000000 -0.000000 0.000000
88  -0.442609 1.284891 8.535286  -0.000000 -0.000001 0.000000
89  0.000000 1.310208 0.000001  0.000000 0.000000 0.000000
90  0.000000 0.582257 0.000000  0.000000 0.000000 0.000000
91  0.036297 1.284894 7.928797  -0.000000 -0.000001 0.000000
92  -0.000000 1.310217 0.000000  0.000000 0.000000 0.000000
93  -0.000000 0.582265 0.000000  0.000000 0.000000 0.000000
94  5.969321 3.427467 -6.170651  -0.000000 -0.000001 -1.570797
95  -1.310201 0.000000 -0.000003  0.000000 -0.000000 -0.000000
96  -0.582253 -0.000001 -0.000003  0.000000 -0.000000 -0.000000
97  5.969321 9.397408 -6.170660  -0.000000 -0.000001 -1.570796
98  -1.310205 -0.000002 0.000000  0.000000 0.000000 -0.000000
99  -0.582257 -0.000003 -0.000000  0.000000 0.000000 -0.000000
100  5.969321 15.223781 -6.170672  0.000000 -0.000001 -1.570796
101  -1.310214 0.000002 -0.000001  -0.000000 0.000000 -0.000000
102  -0.582258 0.000001 -0.000001  -0.000000 0.000000 -0.000000
103  5.969322 20.835577 -6.170674  0.000000 -0.000001 -1.570796
104  -1.310208 0.000000 -0.000000  -0.000000 0.000000 -0.000000
105  -0.582261 -0.000001 0.000003  -0.000000 0.000000 -0.000000
106  5.969321 26.771210 -6.170672  0.000000 -0.000001 -1.570796
107  5.969319 32.597599 -6.170676  0.000000 -0.000001 -1.570796
108  5.969322 38.209412 -6.170687  0.000000 -0.000001 -1.570800
109  5.969321 49.488472 -6.170685  0.000000 -0.000001 -1.570800
110  -0.539091 -0.556794 -0.017364  -0.042462 2.681156 1.551919
111  -6.799125 -0.556799 0.818549  -0.272420 2.701993 1.452460
112  -4.615284 -0.556813 0.270326  -0.117230 2.684609 1.518878
113  -2.650971 -0.556797 0.063009  -0.042463 2.681158 1.551919
114  27.110332 1.284870 12.007546  -0.000000 -0.000000 0.000000
115  28.133421 1.284868 12.007545  0.000001 -0.000000 0.000000
116  12.812885 2.241795 12.007547  -0.000000 -0.000001 -0.000001
117  -9.955967 -0.319613 4.380212  -0.000001 -0.000000 -0.000001
118  -11.316474 -0.319610 4.380212  -0.000003 -0.000000 0.000000
119  -12.667811 -0.319613 4.380211  -0.000003 -0.000000 0.000001
120  -14.022142 -0.319608 4.380213  0.000010 -0.000000 -0.000011
121  -15.373240 -0.319612 4.380210  0.000015 -0.000000 -0.000015
122  -16.724142 -0.319613 4.380211  -0.000009 -0.000000 0.000006
123  -18.074572 -0.319612 4.380211  -0.000006 -0.000000 0.000004
124  -19.423714 -0.319612 4.380210  0.000002 0.000000 -0.000004
125  -20.775270 -0.319610 4.380213  0.000003 0.000000 -0.000004
126  -22.126669 -0.319609 4.380214  0.000003 -0.000000 -0.000004
127  -23.478121 -0.319610 4.380214  0.000005 -0.000000 -0.000006
128  -24.830620 -0.319607 4.380212  0.000036 -0.000000 -0.000038
129  -26.182026 -0.319612 4.380211  -0.000011 -0.000000 0.000011
130  0.529179 -0.167122 0.629481  -0.101270 -0.000000 0.000000
131  -0.211444 -0.241672 0.155359  -0.145847 -0.000000 0.000000
132  0.529189 -0.280690 -0.110295  -0.145847 -0.000000 0.000000
133  -0.173928 -0.337316 -0.638497  -0.181751 -0.000000 0.000000
134  0.529188 -0.399238 -0.975395  -0.181751 -0.000000 0.000000
135  -0.211445 -0.464469 -1.431045  -0.192399 -0.000000 0.000000
136  0.529188 -0.515798 -1.694584  -0.192400 -0.000000 0.000000
137  -0.173929 -0.612143 -2.231914  -0.216703 -0.000000 0.000000
138  0.529187 -0.685798 -2.566442  -0.216703 -0.000000 0.000000
139  -0.211446 -0.769551 -3.027872  -0.237349 -0.000000 0.000000
140  0.529188 -0.832674 -3.288849  -0.237349 -0.000000 0.000000
141  -0.173939 -0.945272 -3.779565  -0.233859 0.000000 0.000000
142  0.529178 -1.024648 -4.112782  -0.233859 0.000000 0.000000
143  -0.211445 -1.132176 -4.577549  -0.262919 -0.000000 0.000000
144  0.529187 -1.201957 -4.836826  -0.262919 0.000000 0.000000
145  -0.000006 -2.810931 -10.636631  0.258454 0.000000 3.141592
146  -0.192457 -1.345766 -5.370046  -0.280373 0.000000 0.000000
147  0.533982 -1.413501 -5.605105  -0.276883 0.000000 0.000000
148  -0.206620 -1.795753 -6.909781  -0.287354 0.000000 0.000000
149  -0.205807 -1.564809 -6.138258  -0.290843 0.000000 0.000000
150  0.530458 -1.643668 -6.395216  -0.290844 0.000000 0.000000
151  0.535309 -1.790704 -7.204134  -0.287354 -0.000000 0.000000
152  -0.202704 -2.030475 -7.702832  -0.286180 -0.000000 0.000000
153  0.509546 -2.118888 -8.011625  -0.298398 -0.000000 0.000000
154  -0.202705 -2.255265 -8.465173  -0.283134 -0.000000 0.000000
155  0.509546 -2.352972 -8.771161  -0.295352 -0.000000 0.000000
156  -0.202705 -2.481586 -9.235473  -0.285437 -0.000000 0.000000
157  0.509545 -2.588671 -9.538640  -0.297654 -0.000000 0.000000
158  0.170123 -21.222082 -1.001143  -0.000001 -0.000001 0.000000
159  0.170121 -20.843853 -0.397184  -0.000001 -0.000001 0.000000
160  0.170122 -20.489735 -1.001142  -0.000001 -0.000001 0.000000
161  0.170123 -20.111057 -0.397185  -0.000001 -0.000001 0.000000
162  0.170122 -19.380077 -0.397188  -0.000001 -0.000001 0.000000
163  0.170121 -19.025099 -1.001146  -0.000001 -0.000001 0.000000
164  0.170122 -18.646646 -0.396449  -0.000001 -0.000001 0.000000
165  0.170123 -19.755747 -1.001144  -0.000001 -0.000001 0.000000
166  -0.015972 10.612517 2.686018  0.000001 0.000000 -0.000000
167  0.059851 -50.160706 6.449381  1.570797 -0.000000 -1.570797
168  0.064656 27.351292 72.195198  0.000000 -0.000000 -0.000001
169  6.064262 95.114006 31.645500  0.000000 -0.000001 1.570796
170  0.054190 102.845642 29.795359  -0.000000 0.000001 -1.570796
171  6.064262 69.096558 37.164318  1.570796 -0.000000 1.570796
172  1.974303 11.989233 4.589249  0.000000 0.000000 -0.000000
173  -0.011478 23.944746 5.090360  0.000001 -0.000000 0.000000
174  -1.691251 8.833342 5.763506  0.000001 0.000000 -0.000000
175  6.064262 89.329796 31.613914  0.000000 -0.000001 1.570796
176  0.059888 2.255336 54.398014  0.000000 0.000000 -0.000000
177  0.003499 -22.270645 0.000139  1.570797 -0.000000 -1.570797
178  0.104010 15.380371 2.266152  0.000001 0.000000 -0.000000
179  4.504587 -0.449495 -17.618832  2.064741 -0.116498 -2.067531
180  -3.255359 24.458078 -23.114338  0.181523 0.048807 -1.277059
181  -2.662409 1.445757 33.628738  -0.000000 3.141591 1.570796
182  8.352066 2.772894 0.000538  -3.141589 0.000002 0.000000
183  -2.662414 1.445756 40.667953  -0.000000 3.141591 1.570796
184  8.352066 2.772894 0.000537  -3.141589 0.000002 0.000000
185  -1.431355 16.384779 4.137811  0.000001 0.000000 0.000000
186  -0.001843 0.521683 -0.140290  0.000000 0.000000 -0.000000
187  7.323109 -5.136191 -5.166239  -0.000000 0.000000 -0.610865
188  2.698277 -0.000001 -0.000001  -0.000012 0.000000 0.000000
189  2.834159 -0.000002 -0.000000  0.000013 0.000000 -0.000000
190  2.648916 0.000002 -0.000000  -0.000001 -0.000001 0.000000
191  2.667497 -0.000004 -0.000000  -0.000000 0.000000 -0.000000
192  2.426702 -0.000003 -0.000001  -0.000000 0.000000 -0.000000
193  -0.494743 -44.353447 -1.302300  1.570797 -0.000000 -1.570797
194  11.545937 73.768410 -3.792011  0.000000 0.000000 -0.000000
195  -0.066954 -10.025105 -0.912533  0.000000 0.000000 -0.000000
196  0.000000 0.000001 -1.529053  -0.000000 0.000000 -0.000000
197  -0.078942 -0.000002 0.000000  0.000000 0.000001 1.570796
198  0.097091 -0.000001 0.000001  -0.000000 -3.141592 1.570796
199  0.000000 0.000000 0.000000  0.000000 -0.000000 -0.000000
200  8.207075 -13.102393 -11.910594  -1.474893 0.256543 -0.570387
201  14.396533 10.273877 9.975671  -1.474893 0.256543 -0.570387
end
