version 1
nodes
0 "blender_implicit" -1
1 "b_root" -1
2 "b_ch_middle" 1
3 "b_ch_spine1" 2
4 "b_ch_spine2" 3
5 "b_ch_l_clavical" 4
6 "b_ch_l_upperarm" 5
7 "b_ch_l_forearm" 6
8 "b_ch_l_forearm_twist1" 7
9 "b_ch_l_forearm_twist2" 7
10 "b_ch_l_forearm_twist3" 7
11 "b_ch_l_forearm_twist4" 7
12 "b_ch_l_forearm_twist5" 7
13 "b_ch_l_forearm_twist6" 7
14 "b_ch_l_forearm_twist7" 7
15 "b_ch_l_hand" 7
16 "b_ch_l_finger_00" 15
17 "b_ch_l_finger_01" 16
18 "b_ch_l_finger_02" 17
19 "b_ch_l_finger_40" 15
20 "b_ch_l_finger_41" 19
21 "b_ch_l_finger_42" 20
22 "b_ch_l_finger_20" 15
23 "b_ch_l_finger_21" 22
24 "b_ch_l_finger_22" 23
25 "b_ch_l_finger_30" 15
26 "b_ch_l_finger_31" 25
27 "b_ch_l_finger_32" 26
28 "b_ch_l_finger_10" 15
29 "b_ch_l_finger_11" 28
30 "b_ch_l_finger_12" 29
31 "b_ch_r_clavical" 4
32 "b_ch_r_upperarm" 31
33 "b_ch_r_forearm" 32
34 "b_ch_r_forearm_twist1" 33
35 "b_ch_r_forearm_twist2" 33
36 "b_ch_r_forearm_twist3" 33
37 "b_ch_r_forearm_twist4" 33
38 "b_ch_r_forearm_twist5" 33
39 "b_ch_r_forearm_twist6" 33
40 "b_ch_r_forearm_twist7" 33
41 "b_ch_r_hand" 33
42 "b_ch_r_finger_00" 41
43 "b_ch_r_finger_01" 42
44 "b_ch_r_finger_02" 43
45 "b_ch_r_finger_10" 41
46 "b_ch_r_finger_11" 45
47 "b_ch_r_finger_12" 46
48 "b_ch_r_finger_20" 41
49 "b_ch_r_finger_21" 48
50 "b_ch_r_finger_22" 49
51 "b_ch_r_finger_30" 41
52 "b_ch_r_finger_31" 51
53 "b_ch_r_finger_32" 52
54 "b_ch_r_finger_40" 41
55 "b_ch_r_finger_41" 54
56 "b_ch_r_finger_42" 55
57 "b_camera" 1
58 "b_wpn" 1
59 "b_wpn_bipod" 58
60 "b_wpn_bipod_l" 59
61 "b_wpn_bipod_r" 59
62 "b_wpn_bipod_base" 59
63 "b_wpn_bipod_base_r" 62
64 "b_wpn_bipod_spring_base_r" 63
65 "b_wpn_bipod_base_l" 62
66 "b_wpn_bipod_spring_base_l" 65
67 "b_wpn_bipod_spring_l" 62
68 "b_wpn_bipod_spring_r" 62
69 "b_wpn_bolt" 58
70 "b_wpn_chargehandle" 58
71 "b_wpn_eject" 58
72 "b_wpn_fireselect" 58
73 "b_wpn_foregrip" 58
74 "b_wpn_gl" 58
75 "b_wpn_gl_slide" 74
76 "b_wpn_gl_trigger" 74
77 "b_wpn_gl_round" 74
78 "b_wpn_gl_casing" 74
79 "b_wpn_gl_slidelock" 74
80 "b_wpn_gl_muzzle" 74
81 "b_wpn_gl_sight_back" 74
82 "b_wpn_gl_sight_front" 74
83 "b_wpn_hammer" 58
84 "b_wpn_laserflash" 58
85 "b_wpn_laserflash_beam" 84
86 "b_wpn_lid" 58
87 "b_wpn_mag" 58
88 "b_wpn_mag_b1" 87
89 "b_wpn_mag_casing_1" 88
90 "b_wpn_mag_bullet_1" 88
91 "b_wpn_mag_b2" 87
92 "b_wpn_mag_casing_2" 91
93 "b_wpn_mag_bullet_2" 91
94 "b_wpn_mag_b3" 87
95 "b_wpn_mag_casing_3" 94
96 "b_wpn_mag_bullet_3" 94
97 "b_wpn_mag_b4" 87
98 "b_wpn_mag_casing_4" 97
99 "b_wpn_mag_bullet_4" 97
100 "b_wpn_mag_b5" 87
101 "b_wpn_mag_casing_5" 100
102 "b_wpn_mag_bullet_5" 100
103 "b_wpn_mag_b6" 87
104 "b_wpn_mag_casing_6" 103
105 "b_wpn_mag_bullet_6" 103
106 "b_wpn_mag_b7" 87
107 "b_wpn_mag_b8" 87
108 "b_wpn_mag_b9" 87
109 "b_wpn_mag_follow" 87
110 "b_wpn_mag_b13" 87
111 "b_wpn_mag_b10" 87
112 "b_wpn_mag_b11" 87
113 "b_wpn_mag_b12" 87
114 "b_wpn_mag_b14" 87
115 "b_wpn_mag_b15" 87
116 "b_wpn_mag_tab" 87
117 "b_wpn_mag_b_link1" 87
118 "b_wpn_mag_b_link2" 87
119 "b_wpn_mag_b_link3" 87
120 "b_wpn_mag_b_link4" 87
121 "b_wpn_mag_b_link5" 87
122 "b_wpn_mag_b_link6" 87
123 "b_wpn_mag_b_link7" 87
124 "b_wpn_mag_b_link8" 87
125 "b_wpn_mag_b_link9" 87
126 "b_wpn_mag_b_link10" 87
127 "b_wpn_mag_b_link11" 87
128 "b_wpn_mag_b_link12" 87
129 "b_wpn_mag_b_link13" 87
130 "b_wpn_mag_b16" 87
131 "b_wpn_mag_b17" 87
132 "b_wpn_mag_b18" 87
133 "b_wpn_mag_b19" 87
134 "b_wpn_mag_b20" 87
135 "b_wpn_mag_b21" 87
136 "b_wpn_mag_b22" 87
137 "b_wpn_mag_b23" 87
138 "b_wpn_mag_b24" 87
139 "b_wpn_mag_b25" 87
140 "b_wpn_mag_b26" 87
141 "b_wpn_mag_b27" 87
142 "b_wpn_mag_b28" 87
143 "b_wpn_mag_b29" 87
144 "b_wpn_mag_b30" 87
145 "b_wpn_mag_spring_bottom" 87
146 "b_wpn_mag_b31" 87
147 "b_wpn_mag_b32" 87
148 "b_wpn_mag_b35" 87
149 "b_wpn_mag_b33" 87
150 "b_wpn_mag_b34" 87
151 "b_wpn_mag_b36" 87
152 "b_wpn_mag_b37" 87
153 "b_wpn_mag_b38" 87
154 "b_wpn_mag_b39" 87
155 "b_wpn_mag_b40" 87
156 "b_wpn_mag_b41" 87
157 "b_wpn_mag_b42" 87
158 "b_wpn_mag_b50" 87
159 "b_wpn_mag_b49" 87
160 "b_wpn_mag_b48" 87
161 "b_wpn_mag_b47" 87
162 "b_wpn_mag_b45" 87
163 "b_wpn_mag_b44" 87
164 "b_wpn_mag_b43" 87
165 "b_wpn_mag_b46" 87
166 "b_wpn_magrelease" 58
167 "b_wpn_muzzle" 58
168 "b_wpn_optic" 58
169 "b_wpn_pin" 58
170 "b_wpn_ring" 58
171 "b_wpn_slide" 58
172 "b_wpn_sliderelease" 58
173 "b_wpn_spec_1" 58
174 "b_wpn_spec_2" 58
175 "b_wpn_spoon" 58
176 "b_wpn_suppressor" 58
177 "b_wpn_suppressor_muzzle" 176
178 "b_wpn_trigger" 58
179 "ik_hand_wpn_l" 58
180 "ik_hand_wpn_r" 58
181 "b_wpn_laser" 58
182 "b_wpn_laser_beam" 181
183 "b_wpn_flash" 58
184 "b_wpn_flash_beam" 183
185 "b_wpn_stock" 58
186 "b_wpn_barrel" 58
187 "b_wpn_chain_01" 58
188 "b_wpn_chain_02" 187
189 "b_wpn_chain_03" 188
190 "b_wpn_chain_04" 189
191 "b_wpn_chain_05" 190
192 "b_wpn_chain_06" 191
193 "b_wpn_bayonet" 58
194 "b_wpn_mag_2" 58
195 "b_wpn_gripod" 58
196 "b_wpn_gripod_base" 195
197 "b_wpn_gripod_base_r" 196
198 "b_wpn_gripod_base_l" 196
199 "ik_hand_root" 1
200 "ik_hand_r" 199
201 "ik_hand_l" 199
end
skeleton
time 0
0  0 0 0  0 0 0
1  0.000000 0.000000 0.000000  0.000000 -0.000000 -0.000000
2  -0.000005 0.000023 -61.375507  0.000000 0.000000 -1.570795
3  -0.012872 0.000000 8.235020  -1.570799 -1.570796 0.000000
4  16.163128 -0.012870 -0.000002  -0.000000 -0.000000 0.000000
5  -0.000000 0.000000 -0.000005  0.985954 -0.000645 -0.000347
6  -0.000037 -0.000002 -0.000000  0.811737 0.297839 0.075129
7  -0.000004 -0.000007 0.000002  0.000000 0.000000 -0.233508
8  0.000000 0.000001 -0.000000  0.035525 -0.000000 0.000000
9  0.000001 0.000000 -0.000001  0.071001 -0.000000 -0.000000
10  -0.000004 -0.000001 -0.000000  0.106560 -0.000000 -0.000000
11  -0.000008 -0.000002 -0.000001  0.142092 -0.000000 -0.000000
12  -0.000004 -0.000001 -0.000000  0.177607 -0.000000 -0.000000
13  -0.000008 -0.000002 -0.000002  0.213117 -0.000000 -0.000000
14  -0.000007 -0.000004 -0.000001  0.248695 -0.000000 -0.000000
15  -0.000004 -0.000001 0.000002  0.290848 -0.331182 -0.049756
16  1.410072 0.800535 -2.089137  2.009774 0.630250 0.591915
17  3.954712 -0.000003 0.000008  -0.000004 -0.000001 0.166316
18  3.101567 0.000006 0.000003  0.000002 -0.000001 0.240238
19  6.164463 -0.898142 2.575020  0.090705 -0.013516 -0.151467
20  2.805846 0.000004 -0.000004  0.000002 0.000001 0.079095
21  2.307445 -0.000004 0.000001  -0.000000 -0.000000 -0.056424
22  7.145097 -0.676332 -1.382425  0.086918 -0.009133 -0.085503
23  3.672215 0.000002 -0.000001  0.000003 0.000001 0.142941
24  2.676526 -0.000000 0.000001  -0.000001 -0.000001 -0.026075
25  6.831177 -0.870855 0.599922  0.130314 -0.006347 -0.065005
26  3.657085 -0.000009 0.000000  0.000000 0.000000 0.057729
27  2.496795 0.000003 -0.000000  0.000000 0.000000 -0.091107
28  7.183353 -0.532074 -3.267608  0.123210 0.020356 -0.052484
29  3.511592 0.000005 -0.000001  -0.000001 -0.000001 0.099575
30  2.199411 0.000001 0.000004  0.000001 0.000001 0.029263
31  0.000004 -0.000000 0.000003  0.848894 -0.000556 -0.000251
32  -0.000016 -0.000001 0.000001  0.494662 0.061588 0.551423
33  0.000004 -0.000000 0.000002  0.000000 -0.000000 -0.046514
34  0.000001 -0.000000 0.000001  -0.009766 0.000000 -0.000000
35  -0.000001 -0.000003 0.000001  -0.019532 0.000000 0.000000
36  -0.000001 -0.000002 0.000002  -0.029299 0.000000 0.000000
37  0.000000 -0.000001 0.000001  -0.039066 -0.000000 0.000000
38  -0.000004 0.000001 0.000001  -0.048896 0.000000 -0.000000
39  -0.000004 0.000000 0.000001  -0.058665 -0.000000 -0.000000
40  -0.000001 -0.000003 0.000003  -0.068436 0.000000 0.000000
41  -0.000006 -0.000005 -0.000000  0.253720 -0.176901 -0.298865
42  1.410066 0.800525 2.089138  -2.009768 -0.630254 0.591907
43  3.954719 0.000011 0.000002  -0.000000 -0.000002 0.166320
44  3.101562 -0.000007 0.000002  -0.000001 -0.000000 0.240238
45  7.183346 -0.532110 3.267604  -0.123210 -0.020355 -0.052486
46  3.511603 -0.000001 -0.000001  0.000003 0.000001 0.099571
47  2.199404 0.000004 -0.000002  -0.000001 -0.000001 0.029267
48  7.145095 -0.676362 1.382421  -0.086920 0.009133 -0.085505
49  3.672220 -0.000002 0.000001  0.000001 -0.000000 0.142941
50  2.676523 -0.000004 0.000001  -0.000001 -0.000001 -0.026075
51  6.831174 -0.870879 -0.599927  -0.130311 0.006346 -0.065012
52  3.657080 -0.000002 -0.000001  -0.000000 0.000001 0.057734
53  2.496793 0.000001 0.000003  0.000000 -0.000001 -0.091108
54  6.164468 -0.898158 -2.575025  -0.090704 0.013515 -0.151468
55  2.805852 -0.000003 0.000002  -0.000002 -0.000001 0.079091
56  2.307434 0.000000 -0.000002  0.000002 0.000001 -0.056419
57  0.000000 0.000000 0.000000  0.000001 -0.000000 -0.000000
58  14.547324 4.035645 -7.772408  0.321316 0.505782 0.832795
59  0.071259 133.426575 57.557693  -0.000000 -0.000000 -0.000000
60  1.986526 0.000027 -3.123740  -2.705260 -0.000000 -1.570797
61  -1.986692 0.000025 -3.123748  0.436333 0.000001 1.570797
62  -0.000002 0.000011 -0.000005  0.000000 -0.000000 -0.000000
63  -0.456041 -0.861420 -0.013774  -0.000000 0.043584 -0.000001
64  -11.344161 1.135889 0.869282  0.000002 -0.025019 -0.026324
65  0.078993 -0.861420 -0.169308  3.140931 -0.829230 0.000292
66  -11.350046 -0.729433 0.864881  0.000197 -0.025367 0.026442
67  1.754238 4.036760 -1.682664  0.392575 -0.010120 -1.546362
68  -1.755144 4.036755 -1.682662  -0.392577 -0.010391 -1.594986
69  -0.164556 7.327703 3.928704  0.000000 0.000001 -1.570796
70  0.079083 36.742691 -0.508024  0.000001 -0.000000 -0.000000
71  -1.260174 8.777410 6.736405  -0.000002 -0.424416 -3.141592
72  1.525193 18.283598 2.968621  0.000000 -0.000000 -0.000000
73  0.060218 10.324386 74.469055  0.000008 -0.000000 -0.000000
74  0.010140 79.890701 79.559563  0.000000 -0.000000 -0.000000
75  0.000008 -0.115258 0.006870  -0.000000 0.000000 0.000000
76  -1.027581 -0.401533 0.000005  0.000000 0.000000 0.000000
77  73.981262 33.177643 0.000010  0.000000 -0.000000 -0.000000
78  8.773496 -0.193205 0.000002  0.000000 -0.000000 0.000000
79  -1.487354 0.800706 -0.721704  0.000000 0.000000 0.000000
80  1.091122 -0.214604 -0.000007  -0.000000 0.000000 0.000000
81  3.258440 5.856962 -3.403520  -0.000000 -0.000000 -0.000000
82  15.153053 5.860601 -3.403515  -0.000000 -0.000000 0.000000
83  6.064255 77.294960 36.365795  1.570796 0.000000 1.570796
84  -2.662411 1.445755 40.667961  0.000000 3.141591 1.570796
85  8.352065 2.772897 0.000544  -3.141589 0.000002 0.000000
86  6.064257 72.973694 32.593254  1.570796 0.000000 1.570796
87  0.004369 73.768425 -3.792008  0.000000 0.000000 0.000000
88  -0.442610 1.284880 8.535292  0.000000 -0.000001 0.000000
89  -0.000002 1.310205 0.000000  0.000000 -0.000000 0.000000
90  0.000002 0.582256 0.000000  0.000000 -0.000000 0.000000
91  0.036296 1.284882 7.928800  0.000000 -0.000001 0.000000
92  0.000002 1.310210 0.000000  0.000000 0.000000 0.000000
93  0.000005 0.582259 0.000000  0.000000 0.000000 0.000000
94  5.969322 3.427454 -6.170647  -0.000000 -0.000001 -1.570797
95  -1.310207 -0.000005 0.000001  0.000000 -0.000000 -0.000000
96  -0.582256 -0.000003 -0.000001  0.000000 -0.000000 -0.000000
97  5.969325 9.397401 -6.170656  -0.000000 -0.000001 -1.570796
98  -1.310213 0.000001 -0.000001  0.000000 0.000000 -0.000000
99  -0.582258 0.000005 -0.000001  0.000000 0.000000 -0.000000
100  5.969318 15.223766 -6.170667  -0.000000 -0.000001 -1.570796
101  -1.310208 -0.000001 -0.000002  -0.000000 0.000000 -0.000000
102  -0.582257 0.000000 -0.000004  -0.000000 0.000000 -0.000000
103  5.969321 20.835567 -6.170668  -0.000000 -0.000001 -1.570796
104  -1.310210 0.000005 0.000006  -0.000000 0.000000 -0.000000
105  -0.582261 0.000006 0.000005  -0.000000 0.000000 -0.000000
106  5.969321 26.771208 -6.170669  -0.000000 -0.000001 -1.570796
107  5.969320 32.597591 -6.170671  -0.000000 -0.000001 -1.570796
108  5.969325 38.209389 -6.170681  -0.000000 -0.000001 -1.570800
109  5.969327 49.488464 -6.170679  -0.000000 -0.000001 -1.570800
110  -0.539089 -0.556809 -0.017361  -0.042462 2.681156 1.551919
111  -6.799124 -0.556807 0.818552  -0.272420 2.701993 1.452460
112  -4.615280 -0.556822 0.270331  -0.117230 2.684609 1.518878
113  -2.650971 -0.556807 0.063014  -0.042463 2.681158 1.551919
114  27.110332 1.284857 12.007547  0.000000 -0.000000 0.000000
115  28.133425 1.284860 12.007548  0.000001 -0.000000 0.000000
116  12.812887 2.241786 12.007551  0.000000 -0.000001 -0.000001
117  -9.955967 -0.319623 4.380216  -0.000001 -0.000000 -0.000001
118  -11.316471 -0.319623 4.380217  -0.000003 -0.000000 -0.000000
119  -12.667810 -0.319621 4.380217  -0.000003 -0.000000 0.000001
120  -14.022141 -0.319620 4.380215  0.000010 -0.000000 -0.000011
121  -15.373241 -0.319620 4.380216  0.000015 -0.000000 -0.000015
122  -16.724142 -0.319623 4.380217  -0.000009 -0.000000 0.000006
123  -18.074570 -0.319619 4.380216  -0.000006 0.000000 0.000004
124  -19.423714 -0.319622 4.380217  0.000002 0.000000 -0.000004
125  -20.775269 -0.319619 4.380218  0.000003 0.000000 -0.000004
126  -22.126673 -0.319618 4.380218  0.000003 0.000000 -0.000004
127  -23.478127 -0.319618 4.380216  0.000005 0.000000 -0.000006
128  -24.830620 -0.319621 4.380217  0.000036 0.000000 -0.000038
129  -26.182030 -0.319618 4.380219  -0.000011 0.000000 0.000011
130  0.529179 -0.167130 0.629486  -0.101270 -0.000000 0.000000
131  -0.211448 -0.241685 0.155362  -0.145847 -0.000000 0.000000
132  0.529191 -0.280699 -0.110291  -0.145847 -0.000000 -0.000000
133  -0.173926 -0.337323 -0.638493  -0.181751 -0.000000 0.000000
134  0.529187 -0.399247 -0.975391  -0.181751 -0.000000 0.000000
135  -0.211445 -0.464478 -1.431040  -0.192399 -0.000000 0.000000
136  0.529190 -0.515806 -1.694579  -0.192399 -0.000000 0.000000
137  -0.173927 -0.612153 -2.231907  -0.216703 -0.000000 0.000000
138  0.529190 -0.685807 -2.566437  -0.216703 -0.000000 -0.000000
139  -0.211448 -0.769559 -3.027869  -0.237349 -0.000000 0.000000
140  0.529186 -0.832685 -3.288846  -0.237349 -0.000000 -0.000000
141  -0.173941 -0.945279 -3.779563  -0.233859 0.000000 0.000000
142  0.529179 -1.024659 -4.112777  -0.233859 0.000000 0.000000
143  -0.211442 -1.132183 -4.577545  -0.262919 -0.000000 0.000000
144  0.529190 -1.201966 -4.836823  -0.262919 0.000000 0.000000
145  -0.000006 -2.810942 -10.636628  0.258454 0.000000 3.141592
146  -0.192456 -1.345775 -5.370044  -0.280373 0.000000 0.000000
147  0.533985 -1.413512 -5.605102  -0.276883 0.000000 0.000000
148  -0.206618 -1.795760 -6.909776  -0.287354 0.000000 0.000000
149  -0.205804 -1.564813 -6.138255  -0.290843 0.000000 0.000000
150  0.530460 -1.643675 -6.395212  -0.290844 0.000000 0.000000
151  0.535310 -1.790709 -7.204132  -0.287354 -0.000000 0.000000
152  -0.202702 -2.030484 -7.702826  -0.286180 -0.000000 0.000000
153  0.509549 -2.118896 -8.011621  -0.298398 -0.000000 0.000000
154  -0.202704 -2.255280 -8.465168  -0.283134 -0.000000 0.000000
155  0.509548 -2.352979 -8.771157  -0.295352 -0.000000 0.000000
156  -0.202708 -2.481593 -9.235469  -0.285437 -0.000000 0.000000
157  0.509544 -2.588683 -9.538636  -0.297653 -0.000000 0.000000
158  0.170122 -21.222088 -1.001140  -0.000001 -0.000001 0.000000
159  0.170122 -20.843864 -0.397181  -0.000001 -0.000001 0.000000
160  0.170122 -20.489742 -1.001139  -0.000001 -0.000001 0.000000
161  0.170123 -20.111067 -0.397181  -0.000001 -0.000001 0.000000
162  0.170121 -19.380089 -0.397187  -0.000001 -0.000001 0.000000
163  0.170123 -19.025106 -1.001143  -0.000001 -0.000001 0.000000
164  0.170121 -18.646656 -0.396446  -0.000001 -0.000001 0.000000
165  0.170123 -19.755760 -1.001141  -0.000001 -0.000001 0.000000
166  -0.015972 10.612516 2.686018  0.000001 -0.000000 -0.000000
167  0.059853 -50.160706 6.449383  1.570797 -0.000000 -1.570797
168  0.064654 27.351292 72.195206  -0.000000 -0.000000 -0.000001
169  6.064260 95.114014 31.645502  -0.000000 -0.000001 1.570796
170  0.054185 102.845642 29.795364  0.000000 0.000001 -1.570796
171  6.064262 69.096565 37.164318  1.570796 0.000000 1.570796
172  1.974302 11.989232 4.589251  0.000000 -0.000000 -0.000000
173  -0.011482 23.944746 5.090361  0.000001 0.000000 0.000000
174  -1.691252 8.833342 5.763506  0.000001 -0.000000 -0.000000
175  6.064260 89.329803 31.613918  -0.000000 -0.000001 1.570796
176  0.059885 2.255337 54.398014  -0.000000 -0.000000 -0.000000
177  0.003494 -22.270645 0.000148  1.570797 -0.000000 -1.570797
178  0.104010 15.380370 2.266152  0.000001 -0.000000 -0.000000
179  4.504586 -0.449496 -17.618830  2.064741 -0.116498 -2.067531
180  -3.255360 24.458078 -23.114338  0.181523 0.048807 -1.277059
181  -2.662413 1.445757 33.628742  0.000000 3.141591 1.570796
182  8.352065 2.772897 0.000543  -3.141589 0.000002 0.000000
183  -2.662411 1.445755 40.667961  0.000000 3.141591 1.570796
184  8.352065 2.772897 0.000544  -3.141589 0.000002 0.000000
185  -1.431356 16.384779 4.137811  0.000001 -0.000000 0.000000
186  -0.001845 0.521682 -0.140289  0.000000 -0.000000 -0.000000
187  7.323109 -5.136193 -5.166236  0.000000 0.000000 -0.610865
188  2.698277 -0.000001 -0.000002  -0.000012 0.000000 0.000000
189  2.834160 -0.000002 -0.000002  0.000013 0.000000 -0.000000
190  2.648921 -0.000000 -0.000001  -0.000001 -0.000001 0.000000
191  2.667496 -0.000002 0.000000  0.000000 -0.000000 0.000000
192  2.426704 -0.000002 -0.000000  -0.000000 -0.000000 -0.000000
193  -0.494743 -44.353451 -1.302299  1.570797 -0.000000 -1.570797
194  11.545938 73.768425 -3.792012  0.000000 -0.000000 -0.000000
195  -0.066953 -10.025106 -0.912533  -0.000000 -0.000000 -0.000000
196  -0.000001 -0.000001 -1.529051  -0.000000 -0.000000 -0.000000
197  -0.078944 0.000000 0.000001  0.000000 0.000001 1.570796
198  0.097091 0.000000 0.000001  -0.000000 -3.141592 1.570796
199  0.000000 0.000000 0.000000  0.000000 -0.000000 -0.000000
200  -1.731067 -4.764701 1.425733  0.321316 0.505782 0.832795
201  15.659570 6.850550 -10.225975  0.321317 0.505782 0.832794
time 1
0  0 0 0  0 0 0
1  0.000000 0.000000 0.000000  0.000000 -0.000000 -0.000000
2  -0.000005 0.000023 -61.375507  0.000000 0.000000 -1.570795
3  -0.012872 0.000000 8.235020  -1.570799 -1.570796 0.000000
4  16.163128 -0.012870 -0.000002  -0.000000 -0.000000 0.000000
5  -0.000000 0.000000 -0.000005  0.985954 -0.000645 -0.000347
6  -0.000037 -0.000002 -0.000000  0.811737 0.297839 0.075129
7  -0.000004 -0.000007 0.000002  0.000000 0.000000 -0.233508
8  0.000000 0.000001 -0.000000  0.035525 -0.000000 0.000000
9  0.000001 0.000000 -0.000001  0.071001 -0.000000 -0.000000
10  -0.000004 -0.000001 -0.000000  0.106560 -0.000000 -0.000000
11  -0.000008 -0.000002 -0.000001  0.142092 -0.000000 -0.000000
12  -0.000004 -0.000001 -0.000000  0.177607 -0.000000 -0.000000
13  -0.000008 -0.000002 -0.000002  0.213117 -0.000000 -0.000000
14  -0.000007 -0.000004 -0.000001  0.248695 -0.000000 -0.000000
15  -0.000004 -0.000001 0.000002  0.290848 -0.331182 -0.049756
16  1.410072 0.800535 -2.089137  2.009774 0.630250 0.591915
17  3.954712 -0.000003 0.000008  -0.000004 -0.000001 0.166316
18  3.101567 0.000006 0.000003  0.000002 -0.000001 0.240238
19  6.164463 -0.898142 2.575020  0.090705 -0.013516 -0.151467
20  2.805846 0.000004 -0.000004  0.000002 0.000001 0.079095
21  2.307445 -0.000004 0.000001  -0.000000 -0.000000 -0.056424
22  7.145097 -0.676332 -1.382425  0.086918 -0.009133 -0.085503
23  3.672215 0.000002 -0.000001  0.000003 0.000001 0.142941
24  2.676526 -0.000000 0.000001  -0.000001 -0.000001 -0.026075
25  6.831177 -0.870855 0.599922  0.130314 -0.006347 -0.065005
26  3.657085 -0.000009 0.000000  0.000000 0.000000 0.057729
27  2.496795 0.000003 -0.000000  0.000000 0.000000 -0.091107
28  7.183353 -0.532074 -3.267608  0.123210 0.020356 -0.052484
29  3.511592 0.000005 -0.000001  -0.000001 -0.000001 0.099575
30  2.199411 0.000001 0.000004  0.000001 0.000001 0.029263
31  0.000004 -0.000000 0.000003  0.848894 -0.000556 -0.000251
32  -0.000016 -0.000001 0.000001  0.494662 0.061588 0.551423
33  0.000004 -0.000000 0.000002  0.000000 -0.000000 -0.046514
34  0.000001 -0.000000 0.000001  -0.009766 0.000000 -0.000000
35  -0.000001 -0.000003 0.000001  -0.019532 0.000000 0.000000
36  -0.000001 -0.000002 0.000002  -0.029299 0.000000 0.000000
37  0.000000 -0.000001 0.000001  -0.039066 -0.000000 0.000000
38  -0.000004 0.000001 0.000001  -0.048896 0.000000 -0.000000
39  -0.000004 0.000000 0.000001  -0.058665 -0.000000 -0.000000
40  -0.000001 -0.000003 0.000003  -0.068436 0.000000 0.000000
41  -0.000006 -0.000005 -0.000000  0.253720 -0.176901 -0.298865
42  1.410066 0.800525 2.089138  -2.009768 -0.630254 0.591907
43  3.954719 0.000011 0.000002  -0.000000 -0.000002 0.166320
44  3.101562 -0.000007 0.000002  -0.000001 -0.000000 0.240238
45  7.183346 -0.532110 3.267604  -0.123210 -0.020355 -0.052486
46  3.511603 -0.000001 -0.000001  0.000003 0.000001 0.099571
47  2.199404 0.000004 -0.000002  -0.000001 -0.000001 0.029267
48  7.145095 -0.676362 1.382421  -0.086920 0.009133 -0.085505
49  3.672220 -0.000002 0.000001  0.000001 -0.000000 0.142941
50  2.676523 -0.000004 0.000001  -0.000001 -0.000001 -0.026075
51  6.831174 -0.870879 -0.599927  -0.130311 0.006346 -0.065012
52  3.657080 -0.000002 -0.000001  -0.000000 0.000001 0.057734
53  2.496793 0.000001 0.000003  0.000000 -0.000001 -0.091108
54  6.164468 -0.898158 -2.575025  -0.090704 0.013515 -0.151468
55  2.805852 -0.000003 0.000002  -0.000002 -0.000001 0.079091
56  2.307434 0.000000 -0.000002  0.000002 0.000001 -0.056419
57  0.000000 0.000000 0.000000  0.000001 -0.000000 -0.000000
58  14.547324 4.035645 -7.772408  0.321316 0.505782 0.832795
59  0.071259 133.426575 57.557693  -0.000000 -0.000000 -0.000000
60  1.986526 0.000027 -3.123740  -2.705260 -0.000000 -1.570797
61  -1.986692 0.000025 -3.123748  0.436333 0.000001 1.570797
62  -0.000002 0.000011 -0.000005  0.000000 -0.000000 -0.000000
63  -0.456041 -0.861420 -0.013774  -0.000000 0.043584 -0.000001
64  -11.344161 1.135889 0.869282  0.000002 -0.025019 -0.026324
65  0.078993 -0.861420 -0.169308  3.140931 -0.829230 0.000292
66  -11.350046 -0.729433 0.864881  0.000197 -0.025367 0.026442
67  1.754238 4.036760 -1.682664  0.392575 -0.010120 -1.546362
68  -1.755144 4.036755 -1.682662  -0.392577 -0.010391 -1.594986
69  -0.164556 7.327703 3.928704  0.000000 0.000001 -1.570796
70  0.079083 36.742691 -0.508024  0.000001 -0.000000 -0.000000
71  -1.260174 8.777410 6.736405  -0.000002 -0.424416 -3.141592
72  1.525193 18.283598 2.968621  0.000000 -0.000000 -0.000000
73  0.060218 10.324386 74.469055  0.000008 -0.000000 -0.000000
74  0.010140 79.890701 79.559563  0.000000 -0.000000 -0.000000
75  0.000008 -0.115258 0.006870  -0.000000 0.000000 0.000000
76  -1.027581 -0.401533 0.000005  0.000000 0.000000 0.000000
77  73.981262 33.177643 0.000010  0.000000 -0.000000 -0.000000
78  8.773496 -0.193205 0.000002  0.000000 -0.000000 0.000000
79  -1.487354 0.800706 -0.721704  0.000000 0.000000 0.000000
80  1.091122 -0.214604 -0.000007  -0.000000 0.000000 0.000000
81  3.258440 5.856962 -3.403520  -0.000000 -0.000000 -0.000000
82  15.153053 5.860601 -3.403515  -0.000000 -0.000000 0.000000
83  6.064255 77.294960 36.365795  1.570796 0.000000 1.570796
84  -2.662411 1.445755 40.667961  0.000000 3.141591 1.570796
85  8.352065 2.772897 0.000544  -3.141589 0.000002 0.000000
86  6.064257 72.973694 32.593254  1.570796 0.000000 1.570796
87  0.004369 73.768425 -3.792008  0.000000 0.000000 0.000000
88  -0.442610 1.284880 8.535292  0.000000 -0.000001 0.000000
89  -0.000002 1.310205 0.000000  0.000000 -0.000000 0.000000
90  0.000002 0.582256 0.000000  0.000000 -0.000000 0.000000
91  0.036296 1.284882 7.928800  0.000000 -0.000001 0.000000
92  0.000002 1.310210 0.000000  0.000000 0.000000 0.000000
93  0.000005 0.582259 0.000000  0.000000 0.000000 0.000000
94  5.969322 3.427454 -6.170647  -0.000000 -0.000001 -1.570797
95  -1.310207 -0.000005 0.000001  0.000000 -0.000000 -0.000000
96  -0.582256 -0.000003 -0.000001  0.000000 -0.000000 -0.000000
97  5.969325 9.397401 -6.170656  -0.000000 -0.000001 -1.570796
98  -1.310213 0.000001 -0.000001  0.000000 0.000000 -0.000000
99  -0.582258 0.000005 -0.000001  0.000000 0.000000 -0.000000
100  5.969318 15.223766 -6.170667  -0.000000 -0.000001 -1.570796
101  -1.310208 -0.000001 -0.000002  -0.000000 0.000000 -0.000000
102  -0.582257 0.000000 -0.000004  -0.000000 0.000000 -0.000000
103  5.969321 20.835567 -6.170668  -0.000000 -0.000001 -1.570796
104  -1.310210 0.000005 0.000006  -0.000000 0.000000 -0.000000
105  -0.582261 0.000006 0.000005  -0.000000 0.000000 -0.000000
106  5.969321 26.771208 -6.170669  -0.000000 -0.000001 -1.570796
107  5.969320 32.597591 -6.170671  -0.000000 -0.000001 -1.570796
108  5.969325 38.209389 -6.170681  -0.000000 -0.000001 -1.570800
109  5.969327 49.488464 -6.170679  -0.000000 -0.000001 -1.570800
110  -0.539089 -0.556809 -0.017361  -0.042462 2.681156 1.551919
111  -6.799124 -0.556807 0.818552  -0.272420 2.701993 1.452460
112  -4.615280 -0.556822 0.270331  -0.117230 2.684609 1.518878
113  -2.650971 -0.556807 0.063014  -0.042463 2.681158 1.551919
114  27.110332 1.284857 12.007547  0.000000 -0.000000 0.000000
115  28.133425 1.284860 12.007548  0.000001 -0.000000 0.000000
116  12.812887 2.241786 12.007551  0.000000 -0.000001 -0.000001
117  -9.955967 -0.319623 4.380216  -0.000001 -0.000000 -0.000001
118  -11.316471 -0.319623 4.380217  -0.000003 -0.000000 -0.000000
119  -12.667810 -0.319621 4.380217  -0.000003 -0.000000 0.000001
120  -14.022141 -0.319620 4.380215  0.000010 -0.000000 -0.000011
121  -15.373241 -0.319620 4.380216  0.000015 -0.000000 -0.000015
122  -16.724142 -0.319623 4.380217  -0.000009 -0.000000 0.000006
123  -18.074570 -0.319619 4.380216  -0.000006 0.000000 0.000004
124  -19.423714 -0.319622 4.380217  0.000002 0.000000 -0.000004
125  -20.775269 -0.319619 4.380218  0.000003 0.000000 -0.000004
126  -22.126673 -0.319618 4.380218  0.000003 0.000000 -0.000004
127  -23.478127 -0.319618 4.380216  0.000005 0.000000 -0.000006
128  -24.830620 -0.319621 4.380217  0.000036 0.000000 -0.000038
129  -26.182030 -0.319618 4.380219  -0.000011 0.000000 0.000011
130  0.529179 -0.167130 0.629486  -0.101270 -0.000000 0.000000
131  -0.211448 -0.241685 0.155362  -0.145847 -0.000000 0.000000
132  0.529191 -0.280699 -0.110291  -0.145847 -0.000000 -0.000000
133  -0.173926 -0.337323 -0.638493  -0.181751 -0.000000 0.000000
134  0.529187 -0.399247 -0.975391  -0.181751 -0.000000 0.000000
135  -0.211445 -0.464478 -1.431040  -0.192399 -0.000000 0.000000
136  0.529190 -0.515806 -1.694579  -0.192399 -0.000000 0.000000
137  -0.173927 -0.612153 -2.231907  -0.216703 -0.000000 0.000000
138  0.529190 -0.685807 -2.566437  -0.216703 -0.000000 -0.000000
139  -0.211448 -0.769559 -3.027869  -0.237349 -0.000000 0.000000
140  0.529186 -0.832685 -3.288846  -0.237349 -0.000000 -0.000000
141  -0.173941 -0.945279 -3.779563  -0.233859 0.000000 0.000000
142  0.529179 -1.024659 -4.112777  -0.233859 0.000000 0.000000
143  -0.211442 -1.132183 -4.577545  -0.262919 -0.000000 0.000000
144  0.529190 -1.201966 -4.836823  -0.262919 0.000000 0.000000
145  -0.000006 -2.810942 -10.636628  0.258454 0.000000 3.141592
146  -0.192456 -1.345775 -5.370044  -0.280373 0.000000 0.000000
147  0.533985 -1.413512 -5.605102  -0.276883 0.000000 0.000000
148  -0.206618 -1.795760 -6.909776  -0.287354 0.000000 0.000000
149  -0.205804 -1.564813 -6.138255  -0.290843 0.000000 0.000000
150  0.530460 -1.643675 -6.395212  -0.290844 0.000000 0.000000
151  0.535310 -1.790709 -7.204132  -0.287354 -0.000000 0.000000
152  -0.202702 -2.030484 -7.702826  -0.286180 -0.000000 0.000000
153  0.509549 -2.118896 -8.011621  -0.298398 -0.000000 0.000000
154  -0.202704 -2.255280 -8.465168  -0.283134 -0.000000 0.000000
155  0.509548 -2.352979 -8.771157  -0.295352 -0.000000 0.000000
156  -0.202708 -2.481593 -9.235469  -0.285437 -0.000000 0.000000
157  0.509544 -2.588683 -9.538636  -0.297653 -0.000000 0.000000
158  0.170122 -21.222088 -1.001140  -0.000001 -0.000001 0.000000
159  0.170122 -20.843864 -0.397181  -0.000001 -0.000001 0.000000
160  0.170122 -20.489742 -1.001139  -0.000001 -0.000001 0.000000
161  0.170123 -20.111067 -0.397181  -0.000001 -0.000001 0.000000
162  0.170121 -19.380089 -0.397187  -0.000001 -0.000001 0.000000
163  0.170123 -19.025106 -1.001143  -0.000001 -0.000001 0.000000
164  0.170121 -18.646656 -0.396446  -0.000001 -0.000001 0.000000
165  0.170123 -19.755760 -1.001141  -0.000001 -0.000001 0.000000
166  -0.015972 10.612516 2.686018  0.000001 -0.000000 -0.000000
167  0.059853 -50.160706 6.449383  1.570797 -0.000000 -1.570797
168  0.064654 27.351292 72.195206  -0.000000 -0.000000 -0.000001
169  6.064260 95.114014 31.645502  -0.000000 -0.000001 1.570796
170  0.054185 102.845642 29.795364  0.000000 0.000001 -1.570796
171  6.064262 69.096565 37.164318  1.570796 0.000000 1.570796
172  1.974302 11.989232 4.589251  0.000000 -0.000000 -0.000000
173  -0.011482 23.944746 5.090361  0.000001 0.000000 0.000000
174  -1.691252 8.833342 5.763506  0.000001 -0.000000 -0.000000
175  6.064260 89.329803 31.613918  -0.000000 -0.000001 1.570796
176  0.059885 2.255337 54.398014  -0.000000 -0.000000 -0.000000
177  0.003494 -22.270645 0.000148  1.570797 -0.000000 -1.570797
178  0.104010 15.380370 2.266152  0.000001 -0.000000 -0.000000
179  4.504586 -0.449496 -17.618830  2.064741 -0.116498 -2.067531
180  -3.255360 24.458078 -23.114338  0.181523 0.048807 -1.277059
181  -2.662413 1.445757 33.628742  0.000000 3.141591 1.570796
182  8.352065 2.772897 0.000543  -3.141589 0.000002 0.000000
183  -2.662411 1.445755 40.667961  0.000000 3.141591 1.570796
184  8.352065 2.772897 0.000544  -3.141589 0.000002 0.000000
185  -1.431356 16.384779 4.137811  0.000001 -0.000000 0.000000
186  -0.001845 0.521682 -0.140289  0.000000 -0.000000 -0.000000
187  7.323109 -5.136193 -5.166236  0.000000 0.000000 -0.610865
188  2.698277 -0.000001 -0.000002  -0.000012 0.000000 0.000000
189  2.834160 -0.000002 -0.000002  0.000013 0.000000 -0.000000
190  2.648921 -0.000000 -0.000001  -0.000001 -0.000001 0.000000
191  2.667496 -0.000002 0.000000  0.000000 -0.000000 0.000000
192  2.426704 -0.000002 -0.000000  -0.000000 -0.000000 -0.000000
193  -0.494743 -44.353451 -1.302299  1.570797 -0.000000 -1.570797
194  11.545938 73.768425 -3.792012  0.000000 -0.000000 -0.000000
195  -0.066953 -10.025106 -0.912533  -0.000000 -0.000000 -0.000000
196  -0.000001 -0.000001 -1.529051  -0.000000 -0.000000 -0.000000
197  -0.078944 0.000000 0.000001  0.000000 0.000001 1.570796
198  0.097091 0.000000 0.000001  -0.000000 -3.141592 1.570796
199  0.000000 0.000000 0.000000  0.000000 -0.000000 -0.000000
200  -1.731067 -4.764701 1.425733  0.321316 0.505782 0.832795
201  15.659570 6.850550 -10.225975  0.321317 0.505782 0.832794
time 2
0  0 0 0  0 0 0
1  0.000000 0.000000 0.000000  0.000000 -0.000000 -0.000000
2  -0.000005 0.000023 -61.375507  0.000000 0.000000 -1.570795
3  -0.012872 0.000000 8.235020  -1.570799 -1.570796 0.000000
4  16.163128 -0.012870 -0.000002  -0.000000 -0.000000 0.000000
5  -0.000000 0.000000 -0.000005  0.985954 -0.000645 -0.000347
6  -0.000037 -0.000002 -0.000000  0.811737 0.297839 0.075129
7  -0.000004 -0.000007 0.000002  0.000000 0.000000 -0.233508
8  0.000000 0.000001 -0.000000  0.035525 -0.000000 0.000000
9  0.000001 0.000000 -0.000001  0.071001 -0.000000 -0.000000
10  -0.000004 -0.000001 -0.000000  0.106560 -0.000000 -0.000000
11  -0.000008 -0.000002 -0.000001  0.142092 -0.000000 -0.000000
12  -0.000004 -0.000001 -0.000000  0.177607 -0.000000 -0.000000
13  -0.000008 -0.000002 -0.000002  0.213117 -0.000000 -0.000000
14  -0.000007 -0.000004 -0.000001  0.248695 -0.000000 -0.000000
15  -0.000004 -0.000001 0.000002  0.290848 -0.331182 -0.049756
16  1.410072 0.800535 -2.089137  2.009774 0.630250 0.591915
17  3.954712 -0.000003 0.000008  -0.000004 -0.000001 0.166316
18  3.101567 0.000006 0.000003  0.000002 -0.000001 0.240238
19  6.164463 -0.898142 2.575020  0.090705 -0.013516 -0.151467
20  2.805846 0.000004 -0.000004  0.000002 0.000001 0.079095
21  2.307445 -0.000004 0.000001  -0.000000 -0.000000 -0.056424
22  7.145097 -0.676332 -1.382425  0.086918 -0.009133 -0.085503
23  3.672215 0.000002 -0.000001  0.000003 0.000001 0.142941
24  2.676526 -0.000000 0.000001  -0.000001 -0.000001 -0.026075
25  6.831177 -0.870855 0.599922  0.130314 -0.006347 -0.065005
26  3.657085 -0.000009 0.000000  0.000000 0.000000 0.057729
27  2.496795 0.000003 -0.000000  0.000000 0.000000 -0.091107
28  7.183353 -0.532074 -3.267608  0.123210 0.020356 -0.052484
29  3.511592 0.000005 -0.000001  -0.000001 -0.000001 0.099575
30  2.199411 0.000001 0.000004  0.000001 0.000001 0.029263
31  0.000004 -0.000000 0.000003  0.848894 -0.000556 -0.000251
32  -0.000016 -0.000001 0.000001  0.494662 0.061588 0.551423
33  0.000004 -0.000000 0.000002  0.000000 -0.000000 -0.046514
34  0.000001 -0.000000 0.000001  -0.009766 0.000000 -0.000000
35  -0.000001 -0.000003 0.000001  -0.019532 0.000000 0.000000
36  -0.000001 -0.000002 0.000002  -0.029299 0.000000 0.000000
37  0.000000 -0.000001 0.000001  -0.039066 -0.000000 0.000000
38  -0.000004 0.000001 0.000001  -0.048896 0.000000 -0.000000
39  -0.000004 0.000000 0.000001  -0.058665 -0.000000 -0.000000
40  -0.000001 -0.000003 0.000003  -0.068436 0.000000 0.000000
41  -0.000006 -0.000005 -0.000000  0.253720 -0.176901 -0.298865
42  1.410066 0.800525 2.089138  -2.009768 -0.630254 0.591907
43  3.954719 0.000011 0.000002  -0.000000 -0.000002 0.166320
44  3.101562 -0.000007 0.000002  -0.000001 -0.000000 0.240238
45  7.183346 -0.532110 3.267604  -0.123210 -0.020355 -0.052486
46  3.511603 -0.000001 -0.000001  0.000003 0.000001 0.099571
47  2.199404 0.000004 -0.000002  -0.000001 -0.000001 0.029267
48  7.145095 -0.676362 1.382421  -0.086920 0.009133 -0.085505
49  3.672220 -0.000002 0.000001  0.000001 -0.000000 0.142941
50  2.676523 -0.000004 0.000001  -0.000001 -0.000001 -0.026075
51  6.831174 -0.870879 -0.599927  -0.130311 0.006346 -0.065012
52  3.657080 -0.000002 -0.000001  -0.000000 0.000001 0.057734
53  2.496793 0.000001 0.000003  0.000000 -0.000001 -0.091108
54  6.164468 -0.898158 -2.575025  -0.090704 0.013515 -0.151468
55  2.805852 -0.000003 0.000002  -0.000002 -0.000001 0.079091
56  2.307434 0.000000 -0.000002  0.000002 0.000001 -0.056419
57  0.000000 0.000000 0.000000  0.000001 -0.000000 -0.000000
58  14.547324 4.035645 -7.772408  0.321316 0.505782 0.832795
59  0.071259 133.426575 57.557693  -0.000000 -0.000000 -0.000000
60  1.986526 0.000027 -3.123740  -2.705260 -0.000000 -1.570797
61  -1.986692 0.000025 -3.123748  0.436333 0.000001 1.570797
62  -0.000002 0.000011 -0.000005  0.000000 -0.000000 -0.000000
63  -0.456041 -0.861420 -0.013774  -0.000000 0.043584 -0.000001
64  -11.344161 1.135889 0.869282  0.000002 -0.025019 -0.026324
65  0.078993 -0.861420 -0.169308  3.140931 -0.829230 0.000292
66  -11.350046 -0.729433 0.864881  0.000197 -0.025367 0.026442
67  1.754238 4.036760 -1.682664  0.392575 -0.010120 -1.546362
68  -1.755144 4.036755 -1.682662  -0.392577 -0.010391 -1.594986
69  -0.164556 7.327703 3.928704  0.000000 0.000001 -1.570796
70  0.079083 36.742691 -0.508024  0.000001 -0.000000 -0.000000
71  -1.260174 8.777410 6.736405  -0.000002 -0.424416 -3.141592
72  1.525193 18.283598 2.968621  0.000000 -0.000000 -0.000000
73  0.060218 10.324386 74.469055  0.000008 -0.000000 -0.000000
74  0.010140 79.890701 79.559563  0.000000 -0.000000 -0.000000
75  0.000008 -0.115258 0.006870  -0.000000 0.000000 0.000000
76  -1.027581 -0.401533 0.000005  0.000000 0.000000 0.000000
77  73.981262 33.177643 0.000010  0.000000 -0.000000 -0.000000
78  8.773496 -0.193205 0.000002  0.000000 -0.000000 0.000000
79  -1.487354 0.800706 -0.721704  0.000000 0.000000 0.000000
80  1.091122 -0.214604 -0.000007  -0.000000 0.000000 0.000000
81  3.258440 5.856962 -3.403520  -0.000000 -0.000000 -0.000000
82  15.153053 5.860601 -3.403515  -0.000000 -0.000000 0.000000
83  6.064255 77.294960 36.365795  1.570796 0.000000 1.570796
84  -2.662411 1.445755 40.667961  0.000000 3.141591 1.570796
85  8.352065 2.772897 0.000544  -3.141589 0.000002 0.000000
86  6.064257 72.973694 32.593254  1.570796 0.000000 1.570796
87  0.004369 73.768425 -3.792008  0.000000 0.000000 0.000000
88  -0.442610 1.284880 8.535292  0.000000 -0.000001 0.000000
89  -0.000002 1.310205 0.000000  0.000000 -0.000000 0.000000
90  0.000002 0.582256 0.000000  0.000000 -0.000000 0.000000
91  0.036296 1.284882 7.928800  0.000000 -0.000001 0.000000
92  0.000002 1.310210 0.000000  0.000000 0.000000 0.000000
93  0.000005 0.582259 0.000000  0.000000 0.000000 0.000000
94  5.969322 3.427454 -6.170647  -0.000000 -0.000001 -1.570797
95  -1.310207 -0.000005 0.000001  0.000000 -0.000000 -0.000000
96  -0.582256 -0.000003 -0.000001  0.000000 -0.000000 -0.000000
97  5.969325 9.397401 -6.170656  -0.000000 -0.000001 -1.570796
98  -1.310213 0.000001 -0.000001  0.000000 0.000000 -0.000000
99  -0.582258 0.000005 -0.000001  0.000000 0.000000 -0.000000
100  5.969318 15.223766 -6.170667  -0.000000 -0.000001 -1.570796
101  -1.310208 -0.000001 -0.000002  -0.000000 0.000000 -0.000000
102  -0.582257 0.000000 -0.000004  -0.000000 0.000000 -0.000000
103  5.969321 20.835567 -6.170668  -0.000000 -0.000001 -1.570796
104  -1.310210 0.000005 0.000006  -0.000000 0.000000 -0.000000
105  -0.582261 0.000006 0.000005  -0.000000 0.000000 -0.000000
106  5.969321 26.771208 -6.170669  -0.000000 -0.000001 -1.570796
107  5.969320 32.597591 -6.170671  -0.000000 -0.000001 -1.570796
108  5.969325 38.209389 -6.170681  -0.000000 -0.000001 -1.570800
109  5.969327 49.488464 -6.170679  -0.000000 -0.000001 -1.570800
110  -0.539089 -0.556809 -0.017361  -0.042462 2.681156 1.551919
111  -6.799124 -0.556807 0.818552  -0.272420 2.701993 1.452460
112  -4.615280 -0.556822 0.270331  -0.117230 2.684609 1.518878
113  -2.650971 -0.556807 0.063014  -0.042463 2.681158 1.551919
114  27.110332 1.284857 12.007547  0.000000 -0.000000 0.000000
115  28.133425 1.284860 12.007548  0.000001 -0.000000 0.000000
116  12.812887 2.241786 12.007551  0.000000 -0.000001 -0.000001
117  -9.955967 -0.319623 4.380216  -0.000001 -0.000000 -0.000001
118  -11.316471 -0.319623 4.380217  -0.000003 -0.000000 -0.000000
119  -12.667810 -0.319621 4.380217  -0.000003 -0.000000 0.000001
120  -14.022141 -0.319620 4.380215  0.000010 -0.000000 -0.000011
121  -15.373241 -0.319620 4.380216  0.000015 -0.000000 -0.000015
122  -16.724142 -0.319623 4.380217  -0.000009 -0.000000 0.000006
123  -18.074570 -0.319619 4.380216  -0.000006 0.000000 0.000004
124  -19.423714 -0.319622 4.380217  0.000002 0.000000 -0.000004
125  -20.775269 -0.319619 4.380218  0.000003 0.000000 -0.000004
126  -22.126673 -0.319618 4.380218  0.000003 0.000000 -0.000004
127  -23.478127 -0.319618 4.380216  0.000005 0.000000 -0.000006
128  -24.830620 -0.319621 4.380217  0.000036 0.000000 -0.000038
129  -26.182030 -0.319618 4.380219  -0.000011 0.000000 0.000011
130  0.529179 -0.167130 0.629486  -0.101270 -0.000000 0.000000
131  -0.211448 -0.241685 0.155362  -0.145847 -0.000000 0.000000
132  0.529191 -0.280699 -0.110291  -0.145847 -0.000000 -0.000000
133  -0.173926 -0.337323 -0.638493  -0.181751 -0.000000 0.000000
134  0.529187 -0.399247 -0.975391  -0.181751 -0.000000 0.000000
135  -0.211445 -0.464478 -1.431040  -0.192399 -0.000000 0.000000
136  0.529190 -0.515806 -1.694579  -0.192399 -0.000000 0.000000
137  -0.173927 -0.612153 -2.231907  -0.216703 -0.000000 0.000000
138  0.529190 -0.685807 -2.566437  -0.216703 -0.000000 -0.000000
139  -0.211448 -0.769559 -3.027869  -0.237349 -0.000000 0.000000
140  0.529186 -0.832685 -3.288846  -0.237349 -0.000000 -0.000000
141  -0.173941 -0.945279 -3.779563  -0.233859 0.000000 0.000000
142  0.529179 -1.024659 -4.112777  -0.233859 0.000000 0.000000
143  -0.211442 -1.132183 -4.577545  -0.262919 -0.000000 0.000000
144  0.529190 -1.201966 -4.836823  -0.262919 0.000000 0.000000
145  -0.000006 -2.810942 -10.636628  0.258454 0.000000 3.141592
146  -0.192456 -1.345775 -5.370044  -0.280373 0.000000 0.000000
147  0.533985 -1.413512 -5.605102  -0.276883 0.000000 0.000000
148  -0.206618 -1.795760 -6.909776  -0.287354 0.000000 0.000000
149  -0.205804 -1.564813 -6.138255  -0.290843 0.000000 0.000000
150  0.530460 -1.643675 -6.395212  -0.290844 0.000000 0.000000
151  0.535310 -1.790709 -7.204132  -0.287354 -0.000000 0.000000
152  -0.202702 -2.030484 -7.702826  -0.286180 -0.000000 0.000000
153  0.509549 -2.118896 -8.011621  -0.298398 -0.000000 0.000000
154  -0.202704 -2.255280 -8.465168  -0.283134 -0.000000 0.000000
155  0.509548 -2.352979 -8.771157  -0.295352 -0.000000 0.000000
156  -0.202708 -2.481593 -9.235469  -0.285437 -0.000000 0.000000
157  0.509544 -2.588683 -9.538636  -0.297653 -0.000000 0.000000
158  0.170122 -21.222088 -1.001140  -0.000001 -0.000001 0.000000
159  0.170122 -20.843864 -0.397181  -0.000001 -0.000001 0.000000
160  0.170122 -20.489742 -1.001139  -0.000001 -0.000001 0.000000
161  0.170123 -20.111067 -0.397181  -0.000001 -0.000001 0.000000
162  0.170121 -19.380089 -0.397187  -0.000001 -0.000001 0.000000
163  0.170123 -19.025106 -1.001143  -0.000001 -0.000001 0.000000
164  0.170121 -18.646656 -0.396446  -0.000001 -0.000001 0.000000
165  0.170123 -19.755760 -1.001141  -0.000001 -0.000001 0.000000
166  -0.015972 10.612516 2.686018  0.000001 -0.000000 -0.000000
167  0.059853 -50.160706 6.449383  1.570797 -0.000000 -1.570797
168  0.064654 27.351292 72.195206  -0.000000 -0.000000 -0.000001
169  6.064260 95.114014 31.645502  -0.000000 -0.000001 1.570796
170  0.054185 102.845642 29.795364  0.000000 0.000001 -1.570796
171  6.064262 69.096565 37.164318  1.570796 0.000000 1.570796
172  1.974302 11.989232 4.589251  0.000000 -0.000000 -0.000000
173  -0.011482 23.944746 5.090361  0.000001 0.000000 0.000000
174  -1.691252 8.833342 5.763506  0.000001 -0.000000 -0.000000
175  6.064260 89.329803 31.613918  -0.000000 -0.000001 1.570796
176  0.059885 2.255337 54.398014  -0.000000 -0.000000 -0.000000
177  0.003494 -22.270645 0.000148  1.570797 -0.000000 -1.570797
178  0.104010 15.380370 2.266152  0.000001 -0.000000 -0.000000
179  4.504586 -0.449496 -17.618830  2.064741 -0.116498 -2.067531
180  -3.255360 24.458078 -23.114338  0.181523 0.048807 -1.277059
181  -2.662413 1.445757 33.628742  0.000000 3.141591 1.570796
182  8.352065 2.772897 0.000543  -3.141589 0.000002 0.000000
183  -2.662411 1.445755 40.667961  0.000000 3.141591 1.570796
184  8.352065 2.772897 0.000544  -3.141589 0.000002 0.000000
185  -1.431356 16.384779 4.137811  0.000001 -0.000000 0.000000
186  -0.001845 0.521682 -0.140289  0.000000 -0.000000 -0.000000
187  7.323109 -5.136193 -5.166236  0.000000 0.000000 -0.610865
188  2.698277 -0.000001 -0.000002  -0.000012 0.000000 0.000000
189  2.834160 -0.000002 -0.000002  0.000013 0.000000 -0.000000
190  2.648921 -0.000000 -0.000001  -0.000001 -0.000001 0.000000
191  2.667496 -0.000002 0.000000  0.000000 -0.000000 0.000000
192  2.426704 -0.000002 -0.000000  -0.000000 -0.000000 -0.000000
193  -0.494743 -44.353451 -1.302299  1.570797 -0.000000 -1.570797
194  11.545938 73.768425 -3.792012  0.000000 -0.000000 -0.000000
195  -0.066953 -10.025106 -0.912533  -0.000000 -0.000000 -0.000000
196  -0.000001 -0.000001 -1.529051  -0.000000 -0.000000 -0.000000
197  -0.078944 0.000000 0.000001  0.000000 0.000001 1.570796
198  0.097091 0.000000 0.000001  -0.000000 -3.141592 1.570796
199  0.000000 0.000000 0.000000  0.000000 -0.000000 -0.000000
200  -1.731067 -4.764701 1.425733  0.321316 0.505782 0.832795
201  15.659570 6.850550 -10.225975  0.321317 0.505782 0.832794
time 3
0  0 0 0  0 0 0
1  0.000000 0.000000 0.000000  0.000000 -0.000000 -0.000000
2  -0.000005 0.000023 -61.375507  0.000000 0.000000 -1.570795
3  -0.012872 0.000000 8.235020  -1.570799 -1.570796 0.000000
4  16.163128 -0.012870 -0.000002  -0.000000 -0.000000 0.000000
5  -0.000000 0.000000 -0.000005  0.985954 -0.000645 -0.000347
6  -0.000037 -0.000002 -0.000000  0.811737 0.297839 0.075129
7  -0.000004 -0.000007 0.000002  0.000000 0.000000 -0.233508
8  0.000000 0.000001 -0.000000  0.035525 -0.000000 0.000000
9  0.000001 0.000000 -0.000001  0.071001 -0.000000 -0.000000
10  -0.000004 -0.000001 -0.000000  0.106560 -0.000000 -0.000000
11  -0.000008 -0.000002 -0.000001  0.142092 -0.000000 -0.000000
12  -0.000004 -0.000001 -0.000000  0.177607 -0.000000 -0.000000
13  -0.000008 -0.000002 -0.000002  0.213117 -0.000000 -0.000000
14  -0.000007 -0.000004 -0.000001  0.248695 -0.000000 -0.000000
15  -0.000004 -0.000001 0.000002  0.290848 -0.331182 -0.049756
16  1.410072 0.800535 -2.089137  2.009774 0.630250 0.591915
17  3.954712 -0.000003 0.000008  -0.000004 -0.000001 0.166316
18  3.101567 0.000006 0.000003  0.000002 -0.000001 0.240238
19  6.164463 -0.898142 2.575020  0.090705 -0.013516 -0.151467
20  2.805846 0.000004 -0.000004  0.000002 0.000001 0.079095
21  2.307445 -0.000004 0.000001  -0.000000 -0.000000 -0.056424
22  7.145097 -0.676332 -1.382425  0.086918 -0.009133 -0.085503
23  3.672215 0.000002 -0.000001  0.000003 0.000001 0.142941
24  2.676526 -0.000000 0.000001  -0.000001 -0.000001 -0.026075
25  6.831177 -0.870855 0.599922  0.130314 -0.006347 -0.065005
26  3.657085 -0.000009 0.000000  0.000000 0.000000 0.057729
27  2.496795 0.000003 -0.000000  0.000000 0.000000 -0.091107
28  7.183353 -0.532074 -3.267608  0.123210 0.020356 -0.052484
29  3.511592 0.000005 -0.000001  -0.000001 -0.000001 0.099575
30  2.199411 0.000001 0.000004  0.000001 0.000001 0.029263
31  0.000004 -0.000000 0.000003  0.848894 -0.000556 -0.000251
32  -0.000016 -0.000001 0.000001  0.494662 0.061588 0.551423
33  0.000004 -0.000000 0.000002  0.000000 -0.000000 -0.046514
34  0.000001 -0.000000 0.000001  -0.009766 0.000000 -0.000000
35  -0.000001 -0.000003 0.000001  -0.019532 0.000000 0.000000
36  -0.000001 -0.000002 0.000002  -0.029299 0.000000 0.000000
37  0.000000 -0.000001 0.000001  -0.039066 -0.000000 0.000000
38  -0.000004 0.000001 0.000001  -0.048896 0.000000 -0.000000
39  -0.000004 0.000000 0.000001  -0.058665 -0.000000 -0.000000
40  -0.000001 -0.000003 0.000003  -0.068436 0.000000 0.000000
41  -0.000006 -0.000005 -0.000000  0.253720 -0.176901 -0.298865
42  1.410066 0.800525 2.089138  -2.009768 -0.630254 0.591907
43  3.954719 0.000011 0.000002  -0.000000 -0.000002 0.166320
44  3.101562 -0.000007 0.000002  -0.000001 -0.000000 0.240238
45  7.183346 -0.532110 3.267604  -0.123210 -0.020355 -0.052486
46  3.511603 -0.000001 -0.000001  0.000003 0.000001 0.099571
47  2.199404 0.000004 -0.000002  -0.000001 -0.000001 0.029267
48  7.145095 -0.676362 1.382421  -0.086920 0.009133 -0.085505
49  3.672220 -0.000002 0.000001  0.000001 -0.000000 0.142941
50  2.676523 -0.000004 0.000001  -0.000001 -0.000001 -0.026075
51  6.831174 -0.870879 -0.599927  -0.130311 0.006346 -0.065012
52  3.657080 -0.000002 -0.000001  -0.000000 0.000001 0.057734
53  2.496793 0.000001 0.000003  0.000000 -0.000001 -0.091108
54  6.164468 -0.898158 -2.575025  -0.090704 0.013515 -0.151468
55  2.805852 -0.000003 0.000002  -0.000002 -0.000001 0.079091
56  2.307434 0.000000 -0.000002  0.000002 0.000001 -0.056419
57  0.000000 0.000000 0.000000  0.000001 -0.000000 -0.000000
58  14.547324 4.035645 -7.772408  0.321316 0.505782 0.832795
59  0.071259 133.426575 57.557693  -0.000000 -0.000000 -0.000000
60  1.986526 0.000027 -3.123740  -2.705260 -0.000000 -1.570797
61  -1.986692 0.000025 -3.123748  0.436333 0.000001 1.570797
62  -0.000002 0.000011 -0.000005  0.000000 -0.000000 -0.000000
63  -0.456041 -0.861420 -0.013774  -0.000000 0.043584 -0.000001
64  -11.344161 1.135889 0.869282  0.000002 -0.025019 -0.026324
65  0.078993 -0.861420 -0.169308  3.140931 -0.829230 0.000292
66  -11.350046 -0.729433 0.864881  0.000197 -0.025367 0.026442
67  1.754238 4.036760 -1.682664  0.392575 -0.010120 -1.546362
68  -1.755144 4.036755 -1.682662  -0.392577 -0.010391 -1.594986
69  -0.164556 7.327703 3.928704  0.000000 0.000001 -1.570796
70  0.079083 36.742691 -0.508024  0.000001 -0.000000 -0.000000
71  -1.260174 8.777410 6.736405  -0.000002 -0.424416 -3.141592
72  1.525193 18.283598 2.968621  0.000000 -0.000000 -0.000000
73  0.060218 10.324386 74.469055  0.000008 -0.000000 -0.000000
74  0.010140 79.890701 79.559563  0.000000 -0.000000 -0.000000
75  0.000008 -0.115258 0.006870  -0.000000 0.000000 0.000000
76  -1.027581 -0.401533 0.000005  0.000000 0.000000 0.000000
77  73.981262 33.177643 0.000010  0.000000 -0.000000 -0.000000
78  8.773496 -0.193205 0.000002  0.000000 -0.000000 0.000000
79  -1.487354 0.800706 -0.721704  0.000000 0.000000 0.000000
80  1.091122 -0.214604 -0.000007  -0.000000 0.000000 0.000000
81  3.258440 5.856962 -3.403520  -0.000000 -0.000000 -0.000000
82  15.153053 5.860601 -3.403515  -0.000000 -0.000000 0.000000
83  6.064255 77.294960 36.365795  1.570796 0.000000 1.570796
84  -2.662411 1.445755 40.667961  0.000000 3.141591 1.570796
85  8.352065 2.772897 0.000544  -3.141589 0.000002 0.000000
86  6.064257 72.973694 32.593254  1.570796 0.000000 1.570796
87  0.004369 73.768425 -3.792008  0.000000 0.000000 0.000000
88  -0.442610 1.284880 8.535292  0.000000 -0.000001 0.000000
89  -0.000002 1.310205 0.000000  0.000000 -0.000000 0.000000
90  0.000002 0.582256 0.000000  0.000000 -0.000000 0.000000
91  0.036296 1.284882 7.928800  0.000000 -0.000001 0.000000
92  0.000002 1.310210 0.000000  0.000000 0.000000 0.000000
93  0.000005 0.582259 0.000000  0.000000 0.000000 0.000000
94  5.969322 3.427454 -6.170647  -0.000000 -0.000001 -1.570797
95  -1.310207 -0.000005 0.000001  0.000000 -0.000000 -0.000000
96  -0.582256 -0.000003 -0.000001  0.000000 -0.000000 -0.000000
97  5.969325 9.397401 -6.170656  -0.000000 -0.000001 -1.570796
98  -1.310213 0.000001 -0.000001  0.000000 0.000000 -0.000000
99  -0.582258 0.000005 -0.000001  0.000000 0.000000 -0.000000
100  5.969318 15.223766 -6.170667  -0.000000 -0.000001 -1.570796
101  -1.310208 -0.000001 -0.000002  -0.000000 0.000000 -0.000000
102  -0.582257 0.000000 -0.000004  -0.000000 0.000000 -0.000000
103  5.969321 20.835567 -6.170668  -0.000000 -0.000001 -1.570796
104  -1.310210 0.000005 0.000006  -0.000000 0.000000 -0.000000
105  -0.582261 0.000006 0.000005  -0.000000 0.000000 -0.000000
106  5.969321 26.771208 -6.170669  -0.000000 -0.000001 -1.570796
107  5.969320 32.597591 -6.170671  -0.000000 -0.000001 -1.570796
108  5.969325 38.209389 -6.170681  -0.000000 -0.000001 -1.570800
109  5.969327 49.488464 -6.170679  -0.000000 -0.000001 -1.570800
110  -0.539089 -0.556809 -0.017361  -0.042462 2.681156 1.551919
111  -6.799124 -0.556807 0.818552  -0.272420 2.701993 1.452460
112  -4.615280 -0.556822 0.270331  -0.117230 2.684609 1.518878
113  -2.650971 -0.556807 0.063014  -0.042463 2.681158 1.551919
114  27.110332 1.284857 12.007547  0.000000 -0.000000 0.000000
115  28.133425 1.284860 12.007548  0.000001 -0.000000 0.000000
116  12.812887 2.241786 12.007551  0.000000 -0.000001 -0.000001
117  -9.955967 -0.319623 4.380216  -0.000001 -0.000000 -0.000001
118  -11.316471 -0.319623 4.380217  -0.000003 -0.000000 -0.000000
119  -12.667810 -0.319621 4.380217  -0.000003 -0.000000 0.000001
120  -14.022141 -0.319620 4.380215  0.000010 -0.000000 -0.000011
121  -15.373241 -0.319620 4.380216  0.000015 -0.000000 -0.000015
122  -16.724142 -0.319623 4.380217  -0.000009 -0.000000 0.000006
123  -18.074570 -0.319619 4.380216  -0.000006 0.000000 0.000004
124  -19.423714 -0.319622 4.380217  0.000002 0.000000 -0.000004
125  -20.775269 -0.319619 4.380218  0.000003 0.000000 -0.000004
126  -22.126673 -0.319618 4.380218  0.000003 0.000000 -0.000004
127  -23.478127 -0.319618 4.380216  0.000005 0.000000 -0.000006
128  -24.830620 -0.319621 4.380217  0.000036 0.000000 -0.000038
129  -26.182030 -0.319618 4.380219  -0.000011 0.000000 0.000011
130  0.529179 -0.167130 0.629486  -0.101270 -0.000000 0.000000
131  -0.211448 -0.241685 0.155362  -0.145847 -0.000000 0.000000
132  0.529191 -0.280699 -0.110291  -0.145847 -0.000000 -0.000000
133  -0.173926 -0.337323 -0.638493  -0.181751 -0.000000 0.000000
134  0.529187 -0.399247 -0.975391  -0.181751 -0.000000 0.000000
135  -0.211445 -0.464478 -1.431040  -0.192399 -0.000000 0.000000
136  0.529190 -0.515806 -1.694579  -0.192399 -0.000000 0.000000
137  -0.173927 -0.612153 -2.231907  -0.216703 -0.000000 0.000000
138  0.529190 -0.685807 -2.566437  -0.216703 -0.000000 -0.000000
139  -0.211448 -0.769559 -3.027869  -0.237349 -0.000000 0.000000
140  0.529186 -0.832685 -3.288846  -0.237349 -0.000000 -0.000000
141  -0.173941 -0.945279 -3.779563  -0.233859 0.000000 0.000000
142  0.529179 -1.024659 -4.112777  -0.233859 0.000000 0.000000
143  -0.211442 -1.132183 -4.577545  -0.262919 -0.000000 0.000000
144  0.529190 -1.201966 -4.836823  -0.262919 0.000000 0.000000
145  -0.000006 -2.810942 -10.636628  0.258454 0.000000 3.141592
146  -0.192456 -1.345775 -5.370044  -0.280373 0.000000 0.000000
147  0.533985 -1.413512 -5.605102  -0.276883 0.000000 0.000000
148  -0.206618 -1.795760 -6.909776  -0.287354 0.000000 0.000000
149  -0.205804 -1.564813 -6.138255  -0.290843 0.000000 0.000000
150  0.530460 -1.643675 -6.395212  -0.290844 0.000000 0.000000
151  0.535310 -1.790709 -7.204132  -0.287354 -0.000000 0.000000
152  -0.202702 -2.030484 -7.702826  -0.286180 -0.000000 0.000000
153  0.509549 -2.118896 -8.011621  -0.298398 -0.000000 0.000000
154  -0.202704 -2.255280 -8.465168  -0.283134 -0.000000 0.000000
155  0.509548 -2.352979 -8.771157  -0.295352 -0.000000 0.000000
156  -0.202708 -2.481593 -9.235469  -0.285437 -0.000000 0.000000
157  0.509544 -2.588683 -9.538636  -0.297653 -0.000000 0.000000
158  0.170122 -21.222088 -1.001140  -0.000001 -0.000001 0.000000
159  0.170122 -20.843864 -0.397181  -0.000001 -0.000001 0.000000
160  0.170122 -20.489742 -1.001139  -0.000001 -0.000001 0.000000
161  0.170123 -20.111067 -0.397181  -0.000001 -0.000001 0.000000
162  0.170121 -19.380089 -0.397187  -0.000001 -0.000001 0.000000
163  0.170123 -19.025106 -1.001143  -0.000001 -0.000001 0.000000
164  0.170121 -18.646656 -0.396446  -0.000001 -0.000001 0.000000
165  0.170123 -19.755760 -1.001141  -0.000001 -0.000001 0.000000
166  -0.015972 10.612516 2.686018  0.000001 -0.000000 -0.000000
167  0.059853 -50.160706 6.449383  1.570797 -0.000000 -1.570797
168  0.064654 27.351292 72.195206  -0.000000 -0.000000 -0.000001
169  6.064260 95.114014 31.645502  -0.000000 -0.000001 1.570796
170  0.054185 102.845642 29.795364  0.000000 0.000001 -1.570796
171  6.064262 69.096565 37.164318  1.570796 0.000000 1.570796
172  1.974302 11.989232 4.589251  0.000000 -0.000000 -0.000000
173  -0.011482 23.944746 5.090361  0.000001 0.000000 0.000000
174  -1.691252 8.833342 5.763506  0.000001 -0.000000 -0.000000
175  6.064260 89.329803 31.613918  -0.000000 -0.000001 1.570796
176  0.059885 2.255337 54.398014  -0.000000 -0.000000 -0.000000
177  0.003494 -22.270645 0.000148  1.570797 -0.000000 -1.570797
178  0.104010 15.380370 2.266152  0.000001 -0.000000 -0.000000
179  4.504586 -0.449496 -17.618830  2.064741 -0.116498 -2.067531
180  -3.255360 24.458078 -23.114338  0.181523 0.048807 -1.277059
181  -2.662413 1.445757 33.628742  0.000000 3.141591 1.570796
182  8.352065 2.772897 0.000543  -3.141589 0.000002 0.000000
183  -2.662411 1.445755 40.667961  0.000000 3.141591 1.570796
184  8.352065 2.772897 0.000544  -3.141589 0.000002 0.000000
185  -1.431356 16.384779 4.137811  0.000001 -0.000000 0.000000
186  -0.001845 0.521682 -0.140289  0.000000 -0.000000 -0.000000
187  7.323109 -5.136193 -5.166236  0.000000 0.000000 -0.610865
188  2.698277 -0.000001 -0.000002  -0.000012 0.000000 0.000000
189  2.834160 -0.000002 -0.000002  0.000013 0.000000 -0.000000
190  2.648921 -0.000000 -0.000001  -0.000001 -0.000001 0.000000
191  2.667496 -0.000002 0.000000  0.000000 -0.000000 0.000000
192  2.426704 -0.000002 -0.000000  -0.000000 -0.000000 -0.000000
193  -0.494743 -44.353451 -1.302299  1.570797 -0.000000 -1.570797
194  11.545938 73.768425 -3.792012  0.000000 -0.000000 -0.000000
195  -0.066953 -10.025106 -0.912533  -0.000000 -0.000000 -0.000000
196  -0.000001 -0.000001 -1.529051  -0.000000 -0.000000 -0.000000
197  -0.078944 0.000000 0.000001  0.000000 0.000001 1.570796
198  0.097091 0.000000 0.000001  -0.000000 -3.141592 1.570796
199  0.000000 0.000000 0.000000  0.000000 -0.000000 -0.000000
200  -1.731067 -4.764701 1.425733  0.321316 0.505782 0.832795
201  15.659570 6.850550 -10.225975  0.321317 0.505782 0.832794
time 4
0  0 0 0  0 0 0
1  0.000000 0.000000 0.000000  0.000000 -0.000000 -0.000000
2  -0.000005 0.000023 -61.375507  0.000000 0.000000 -1.570795
3  -0.012872 0.000000 8.235020  -1.570799 -1.570796 0.000000
4  16.163128 -0.012870 -0.000002  -0.000000 -0.000000 0.000000
5  -0.000000 0.000000 -0.000005  0.985954 -0.000645 -0.000347
6  -0.000037 -0.000002 -0.000000  0.811737 0.297839 0.075129
7  -0.000004 -0.000007 0.000002  0.000000 0.000000 -0.233508
8  0.000000 0.000001 -0.000000  0.035525 -0.000000 0.000000
9  0.000001 0.000000 -0.000001  0.071001 -0.000000 -0.000000
10  -0.000004 -0.000001 -0.000000  0.106560 -0.000000 -0.000000
11  -0.000008 -0.000002 -0.000001  0.142092 -0.000000 -0.000000
12  -0.000004 -0.000001 -0.000000  0.177607 -0.000000 -0.000000
13  -0.000008 -0.000002 -0.000002  0.213117 -0.000000 -0.000000
14  -0.000007 -0.000004 -0.000001  0.248695 -0.000000 -0.000000
15  -0.000004 -0.000001 0.000002  0.290848 -0.331182 -0.049756
16  1.410072 0.800535 -2.089137  2.009774 0.630250 0.591915
17  3.954712 -0.000003 0.000008  -0.000004 -0.000001 0.166316
18  3.101567 0.000006 0.000003  0.000002 -0.000001 0.240238
19  6.164463 -0.898142 2.575020  0.090705 -0.013516 -0.151467
20  2.805846 0.000004 -0.000004  0.000002 0.000001 0.079095
21  2.307445 -0.000004 0.000001  -0.000000 -0.000000 -0.056424
22  7.145097 -0.676332 -1.382425  0.086918 -0.009133 -0.085503
23  3.672215 0.000002 -0.000001  0.000003 0.000001 0.142941
24  2.676526 -0.000000 0.000001  -0.000001 -0.000001 -0.026075
25  6.831177 -0.870855 0.599922  0.130314 -0.006347 -0.065005
26  3.657085 -0.000009 0.000000  0.000000 0.000000 0.057729
27  2.496795 0.000003 -0.000000  0.000000 0.000000 -0.091107
28  7.183353 -0.532074 -3.267608  0.123210 0.020356 -0.052484
29  3.511592 0.000005 -0.000001  -0.000001 -0.000001 0.099575
30  2.199411 0.000001 0.000004  0.000001 0.000001 0.029263
31  0.000004 -0.000000 0.000003  0.848894 -0.000556 -0.000251
32  -0.000016 -0.000001 0.000001  0.494662 0.061588 0.551423
33  0.000004 -0.000000 0.000002  0.000000 -0.000000 -0.046514
34  0.000001 -0.000000 0.000001  -0.009766 0.000000 -0.000000
35  -0.000001 -0.000003 0.000001  -0.019532 0.000000 0.000000
36  -0.000001 -0.000002 0.000002  -0.029299 0.000000 0.000000
37  0.000000 -0.000001 0.000001  -0.039066 -0.000000 0.000000
38  -0.000004 0.000001 0.000001  -0.048896 0.000000 -0.000000
39  -0.000004 0.000000 0.000001  -0.058665 -0.000000 -0.000000
40  -0.000001 -0.000003 0.000003  -0.068436 0.000000 0.000000
41  -0.000006 -0.000005 -0.000000  0.253720 -0.176901 -0.298865
42  1.410066 0.800525 2.089138  -2.009768 -0.630254 0.591907
43  3.954719 0.000011 0.000002  -0.000000 -0.000002 0.166320
44  3.101562 -0.000007 0.000002  -0.000001 -0.000000 0.240238
45  7.183346 -0.532110 3.267604  -0.123210 -0.020355 -0.052486
46  3.511603 -0.000001 -0.000001  0.000003 0.000001 0.099571
47  2.199404 0.000004 -0.000002  -0.000001 -0.000001 0.029267
48  7.145095 -0.676362 1.382421  -0.086920 0.009133 -0.085505
49  3.672220 -0.000002 0.000001  0.000001 -0.000000 0.142941
50  2.676523 -0.000004 0.000001  -0.000001 -0.000001 -0.026075
51  6.831174 -0.870879 -0.599927  -0.130311 0.006346 -0.065012
52  3.657080 -0.000002 -0.000001  -0.000000 0.000001 0.057734
53  2.496793 0.000001 0.000003  0.000000 -0.000001 -0.091108
54  6.164468 -0.898158 -2.575025  -0.090704 0.013515 -0.151468
55  2.805852 -0.000003 0.000002  -0.000002 -0.000001 0.079091
56  2.307434 0.000000 -0.000002  0.000002 0.000001 -0.056419
57  0.000000 0.000000 0.000000  0.000001 -0.000000 -0.000000
58  14.547324 4.035645 -7.772408  0.321316 0.505782 0.832795
59  0.071259 133.426575 57.557693  -0.000000 -0.000000 -0.000000
60  1.986526 0.000027 -3.123740  -2.705260 -0.000000 -1.570797
61  -1.986692 0.000025 -3.123748  0.436333 0.000001 1.570797
62  -0.000002 0.000011 -0.000005  0.000000 -0.000000 -0.000000
63  -0.456041 -0.861420 -0.013774  -0.000000 0.043584 -0.000001
64  -11.344161 1.135889 0.869282  0.000002 -0.025019 -0.026324
65  0.078993 -0.861420 -0.169308  3.140931 -0.829230 0.000292
66  -11.350046 -0.729433 0.864881  0.000197 -0.025367 0.026442
67  1.754238 4.036760 -1.682664  0.392575 -0.010120 -1.546362
68  -1.755144 4.036755 -1.682662  -0.392577 -0.010391 -1.594986
69  -0.164556 7.327703 3.928704  0.000000 0.000001 -1.570796
70  0.079083 36.742691 -0.508024  0.000001 -0.000000 -0.000000
71  -1.260174 8.777410 6.736405  -0.000002 -0.424416 -3.141592
72  1.525193 18.283598 2.968621  0.000000 -0.000000 -0.000000
73  0.060218 10.324386 74.469055  0.000008 -0.000000 -0.000000
74  0.010140 79.890701 79.559563  0.000000 -0.000000 -0.000000
75  0.000008 -0.115258 0.006870  -0.000000 0.000000 0.000000
76  -1.027581 -0.401533 0.000005  0.000000 0.000000 0.000000
77  73.981262 33.177643 0.000010  0.000000 -0.000000 -0.000000
78  8.773496 -0.193205 0.000002  0.000000 -0.000000 0.000000
79  -1.487354 0.800706 -0.721704  0.000000 0.000000 0.000000
80  1.091122 -0.214604 -0.000007  -0.000000 0.000000 0.000000
81  3.258440 5.856962 -3.403520  -0.000000 -0.000000 -0.000000
82  15.153053 5.860601 -3.403515  -0.000000 -0.000000 0.000000
83  6.064255 77.294960 36.365795  1.570796 0.000000 1.570796
84  -2.662411 1.445755 40.667961  0.000000 3.141591 1.570796
85  8.352065 2.772897 0.000544  -3.141589 0.000002 0.000000
86  6.064257 72.973694 32.593254  1.570796 0.000000 1.570796
87  0.004369 73.768425 -3.792008  0.000000 0.000000 0.000000
88  -0.442610 1.284880 8.535292  0.000000 -0.000001 0.000000
89  -0.000002 1.310205 0.000000  0.000000 -0.000000 0.000000
90  0.000002 0.582256 0.000000  0.000000 -0.000000 0.000000
91  0.036296 1.284882 7.928800  0.000000 -0.000001 0.000000
92  0.000002 1.310210 0.000000  0.000000 0.000000 0.000000
93  0.000005 0.582259 0.000000  0.000000 0.000000 0.000000
94  5.969322 3.427454 -6.170647  -0.000000 -0.000001 -1.570797
95  -1.310207 -0.000005 0.000001  0.000000 -0.000000 -0.000000
96  -0.582256 -0.000003 -0.000001  0.000000 -0.000000 -0.000000
97  5.969325 9.397401 -6.170656  -0.000000 -0.000001 -1.570796
98  -1.310213 0.000001 -0.000001  0.000000 0.000000 -0.000000
99  -0.582258 0.000005 -0.000001  0.000000 0.000000 -0.000000
100  5.969318 15.223766 -6.170667  -0.000000 -0.000001 -1.570796
101  -1.310208 -0.000001 -0.000002  -0.000000 0.000000 -0.000000
102  -0.582257 0.000000 -0.000004  -0.000000 0.000000 -0.000000
103  5.969321 20.835567 -6.170668  -0.000000 -0.000001 -1.570796
104  -1.310210 0.000005 0.000006  -0.000000 0.000000 -0.000000
105  -0.582261 0.000006 0.000005  -0.000000 0.000000 -0.000000
106  5.969321 26.771208 -6.170669  -0.000000 -0.000001 -1.570796
107  5.969320 32.597591 -6.170671  -0.000000 -0.000001 -1.570796
108  5.969325 38.209389 -6.170681  -0.000000 -0.000001 -1.570800
109  5.969327 49.488464 -6.170679  -0.000000 -0.000001 -1.570800
110  -0.539089 -0.556809 -0.017361  -0.042462 2.681156 1.551919
111  -6.799124 -0.556807 0.818552  -0.272420 2.701993 1.452460
112  -4.615280 -0.556822 0.270331  -0.117230 2.684609 1.518878
113  -2.650971 -0.556807 0.063014  -0.042463 2.681158 1.551919
114  27.110332 1.284857 12.007547  0.000000 -0.000000 0.000000
115  28.133425 1.284860 12.007548  0.000001 -0.000000 0.000000
116  12.812887 2.241786 12.007551  0.000000 -0.000001 -0.000001
117  -9.955967 -0.319623 4.380216  -0.000001 -0.000000 -0.000001
118  -11.316471 -0.319623 4.380217  -0.000003 -0.000000 -0.000000
119  -12.667810 -0.319621 4.380217  -0.000003 -0.000000 0.000001
120  -14.022141 -0.319620 4.380215  0.000010 -0.000000 -0.000011
121  -15.373241 -0.319620 4.380216  0.000015 -0.000000 -0.000015
122  -16.724142 -0.319623 4.380217  -0.000009 -0.000000 0.000006
123  -18.074570 -0.319619 4.380216  -0.000006 0.000000 0.000004
124  -19.423714 -0.319622 4.380217  0.000002 0.000000 -0.000004
125  -20.775269 -0.319619 4.380218  0.000003 0.000000 -0.000004
126  -22.126673 -0.319618 4.380218  0.000003 0.000000 -0.000004
127  -23.478127 -0.319618 4.380216  0.000005 0.000000 -0.000006
128  -24.830620 -0.319621 4.380217  0.000036 0.000000 -0.000038
129  -26.182030 -0.319618 4.380219  -0.000011 0.000000 0.000011
130  0.529179 -0.167130 0.629486  -0.101270 -0.000000 0.000000
131  -0.211448 -0.241685 0.155362  -0.145847 -0.000000 0.000000
132  0.529191 -0.280699 -0.110291  -0.145847 -0.000000 -0.000000
133  -0.173926 -0.337323 -0.638493  -0.181751 -0.000000 0.000000
134  0.529187 -0.399247 -0.975391  -0.181751 -0.000000 0.000000
135  -0.211445 -0.464478 -1.431040  -0.192399 -0.000000 0.000000
136  0.529190 -0.515806 -1.694579  -0.192399 -0.000000 0.000000
137  -0.173927 -0.612153 -2.231907  -0.216703 -0.000000 0.000000
138  0.529190 -0.685807 -2.566437  -0.216703 -0.000000 -0.000000
139  -0.211448 -0.769559 -3.027869  -0.237349 -0.000000 0.000000
140  0.529186 -0.832685 -3.288846  -0.237349 -0.000000 -0.000000
141  -0.173941 -0.945279 -3.779563  -0.233859 0.000000 0.000000
142  0.529179 -1.024659 -4.112777  -0.233859 0.000000 0.000000
143  -0.211442 -1.132183 -4.577545  -0.262919 -0.000000 0.000000
144  0.529190 -1.201966 -4.836823  -0.262919 0.000000 0.000000
145  -0.000006 -2.810942 -10.636628  0.258454 0.000000 3.141592
146  -0.192456 -1.345775 -5.370044  -0.280373 0.000000 0.000000
147  0.533985 -1.413512 -5.605102  -0.276883 0.000000 0.000000
148  -0.206618 -1.795760 -6.909776  -0.287354 0.000000 0.000000
149  -0.205804 -1.564813 -6.138255  -0.290843 0.000000 0.000000
150  0.530460 -1.643675 -6.395212  -0.290844 0.000000 0.000000
151  0.535310 -1.790709 -7.204132  -0.287354 -0.000000 0.000000
152  -0.202702 -2.030484 -7.702826  -0.286180 -0.000000 0.000000
153  0.509549 -2.118896 -8.011621  -0.298398 -0.000000 0.000000
154  -0.202704 -2.255280 -8.465168  -0.283134 -0.000000 0.000000
155  0.509548 -2.352979 -8.771157  -0.295352 -0.000000 0.000000
156  -0.202708 -2.481593 -9.235469  -0.285437 -0.000000 0.000000
157  0.509544 -2.588683 -9.538636  -0.297653 -0.000000 0.000000
158  0.170122 -21.222088 -1.001140  -0.000001 -0.000001 0.000000
159  0.170122 -20.843864 -0.397181  -0.000001 -0.000001 0.000000
160  0.170122 -20.489742 -1.001139  -0.000001 -0.000001 0.000000
161  0.170123 -20.111067 -0.397181  -0.000001 -0.000001 0.000000
162  0.170121 -19.380089 -0.397187  -0.000001 -0.000001 0.000000
163  0.170123 -19.025106 -1.001143  -0.000001 -0.000001 0.000000
164  0.170121 -18.646656 -0.396446  -0.000001 -0.000001 0.000000
165  0.170123 -19.755760 -1.001141  -0.000001 -0.000001 0.000000
166  -0.015972 10.612516 2.686018  0.000001 -0.000000 -0.000000
167  0.059853 -50.160706 6.449383  1.570797 -0.000000 -1.570797
168  0.064654 27.351292 72.195206  -0.000000 -0.000000 -0.000001
169  6.064260 95.114014 31.645502  -0.000000 -0.000001 1.570796
170  0.054185 102.845642 29.795364  0.000000 0.000001 -1.570796
171  6.064262 69.096565 37.164318  1.570796 0.000000 1.570796
172  1.974302 11.989232 4.589251  0.000000 -0.000000 -0.000000
173  -0.011482 23.944746 5.090361  0.000001 0.000000 0.000000
174  -1.691252 8.833342 5.763506  0.000001 -0.000000 -0.000000
175  6.064260 89.329803 31.613918  -0.000000 -0.000001 1.570796
176  0.059885 2.255337 54.398014  -0.000000 -0.000000 -0.000000
177  0.003494 -22.270645 0.000148  1.570797 -0.000000 -1.570797
178  0.104010 15.380370 2.266152  0.000001 -0.000000 -0.000000
179  4.504586 -0.449496 -17.618830  2.064741 -0.116498 -2.067531
180  -3.255360 24.458078 -23.114338  0.181523 0.048807 -1.277059
181  -2.662413 1.445757 33.628742  0.000000 3.141591 1.570796
182  8.352065 2.772897 0.000543  -3.141589 0.000002 0.000000
183  -2.662411 1.445755 40.667961  0.000000 3.141591 1.570796
184  8.352065 2.772897 0.000544  -3.141589 0.000002 0.000000
185  -1.431356 16.384779 4.137811  0.000001 -0.000000 0.000000
186  -0.001845 0.521682 -0.140289  0.000000 -0.000000 -0.000000
187  7.323109 -5.136193 -5.166236  0.000000 0.000000 -0.610865
188  2.698277 -0.000001 -0.000002  -0.000012 0.000000 0.000000
189  2.834160 -0.000002 -0.000002  0.000013 0.000000 -0.000000
190  2.648921 -0.000000 -0.000001  -0.000001 -0.000001 0.000000
191  2.667496 -0.000002 0.000000  0.000000 -0.000000 0.000000
192  2.426704 -0.000002 -0.000000  -0.000000 -0.000000 -0.000000
193  -0.494743 -44.353451 -1.302299  1.570797 -0.000000 -1.570797
194  11.545938 73.768425 -3.792012  0.000000 -0.000000 -0.000000
195  -0.066953 -10.025106 -0.912533  -0.000000 -0.000000 -0.000000
196  -0.000001 -0.000001 -1.529051  -0.000000 -0.000000 -0.000000
197  -0.078944 0.000000 0.000001  0.000000 0.000001 1.570796
198  0.097091 0.000000 0.000001  -0.000000 -3.141592 1.570796
199  0.000000 0.000000 0.000000  0.000000 -0.000000 -0.000000
200  -1.731067 -4.764701 1.425733  0.321316 0.505782 0.832795
201  15.659570 6.850550 -10.225975  0.321317 0.505782 0.832794
time 5
0  0 0 0  0 0 0
1  0.000000 0.000000 0.000000  0.000000 -0.000000 -0.000000
2  -0.000005 0.000023 -61.375507  0.000000 0.000000 -1.570795
3  -0.012872 0.000000 8.235020  -1.570799 -1.570796 0.000000
4  16.163128 -0.012870 -0.000002  -0.000000 -0.000000 0.000000
5  -0.000000 0.000000 -0.000005  0.985954 -0.000645 -0.000347
6  -0.000037 -0.000002 -0.000000  0.811737 0.297839 0.075129
7  -0.000004 -0.000007 0.000002  0.000000 0.000000 -0.233508
8  0.000000 0.000001 -0.000000  0.035525 -0.000000 0.000000
9  0.000001 0.000000 -0.000001  0.071001 -0.000000 -0.000000
10  -0.000004 -0.000001 -0.000000  0.106560 -0.000000 -0.000000
11  -0.000008 -0.000002 -0.000001  0.142092 -0.000000 -0.000000
12  -0.000004 -0.000001 -0.000000  0.177607 -0.000000 -0.000000
13  -0.000008 -0.000002 -0.000002  0.213117 -0.000000 -0.000000
14  -0.000007 -0.000004 -0.000001  0.248695 -0.000000 -0.000000
15  -0.000004 -0.000001 0.000002  0.290848 -0.331182 -0.049756
16  1.410072 0.800535 -2.089137  2.009774 0.630250 0.591915
17  3.954712 -0.000003 0.000008  -0.000004 -0.000001 0.166316
18  3.101567 0.000006 0.000003  0.000002 -0.000001 0.240238
19  6.164463 -0.898142 2.575020  0.090705 -0.013516 -0.151467
20  2.805846 0.000004 -0.000004  0.000002 0.000001 0.079095
21  2.307445 -0.000004 0.000001  -0.000000 -0.000000 -0.056424
22  7.145097 -0.676332 -1.382425  0.086918 -0.009133 -0.085503
23  3.672215 0.000002 -0.000001  0.000003 0.000001 0.142941
24  2.676526 -0.000000 0.000001  -0.000001 -0.000001 -0.026075
25  6.831177 -0.870855 0.599922  0.130314 -0.006347 -0.065005
26  3.657085 -0.000009 0.000000  0.000000 0.000000 0.057729
27  2.496795 0.000003 -0.000000  0.000000 0.000000 -0.091107
28  7.183353 -0.532074 -3.267608  0.123210 0.020356 -0.052484
29  3.511592 0.000005 -0.000001  -0.000001 -0.000001 0.099575
30  2.199411 0.000001 0.000004  0.000001 0.000001 0.029263
31  0.000004 -0.000000 0.000003  0.848894 -0.000556 -0.000251
32  -0.000016 -0.000001 0.000001  0.494662 0.061588 0.551423
33  0.000004 -0.000000 0.000002  0.000000 -0.000000 -0.046514
34  0.000001 -0.000000 0.000001  -0.009766 0.000000 -0.000000
35  -0.000001 -0.000003 0.000001  -0.019532 0.000000 0.000000
36  -0.000001 -0.000002 0.000002  -0.029299 0.000000 0.000000
37  0.000000 -0.000001 0.000001  -0.039066 -0.000000 0.000000
38  -0.000004 0.000001 0.000001  -0.048896 0.000000 -0.000000
39  -0.000004 0.000000 0.000001  -0.058665 -0.000000 -0.000000
40  -0.000001 -0.000003 0.000003  -0.068436 0.000000 0.000000
41  -0.000006 -0.000005 -0.000000  0.253720 -0.176901 -0.298865
42  1.410066 0.800525 2.089138  -2.009768 -0.630254 0.591907
43  3.954719 0.000011 0.000002  -0.000000 -0.000002 0.166320
44  3.101562 -0.000007 0.000002  -0.000001 -0.000000 0.240238
45  7.183346 -0.532110 3.267604  -0.123210 -0.020355 -0.052486
46  3.511603 -0.000001 -0.000001  0.000003 0.000001 0.099571
47  2.199404 0.000004 -0.000002  -0.000001 -0.000001 0.029267
48  7.145095 -0.676362 1.382421  -0.086920 0.009133 -0.085505
49  3.672220 -0.000002 0.000001  0.000001 -0.000000 0.142941
50  2.676523 -0.000004 0.000001  -0.000001 -0.000001 -0.026075
51  6.831174 -0.870879 -0.599927  -0.130311 0.006346 -0.065012
52  3.657080 -0.000002 -0.000001  -0.000000 0.000001 0.057734
53  2.496793 0.000001 0.000003  0.000000 -0.000001 -0.091108
54  6.164468 -0.898158 -2.575025  -0.090704 0.013515 -0.151468
55  2.805852 -0.000003 0.000002  -0.000002 -0.000001 0.079091
56  2.307434 0.000000 -0.000002  0.000002 0.000001 -0.056419
57  0.000000 0.000000 0.000000  0.000001 -0.000000 -0.000000
58  14.547324 4.035645 -7.772408  0.321316 0.505782 0.832795
59  0.071259 133.426575 57.557693  -0.000000 -0.000000 -0.000000
60  1.986526 0.000027 -3.123740  -2.705260 -0.000000 -1.570797
61  -1.986692 0.000025 -3.123748  0.436333 0.000001 1.570797
62  -0.000002 0.000011 -0.000005  0.000000 -0.000000 -0.000000
63  -0.456041 -0.861420 -0.013774  -0.000000 0.043584 -0.000001
64  -11.344161 1.135889 0.869282  0.000002 -0.025019 -0.026324
65  0.078993 -0.861420 -0.169308  3.140931 -0.829230 0.000292
66  -11.350046 -0.729433 0.864881  0.000197 -0.025367 0.026442
67  1.754238 4.036760 -1.682664  0.392575 -0.010120 -1.546362
68  -1.755144 4.036755 -1.682662  -0.392577 -0.010391 -1.594986
69  -0.164556 7.327703 3.928704  0.000000 0.000001 -1.570796
70  0.079083 36.742691 -0.508024  0.000001 -0.000000 -0.000000
71  -1.260174 8.777410 6.736405  -0.000002 -0.424416 -3.141592
72  1.525193 18.283598 2.968621  0.000000 -0.000000 -0.000000
73  0.060218 10.324386 74.469055  0.000008 -0.000000 -0.000000
74  0.010140 79.890701 79.559563  0.000000 -0.000000 -0.000000
75  0.000008 -0.115258 0.006870  -0.000000 0.000000 0.000000
76  -1.027581 -0.401533 0.000005  0.000000 0.000000 0.000000
77  73.981262 33.177643 0.000010  0.000000 -0.000000 -0.000000
78  8.773496 -0.193205 0.000002  0.000000 -0.000000 0.000000
79  -1.487354 0.800706 -0.721704  0.000000 0.000000 0.000000
80  1.091122 -0.214604 -0.000007  -0.000000 0.000000 0.000000
81  3.258440 5.856962 -3.403520  -0.000000 -0.000000 -0.000000
82  15.153053 5.860601 -3.403515  -0.000000 -0.000000 0.000000
83  6.064255 77.294960 36.365795  1.570796 0.000000 1.570796
84  -2.662411 1.445755 40.667961  0.000000 3.141591 1.570796
85  8.352065 2.772897 0.000544  -3.141589 0.000002 0.000000
86  6.064257 72.973694 32.593254  1.570796 0.000000 1.570796
87  0.004369 73.768425 -3.792008  0.000000 0.000000 0.000000
88  -0.442610 1.284880 8.535292  0.000000 -0.000001 0.000000
89  -0.000002 1.310205 0.000000  0.000000 -0.000000 0.000000
90  0.000002 0.582256 0.000000  0.000000 -0.000000 0.000000
91  0.036296 1.284882 7.928800  0.000000 -0.000001 0.000000
92  0.000002 1.310210 0.000000  0.000000 0.000000 0.000000
93  0.000005 0.582259 0.000000  0.000000 0.000000 0.000000
94  5.969322 3.427454 -6.170647  -0.000000 -0.000001 -1.570797
95  -1.310207 -0.000005 0.000001  0.000000 -0.000000 -0.000000
96  -0.582256 -0.000003 -0.000001  0.000000 -0.000000 -0.000000
97  5.969325 9.397401 -6.170656  -0.000000 -0.000001 -1.570796
98  -1.310213 0.000001 -0.000001  0.000000 0.000000 -0.000000
99  -0.582258 0.000005 -0.000001  0.000000 0.000000 -0.000000
100  5.969318 15.223766 -6.170667  -0.000000 -0.000001 -1.570796
101  -1.310208 -0.000001 -0.000002  -0.000000 0.000000 -0.000000
102  -0.582257 0.000000 -0.000004  -0.000000 0.000000 -0.000000
103  5.969321 20.835567 -6.170668  -0.000000 -0.000001 -1.570796
104  -1.310210 0.000005 0.000006  -0.000000 0.000000 -0.000000
105  -0.582261 0.000006 0.000005  -0.000000 0.000000 -0.000000
106  5.969321 26.771208 -6.170669  -0.000000 -0.000001 -1.570796
107  5.969320 32.597591 -6.170671  -0.000000 -0.000001 -1.570796
108  5.969325 38.209389 -6.170681  -0.000000 -0.000001 -1.570800
109  5.969327 49.488464 -6.170679  -0.000000 -0.000001 -1.570800
110  -0.539089 -0.556809 -0.017361  -0.042462 2.681156 1.551919
111  -6.799124 -0.556807 0.818552  -0.272420 2.701993 1.452460
112  -4.615280 -0.556822 0.270331  -0.117230 2.684609 1.518878
113  -2.650971 -0.556807 0.063014  -0.042463 2.681158 1.551919
114  27.110332 1.284857 12.007547  0.000000 -0.000000 0.000000
115  28.133425 1.284860 12.007548  0.000001 -0.000000 0.000000
116  12.812887 2.241786 12.007551  0.000000 -0.000001 -0.000001
117  -9.955967 -0.319623 4.380216  -0.000001 -0.000000 -0.000001
118  -11.316471 -0.319623 4.380217  -0.000003 -0.000000 -0.000000
119  -12.667810 -0.319621 4.380217  -0.000003 -0.000000 0.000001
120  -14.022141 -0.319620 4.380215  0.000010 -0.000000 -0.000011
121  -15.373241 -0.319620 4.380216  0.000015 -0.000000 -0.000015
122  -16.724142 -0.319623 4.380217  -0.000009 -0.000000 0.000006
123  -18.074570 -0.319619 4.380216  -0.000006 0.000000 0.000004
124  -19.423714 -0.319622 4.380217  0.000002 0.000000 -0.000004
125  -20.775269 -0.319619 4.380218  0.000003 0.000000 -0.000004
126  -22.126673 -0.319618 4.380218  0.000003 0.000000 -0.000004
127  -23.478127 -0.319618 4.380216  0.000005 0.000000 -0.000006
128  -24.830620 -0.319621 4.380217  0.000036 0.000000 -0.000038
129  -26.182030 -0.319618 4.380219  -0.000011 0.000000 0.000011
130  0.529179 -0.167130 0.629486  -0.101270 -0.000000 0.000000
131  -0.211448 -0.241685 0.155362  -0.145847 -0.000000 0.000000
132  0.529191 -0.280699 -0.110291  -0.145847 -0.000000 -0.000000
133  -0.173926 -0.337323 -0.638493  -0.181751 -0.000000 0.000000
134  0.529187 -0.399247 -0.975391  -0.181751 -0.000000 0.000000
135  -0.211445 -0.464478 -1.431040  -0.192399 -0.000000 0.000000
136  0.529190 -0.515806 -1.694579  -0.192399 -0.000000 0.000000
137  -0.173927 -0.612153 -2.231907  -0.216703 -0.000000 0.000000
138  0.529190 -0.685807 -2.566437  -0.216703 -0.000000 -0.000000
139  -0.211448 -0.769559 -3.027869  -0.237349 -0.000000 0.000000
140  0.529186 -0.832685 -3.288846  -0.237349 -0.000000 -0.000000
141  -0.173941 -0.945279 -3.779563  -0.233859 0.000000 0.000000
142  0.529179 -1.024659 -4.112777  -0.233859 0.000000 0.000000
143  -0.211442 -1.132183 -4.577545  -0.262919 -0.000000 0.000000
144  0.529190 -1.201966 -4.836823  -0.262919 0.000000 0.000000
145  -0.000006 -2.810942 -10.636628  0.258454 0.000000 3.141592
146  -0.192456 -1.345775 -5.370044  -0.280373 0.000000 0.000000
147  0.533985 -1.413512 -5.605102  -0.276883 0.000000 0.000000
148  -0.206618 -1.795760 -6.909776  -0.287354 0.000000 0.000000
149  -0.205804 -1.564813 -6.138255  -0.290843 0.000000 0.000000
150  0.530460 -1.643675 -6.395212  -0.290844 0.000000 0.000000
151  0.535310 -1.790709 -7.204132  -0.287354 -0.000000 0.000000
152  -0.202702 -2.030484 -7.702826  -0.286180 -0.000000 0.000000
153  0.509549 -2.118896 -8.011621  -0.298398 -0.000000 0.000000
154  -0.202704 -2.255280 -8.465168  -0.283134 -0.000000 0.000000
155  0.509548 -2.352979 -8.771157  -0.295352 -0.000000 0.000000
156  -0.202708 -2.481593 -9.235469  -0.285437 -0.000000 0.000000
157  0.509544 -2.588683 -9.538636  -0.297653 -0.000000 0.000000
158  0.170122 -21.222088 -1.001140  -0.000001 -0.000001 0.000000
159  0.170122 -20.843864 -0.397181  -0.000001 -0.000001 0.000000
160  0.170122 -20.489742 -1.001139  -0.000001 -0.000001 0.000000
161  0.170123 -20.111067 -0.397181  -0.000001 -0.000001 0.000000
162  0.170121 -19.380089 -0.397187  -0.000001 -0.000001 0.000000
163  0.170123 -19.025106 -1.001143  -0.000001 -0.000001 0.000000
164  0.170121 -18.646656 -0.396446  -0.000001 -0.000001 0.000000
165  0.170123 -19.755760 -1.001141  -0.000001 -0.000001 0.000000
166  -0.015972 10.612516 2.686018  0.000001 -0.000000 -0.000000
167  0.059853 -50.160706 6.449383  1.570797 -0.000000 -1.570797
168  0.064654 27.351292 72.195206  -0.000000 -0.000000 -0.000001
169  6.064260 95.114014 31.645502  -0.000000 -0.000001 1.570796
170  0.054185 102.845642 29.795364  0.000000 0.000001 -1.570796
171  6.064262 69.096565 37.164318  1.570796 0.000000 1.570796
172  1.974302 11.989232 4.589251  0.000000 -0.000000 -0.000000
173  -0.011482 23.944746 5.090361  0.000001 0.000000 0.000000
174  -1.691252 8.833342 5.763506  0.000001 -0.000000 -0.000000
175  6.064260 89.329803 31.613918  -0.000000 -0.000001 1.570796
176  0.059885 2.255337 54.398014  -0.000000 -0.000000 -0.000000
177  0.003494 -22.270645 0.000148  1.570797 -0.000000 -1.570797
178  0.104010 15.380370 2.266152  0.000001 -0.000000 -0.000000
179  4.504586 -0.449496 -17.618830  2.064741 -0.116498 -2.067531
180  -3.255360 24.458078 -23.114338  0.181523 0.048807 -1.277059
181  -2.662413 1.445757 33.628742  0.000000 3.141591 1.570796
182  8.352065 2.772897 0.000543  -3.141589 0.000002 0.000000
183  -2.662411 1.445755 40.667961  0.000000 3.141591 1.570796
184  8.352065 2.772897 0.000544  -3.141589 0.000002 0.000000
185  -1.431356 16.384779 4.137811  0.000001 -0.000000 0.000000
186  -0.001845 0.521682 -0.140289  0.000000 -0.000000 -0.000000
187  7.323109 -5.136193 -5.166236  0.000000 0.000000 -0.610865
188  2.698277 -0.000001 -0.000002  -0.000012 0.000000 0.000000
189  2.834160 -0.000002 -0.000002  0.000013 0.000000 -0.000000
190  2.648921 -0.000000 -0.000001  -0.000001 -0.000001 0.000000
191  2.667496 -0.000002 0.000000  0.000000 -0.000000 0.000000
192  2.426704 -0.000002 -0.000000  -0.000000 -0.000000 -0.000000
193  -0.494743 -44.353451 -1.302299  1.570797 -0.000000 -1.570797
194  11.545938 73.768425 -3.792012  0.000000 -0.000000 -0.000000
195  -0.066953 -10.025106 -0.912533  -0.000000 -0.000000 -0.000000
196  -0.000001 -0.000001 -1.529051  -0.000000 -0.000000 -0.000000
197  -0.078944 0.000000 0.000001  0.000000 0.000001 1.570796
198  0.097091 0.000000 0.000001  -0.000000 -3.141592 1.570796
199  0.000000 0.000000 0.000000  0.000000 -0.000000 -0.000000
200  -1.731067 -4.764701 1.425733  0.321316 0.505782 0.832795
201  15.659570 6.850550 -10.225975  0.321317 0.505782 0.832794
end
