version 1
nodes
0 "blender_implicit" -1
1 "b_root" -1
2 "b_ch_middle" 1
3 "b_ch_spine1" 2
4 "b_ch_spine2" 3
5 "b_ch_l_clavical" 4
6 "b_ch_l_upperarm" 5
7 "b_ch_l_forearm" 6
8 "b_ch_l_forearm_twist1" 7
9 "b_ch_l_forearm_twist2" 7
10 "b_ch_l_forearm_twist3" 7
11 "b_ch_l_forearm_twist4" 7
12 "b_ch_l_forearm_twist5" 7
13 "b_ch_l_forearm_twist6" 7
14 "b_ch_l_forearm_twist7" 7
15 "b_ch_l_hand" 7
16 "b_ch_l_finger_00" 15
17 "b_ch_l_finger_01" 16
18 "b_ch_l_finger_02" 17
19 "b_ch_l_finger_40" 15
20 "b_ch_l_finger_41" 19
21 "b_ch_l_finger_42" 20
22 "b_ch_l_finger_20" 15
23 "b_ch_l_finger_21" 22
24 "b_ch_l_finger_22" 23
25 "b_ch_l_finger_30" 15
26 "b_ch_l_finger_31" 25
27 "b_ch_l_finger_32" 26
28 "b_ch_l_finger_10" 15
29 "b_ch_l_finger_11" 28
30 "b_ch_l_finger_12" 29
31 "b_ch_r_clavical" 4
32 "b_ch_r_upperarm" 31
33 "b_ch_r_forearm" 32
34 "b_ch_r_forearm_twist1" 33
35 "b_ch_r_forearm_twist2" 33
36 "b_ch_r_forearm_twist3" 33
37 "b_ch_r_forearm_twist4" 33
38 "b_ch_r_forearm_twist5" 33
39 "b_ch_r_forearm_twist6" 33
40 "b_ch_r_forearm_twist7" 33
41 "b_ch_r_hand" 33
42 "b_ch_r_finger_00" 41
43 "b_ch_r_finger_01" 42
44 "b_ch_r_finger_02" 43
45 "b_ch_r_finger_10" 41
46 "b_ch_r_finger_11" 45
47 "b_ch_r_finger_12" 46
48 "b_ch_r_finger_20" 41
49 "b_ch_r_finger_21" 48
50 "b_ch_r_finger_22" 49
51 "b_ch_r_finger_30" 41
52 "b_ch_r_finger_31" 51
53 "b_ch_r_finger_32" 52
54 "b_ch_r_finger_40" 41
55 "b_ch_r_finger_41" 54
56 "b_ch_r_finger_42" 55
57 "b_camera" 1
58 "b_wpn" 1
59 "b_wpn_eject" 58
60 "b_wpn_foregrip" 58
61 "b_wpn_hammer" 58
62 "b_wpn_mag" 58
63 "b_wpn_mag_b1" 62
64 "b_wpn_mag_b2" 62
65 "b_wpn_mag_b3" 62
66 "b_wpn_mag_b4" 62
67 "b_wpn_mag_b5" 62
68 "b_wpn_mag_b6" 62
69 "b_wpn_mag_b7" 62
70 "b_wpn_mag_follow" 62
71 "b_wpn_muzzle" 58
72 "b_wpn_slide" 58
73 "b_wpn_sliderelease" 58
74 "b_wpn_trigger" 58
75 "ik_hand_wpn_l" 58
76 "ik_hand_wpn_r" 58
77 "ik_hand_root" 1
78 "ik_hand_r" 77
79 "ik_hand_l" 77
end
skeleton
time 0
0  0 0 0  0 0 0
1  0.000000 0.000000 0.000000  0.000000 -0.000000 -0.000000
2  -0.000005 -0.000002 0.000004  0.000000 -0.000000 -1.570730
3  0.000000 0.000000 -0.000000  -0.785447 -1.570710 -0.785400
4  -0.000001 -0.000003 0.000001  -0.000000 -0.000000 -0.000000
5  -0.000002 0.000003 0.000002  -1.570735 0.000061 -1.570735
6  13.182698 -12.699915 -10.900744  1.885503 2.481917 -0.274251
7  26.391949 0.000018 -0.000001  0.008701 0.000003 -1.192137
8  0.000000 0.000001 -0.000000  -0.081140 -0.000000 -0.000000
9  3.093509 -0.000000 -0.000000  -0.168111 0.000000 0.000000
10  6.187024 -0.000001 0.000000  -0.249310 0.000000 0.000000
11  9.280537 0.000000 0.000000  -0.330492 0.000000 -0.000000
12  12.374043 0.000000 0.000000  -0.411666 0.000000 -0.000000
13  15.467555 0.000001 0.000001  -0.498634 0.000000 0.000000
14  18.561058 -0.000002 0.000002  -0.550775 0.000000 -0.000000
15  21.654533 0.000001 0.000001  -2.228402 -0.350736 0.432354
16  1.410067 0.800532 -2.089137  1.399853 0.604925 -0.010770
17  3.954710 0.000000 -0.000004  0.000000 -0.000000 0.617702
18  3.101567 0.000003 -0.000001  0.000000 0.000000 0.404498
19  6.164475 -0.898150 2.575014  0.045068 -0.113568 1.031248
20  2.805838 0.000000 0.000000  -0.000000 -0.000000 0.603176
21  2.307443 0.000005 -0.000000  0.000000 0.000000 0.822581
22  7.145103 -0.676338 -1.382430  0.088153 -0.302577 0.990768
23  3.672218 -0.000002 0.000000  0.000000 -0.000000 0.647309
24  2.676520 0.000003 0.000001  -0.000000 -0.000000 0.624626
25  6.831185 -0.870865 0.599906  0.119934 -0.223058 1.063590
26  3.657089 0.000000 0.000000  -0.000000 0.000000 0.694627
27  2.496796 0.000001 -0.000002  -0.000000 -0.000000 0.750942
28  7.183348 -0.532084 -3.267612  0.159321 -0.323356 0.757368
29  3.511604 -0.000003 0.000001  -0.000000 -0.000000 0.734238
30  2.199403 0.000007 -0.000001  0.000000 -0.000000 0.534050
31  -0.000004 -0.000003 0.000001  1.570735 -0.000061 -1.570735
32  16.652111 -6.415007 3.748662  0.755220 -0.709433 -2.682243
33  26.392056 -0.000009 0.000001  0.000000 -0.000000 -1.321778
34  0.000003 -0.000003 0.000001  0.070574 -0.000000 0.000000
35  3.093513 -0.000001 0.000002  0.146253 -0.000000 0.000000
36  6.187019 -0.000003 0.000004  0.216862 -0.000000 0.000000
37  9.280529 -0.000002 0.000008  0.287497 -0.000000 0.000000
38  12.374052 0.000004 0.000004  0.358123 -0.000000 0.000000
39  15.467568 -0.000001 0.000004  0.423708 -0.000000 0.000000
40  18.561083 0.000003 0.000004  0.479196 -0.000000 0.000000
41  21.654442 -0.000000 -0.000003  2.188029 0.335365 0.635032
42  1.410071 0.800527 2.089140  -2.513057 -0.415393 0.901892
43  3.954698 0.000004 0.000005  0.000000 0.000001 0.616998
44  3.101549 -0.000005 -0.000006  0.000001 0.000001 0.393227
45  7.183363 -0.532077 3.267609  -0.068036 0.037639 0.333117
46  3.511588 0.000000 0.000002  -0.000000 -0.000000 0.624819
47  2.199409 0.000002 -0.000000  0.000000 0.000000 0.726528
48  7.145099 -0.676335 1.382425  0.041631 0.296291 0.703172
49  3.672211 0.000002 0.000000  -0.000000 0.000000 0.837989
50  2.676507 -0.000000 -0.000002  0.000000 0.000000 1.331228
51  6.831169 -0.870867 -0.599919  0.057678 0.229072 0.814100
52  3.657080 -0.000001 -0.000001  -0.000000 -0.000000 0.799200
53  2.496795 0.000004 0.000000  0.000000 -0.000000 1.177777
54  6.164464 -0.898142 -2.575020  -0.054493 0.129539 0.625646
55  2.805829 0.000000 0.000000  -0.000000 0.000000 0.395779
56  2.307441 -0.000003 -0.000002  -0.000000 0.000000 0.901796
57  0.000000 0.000000 0.000000  0.000000 0.000000 0.000000
58  -6.877681 -33.215317 -9.769476  0.000000 -0.000000 0.000000
59  -1.260175 3.403357 4.928343  -0.000002 -0.424416 -3.141592
60  0.090547 0.325027 -2.629766  0.000000 0.000000 -0.000000
61  0.090549 8.845198 1.999913  -1.274048 0.000000 -0.000000
62  0.089593 5.423801 -2.381155  -0.000000 0.000000 0.000000
63  -0.008313 0.334986 -0.633064  0.000000 -0.000000 -0.000000
64  -0.008314 0.281649 -0.636034  0.000000 0.000000 -0.000000
65  -0.008316 0.281761 -0.633891  -0.000000 0.000000 -1.570730
66  0.000000 0.277884 -0.657576  -0.000000 0.000000 -1.570730
67  0.016056 0.067583 0.526088  -0.000000 0.000000 -1.570730
68  0.016056 0.239571 -0.653647  -0.000000 -0.000000 -1.570730
69  0.016056 0.379272 -1.832207  -0.000000 0.000000 -1.570730
70  0.048260 0.601978 -3.840480  -0.000000 -0.000000 -1.570730
71  0.090546 -12.795952 3.913126  1.570735 -0.000061 -1.570735
72  0.090547 1.635664 3.971694  0.000000 0.000000 0.000000
73  0.794127 2.468790 0.817014  -0.000000 -0.000000 -0.000000
74  0.090424 2.105194 0.932172  0.000000 0.000000 0.000000
75  3.028010 10.639137 -7.081078  2.699266 -0.157111 -1.714091
76  -0.660496 13.114731 -3.730434  -0.000222 -0.017468 -1.817942
77  0.000000 0.000000 -0.000000  -1.570730 -0.000000 -0.000000
78  -7.538206 13.499926 -20.100588  1.640264 1.818517 0.071925
79  -3.849678 16.850561 -22.576168  -1.187143 1.782905 0.837164
time 1
0  0 0 0  0 0 0
1  0.000000 0.000000 0.000000  0.000000 -0.000000 -0.000000
2  -0.000005 -0.000002 0.000004  0.000000 -0.000000 -1.570730
3  0.000000 0.000000 -0.000000  -0.785447 -1.570710 -0.785400
4  -0.000001 -0.000003 0.000001  -0.000000 -0.000000 -0.000000
5  -0.000002 0.000003 0.000002  -1.570735 0.000061 -1.570735
6  13.277961 -12.699914 -10.900743  1.859213 2.460402 -0.261564
7  26.391947 0.000020 0.000000  0.008686 0.000030 -1.217992
8  -0.000001 0.000001 -0.000000  -0.061901 -0.000000 -0.000000
9  3.093508 -0.000001 -0.000000  -0.128204 -0.000000 0.000000
10  6.187021 0.000001 -0.000000  -0.190173 0.000000 -0.000000
11  9.280536 -0.000001 0.000000  -0.252078 0.000000 -0.000000
12  12.374041 0.000002 0.000001  -0.313981 -0.000000 -0.000000
13  15.467551 0.000000 0.000000  -0.380290 0.000000 -0.000000
14  18.561056 -0.000002 0.000002  -0.420150 0.000000 -0.000000
15  21.654533 -0.000002 0.000002  -2.078761 -0.306220 0.419623
16  1.410066 0.800533 -2.089138  1.403402 0.605258 -0.002022
17  3.954707 0.000001 -0.000003  0.000000 -0.000000 0.612387
18  3.101575 0.000002 0.000001  0.000000 0.000000 0.398020
19  6.164474 -0.898150 2.575014  0.046666 -0.110096 0.998384
20  2.805836 -0.000000 -0.000002  -0.000000 -0.000000 0.567286
21  2.307442 0.000001 -0.000002  0.000000 0.000000 0.778441
22  7.145101 -0.676337 -1.382431  0.096151 -0.293938 0.955512
23  3.672217 0.000003 0.000001  0.000000 0.000000 0.614500
24  2.676521 0.000004 -0.000001  -0.000000 -0.000000 0.581669
25  6.831183 -0.870865 0.599906  0.124171 -0.214470 1.029813
26  3.657091 0.000001 -0.000002  -0.000000 0.000000 0.661619
27  2.496797 0.000002 0.000002  -0.000000 -0.000000 0.705088
28  7.183347 -0.532082 -3.267613  0.165305 -0.312633 0.712784
29  3.511601 0.000002 0.000001  -0.000000 -0.000000 0.700472
30  2.199403 0.000003 0.000001  0.000000 -0.000000 0.505124
31  -0.000004 -0.000003 0.000001  1.570735 -0.000061 -1.570735
32  16.587786 -6.448842 3.748661  0.741819 -0.707429 -2.682561
33  26.392054 -0.000008 -0.000001  0.000000 -0.000000 -1.320541
34  0.000003 -0.000004 0.000000  0.080346 -0.000000 0.000000
35  3.093515 -0.000002 0.000001  0.166518 -0.000000 0.000000
36  6.187019 -0.000006 0.000004  0.246911 -0.000000 0.000000
37  9.280529 -0.000002 0.000007  0.327336 -0.000000 0.000000
38  12.374050 0.000000 0.000003  0.407738 -0.000000 0.000000
39  15.467570 0.000000 0.000002  0.482401 0.000000 0.000000
40  18.561083 0.000004 0.000005  0.545576 -0.000000 0.000000
41  21.654442 -0.000002 -0.000000  2.260131 0.331427 0.654568
42  1.410071 0.800528 2.089140  -2.510965 -0.414534 0.901374
43  3.954698 0.000002 0.000005  -0.000000 0.000000 0.617447
44  3.101553 -0.000005 -0.000006  0.000001 0.000001 0.393600
45  7.183355 -0.532079 3.267609  -0.068094 0.037736 0.332122
46  3.511587 -0.000000 0.000001  -0.000000 -0.000000 0.618856
47  2.199408 0.000001 -0.000000  0.000000 0.000000 0.720524
48  7.145095 -0.676335 1.382425  0.041631 0.296291 0.703172
49  3.672213 0.000001 0.000002  -0.000000 0.000000 0.837989
50  2.676507 -0.000002 -0.000000  0.000000 0.000000 1.331228
51  6.831167 -0.870868 -0.599917  0.057678 0.229072 0.814100
52  3.657084 -0.000001 0.000001  -0.000000 -0.000000 0.799200
53  2.496797 -0.000005 -0.000002  0.000000 -0.000000 1.177777
54  6.164457 -0.898144 -2.575021  -0.054493 0.129539 0.625646
55  2.805830 0.000001 -0.000002  -0.000000 0.000000 0.395779
56  2.307437 0.000000 0.000001  -0.000000 0.000000 0.901796
57  0.000000 0.000000 0.000000  0.000183 -0.000366 -0.000122
58  -6.889601 -33.291119 -9.905241  0.004305 -0.057812 0.001036
59  -1.260174 3.403357 4.928342  -0.000002 -0.424416 -3.141592
60  0.090547 0.325026 -2.629767  -0.000000 0.000000 -0.000000
61  0.090549 8.845198 1.999913  -1.274048 0.000000 -0.000000
62  0.089594 5.423799 -2.381156  -0.000000 0.000000 -0.000000
63  -0.008312 0.334986 -0.633063  -0.000000 0.000000 -0.000000
64  -0.008314 0.281648 -0.636032  -0.000000 0.000000 -0.000000
65  -0.008316 0.281760 -0.633890  -0.000000 -0.000000 -1.570730
66  -0.000000 0.277883 -0.657574  -0.000000 -0.000000 -1.570730
67  0.016056 0.067585 0.526089  -0.000000 -0.000000 -1.570730
68  0.016056 0.239572 -0.653646  -0.000000 -0.000000 -1.570730
69  0.016056 0.379272 -1.832205  -0.000000 -0.000000 -1.570730
70  0.048260 0.601977 -3.840479  -0.000000 -0.000000 -1.570730
71  0.090546 -12.795953 3.913126  1.570735 -0.000061 -1.570735
72  0.090548 1.635664 3.971694  -0.000000 0.000000 -0.000000
73  0.794128 2.468791 0.817013  -0.000000 0.000000 -0.000000
74  0.090424 2.105195 0.932171  -0.000000 0.000000 -0.000000
75  3.613290 10.758941 -7.457167  2.769150 -0.173404 -1.725036
76  -0.660496 13.114739 -3.730441  -0.000222 -0.017468 -1.817942
77  0.000000 0.000000 -0.000000  -1.570730 -0.000000 -0.000000
78  -7.350847 13.610616 -20.160769  1.622433 1.817203 -0.003269
79  -2.865561 17.094172 -22.495432  -1.115326 1.798216 0.783638
time 2
0  0 0 0  0 0 0
1  0.000000 0.000000 0.000000  0.000000 -0.000000 -0.000000
2  -0.000005 -0.000002 0.000004  0.000000 -0.000000 -1.570730
3  0.000000 0.000000 -0.000000  -0.785447 -1.570710 -0.785400
4  -0.000001 -0.000003 0.000001  -0.000000 -0.000000 -0.000000
5  -0.000002 0.000003 0.000002  -1.570735 0.000061 -1.570735
6  13.546029 -12.699915 -10.900743  1.795246 2.415318 -0.232430
7  26.391949 0.000017 0.000001  0.008692 0.000039 -1.270571
8  -0.000002 0.000001 -0.000000  -0.025575 0.000000 -0.000000
9  3.093507 0.000000 0.000000  -0.052987 0.000000 -0.000000
10  6.187022 0.000001 0.000000  -0.078575 0.000000 -0.000000
11  9.280535 0.000002 0.000000  -0.104176 -0.000000 -0.000000
12  12.374043 0.000001 0.000000  -0.129734 0.000000 -0.000000
13  15.467554 -0.000000 0.000001  -0.157149 -0.000000 0.000000
14  18.561058 -0.000002 0.000001  -0.173624 0.000000 -0.000000
15  21.654535 0.000001 0.000000  -1.792090 -0.189816 0.399166
16  1.410066 0.800533 -2.089138  1.413378 0.606035 0.022491
17  3.954708 0.000001 -0.000003  0.000000 -0.000000 0.597489
18  3.101570 0.000001 -0.000000  0.000000 0.000000 0.379668
19  6.164474 -0.898150 2.575017  0.050851 -0.100726 0.913568
20  2.805839 -0.000004 0.000001  -0.000000 -0.000000 0.474799
21  2.307443 0.000000 -0.000002  0.000000 0.000000 0.664652
22  7.145100 -0.676337 -1.382430  0.116677 -0.271634 0.864369
23  3.672219 -0.000002 -0.000002  -0.000000 0.000000 0.530064
24  2.676520 0.000002 -0.000001  -0.000000 -0.000000 0.470718
25  6.831184 -0.870866 0.599908  0.135164 -0.192361 0.942707
26  3.657090 -0.000001 0.000001  -0.000000 0.000000 0.576510
27  2.496797 0.000005 0.000000  -0.000000 -0.000000 0.586768
28  7.183344 -0.532082 -3.267612  0.180715 -0.284655 0.597725
29  3.511604 0.000004 0.000001  -0.000000 -0.000000 0.613283
30  2.199403 0.000004 -0.000001  0.000000 -0.000000 0.429016
31  -0.000004 -0.000003 0.000001  1.570735 -0.000061 -1.570735
32  16.406773 -6.544061 3.748661  0.711070 -0.702526 -2.679314
33  26.392056 -0.000007 0.000000  0.000000 -0.000000 -1.318455
34  0.000002 -0.000002 -0.000001  0.099531 -0.000000 0.000000
35  3.093513 -0.000003 0.000001  0.206182 -0.000000 0.000000
36  6.187017 -0.000003 0.000003  0.305703 -0.000000 -0.000000
37  9.280530 -0.000003 0.000007  0.405245 -0.000000 0.000000
38  12.374050 0.000005 0.000005  0.504746 -0.000000 0.000000
39  15.467570 0.000003 0.000002  0.597234 -0.000000 0.000000
40  18.561079 0.000003 0.000004  0.675446 -0.000000 0.000000
41  21.654436 -0.000000 -0.000003  2.398212 0.317713 0.689020
42  1.410073 0.800529 2.089139  -2.504945 -0.412124 0.899885
43  3.954698 0.000004 0.000004  0.000000 0.000000 0.618600
44  3.101546 -0.000005 -0.000006  0.000001 0.000001 0.394782
45  7.183363 -0.532078 3.267609  -0.068346 0.037926 0.329450
46  3.511589 0.000000 0.000000  -0.000000 -0.000000 0.601962
47  2.199408 -0.000001 -0.000001  0.000000 0.000000 0.703658
48  7.145102 -0.676333 1.382425  0.041631 0.296291 0.703172
49  3.672215 -0.000001 -0.000000  -0.000000 -0.000000 0.837989
50  2.676507 0.000002 -0.000001  0.000000 0.000000 1.331228
51  6.831168 -0.870865 -0.599919  0.057678 0.229072 0.814100
52  3.657079 0.000001 -0.000000  -0.000000 -0.000000 0.799200
53  2.496795 -0.000002 -0.000002  0.000000 -0.000000 1.177777
54  6.164464 -0.898141 -2.575020  -0.054493 0.129539 0.625646
55  2.805832 -0.000001 -0.000000  -0.000000 0.000000 0.395779
56  2.307440 -0.000002 0.000001  -0.000000 0.000000 0.901796
57  0.000000 0.000000 0.000000  0.000733 -0.001587 -0.000611
58  -6.966866 -33.482250 -10.247594  0.014423 -0.165817 0.004069
59  -1.260175 3.403359 4.928343  -0.000002 -0.424415 -3.141592
60  0.090547 0.325031 -2.629766  -0.000000 -0.000000 -0.000000
61  0.090548 8.845201 1.999912  -1.274048 -0.000000 0.000000
62  0.089593 5.423803 -2.381155  -0.000000 -0.000000 0.000000
63  -0.008312 0.334986 -0.633064  -0.000000 -0.000000 0.000000
64  -0.008313 0.281647 -0.636033  -0.000000 -0.000000 0.000000
65  -0.008315 0.281759 -0.633891  0.000000 -0.000000 -1.570730
66  0.000000 0.277883 -0.657574  0.000000 -0.000000 -1.570730
67  0.016056 0.067582 0.526088  0.000000 -0.000000 -1.570730
68  0.016057 0.239571 -0.653646  0.000000 -0.000000 -1.570730
69  0.016056 0.379274 -1.832205  0.000000 -0.000000 -1.570730
70  0.048260 0.601978 -3.840481  0.000000 -0.000000 -1.570730
71  0.090545 -12.795952 3.913126  1.570735 -0.000061 -1.570735
72  0.090546 1.635664 3.971694  -0.000000 -0.000000 0.000000
73  0.794127 2.468792 0.817014  -0.000000 -0.000000 0.000000
74  0.090423 2.105197 0.932174  -0.000000 -0.000000 0.000000
75  5.187596 11.050056 -8.480550  -0.235270 -2.931899 1.383043
76  -0.660500 13.114738 -3.730435  -0.000222 -0.017468 -1.817942
77  0.000000 0.000000 -0.000000  -1.570730 -0.000000 -0.000000
78  -7.087358 13.848399 -20.315310  1.578575 1.813854 -0.153794
79  -0.522282 17.596659 -22.284344  -1.001559 1.837200 0.659314
time 3
0  0 0 0  0 0 0
1  0.000000 0.000000 0.000000  0.000000 -0.000000 -0.000000
2  -0.000005 -0.000002 0.000004  0.000000 -0.000000 -1.570730
3  0.000000 0.000000 -0.000000  -0.785447 -1.570710 -0.785400
4  -0.000001 -0.000003 0.000001  -0.000000 -0.000000 -0.000000
5  -0.000002 0.000003 0.000002  -1.570735 0.000061 -1.570735
6  13.960313 -12.699914 -10.900743  1.743339 2.367786 -0.189245
7  26.391947 0.000017 -0.000001  0.008704 -0.000006 -1.310760
8  0.000002 -0.000002 -0.000000  -0.005493 -0.000000 -0.000000
9  3.093512 -0.000003 -0.000001  -0.011475 -0.000000 0.000000
10  6.187023 -0.000000 -0.000001  -0.017029 -0.000000 -0.000000
11  9.280540 -0.000003 0.000000  -0.022523 0.000000 -0.000000
12  12.374044 -0.000002 0.000000  -0.028078 -0.000000 -0.000000
13  15.467557 -0.000002 0.000000  -0.034060 0.000000 -0.000000
14  18.561062 -0.000003 0.000001  -0.037601 0.000000 -0.000000
15  21.654539 -0.000002 0.000001  -1.620135 -0.051270 0.374605
16  1.410068 0.800532 -2.089137  1.429052 0.606807 0.060540
17  3.954710 0.000001 -0.000003  0.000000 -0.000000 0.574537
18  3.101569 0.000001 -0.000000  0.000000 0.000000 0.351364
19  6.164473 -0.898150 2.575015  0.056462 -0.087216 0.797610
20  2.805839 -0.000000 -0.000003  -0.000000 -0.000000 0.348326
21  2.307443 0.000003 -0.000003  0.000000 0.000000 0.509033
22  7.145100 -0.676338 -1.382431  0.144770 -0.241045 0.739805
23  3.672218 0.000001 -0.000001  0.000000 0.000000 0.414534
24  2.676520 0.000001 0.000000  -0.000000 -0.000000 0.319111
25  6.831184 -0.870866 0.599905  0.150224 -0.162143 0.823543
26  3.657089 0.000000 0.000000  -0.000000 0.000000 0.460054
27  2.496796 0.000001 0.000003  -0.000000 -0.000000 0.425081
28  7.183344 -0.532084 -3.267612  0.201780 -0.245757 0.440350
29  3.511601 0.000001 -0.000001  -0.000000 -0.000000 0.494100
30  2.199403 0.000004 -0.000002  0.000000 -0.000000 0.321955
31  -0.000004 -0.000003 0.000001  1.570735 -0.000061 -1.570735
32  16.127031 -6.691218 3.748659  0.674742 -0.697290 -2.664464
33  26.392048 -0.000007 -0.000003  0.000000 -0.000000 -1.317683
34  0.000001 0.000000 -0.000000  0.112245 -0.000000 0.000000
35  3.093513 0.000000 0.000003  0.232587 -0.000000 0.000000
36  6.187017 -0.000001 0.000002  0.344857 -0.000000 0.000000
37  9.280529 0.000000 0.000006  0.457171 -0.000000 0.000000
38  12.374050 0.000006 0.000001  0.569448 -0.000000 0.000000
39  15.467570 0.000004 0.000002  0.673700 -0.000000 0.000000
40  18.561081 0.000007 0.000005  0.761976 -0.000000 0.000000
41  21.654440 -0.000001 -0.000001  2.485187 0.298493 0.706153
42  1.410073 0.800527 2.089141  -2.495748 -0.408422 0.897526
43  3.954700 0.000003 0.000004  0.000000 0.000000 0.620330
44  3.101553 -0.000005 -0.000007  0.000001 0.000001 0.396525
45  7.183362 -0.532080 3.267608  -0.068789 0.038212 0.325225
46  3.511590 -0.000002 0.000001  0.000000 -0.000000 0.575874
47  2.199408 0.000001 -0.000000  0.000000 0.000000 0.677581
48  7.145097 -0.676336 1.382425  0.041631 0.296291 0.703172
49  3.672214 -0.000001 0.000002  -0.000000 0.000000 0.837989
50  2.676509 -0.000001 -0.000000  0.000000 0.000000 1.331228
51  6.831170 -0.870867 -0.599919  0.057678 0.229072 0.814100
52  3.657081 0.000003 0.000003  -0.000000 -0.000000 0.799200
53  2.496795 0.000007 -0.000001  0.000000 -0.000000 1.177777
54  6.164462 -0.898142 -2.575021  -0.054493 0.129539 0.625646
55  2.805830 0.000001 0.000000  -0.000000 0.000000 0.395779
56  2.307435 -0.000002 -0.000000  -0.000000 0.000000 0.901796
57  0.000000 0.000000 0.000000  0.001650 -0.003417 -0.001346
58  -7.177291 -33.740864 -10.710825  0.027873 -0.224026 0.009949
59  -1.260174 3.403352 4.928342  -0.000002 -0.424415 -3.141592
60  0.090548 0.325027 -2.629766  -0.000000 -0.000000 -0.000000
61  0.090549 8.845194 1.999913  -1.274048 -0.000000 -0.000000
62  0.089594 5.423798 -2.381155  -0.000000 -0.000000 -0.000000
63  -0.008313 0.334987 -0.633064  -0.000000 -0.000000 -0.000000
64  -0.008314 0.281646 -0.636034  -0.000000 -0.000000 -0.000000
65  -0.008316 0.281759 -0.633892  0.000000 0.000000 -1.570730
66  -0.000000 0.277886 -0.657575  0.000000 0.000000 -1.570730
67  0.016055 0.067583 0.526088  0.000000 0.000000 -1.570730
68  0.016056 0.239569 -0.653646  0.000000 0.000000 -1.570730
69  0.016055 0.379272 -1.832206  0.000000 0.000000 -1.570730
70  0.048259 0.601980 -3.840478  0.000000 0.000000 -1.570730
71  0.090547 -12.795954 3.913126  1.570735 -0.000061 -1.570735
72  0.090548 1.635660 3.971694  -0.000000 -0.000000 -0.000000
73  0.794128 2.468787 0.817014  -0.000000 -0.000000 -0.000000
74  0.090424 2.105192 0.932173  -0.000000 -0.000000 -0.000000
75  7.478605 11.409908 -9.993881  -0.138628 -2.894737 1.325811
76  -0.660496 13.114730 -3.730435  -0.000222 -0.017468 -1.817942
77  0.000000 0.000000 -0.000000  -1.570730 -0.000000 -0.000000
78  -7.205780 14.136562 -20.526773  1.515278 1.808437 -0.273360
79  2.146484 18.478798 -21.962931  -0.979921 1.888501 0.538430
time 4
0  0 0 0  0 0 0
1  0.000000 0.000000 0.000000  0.000000 -0.000000 -0.000000
2  -0.000005 -0.000002 0.000004  0.000000 -0.000000 -1.570730
3  0.000000 0.000000 -0.000000  -0.785447 -1.570710 -0.785400
4  -0.000001 -0.000003 0.000001  -0.000000 -0.000000 -0.000000
5  -0.000002 0.000003 0.000002  -1.570735 0.000061 -1.570735
6  14.494228 -12.699915 -10.900743  1.761062 2.314501 -0.113975
7  26.391945 0.000018 0.000001  0.008704 0.000016 -1.315923
8  0.000000 0.000002 -0.000001  -0.011475 0.000000 -0.000000
9  3.093508 0.000001 -0.000001  -0.023744 -0.000000 0.000000
10  6.187023 0.000002 -0.000000  -0.035220 0.000000 -0.000000
11  9.280537 -0.000001 0.000000  -0.046759 -0.000000 -0.000000
12  12.374043 0.000003 0.000000  -0.058238 -0.000000 -0.000000
13  15.467552 0.000001 0.000000  -0.070512 -0.000000 0.000000
14  18.561054 -0.000000 0.000001  -0.077903 0.000000 -0.000000
15  21.654533 0.000002 0.000002  -1.640638 0.074529 0.324383
16  1.410067 0.800533 -2.089135  1.449464 0.606809 0.109514
17  3.954706 0.000001 -0.000002  0.000000 -0.000000 0.544879
18  3.101572 -0.000000 0.000000  0.000000 0.000000 0.314908
19  6.164472 -0.898149 2.575015  0.062630 -0.071201 0.671220
20  2.805836 -0.000002 -0.000002  -0.000000 -0.000000 0.210539
21  2.307442 0.000004 -0.000000  -0.000000 0.000000 0.339467
22  7.145103 -0.676338 -1.382429  0.175377 -0.207801 0.604114
23  3.672218 -0.000002 -0.000000  -0.000000 0.000000 0.288669
24  2.676520 0.000003 -0.000000  0.000000 -0.000000 0.153904
25  6.831183 -0.870867 0.599909  0.166655 -0.129188 0.693734
26  3.657091 0.000001 -0.000001  -0.000000 -0.000000 0.333214
27  2.496796 0.000005 0.000001  -0.000000 -0.000000 0.248880
28  7.183346 -0.532084 -3.267610  0.224719 -0.202348 0.268902
29  3.511606 -0.000001 -0.000000  -0.000000 -0.000000 0.364265
30  2.199405 -0.000003 -0.000000  0.000000 -0.000000 0.200047
31  -0.000004 -0.000003 0.000001  1.570735 -0.000061 -1.570735
32  15.766517 -6.880868 3.748658  0.636674 -0.692507 -2.635481
33  26.392057 -0.000009 0.000003  0.000000 -0.000000 -1.317452
34  0.000001 -0.000000 -0.000001  0.113101 -0.000000 0.000000
35  3.093513 -0.000000 0.000000  0.234246 -0.000000 -0.000000
36  6.187019 -0.000003 0.000001  0.347335 -0.000000 0.000000
37  9.280529 -0.000001 0.000005  0.460430 -0.000000 0.000000
38  12.374048 0.000005 0.000001  0.573583 -0.000000 0.000000
39  15.467567 0.000003 0.000001  0.678552 -0.000000 -0.000000
40  18.561077 0.000005 0.000004  0.767436 -0.000000 0.000000
41  21.654442 0.000001 -0.000004  2.483452 0.281124 0.700313
42  1.410073 0.800527 2.089139  -2.483930 -0.403576 0.894568
43  3.954699 0.000005 0.000003  -0.000000 0.000001 0.622638
44  3.101548 -0.000005 -0.000006  0.000001 0.000001 0.398829
45  7.183361 -0.532078 3.267609  -0.069306 0.038527 0.319823
46  3.511589 -0.000002 0.000002  -0.000000 -0.000000 0.542281
47  2.199404 -0.000001 -0.000001  0.000000 0.000000 0.643962
48  7.145098 -0.676336 1.382423  0.041631 0.296291 0.703172
49  3.672211 0.000001 0.000002  -0.000001 -0.000000 0.837989
50  2.676507 -0.000003 -0.000000  0.000000 0.000000 1.331228
51  6.831168 -0.870866 -0.599920  0.057678 0.229072 0.814100
52  3.657082 -0.000001 0.000001  -0.000000 -0.000000 0.799200
53  2.496795 0.000005 -0.000001  0.000000 -0.000000 1.177776
54  6.164462 -0.898142 -2.575021  -0.054493 0.129539 0.625646
55  2.805833 -0.000001 0.000000  -0.000000 0.000000 0.395779
56  2.307438 0.000000 0.000002  -0.000000 0.000000 0.901796
57  0.000000 0.000000 0.000000  0.002814 -0.005795 -0.002267
58  -7.591984 -34.051456 -11.267176  0.045109 -0.198984 0.018260
59  -1.260175 3.403358 4.928343  -0.000002 -0.424415 -3.141592
60  0.090547 0.325028 -2.629768  -0.000000 -0.000000 -0.000000
61  0.090548 8.845201 1.999912  -1.274048 -0.000000 -0.000000
62  0.089595 5.423799 -2.381155  -0.000000 -0.000000 -0.000000
63  -0.008312 0.334987 -0.633064  -0.000000 -0.000000 -0.000000
64  -0.008314 0.281648 -0.636035  -0.000000 -0.000000 -0.000000
65  -0.008316 0.281762 -0.633892  0.000000 0.000000 -1.570730
66  -0.000000 0.277886 -0.657576  0.000000 0.000000 -1.570730
67  0.016056 0.067586 0.526087  -0.000000 0.000000 -1.570730
68  0.016056 0.239574 -0.653647  -0.000000 0.000000 -1.570730
69  0.016055 0.379274 -1.832207  -0.000000 0.000000 -1.570730
70  0.048260 0.601980 -3.840480  -0.000000 0.000000 -1.570730
71  0.090546 -12.795953 3.913126  1.570735 -0.000061 -1.570735
72  0.090547 1.635661 3.971694  -0.000000 -0.000000 -0.000000
73  0.794128 2.468788 0.817013  -0.000000 -0.000000 -0.000000
74  0.090423 2.105195 0.932171  -0.000000 -0.000000 -0.000000
75  10.346393 11.775091 -11.949286  -0.095879 -2.886666 1.235888
76  -0.660496 13.114735 -3.730443  -0.000222 -0.017468 -1.817942
77  0.000000 0.000000 -0.000000  -1.570730 -0.000000 -0.000000
78  -7.862621 14.470449 -20.784414  1.431996 1.801879 -0.329058
79  4.577908 20.401930 -21.524029  -1.113698 1.945157 0.403294
time 5
0  0 0 0  0 0 0
1  0.000000 0.000000 0.000000  0.000000 -0.000000 -0.000000
2  -0.000005 -0.000002 0.000004  0.000000 -0.000000 -1.570730
3  0.000000 0.000000 -0.000000  -0.785447 -1.570710 -0.785400
4  -0.000001 -0.000003 0.000001  -0.000000 -0.000000 -0.000000
5  -0.000002 0.000003 0.000002  -1.570735 0.000061 -1.570735
6  15.121194 -12.699915 -10.900743  1.885034 2.262494 0.015656
7  26.391947 0.000016 0.000001  0.008680 0.000020 -1.285933
8  -0.000001 0.000001 -0.000002  -0.028932 -0.000000 -0.000000
9  3.093508 -0.000001 0.000000  -0.060008 0.000000 -0.000000
10  6.187023 0.000001 -0.000001  -0.088960 0.000000 -0.000000
11  9.280536 0.000001 -0.000000  -0.117931 0.000000 -0.000000
12  12.374041 0.000002 -0.000000  -0.146926 -0.000000 0.000000
13  15.467554 -0.000000 0.000001  -0.177974 -0.000000 -0.000000
14  18.561060 -0.000001 0.000001  -0.196612 0.000000 -0.000000
15  21.654535 0.000002 0.000000  -1.756148 0.182952 0.234788
16  1.410067 0.800533 -2.089136  1.473710 0.605477 0.167054
17  3.954715 -0.000000 -0.000006  0.000000 -0.000000 0.510043
18  3.101570 0.000005 -0.000000  0.000001 0.000000 0.272087
19  6.164472 -0.898149 2.575017  0.068337 -0.054348 0.555299
20  2.805837 0.000001 0.000000  -0.000000 -0.000000 0.084012
21  2.307444 -0.000001 -0.000003  -0.000000 0.000000 0.183858
22  7.145101 -0.676335 -1.382429  0.203471 -0.177222 0.479544
23  3.672216 0.000002 0.000001  0.000000 0.000000 0.173134
24  2.676519 0.000002 0.000001  0.000000 -0.000000 0.002259
25  6.831183 -0.870865 0.599911  0.181704 -0.098993 0.574573
26  3.657091 -0.000002 -0.000001  -0.000000 -0.000000 0.216739
27  2.496798 0.000001 -0.000001  -0.000000 -0.000000 0.087128
28  7.183347 -0.532082 -3.267612  0.245784 -0.160706 0.111555
29  3.511604 -0.000002 -0.000001  -0.000000 -0.000000 0.245066
30  2.199404 0.000002 0.000003  0.000000 -0.000000 0.079430
31  -0.000004 -0.000003 0.000001  1.570735 -0.000061 -1.570735
32  15.343167 -7.103566 3.748656  0.595594 -0.686209 -2.598946
33  26.392054 -0.000009 0.000001  0.000000 -0.000000 -1.316680
34  0.000001 -0.000001 -0.000001  0.109127 -0.000000 0.000000
35  3.093513 -0.000001 0.000002  0.226074 0.000000 0.000000
36  6.187017 -0.000002 0.000004  0.335258 -0.000000 0.000000
37  9.280527 0.000000 0.000006  0.444396 -0.000000 0.000000
38  12.374050 0.000005 0.000004  0.553567 -0.000000 0.000000
39  15.467566 0.000002 0.000001  0.654911 -0.000000 0.000000
40  18.561079 0.000004 0.000004  0.740651 -0.000000 0.000000
41  21.654446 0.000000 -0.000002  2.446939 0.263839 0.686881
42  1.410070 0.800527 2.089142  -2.470176 -0.397843 0.891191
43  3.954697 0.000004 0.000004  0.000000 0.000001 0.625332
44  3.101551 -0.000005 -0.000006  0.000001 0.000001 0.401507
45  7.183359 -0.532081 3.267610  -0.069876 0.038996 0.313490
46  3.511592 -0.000001 0.000001  -0.000000 -0.000000 0.502792
47  2.199409 0.000002 0.000001  0.000000 0.000000 0.604454
48  7.145098 -0.676335 1.382428  0.041631 0.296291 0.703172
49  3.672212 -0.000001 0.000001  -0.000000 0.000000 0.837989
50  2.676507 -0.000001 -0.000001  0.000000 0.000000 1.331228
51  6.831168 -0.870868 -0.599915  0.057678 0.229072 0.814100
52  3.657079 -0.000002 0.000001  -0.000000 -0.000000 0.799200
53  2.496795 0.000000 -0.000001  0.000000 -0.000000 1.177776
54  6.164458 -0.898144 -2.575019  -0.054493 0.129539 0.625646
55  2.805832 0.000000 0.000001  -0.000000 0.000000 0.395779
56  2.307437 -0.000001 -0.000000  -0.000000 0.000000 0.901796
57  0.000000 0.000000 0.000000  0.004226 -0.008538 -0.003436
58  -8.175251 -34.410156 -11.909687  0.066619 -0.138640 0.027759
59  -1.260175 3.403351 4.928344  -0.000002 -0.424415 -3.141592
60  0.090546 0.325024 -2.629765  -0.000000 0.000000 -0.000000
61  0.090547 8.845192 1.999915  -1.274048 0.000000 0.000000
62  0.089593 5.423795 -2.381155  -0.000000 0.000000 0.000000
63  -0.008313 0.334983 -0.633066  -0.000000 0.000000 0.000000
64  -0.008314 0.281645 -0.636034  -0.000000 0.000000 0.000000
65  -0.008316 0.281760 -0.633892  -0.000000 0.000000 -1.570730
66  0.000000 0.277879 -0.657576  -0.000000 0.000000 -1.570730
67  0.016056 0.067582 0.526087  -0.000000 0.000000 -1.570730
68  0.016056 0.239568 -0.653648  -0.000000 0.000000 -1.570730
69  0.016056 0.379270 -1.832207  -0.000000 0.000000 -1.570730
70  0.048260 0.601978 -3.840481  -0.000000 0.000000 -1.570730
71  0.090544 -12.795957 3.913128  1.570735 -0.000061 -1.570735
72  0.090547 1.635662 3.971695  -0.000000 0.000000 0.000000
73  0.794126 2.468785 0.817015  -0.000000 0.000000 0.000000
74  0.090422 2.105193 0.932173  -0.000000 0.000000 0.000000
75  13.656885 12.153260 -14.253130  -0.050137 -2.915341 1.117308
76  -0.660497 13.114722 -3.730431  -0.000222 -0.017468 -1.817942
77  0.000000 0.000000 -0.000000  -1.570730 -0.000000 -0.000000
78  -8.806125 14.822022 -21.088402  1.329755 1.796401 -0.367895
79  6.835155 23.304873 -20.911924  -1.304115 2.019229 0.244033
time 6
0  0 0 0  0 0 0
1  0.000000 0.000000 0.000000  0.000000 -0.000000 -0.000000
2  -0.000005 -0.000002 0.000004  0.000000 -0.000000 -1.570730
3  0.000000 0.000000 -0.000000  -0.785447 -1.570710 -0.785400
4  -0.000001 -0.000003 0.000001  -0.000000 -0.000000 -0.000000
5  -0.000002 0.000003 0.000002  -1.570735 0.000061 -1.570735
6  15.814619 -12.699914 -10.900743  2.184044 2.247884 0.219884
7  26.391947 0.000012 0.000001  0.008686 0.000026 -1.216951
8  -0.000001 0.000002 0.000000  -0.057444 0.000000 -0.000000
9  3.093507 0.000002 0.000001  -0.119031 -0.000000 0.000000
10  6.187022 -0.000000 -0.000000  -0.176565 0.000000 0.000000
11  9.280535 0.000001 0.000000  -0.234062 0.000000 -0.000000
12  12.374041 0.000004 0.000001  -0.291506 0.000000 0.000000
13  15.467551 0.000002 0.000001  -0.353100 -0.000000 -0.000000
14  18.561054 -0.000000 0.000001  -0.390115 0.000000 -0.000000
15  21.654528 0.000002 0.000001  -1.973794 0.218319 0.069818
16  1.410066 0.800533 -2.089139  1.500612 0.602341 0.230458
17  3.954709 0.000002 -0.000004  0.000000 -0.000000 0.471534
18  3.101570 0.000003 0.000001  0.000001 0.000000 0.224661
19  6.164474 -0.898151 2.575011  0.072426 -0.038406 0.470483
20  2.805838 -0.000000 0.000002  -0.000000 -0.000000 -0.008423
21  2.307443 0.000003 -0.000002  -0.000000 0.000000 0.070024
22  7.145101 -0.676339 -1.382431  0.224011 -0.154885 0.388464
23  3.672216 -0.000000 -0.000001  -0.000000 0.000000 0.088655
24  2.676520 0.000003 -0.000000  0.000000 -0.000000 -0.108577
25  6.831181 -0.870865 0.599908  0.192748 -0.076875 0.487426
26  3.657090 0.000000 0.000003  -0.000000 -0.000000 0.131630
27  2.496798 0.000004 -0.000002  -0.000000 -0.000000 -0.031069
28  7.183344 -0.532084 -3.267617  0.261142 -0.127240 -0.003531
29  3.511605 -0.000001 0.000002  -0.000000 -0.000000 0.157945
30  2.199403 0.000003 0.000001  0.000000 -0.000000 -0.023561
31  -0.000004 -0.000003 0.000001  1.570735 -0.000061 -1.570735
32  14.874945 -7.349878 3.748653  0.551159 -0.677203 -2.559903
33  26.392054 -0.000010 -0.000000  -0.000000 -0.000000 -1.316294
34  0.000003 -0.000003 -0.000001  0.103687 -0.000000 0.000000
35  3.093516 -0.000005 0.000001  0.214774 0.000000 0.000000
36  6.187020 -0.000004 0.000003  0.318493 -0.000000 0.000000
37  9.280529 -0.000003 0.000007  0.422147 -0.000000 0.000000
38  12.374052 0.000002 0.000002  0.525892 0.000000 0.000000
39  15.467566 0.000000 0.000003  0.622189 -0.000000 -0.000000
40  18.561081 0.000002 0.000004  0.703657 -0.000000 0.000000
41  21.654446 -0.000002 -0.000004  2.400182 0.247798 0.673521
42  1.410072 0.800526 2.089141  -2.454885 -0.391513 0.887462
43  3.954699 0.000002 0.000005  0.000000 0.000001 0.628283
44  3.101550 -0.000006 -0.000006  0.000001 0.000001 0.404498
45  7.183361 -0.532080 3.267609  -0.070523 0.039449 0.306479
46  3.511591 -0.000002 0.000001  -0.000000 -0.000000 0.459177
47  2.199404 -0.000001 0.000000  0.000000 0.000000 0.560804
48  7.145097 -0.676336 1.382424  0.041631 0.296291 0.703172
49  3.672213 -0.000000 0.000001  -0.000000 0.000000 0.837989
50  2.676509 -0.000003 -0.000000  0.000000 0.000000 1.331228
51  6.831166 -0.870868 -0.599919  0.057678 0.229072 0.814100
52  3.657084 0.000002 0.000001  -0.000000 -0.000000 0.799200
53  2.496795 -0.000004 -0.000002  -0.000000 -0.000000 1.177777
54  6.164461 -0.898144 -2.575019  -0.054493 0.129539 0.625646
55  2.805833 -0.000005 0.000001  -0.000000 0.000000 0.395779
56  2.307437 0.000003 -0.000000  -0.000000 0.000000 0.901796
57  0.000000 0.000000 0.000000  0.005704 -0.011584 -0.004672
58  -8.834711 -34.786518 -12.583854  0.090776 -0.065237 0.038120
59  -1.260175 3.403359 4.928344  -0.000002 -0.424415 -3.141592
60  0.090547 0.325028 -2.629766  -0.000000 -0.000000 -0.000000
61  0.090549 8.845199 1.999913  -1.274048 0.000000 -0.000000
62  0.089594 5.423803 -2.381155  -0.000000 0.000000 -0.000000
63  -0.008313 0.334990 -0.633063  -0.000000 0.000000 -0.000000
64  -0.008314 0.281650 -0.636033  -0.000000 0.000000 -0.000000
65  -0.008315 0.281763 -0.633890  0.000000 -0.000000 -1.570730
66  0.000000 0.277887 -0.657575  0.000000 -0.000000 -1.570730
67  0.016055 0.067586 0.526089  0.000000 -0.000000 -1.570730
68  0.016056 0.239575 -0.653646  0.000000 -0.000000 -1.570730
69  0.016056 0.379276 -1.832206  0.000000 -0.000000 -1.570730
70  0.048260 0.601983 -3.840479  0.000000 -0.000000 -1.570730
71  0.090546 -12.795952 3.913127  1.570735 -0.000061 -1.570735
72  0.090548 1.635663 3.971694  -0.000000 0.000000 -0.000000
73  0.794128 2.468793 0.817015  -0.000000 0.000000 -0.000000
74  0.090423 2.105198 0.932174  -0.000000 0.000000 -0.000000
75  17.146566 12.548657 -16.679461  -0.004551 -2.966123 0.988623
76  -0.660495 13.114726 -3.730437  -0.000222 -0.017468 -1.817942
77  0.000000 0.000000 -0.000000  -1.570730 -0.000000 -0.000000
78  -9.839834 15.147451 -21.416162  1.218083 1.792639 -0.402619
79  8.736647 26.905941 -20.096268  -1.465097 2.115712 0.123185
time 7
0  0 0 0  0 0 0
1  0.000000 0.000000 0.000000  0.000000 -0.000000 -0.000000
2  -0.000005 -0.000002 0.000004  0.000000 -0.000000 -1.570730
3  0.000000 0.000000 -0.000000  -0.785447 -1.570710 -0.785400
4  -0.000001 -0.000003 0.000001  -0.000000 -0.000000 -0.000000
5  -0.000002 0.000003 0.000002  -1.570735 0.000061 -1.570735
6  16.547926 -12.699915 -10.900744  -0.549990 0.834005 -2.724376
7  26.391949 0.000016 0.000004  0.008689 0.000040 -1.118976
8  0.000001 -0.000003 -0.000002  -0.091954 -0.000000 0.000000
9  3.093509 -0.000003 0.000000  -0.190479 0.000000 0.000000
10  6.187024 -0.000004 -0.000002  -0.282441 0.000000 -0.000000
11  9.280538 -0.000006 0.000001  -0.374449 0.000000 -0.000000
12  12.374043 -0.000001 -0.000001  -0.466388 0.000000 -0.000000
13  15.467555 -0.000004 0.000001  -0.564934 0.000000 -0.000000
14  18.561058 -0.000004 0.000002  -0.624048 0.000000 -0.000000
15  21.654537 -0.000001 0.000000  -2.237407 0.134479 -0.143494
16  1.410069 0.800532 -2.089137  1.529065 0.597000 0.297149
17  3.954712 0.000002 -0.000003  0.000000 -0.000000 0.430828
18  3.101570 0.000002 -0.000002  0.000000 0.000000 0.174605
19  6.164473 -0.898151 2.575015  0.074055 -0.025047 0.437616
20  2.805837 -0.000001 -0.000004  -0.000000 -0.000000 -0.044255
21  2.307443 0.000004 -0.000003  -0.000000 0.000000 0.025880
22  7.145100 -0.676337 -1.382431  0.231995 -0.146214 0.353115
23  3.672218 0.000002 -0.000001  -0.000000 0.000000 0.055917
24  2.676518 0.000003 -0.000000  0.000000 -0.000000 -0.151578
25  6.831182 -0.870866 0.599907  0.196988 -0.068260 0.453653
26  3.657089 -0.000002 0.000006  -0.000000 -0.000000 0.098614
27  2.496796 0.000004 0.000002  -0.000000 -0.000000 -0.076925
28  7.183345 -0.532085 -3.267613  0.267148 -0.108188 -0.048042
29  3.511606 -0.000001 0.000001  -0.000000 -0.000000 0.124168
30  2.199403 0.000002 -0.000001  0.000000 0.000000 -0.092932
31  -0.000004 -0.000003 0.000001  1.570735 -0.000061 -1.570735
32  14.379786 -7.610347 3.748652  0.502683 -0.665257 -2.522074
33  26.392052 -0.000008 -0.000002  0.000000 -0.000000 -1.317760
34  0.000000 0.000000 -0.000001  0.099959 -0.000000 0.000000
35  3.093511 0.000002 0.000000  0.207102 -0.000000 -0.000000
36  6.187017 -0.000000 0.000002  0.307124 -0.000000 0.000000
37  9.280529 0.000000 0.000005  0.407115 -0.000000 0.000000
38  12.374049 0.000006 0.000001  0.507142 -0.000000 0.000000
39  15.467566 0.000003 0.000000  0.600045 -0.000000 0.000000
40  18.561081 0.000008 0.000004  0.678617 -0.000000 0.000000
41  21.654438 0.000002 -0.000003  2.367587 0.233211 0.665422
42  1.410071 0.800528 2.089140  -2.438671 -0.384869 0.883513
43  3.954699 0.000005 0.000005  0.000000 0.000000 0.631429
44  3.101551 -0.000005 -0.000006  0.000001 0.000001 0.407613
45  7.183360 -0.532080 3.267609  -0.071233 0.039953 0.299098
46  3.511588 -0.000002 -0.000000  0.000000 -0.000000 0.412975
47  2.199407 0.000000 -0.000001  0.000000 0.000000 0.514649
48  7.145095 -0.676334 1.382424  0.041631 0.296291 0.703172
49  3.672210 0.000004 0.000000  -0.000000 0.000000 0.837989
50  2.676506 0.000005 -0.000002  0.000000 0.000000 1.331228
51  6.831168 -0.870867 -0.599918  0.057678 0.229072 0.814100
52  3.657080 -0.000004 0.000002  -0.000000 -0.000000 0.799200
53  2.496795 0.000000 0.000000  0.000000 -0.000000 1.177777
54  6.164459 -0.898144 -2.575021  -0.054493 0.129539 0.625646
55  2.805835 -0.000002 -0.000003  -0.000000 0.000000 0.395779
56  2.307438 -0.000001 0.000001  -0.000000 0.000000 0.901796
57  0.000000 0.000000 0.000000  0.007308 -0.014872 -0.005975
58  -9.477977 -35.150124 -13.235159  0.114947 -0.000934 0.049167
59  -1.260175 3.403359 4.928344  -0.000002 -0.424416 -3.141592
60  0.090547 0.325028 -2.629766  -0.000000 -0.000000 -0.000000
61  0.090548 8.845200 1.999913  -1.274048 -0.000000 -0.000000
62  0.089595 5.423806 -2.381155  -0.000000 -0.000000 -0.000000
63  -0.008314 0.334983 -0.633063  -0.000000 -0.000000 -0.000000
64  -0.008314 0.281648 -0.636034  -0.000000 -0.000000 -0.000000
65  -0.008316 0.281760 -0.633890  -0.000000 0.000000 -1.570730
66  -0.000001 0.277882 -0.657575  -0.000000 0.000000 -1.570730
67  0.016055 0.067582 0.526088  -0.000000 0.000000 -1.570730
68  0.016055 0.239572 -0.653647  -0.000000 0.000000 -1.570730
69  0.016055 0.379272 -1.832207  -0.000000 0.000000 -1.570730
70  0.048259 0.601978 -3.840480  -0.000000 0.000000 -1.570730
71  0.090545 -12.795949 3.913127  1.570735 -0.000061 -1.570735
72  0.090548 1.635670 3.971694  -0.000000 -0.000000 -0.000000
73  0.794127 2.468792 0.817014  -0.000000 -0.000000 -0.000000
74  0.090423 2.105198 0.932173  -0.000000 -0.000000 -0.000000
75  20.551880 12.965401 -19.002319  0.037658 -3.022585 0.866263
76  -0.660499 13.114737 -3.730438  -0.000222 -0.017468 -1.817942
77  0.000000 0.000000 -0.000000  -1.570730 -0.000000 -0.000000
78  -10.797203 15.436755 -21.742613  1.107029 1.790542 -0.445586
79  10.324739 30.605257 -19.096994  -1.566756 2.221158 0.050327
time 8
0  0 0 0  0 0 0
1  0.000000 0.000000 0.000000  0.000000 -0.000000 -0.000000
2  -0.000005 -0.000002 0.000004  0.000000 -0.000000 -1.570730
3  0.000000 0.000000 -0.000000  -0.785447 -1.570710 -0.785400
4  -0.000001 -0.000003 0.000001  -0.000000 -0.000000 -0.000000
5  -0.000002 0.000003 0.000002  -1.570735 0.000061 -1.570735
6  17.294523 -12.699914 -10.900743  -0.216382 0.754572 -2.645864
7  26.391945 0.000016 -0.000002  0.008685 0.000039 -1.005346
8  -0.000001 0.000006 0.000000  -0.122211 -0.000000 0.000000
9  3.093508 0.000005 -0.000000  -0.253186 0.000000 0.000000
10  6.187023 0.000002 0.000001  -0.375443 0.000000 -0.000000
11  9.280537 0.000005 -0.000000  -0.497752 0.000000 -0.000000
12  12.374043 0.000007 -0.000001  -0.619945 0.000000 -0.000000
13  15.467552 0.000001 0.000001  -0.750941 0.000000 0.000000
14  18.561056 0.000005 -0.000001  -0.829578 0.000000 -0.000000
15  21.654533 0.000005 0.000000  -2.438699 -0.031146 -0.340127
16  1.410068 0.800533 -2.089138  1.557791 0.589441 0.364432
17  3.954707 0.000000 -0.000004  0.000000 -0.000000 0.389369
18  3.101570 0.000001 0.000002  0.000000 0.000000 0.123557
19  6.164474 -0.898150 2.575011  0.071465 -0.012676 0.489005
20  2.805839 -0.000001 0.000002  -0.000000 -0.000000 0.000489
21  2.307444 0.000001 0.000001  -0.000000 0.000000 0.052437
22  7.145100 -0.676336 -1.382429  0.222743 -0.146678 0.400466
23  3.672218 -0.000004 -0.000006  -0.000000 0.000000 0.107660
24  2.676520 0.000002 0.000003  0.000000 -0.000000 -0.122578
25  6.831182 -0.870866 0.599905  0.190088 -0.068510 0.502754
26  3.657090 -0.000003 -0.000005  -0.000000 -0.000000 0.149742
27  2.496797 0.000002 -0.000000  -0.000000 -0.000000 -0.054207
28  7.183347 -0.532083 -3.267614  0.256449 -0.099689 -0.022907
29  3.511605 -0.000001 0.000003  -0.000000 -0.000000 0.173563
30  2.199403 0.000003 -0.000000  0.000000 0.000000 -0.134444
31  -0.000004 -0.000003 0.000001  1.570735 -0.000061 -1.570735
32  13.875659 -7.875540 3.748648  0.453046 -0.650603 -2.487986
33  26.392052 -0.000005 0.000002  -0.000000 -0.000000 -1.324021
34  0.000001 0.000002 0.000000  0.097148 -0.000000 0.000000
35  3.093514 0.000001 0.000001  0.201335 0.000000 -0.000000
36  6.187017 -0.000001 0.000002  0.298541 -0.000000 -0.000000
37  9.280528 0.000001 0.000005  0.395716 -0.000000 0.000000
38  12.374048 0.000007 0.000004  0.492967 -0.000000 0.000000
39  15.467569 0.000002 0.000001  0.583199 -0.000000 0.000000
40  18.561079 0.000004 0.000005  0.659618 -0.000000 0.000000
41  21.654446 0.000001 -0.000002  2.343215 0.219700 0.667236
42  1.410072 0.800526 2.089139  -2.422326 -0.377983 0.879668
43  3.954697 0.000007 0.000006  0.000000 0.000000 0.634640
44  3.101548 -0.000003 -0.000007  0.000001 0.000001 0.410793
45  7.183357 -0.532078 3.267607  -0.071951 0.040446 0.291535
46  3.511589 0.000001 0.000001  -0.000000 -0.000000 0.366003
47  2.199402 -0.000001 -0.000001  0.000000 0.000000 0.467643
48  7.145097 -0.676336 1.382425  0.041631 0.296291 0.703172
49  3.672210 0.000001 0.000001  -0.000000 0.000000 0.837989
50  2.676509 -0.000005 -0.000003  0.000000 0.000000 1.331228
51  6.831166 -0.870866 -0.599918  0.057678 0.229072 0.814100
52  3.657084 -0.000004 0.000001  -0.000000 -0.000000 0.799200
53  2.496796 0.000000 -0.000002  -0.000000 -0.000000 1.177776
54  6.164460 -0.898142 -2.575020  -0.054493 0.129539 0.625646
55  2.805833 0.000002 -0.000004  -0.000000 0.000000 0.395779
56  2.307442 -0.000001 0.000000  -0.000000 0.000000 0.901796
57  0.000000 0.000000 0.000000  0.008918 -0.018157 -0.007345
58  -10.012665 -35.476261 -13.819351  0.141228 0.058354 0.060516
59  -1.260175 3.403358 4.928344  -0.000002 -0.424416 -3.141592
60  0.090547 0.325026 -2.629765  0.000000 -0.000000 -0.000000
61  0.090548 8.845198 1.999913  -1.274048 0.000000 0.000000
62  0.089594 5.423802 -2.381154  0.000000 0.000000 0.000000
63  -0.008314 0.334987 -0.633062  0.000000 0.000000 0.000000
64  -0.008314 0.281646 -0.636033  0.000000 0.000000 0.000000
65  -0.008316 0.281762 -0.633890  -0.000000 0.000000 -1.570730
66  -0.000001 0.277884 -0.657575  -0.000000 0.000000 -1.570730
67  0.016055 0.067584 0.526090  -0.000000 0.000000 -1.570730
68  0.016055 0.239570 -0.653647  -0.000000 0.000000 -1.570730
69  0.016055 0.379273 -1.832204  -0.000000 0.000000 -1.570730
70  0.048260 0.601981 -3.840479  -0.000000 0.000000 -1.570730
71  0.090545 -12.795955 3.913128  1.570735 -0.000061 -1.570735
72  0.090548 1.635667 3.971695  0.000000 0.000000 0.000000
73  0.794128 2.468792 0.817015  0.000000 0.000000 0.000000
74  0.090423 2.105197 0.932172  0.000000 0.000000 0.000000
75  23.609322 13.407718 -20.995749  0.074268 -3.066003 0.763094
76  -0.660496 13.114733 -3.730438  -0.000222 -0.017468 -1.817942
77  0.000000 0.000000 -0.000000  -1.570730 -0.000000 -0.000000
78  -11.596219 15.624282 -22.038124  0.991135 1.791599 -0.498060
79  11.429819 34.063557 -17.915466  -1.617577 2.315272 0.028978
time 9
0  0 0 0  0 0 0
1  0.000000 0.000000 0.000000  0.000000 -0.000000 -0.000000
2  -0.000005 -0.000002 0.000004  0.000000 -0.000000 -1.570730
3  0.000000 0.000000 -0.000000  -0.785447 -1.570710 -0.785400
4  -0.000001 -0.000003 0.000001  -0.000000 -0.000000 -0.000000
5  -0.000002 0.000003 0.000002  -1.570735 0.000061 -1.570735
6  18.027828 -12.699914 -10.900743  -0.031328 0.726152 -2.668898
7  26.391949 0.000017 -0.000001  0.008710 0.000002 -0.883737
8  0.000001 -0.000001 -0.000001  -0.142887 -0.000000 -0.000000
9  3.093509 -0.000004 -0.000001  -0.296072 0.000000 0.000000
10  6.187024 -0.000001 -0.000002  -0.439016 0.000000 -0.000000
11  9.280538 0.000000 -0.000001  -0.581988 0.000000 -0.000000
12  12.374043 0.000002 -0.000000  -0.724896 -0.000000 -0.000000
13  15.467555 -0.000001 0.000001  -0.878060 0.000000 0.000000
14  18.561056 -0.000004 0.000003  -0.969983 0.000000 -0.000000
15  21.654533 -0.000000 0.000000  -2.539506 -0.203665 -0.501520
16  1.410065 0.800530 -2.089139  1.585609 0.580008 0.429841
17  3.954708 -0.000001 -0.000003  0.000000 -0.000000 0.348699
18  3.101569 -0.000001 -0.000002  0.000000 -0.000000 0.073444
19  6.164474 -0.898151 2.575017  0.064723 0.000982 0.624483
20  2.805838 0.000002 -0.000006  -0.000000 -0.000000 0.118726
21  2.307442 0.000003 0.000003  -0.000000 0.000000 0.122333
22  7.145098 -0.676336 -1.382429  0.198296 -0.147863 0.525294
23  3.672218 -0.000002 0.000001  -0.000000 0.000000 0.244021
24  2.676520 0.000001 0.000002  0.000000 -0.000000 -0.046026
25  6.831182 -0.870867 0.599912  0.171836 -0.069009 0.632097
26  3.657090 -0.000002 0.000007  -0.000000 -0.000000 0.284599
27  2.496796 0.000003 -0.000002  -0.000000 -0.000000 0.005555
28  7.183343 -0.532084 -3.267613  0.228285 -0.093252 0.043431
29  3.511605 -0.000001 -0.000004  -0.000000 -0.000000 0.303912
30  2.199402 0.000004 -0.000001  0.000000 0.000000 -0.165660
31  -0.000004 -0.000003 0.000001  1.570735 -0.000061 -1.570735
32  13.380505 -8.136016 3.748646  0.406682 -0.634171 -2.457557
33  26.392059 -0.000009 -0.000001  -0.000000 -0.000000 -1.333712
34  0.000000 0.000003 -0.000001  0.093176 -0.000000 0.000001
35  3.093511 0.000003 -0.000001  0.193116 -0.000000 0.000000
36  6.187018 -0.000002 0.000004  0.286325 -0.000000 -0.000000
37  9.280529 0.000002 0.000005  0.379544 -0.000000 0.000000
38  12.374046 0.000008 0.000001  0.472789 -0.000000 0.000000
39  15.467565 0.000003 0.000001  0.559343 -0.000000 0.000000
40  18.561081 0.000008 0.000003  0.632584 -0.000000 0.000000
41  21.654440 0.000004 -0.000005  2.311311 0.206458 0.677628
42  1.410074 0.800528 2.089140  -2.406330 -0.371198 0.875835
43  3.954697 0.000004 0.000005  0.000000 0.000000 0.637789
44  3.101548 -0.000003 -0.000006  0.000001 0.000001 0.413973
45  7.183358 -0.532079 3.267609  -0.072670 0.040942 0.284162
46  3.511592 -0.000001 0.000002  0.000000 -0.000000 0.319791
47  2.199408 0.000002 0.000000  0.000000 0.000000 0.421461
48  7.145096 -0.676336 1.382425  0.041631 0.296291 0.703172
49  3.672211 -0.000002 0.000001  -0.000000 0.000000 0.837989
50  2.676510 0.000001 -0.000002  -0.000000 0.000000 1.331228
51  6.831170 -0.870867 -0.599918  0.057678 0.229072 0.814100
52  3.657081 -0.000000 -0.000001  -0.000000 -0.000000 0.799200
53  2.496795 0.000001 0.000000  -0.000000 -0.000000 1.177777
54  6.164463 -0.898141 -2.575019  -0.054493 0.129539 0.625646
55  2.805833 -0.000002 0.000001  -0.000000 0.000000 0.395779
56  2.307437 -0.000001 -0.000001  -0.000000 0.000000 0.901796
57  0.000000 0.000000 0.000000  0.010531 -0.021379 -0.008719
58  -10.484786 -35.777626 -14.359181  0.172344 0.124013 0.072056
59  -1.260175 3.403359 4.928344  -0.000002 -0.424416 -3.141592
60  0.090546 0.325030 -2.629766  0.000000 -0.000000 -0.000000
61  0.090549 8.845201 1.999915  -1.274048 -0.000000 0.000000
62  0.089593 5.423802 -2.381153  0.000000 -0.000000 0.000000
63  -0.008312 0.334988 -0.633065  0.000000 -0.000000 0.000000
64  -0.008314 0.281649 -0.636035  0.000000 -0.000000 0.000000
65  -0.008316 0.281763 -0.633891  0.000000 -0.000000 -1.570730
66  0.000000 0.277884 -0.657575  0.000000 -0.000000 -1.570730
67  0.016056 0.067585 0.526089  0.000000 -0.000000 -1.570730
68  0.016057 0.239570 -0.653648  0.000000 -0.000000 -1.570730
69  0.016056 0.379275 -1.832206  0.000000 -0.000000 -1.570730
70  0.048259 0.601982 -3.840481  0.000000 -0.000000 -1.570730
71  0.090546 -12.795948 3.913127  1.570735 -0.000061 -1.570735
72  0.090548 1.635667 3.971696  0.000000 -0.000000 0.000000
73  0.794128 2.468795 0.817014  0.000000 -0.000000 0.000000
74  0.090423 2.105196 0.932174  0.000000 -0.000000 0.000000
75  26.055351 13.879843 -22.433773  0.103613 -3.075723 0.688608
76  -0.660496 13.114735 -3.730433  -0.000222 -0.017468 -1.817942
77  0.000000 0.000000 -0.000000  -1.570730 -0.000000 -0.000000
78  -12.291162 15.691886 -22.312498  0.867789 1.797413 -0.550781
79  11.607256 37.151886 -16.614115  -1.629825 2.380228 0.071276
time 10
0  0 0 0  0 0 0
1  0.000000 0.000000 0.000000  0.000000 -0.000000 -0.000000
2  -0.000005 -0.000002 0.000004  0.000000 -0.000000 -1.570730
3  0.000000 0.000000 -0.000000  -0.785447 -1.570710 -0.785400
4  -0.000001 -0.000003 0.000001  -0.000000 -0.000000 -0.000000
5  -0.000002 0.000003 0.000002  -1.570735 0.000061 -1.570735
6  18.721252 -12.699914 -10.900743  0.035183 0.742278 -2.725783
7  26.391945 0.000017 -0.000002  0.008705 -0.000007 -0.774887
8  0.000002 0.000000 0.000001  -0.160333 -0.000000 0.000000
9  3.093510 -0.000003 0.000003  -0.332162 -0.000000 0.000000
10  6.187024 -0.000002 0.000004  -0.492527 0.000000 -0.000000
11  9.280537 -0.000002 0.000004  -0.652848 0.000000 -0.000000
12  12.374043 0.000001 0.000001  -0.813201 -0.000000 0.000000
13  15.467556 0.000000 0.000000  -0.985053 0.000000 0.000000
14  18.561056 -0.000001 0.000005  -1.088144 0.000000 -0.000000
15  21.654535 0.000000 0.000007  -2.607698 -0.328138 -0.634046
16  1.410067 0.800534 -2.089140  1.611304 0.569183 0.490787
17  3.954710 0.000002 -0.000000  0.000000 -0.000000 0.310150
18  3.101570 0.000004 0.000001  0.000000 0.000000 0.026064
19  6.164476 -0.898149 2.575011  0.055188 0.015053 0.816031
20  2.805838 0.000000 -0.000003  -0.000000 -0.000000 0.285893
21  2.307444 0.000000 -0.000006  -0.000000 0.000000 0.221222
22  7.145102 -0.676336 -1.382431  0.163734 -0.149580 0.701778
23  3.672218 -0.000003 0.000001  0.000000 0.000000 0.436828
24  2.676520 0.000003 0.000001  0.000000 -0.000000 0.062085
25  6.831183 -0.870865 0.599908  0.146049 -0.069725 0.814927
26  3.657090 -0.000002 -0.000001  -0.000000 0.000000 0.475301
27  2.496795 0.000001 0.000006  -0.000000 -0.000000 0.090121
28  7.183347 -0.532083 -3.267611  0.188465 -0.088658 0.137249
29  3.511603 0.000000 -0.000006  -0.000000 -0.000000 0.488122
30  2.199403 0.000001 0.000002  0.000000 0.000000 -0.188026
31  -0.000004 -0.000003 0.000001  1.570735 -0.000061 -1.570735
32  12.912282 -8.382326 3.748643  0.363651 -0.617065 -2.432380
33  26.392054 -0.000006 -0.000002  0.000000 -0.000000 -1.337521
34  0.000001 -0.000000 0.000001  0.089754 -0.000000 0.000000
35  3.093514 -0.000003 0.000000  0.185942 -0.000000 -0.000000
36  6.187019 -0.000003 0.000004  0.275784 -0.000000 0.000000
37  9.280531 0.000000 0.000007  0.365569 -0.000000 0.000000
38  12.374051 0.000006 0.000003  0.455354 -0.000000 0.000000
39  15.467567 0.000001 0.000003  0.538735 -0.000000 -0.000000
40  18.561085 0.000007 0.000006  0.609251 -0.000000 0.000000
41  21.654442 -0.000002 -0.000001  2.283409 0.194147 0.687667
42  1.410071 0.800527 2.089140  -2.391155 -0.364853 0.872353
43  3.954700 0.000005 0.000002  0.000000 0.000001 0.640746
44  3.101551 -0.000005 -0.000007  0.000001 0.000001 0.416905
45  7.183361 -0.532080 3.267609  -0.073327 0.041435 0.277101
46  3.511591 0.000000 0.000001  0.000000 -0.000000 0.276154
47  2.199406 -0.000003 -0.000003  0.000000 0.000000 0.377866
48  7.145097 -0.676335 1.382425  0.041631 0.296291 0.703172
49  3.672213 0.000004 0.000001  -0.000000 -0.000000 0.837989
50  2.676508 0.000005 0.000001  0.000000 0.000000 1.331228
51  6.831169 -0.870868 -0.599920  0.057678 0.229072 0.814100
52  3.657083 -0.000003 -0.000001  -0.000000 -0.000000 0.799200
53  2.496795 -0.000001 -0.000000  -0.000000 -0.000000 1.177777
54  6.164461 -0.898145 -2.575023  -0.054493 0.129539 0.625646
55  2.805831 0.000000 0.000002  -0.000000 0.000000 0.395779
56  2.307436 -0.000003 -0.000000  -0.000000 0.000000 0.901796
57  0.000000 0.000000 0.000000  0.012086 -0.024478 -0.009976
58  -10.978945 -36.118465 -14.969717  0.205662 0.184781 0.083343
59  -1.260174 3.403362 4.928343  -0.000002 -0.424415 -3.141592
60  0.090546 0.325029 -2.629766  -0.000000 -0.000000 -0.000000
61  0.090549 8.845197 1.999913  -1.274048 -0.000000 0.000000
62  0.089593 5.423803 -2.381155  -0.000000 -0.000000 0.000000
63  -0.008313 0.334987 -0.633063  -0.000000 -0.000000 0.000000
64  -0.008314 0.281647 -0.636034  -0.000000 -0.000000 0.000000
65  -0.008316 0.281763 -0.633889  0.000000 -0.000000 -1.570730
66  -0.000000 0.277887 -0.657575  0.000000 -0.000000 -1.570730
67  0.016056 0.067585 0.526088  0.000000 -0.000000 -1.570730
68  0.016056 0.239573 -0.653646  0.000000 -0.000000 -1.570730
69  0.016057 0.379277 -1.832206  0.000000 -0.000000 -1.570730
70  0.048260 0.601981 -3.840479  0.000000 -0.000000 -1.570730
71  0.090544 -12.795953 3.913128  1.570735 -0.000061 -1.570735
72  0.090548 1.635666 3.971695  -0.000000 -0.000000 0.000000
73  0.794127 2.468791 0.817015  -0.000000 -0.000000 0.000000
74  0.090423 2.105196 0.932174  -0.000000 -0.000000 0.000000
75  27.905163 14.466033 -23.277290  0.086520 -3.059404 0.634650
76  -0.660495 13.114718 -3.730435  -0.000222 -0.017468 -1.817942
77  0.000000 0.000000 -0.000000  -1.570730 -0.000000 -0.000000
78  -12.937155 15.804826 -22.634523  0.750615 1.807541 -0.601735
79  11.148806 39.591045 -15.286990  -1.664760 2.421291 0.143639
time 11
0  0 0 0  0 0 0
1  0.000000 0.000000 0.000000  0.000000 -0.000000 -0.000000
2  -0.000005 -0.000002 0.000004  0.000000 -0.000000 -1.570730
3  0.000000 0.000000 -0.000000  -0.785447 -1.570710 -0.785400
4  -0.000001 -0.000003 0.000001  -0.000000 -0.000000 -0.000000
5  -0.000002 0.000003 0.000002  -1.570735 0.000061 -1.570735
6  19.348219 -12.699912 -10.900744  0.053067 0.769376 -2.765387
7  26.391951 0.000016 -0.000004  0.008709 0.000036 -0.709454
8  0.000000 -0.000001 0.000001  -0.179936 -0.000000 0.000000
9  3.093507 -0.000002 0.000002  -0.372771 0.000000 0.000000
10  6.187025 0.000001 0.000000  -0.552742 0.000000 -0.000000
11  9.280538 0.000002 -0.000001  -0.732669 0.000000 -0.000000
12  12.374043 0.000001 0.000002  -0.912660 0.000000 -0.000000
13  15.467550 -0.000003 0.000003  -1.105454 0.000000 -0.000000
14  18.561056 -0.000003 0.000003  -1.221181 0.000000 -0.000000
15  21.654533 0.000000 0.000001  -2.702973 -0.394252 -0.734236
16  1.410069 0.800533 -2.089138  1.633903 0.557869 0.545086
17  3.954712 -0.000001 -0.000005  0.000000 -0.000000 0.275353
18  3.101571 0.000004 -0.000000  0.000000 -0.000000 -0.016724
19  6.164474 -0.898149 2.575016  0.044197 0.028503 1.035593
20  2.805837 0.000001 0.000004  -0.000000 -0.000000 0.477436
21  2.307441 0.000002 -0.000001  -0.000000 0.000000 0.334514
22  7.145101 -0.676336 -1.382429  0.124133 -0.151487 0.904045
23  3.672218 0.000000 0.000006  0.000000 0.000000 0.657876
24  2.676519 0.000001 -0.000003  0.000000 -0.000000 0.186126
25  6.831182 -0.870864 0.599907  0.116440 -0.070511 1.024584
26  3.657090 0.000001 0.000003  -0.000000 0.000000 0.693913
27  2.496799 0.000005 0.000003  -0.000000 -0.000000 0.187107
28  7.183347 -0.532082 -3.267611  0.142821 -0.085557 0.244858
29  3.511605 0.000004 0.000001  -0.000000 -0.000000 0.699367
30  2.199401 0.000001 0.000000  0.000000 0.000000 -0.203052
31  -0.000004 -0.000003 0.000001  1.570735 -0.000061 -1.570735
32  12.488928 -8.605023 3.748641  0.324469 -0.600584 -2.412724
33  26.392057 -0.000005 0.000001  0.000000 -0.000000 -1.336432
34  -0.000000 -0.000003 -0.000001  0.088349 -0.000000 0.000001
35  3.093512 -0.000004 -0.000002  0.183061 -0.000000 0.000000
36  6.187017 -0.000006 0.000001  0.271410 -0.000000 -0.000000
37  9.280529 -0.000006 0.000005  0.359798 -0.000000 0.000000
38  12.374050 0.000002 0.000002  0.448152 -0.000000 0.000000
39  15.467567 -0.000003 0.000001  0.530191 0.000000 0.000000
40  18.561085 0.000003 0.000003  0.599661 -0.000000 0.000000
41  21.654440 -0.000002 -0.000003  2.269785 0.181741 0.696901
42  1.410072 0.800529 2.089142  -2.377546 -0.359103 0.869135
43  3.954701 0.000003 0.000004  0.000000 0.000000 0.643448
44  3.101549 -0.000004 -0.000004  0.000001 0.000001 0.419588
45  7.183360 -0.532079 3.267612  -0.073920 0.041883 0.270785
46  3.511590 -0.000002 0.000000  0.000000 -0.000000 0.236705
47  2.199406 0.000001 -0.000001  0.000000 0.000000 0.338353
48  7.145099 -0.676333 1.382427  0.041631 0.296291 0.703172
49  3.672210 0.000001 0.000000  -0.000000 -0.000000 0.837989
50  2.676509 -0.000003 -0.000001  0.000000 0.000000 1.331228
51  6.831168 -0.870864 -0.599916  0.057678 0.229072 0.814100
52  3.657082 0.000001 0.000004  -0.000000 -0.000000 0.799200
53  2.496795 -0.000001 0.000002  0.000000 -0.000000 1.177777
54  6.164463 -0.898142 -2.575018  -0.054493 0.129539 0.625646
55  2.805834 -0.000001 0.000000  -0.000000 0.000000 0.395779
56  2.307439 -0.000003 0.000000  -0.000000 0.000000 0.901796
57  0.000000 0.000000 0.000000  0.013399 -0.027211 -0.011170
58  -11.460627 -36.467499 -15.594920  0.237896 0.229291 0.093861
59  -1.260175 3.403359 4.928344  -0.000002 -0.424416 -3.141592
60  0.090547 0.325031 -2.629766  -0.000000 0.000000 -0.000000
61  0.090549 8.845200 1.999914  -1.274048 0.000000 0.000000
62  0.089594 5.423805 -2.381154  -0.000000 0.000000 0.000000
63  -0.008313 0.334988 -0.633064  -0.000000 0.000000 0.000000
64  -0.008314 0.281646 -0.636034  -0.000000 0.000000 0.000000
65  -0.008316 0.281759 -0.633891  -0.000000 0.000000 -1.570730
66  -0.000001 0.277885 -0.657575  -0.000000 0.000000 -1.570730
67  0.016057 0.067582 0.526086  -0.000000 0.000000 -1.570730
68  0.016056 0.239570 -0.653649  -0.000000 0.000000 -1.570730
69  0.016055 0.379273 -1.832206  -0.000000 0.000000 -1.570730
70  0.048259 0.601977 -3.840480  -0.000000 0.000000 -1.570730
71  0.090546 -12.795953 3.913128  1.570735 -0.000061 -1.570735
72  0.090547 1.635667 3.971695  -0.000000 0.000000 0.000000
73  0.794128 2.468795 0.817013  -0.000000 0.000000 0.000000
74  0.090423 2.105193 0.932173  -0.000000 0.000000 0.000000
75  29.365450 15.178663 -23.713327  0.005107 -3.040619 0.588220
76  -0.660497 13.114717 -3.730434  -0.000222 -0.017468 -1.817942
77  0.000000 0.000000 -0.000000  -1.570730 -0.000000 -0.000000
78  -13.499213 15.965146 -22.974689  0.648826 1.820619 -0.653330
79  10.696903 41.228920 -13.951140  -1.762042 2.454633 0.203994
time 12
0  0 0 0  0 0 0
1  0.000000 0.000000 0.000000  0.000000 -0.000000 -0.000000
2  -0.000005 -0.000002 0.000004  0.000000 -0.000000 -1.570730
3  0.000000 0.000000 -0.000000  -0.785447 -1.570710 -0.785400
4  -0.000001 -0.000003 0.000001  -0.000000 -0.000000 -0.000000
5  -0.000002 0.000003 0.000002  -1.570735 0.000061 -1.570735
6  19.882137 -12.699914 -10.900744  0.071088 0.787128 -2.754503
7  26.391947 0.000018 -0.000001  0.008651 0.000037 -0.714533
8  0.000002 0.000003 0.000004  -0.198942 0.000000 -0.000000
9  3.093508 0.000004 0.000004  -0.412102 0.000000 0.000000
10  6.187024 0.000002 0.000004  -0.611043 0.000000 -0.000000
11  9.280539 0.000004 0.000002  -0.809946 0.000000 0.000000
12  12.374043 0.000005 0.000004  -1.008890 -0.000000 0.000000
13  15.467556 0.000004 0.000005  -1.222075 -0.000000 -0.000000
14  18.561056 0.000000 0.000005  -1.349921 0.000000 -0.000000
15  21.654533 0.000003 0.000007  -2.819530 -0.412751 -0.782578
16  1.410068 0.800532 -2.089140  1.652617 0.547107 0.590605
17  3.954707 -0.000002 -0.000002  0.000000 -0.000000 0.245743
18  3.101571 0.000001 -0.000001  0.000000 0.000000 -0.053170
19  6.164474 -0.898151 2.575011  0.033230 0.040607 1.255174
20  2.805840 -0.000002 -0.000002  -0.000000 -0.000000 0.669045
21  2.307442 0.000001 0.000004  0.000000 0.000000 0.447838
22  7.145102 -0.676339 -1.382436  0.084513 -0.153374 1.106291
23  3.672219 -0.000000 0.000007  -0.000000 0.000000 0.878937
24  2.676518 -0.000001 0.000002  0.000000 -0.000000 0.310150
25  6.831182 -0.870867 0.599909  0.086835 -0.071367 1.234214
26  3.657090 -0.000001 0.000002  -0.000000 0.000000 0.912456
27  2.496797 0.000002 -0.000000  -0.000000 -0.000000 0.284044
28  7.183347 -0.532083 -3.267616  0.097140 -0.083735 0.352433
29  3.511604 -0.000003 -0.000000  -0.000000 -0.000000 0.910553
30  2.199401 0.000000 -0.000002  0.000000 0.000000 -0.212135
31  -0.000004 -0.000003 0.000001  1.570735 -0.000061 -1.570735
32  12.128409 -8.794674 3.748638  0.289988 -0.586137 -2.398477
33  26.392056 -0.000009 -0.000000  0.000000 -0.000000 -1.331461
34  -0.000000 0.000001 -0.000001  0.090426 0.000000 0.000000
35  3.093512 0.000000 -0.000001  0.187291 -0.000000 -0.000000
36  6.187015 -0.000000 0.000002  0.277695 -0.000000 -0.000000
37  9.280525 0.000000 0.000006  0.368176 -0.000000 0.000000
38  12.374048 0.000007 0.000002  0.458613 -0.000000 0.000000
39  15.467567 0.000003 0.000003  0.542535 -0.000000 0.000000
40  18.561079 0.000005 0.000003  0.613604 -0.000000 0.000000
41  21.654436 0.000002 -0.000004  2.279744 0.167273 0.703134
42  1.410072 0.800526 2.089141  -2.365974 -0.354168 0.866517
43  3.954697 0.000008 0.000002  0.000000 0.000001 0.645700
44  3.101551 -0.000004 -0.000003  0.000001 0.000000 0.421897
45  7.183359 -0.532081 3.267610  -0.074392 0.042225 0.265403
46  3.511587 -0.000002 0.000000  0.000000 -0.000000 0.203053
47  2.199405 0.000001 0.000001  0.000000 0.000000 0.304777
48  7.145098 -0.676337 1.382426  0.041631 0.296291 0.703172
49  3.672209 -0.000002 -0.000001  -0.000000 -0.000000 0.837989
50  2.676509 -0.000002 -0.000001  0.000000 0.000000 1.331228
51  6.831169 -0.870870 -0.599918  0.057678 0.229072 0.814100
52  3.657079 0.000001 -0.000000  -0.000000 -0.000000 0.799200
53  2.496796 0.000002 -0.000001  -0.000000 -0.000000 1.177777
54  6.164463 -0.898142 -2.575021  -0.054493 0.129539 0.625646
55  2.805830 -0.000000 -0.000001  -0.000000 0.000000 0.395779
56  2.307434 0.000001 0.000000  0.000000 0.000000 0.901796
57  0.000000 0.000000 0.000000  0.014587 -0.029578 -0.012181
58  -11.895336 -36.793427 -16.178745  0.265197 0.246498 0.102541
59  -1.260175 3.403357 4.928346  -0.000002 -0.424416 -3.141592
60  0.090547 0.325032 -2.629765  0.000000 0.000000 -0.000000
61  0.090549 8.845202 1.999913  -1.274048 0.000000 -0.000000
62  0.089593 5.423804 -2.381155  -0.000000 0.000000 -0.000000
63  -0.008311 0.334990 -0.633063  -0.000000 0.000000 -0.000000
64  -0.008313 0.281648 -0.636034  -0.000000 0.000000 -0.000000
65  -0.008315 0.281765 -0.633891  0.000000 0.000000 -1.570730
66  0.000000 0.277885 -0.657576  0.000000 0.000000 -1.570730
67  0.016057 0.067583 0.526088  0.000000 0.000000 -1.570730
68  0.016057 0.239572 -0.653647  0.000000 0.000000 -1.570730
69  0.016057 0.379274 -1.832205  0.000000 0.000000 -1.570730
70  0.048261 0.601982 -3.840479  -0.000000 0.000000 -1.570730
71  0.090546 -12.795945 3.913128  1.570735 -0.000061 -1.570735
72  0.090548 1.635671 3.971695  -0.000000 0.000000 -0.000000
73  0.794128 2.468794 0.817014  -0.000000 0.000000 -0.000000
74  0.090422 2.105197 0.932173  -0.000000 0.000000 -0.000000
75  30.459934 15.913779 -23.855238  -0.110613 -3.021740 0.550098
76  -0.660498 13.114735 -3.730434  -0.000222 -0.017468 -1.817942
77  0.000000 0.000000 -0.000000  -1.570730 -0.000000 -0.000000
78  -13.967674 16.174681 -23.300680  0.567599 1.834441 -0.712203
79  10.699636 41.892071 -12.743037  -1.891348 2.480323 0.238225
time 13
0  0 0 0  0 0 0
1  0.000000 0.000000 0.000000  0.000000 -0.000000 -0.000000
2  -0.000005 -0.000002 0.000004  0.000000 -0.000000 -1.570730
3  0.000000 0.000000 -0.000000  -0.785447 -1.570710 -0.785400
4  -0.000001 -0.000003 0.000001  -0.000000 -0.000000 -0.000000
5  -0.000002 0.000003 0.000002  -1.570735 0.000061 -1.570735
6  20.296423 -12.699912 -10.900744  0.110850 0.785119 -2.682134
7  26.391947 0.000018 -0.000003  0.008672 0.000001 -0.795102
8  0.000002 0.000001 0.000001  -0.213915 0.000000 0.000000
9  3.093510 0.000001 0.000000  -0.443082 0.000000 0.000000
10  6.187026 -0.000000 0.000001  -0.657038 0.000000 -0.000000
11  9.280540 -0.000002 0.000002  -0.870986 0.000000 0.000000
12  12.374044 0.000003 0.000001  -1.084864 0.000000 -0.000000
13  15.467556 -0.000000 0.000002  -1.314058 0.000000 0.000000
14  18.561058 -0.000002 0.000004  -1.451635 0.000000 -0.000000
15  21.654539 0.000004 -0.000000  -2.939866 -0.388707 -0.769141
16  1.410068 0.800529 -2.089139  1.666853 0.538070 0.625491
17  3.954710 -0.000002 -0.000004  0.000000 0.000000 0.222696
18  3.101567 0.000003 0.000000  0.000000 0.000000 -0.081507
19  6.164474 -0.898152 2.575017  0.023699 0.050257 1.446799
20  2.805835 -0.000002 -0.000001  -0.000000 -0.000000 0.836185
21  2.307443 0.000002 -0.000000  0.000000 0.000000 0.546717
22  7.145100 -0.676339 -1.382430  0.049962 -0.155083 1.282733
23  3.672218 -0.000003 -0.000007  -0.000000 0.000000 1.071706
24  2.676521 0.000003 -0.000001  -0.000000 -0.000000 0.418402
25  6.831182 -0.870869 0.599909  0.061088 -0.072054 1.417086
26  3.657091 0.000002 0.000003  -0.000000 0.000000 1.103159
27  2.496799 0.000002 -0.000001  -0.000000 -0.000000 0.368673
28  7.183345 -0.532086 -3.267612  0.057331 -0.082779 0.446292
29  3.511605 -0.000001 0.000003  -0.000000 0.000000 1.094785
30  2.199400 0.000002 0.000003  0.000000 0.000000 -0.216801
31  -0.000004 -0.000003 0.000001  1.570735 -0.000061 -1.570735
32  11.848669 -8.941826 3.748636  0.261409 -0.574874 -2.388535
33  26.392054 -0.000011 -0.000000  0.000000 -0.000000 -1.323789
34  0.000001 0.000003 0.000000  0.096842 -0.000000 0.000000
35  3.093513 -0.000000 0.000001  0.200660 -0.000000 -0.000000
36  6.187017 -0.000001 0.000003  0.297492 -0.000000 -0.000000
37  9.280527 0.000000 0.000007  0.394409 -0.000000 0.000000
38  12.374047 0.000007 0.000001  0.491268 -0.000000 0.000000
39  15.467566 0.000003 0.000003  0.581224 -0.000000 0.000000
40  18.561083 0.000007 0.000005  0.657296 -0.000000 0.000000
41  21.654436 0.000002 -0.000003  2.318927 0.148799 0.703394
42  1.410072 0.800529 2.089142  -2.357029 -0.350333 0.864493
43  3.954698 0.000007 0.000003  -0.000000 0.000000 0.647502
44  3.101549 -0.000004 -0.000005  0.000001 0.000001 0.423645
45  7.183358 -0.532077 3.267610  -0.074796 0.042480 0.261196
46  3.511591 0.000001 0.000001  0.000000 -0.000000 0.176994
47  2.199403 0.000002 -0.000001  0.000000 0.000000 0.278681
48  7.145096 -0.676333 1.382426  0.041631 0.296291 0.703172
49  3.672213 0.000001 0.000002  -0.000000 0.000000 0.837989
50  2.676509 -0.000000 -0.000000  0.000000 0.000000 1.331228
51  6.831167 -0.870864 -0.599919  0.057678 0.229072 0.814100
52  3.657081 -0.000004 0.000002  -0.000000 -0.000000 0.799200
53  2.496796 -0.000003 -0.000001  0.000000 -0.000000 1.177777
54  6.164461 -0.898139 -2.575019  -0.054493 0.129539 0.625646
55  2.805832 -0.000001 -0.000002  -0.000000 0.000000 0.395779
56  2.307440 -0.000000 0.000000  -0.000000 0.000000 0.901796
57  0.000000 0.000000 0.000000  0.015526 -0.031398 -0.012941
58  -12.248562 -37.064964 -16.665146  0.283963 0.228673 0.108490
59  -1.260174 3.403354 4.928345  -0.000002 -0.424415 -3.141592
60  0.090546 0.325026 -2.629764  -0.000000 -0.000000 -0.000000
61  0.090549 8.845193 1.999916  -1.274048 0.000000 0.000000
62  0.089593 5.423797 -2.381154  -0.000000 0.000000 0.000000
63  -0.008312 0.334987 -0.633064  -0.000000 0.000000 0.000000
64  -0.008315 0.281646 -0.636033  -0.000000 0.000000 0.000000
65  -0.008316 0.281766 -0.633893  -0.000000 -0.000000 -1.570730
66  0.000000 0.277887 -0.657578  -0.000000 -0.000000 -1.570730
67  0.016055 0.067586 0.526088  -0.000000 -0.000000 -1.570730
68  0.016055 0.239575 -0.653647  -0.000000 -0.000000 -1.570730
69  0.016055 0.379276 -1.832206  -0.000000 -0.000000 -1.570730
70  0.048259 0.601983 -3.840481  -0.000000 -0.000000 -1.570730
71  0.090546 -12.795957 3.913129  1.570735 -0.000061 -1.570735
72  0.090547 1.635663 3.971695  -0.000000 0.000000 0.000000
73  0.794127 2.468784 0.817016  -0.000000 0.000000 0.000000
74  0.090423 2.105191 0.932173  -0.000000 0.000000 0.000000
75  31.212330 16.567501 -23.816307  -0.230578 -3.005163 0.521335
76  -0.660495 13.114729 -3.730439  -0.000222 -0.017468 -1.817942
77  0.000000 0.000000 -0.000000  -1.570730 -0.000000 -0.000000
78  -14.343526 16.424244 -23.577868  0.508625 1.846913 -0.784857
79  11.421080 41.487015 -11.776002  1.119524 0.643282 -2.906081
time 14
0  0 0 0  0 0 0
1  0.000000 0.000000 0.000000  0.000000 -0.000000 -0.000000
2  -0.000005 -0.000002 0.000004  0.000000 -0.000000 -1.570730
3  0.000000 0.000000 -0.000000  -0.785447 -1.570710 -0.785400
4  -0.000001 -0.000003 0.000001  -0.000000 -0.000000 -0.000000
5  -0.000002 0.000003 0.000002  -1.570735 0.000061 -1.570735
6  20.564487 -12.699914 -10.900744  0.149217 0.770191 -2.600383
7  26.391949 0.000017 -0.000002  0.008710 0.000025 -0.889210
8  0.000001 -0.000001 -0.000001  -0.224109 -0.000000 0.000000
9  3.093508 -0.000001 -0.000000  -0.464255 0.000000 0.000000
10  6.187023 0.000000 0.000001  -0.688399 0.000000 -0.000000
11  9.280533 -0.000002 0.000004  -0.912524 0.000000 -0.000000
12  12.374041 0.000002 -0.000001  -1.136658 0.000000 -0.000000
13  15.467553 -0.000000 0.000002  -1.376804 0.000000 0.000000
14  18.561058 -0.000002 -0.000001  -1.520852 0.000000 -0.000000
15  21.654533 -0.000001 0.000001  -3.037221 -0.349251 -0.729420
16  1.410068 0.800536 -2.089138  1.675830 0.531903 0.647842
17  3.954714 -0.000000 -0.000002  0.000000 0.000000 0.207839
18  3.101570 0.000002 0.000000  0.000000 -0.000000 -0.099776
19  6.164474 -0.898147 2.575011  0.016991 0.056712 1.582222
20  2.805831 0.000000 -0.000001  -0.000000 -0.000000 0.954422
21  2.307443 0.000007 -0.000001  0.000000 0.000000 0.616677
22  7.145101 -0.676335 -1.382432  0.025490 -0.156238 1.407550
23  3.672220 0.000000 -0.000003  -0.000000 -0.000000 1.208099
24  2.676522 0.000000 -0.000003  -0.000000 -0.000000 0.494919
25  6.831182 -0.870865 0.599907  0.042825 -0.072586 1.546457
26  3.657090 -0.000001 0.000003  -0.000000 0.000000 1.237992
27  2.496799 0.000004 0.000001  -0.000000 -0.000000 0.428454
28  7.183345 -0.532081 -3.267612  0.029173 -0.082381 0.512685
29  3.511606 -0.000002 0.000002  -0.000000 0.000000 1.225132
30  2.199405 0.000004 0.000001  0.000000 0.000000 -0.218520
31  -0.000004 -0.000003 0.000001  1.570735 -0.000061 -1.570735
32  11.667660 -9.037044 3.748635  0.241574 -0.567716 -2.382410
33  26.392052 -0.000007 0.000002  -0.000000 -0.000000 -1.316294
34  -0.000000 -0.000003 0.000002  0.104298 -0.000000 0.000000
35  3.093512 -0.000003 0.000000  0.216064 -0.000000 0.000000
36  6.187016 -0.000007 0.000005  0.320410 -0.000000 0.000000
37  9.280528 -0.000004 0.000009  0.424769 -0.000000 0.000000
38  12.374048 0.000004 0.000003  0.529053 -0.000000 0.000000
39  15.467565 -0.000002 0.000003  0.625973 -0.000000 0.000000
40  18.561079 0.000000 0.000005  0.707950 -0.000000 0.000000
41  21.654442 -0.000003 0.000001  2.365598 0.131534 0.698835
42  1.410072 0.800527 2.089140  -2.351209 -0.347836 0.863153
43  3.954700 0.000005 0.000005  0.000000 0.000000 0.648662
44  3.101555 -0.000003 -0.000006  0.000001 0.000001 0.424831
45  7.183359 -0.532078 3.267609  -0.075057 0.042713 0.258472
46  3.511590 0.000001 -0.000002  -0.000000 -0.000000 0.160088
47  2.199407 -0.000000 -0.000000  0.000000 0.000000 0.261803
48  7.145100 -0.676333 1.382426  0.041631 0.296291 0.703172
49  3.672212 0.000001 0.000002  -0.000000 0.000000 0.837989
50  2.676510 -0.000002 -0.000001  0.000000 0.000000 1.331228
51  6.831168 -0.870864 -0.599918  0.057678 0.229072 0.814100
52  3.657084 -0.000002 0.000001  -0.000000 -0.000000 0.799200
53  2.496795 0.000003 0.000000  -0.000000 -0.000000 1.177777
54  6.164461 -0.898142 -2.575021  -0.054493 0.129539 0.625646
55  2.805830 -0.000001 -0.000001  -0.000000 0.000000 0.395779
56  2.307439 -0.000003 -0.000002  0.000000 0.000000 0.901796
57  0.000000 0.000000 0.000000  0.016092 -0.032611 -0.013449
58  -12.485799 -37.250835 -16.998087  0.293996 0.195730 0.111794
59  -1.260174 3.403359 4.928345  -0.000002 -0.424415 -3.141592
60  0.090546 0.325031 -2.629766  0.000000 -0.000000 -0.000000
61  0.090549 8.845200 1.999915  -1.274048 -0.000000 -0.000000
62  0.089593 5.423804 -2.381153  -0.000000 -0.000000 -0.000000
63  -0.008313 0.334987 -0.633063  -0.000000 -0.000000 -0.000000
64  -0.008314 0.281647 -0.636034  -0.000000 -0.000000 -0.000000
65  -0.008316 0.281760 -0.633891  -0.000000 -0.000000 -1.570730
66  -0.000000 0.277881 -0.657576  -0.000000 -0.000000 -1.570730
67  0.016056 0.067582 0.526089  -0.000000 -0.000000 -1.570730
68  0.016055 0.239569 -0.653645  -0.000000 -0.000000 -1.570730
69  0.016056 0.379273 -1.832206  -0.000000 -0.000000 -1.570730
70  0.048258 0.601978 -3.840478  -0.000000 -0.000000 -1.570730
71  0.090543 -12.795947 3.913130  1.570735 -0.000061 -1.570735
72  0.090547 1.635671 3.971697  -0.000000 -0.000000 -0.000000
73  0.794128 2.468792 0.817016  -0.000000 -0.000000 -0.000000
74  0.090423 2.105199 0.932174  -0.000000 -0.000000 -0.000000
75  31.646366 17.035957 -23.709850  -0.324684 -2.993330 0.503162
76  -0.660500 13.114724 -3.730433  -0.000222 -0.017468 -1.817942
77  0.000000 0.000000 -0.000000  -1.570730 -0.000000 -0.000000
78  -14.606663 16.643812 -23.770283  0.472473 1.855809 -0.851253
79  12.344003 40.569553 -11.140659  1.018291 0.632798 -2.928484
time 15
0  0 0 0  0 0 0
1  0.000000 0.000000 0.000000  0.000000 -0.000000 -0.000000
2  -0.000005 -0.000002 0.000004  0.000000 -0.000000 -1.570730
3  0.000000 0.000000 -0.000000  -0.785447 -1.570710 -0.785400
4  -0.000001 -0.000003 0.000001  -0.000000 -0.000000 -0.000000
5  -0.000002 0.000003 0.000002  -1.570735 0.000061 -1.570735
6  20.659752 -12.699913 -10.900744  0.164104 0.760706 -2.564235
7  26.391949 0.000015 0.000002  0.008680 -0.000005 -0.932505
8  0.000001 -0.000002 -0.000003  -0.228040 0.000000 0.000000
9  3.093509 -0.000003 -0.000001  -0.472350 0.000000 0.000000
10  6.187024 -0.000003 -0.000002  -0.700407 0.000000 -0.000000
11  9.280540 -0.000002 -0.000003  -0.928466 0.000000 -0.000000
12  12.374045 0.000000 -0.000005  -1.156492 0.000000 -0.000000
13  15.467554 -0.000003 -0.000002  -1.400792 0.000000 -0.000000
14  18.561062 -0.000002 -0.000002  -1.547388 0.000000 -0.000000
15  21.654539 -0.000001 -0.000003  -3.077486 -0.328463 -0.707386
16  1.410068 0.800534 -2.089133  1.679005 0.529657 0.655773
17  3.954713 -0.000002 -0.000004  0.000000 -0.000000 0.202562
18  3.101572 0.000001 -0.000001  0.000000 -0.000000 -0.106316
19  6.164474 -0.898144 2.575016  0.014384 0.059062 1.633600
20  2.805835 -0.000001 0.000001  -0.000000 -0.000000 0.999281
21  2.307441 0.000010 -0.000000  0.000000 0.000000 0.643190
22  7.145102 -0.676331 -1.382428  0.016219 -0.156679 1.454902
23  3.672217 0.000000 -0.000003  0.000000 0.000000 1.259811
24  2.676519 0.000002 -0.000002  0.000000 -0.000000 0.523932
25  6.831181 -0.870860 0.599910  0.035901 -0.072812 1.595516
26  3.657089 -0.000001 -0.000002  -0.000000 0.000000 1.289200
27  2.496796 0.000002 -0.000004  -0.000000 -0.000000 0.451157
28  7.183346 -0.532080 -3.267609  0.018480 -0.082357 0.537831
29  3.511604 -0.000001 0.000007  -0.000000 -0.000000 1.274503
30  2.199399 0.000004 0.000005  0.000000 0.000000 -0.218765
31  -0.000004 -0.000003 0.000001  1.570735 -0.000061 -1.570735
32  11.603336 -9.070885 3.748634  0.234175 -0.565215 -2.380411
33  26.392057 -0.000008 0.000001  0.000000 -0.000000 -1.312979
34  0.000002 -0.000003 0.000000  0.107844 -0.000000 0.000000
35  3.093514 -0.000003 0.000000  0.223494 -0.000000 0.000000
36  6.187020 -0.000005 0.000003  0.331358 -0.000000 0.000000
37  9.280531 -0.000003 0.000008  0.439266 -0.000000 0.000000
38  12.374052 0.000002 0.000003  0.547161 -0.000000 0.000000
39  15.467571 -0.000001 0.000004  0.647374 -0.000000 0.000000
40  18.561079 0.000004 0.000005  0.732147 -0.000000 0.000000
41  21.654444 -0.000002 0.000000  2.388086 0.123882 0.695647
42  1.410070 0.800528 2.089140  -2.349116 -0.346898 0.862676
43  3.954700 0.000004 0.000002  -0.000000 0.000000 0.649048
44  3.101552 -0.000004 -0.000007  0.000001 0.000001 0.425206
45  7.183358 -0.532078 3.267609  -0.075130 0.042747 0.257546
46  3.511588 -0.000000 0.000001  0.000000 -0.000000 0.154088
47  2.199404 -0.000001 0.000001  0.000000 0.000000 0.255770
48  7.145099 -0.676335 1.382426  0.041631 0.296291 0.703172
49  3.672214 -0.000001 0.000000  -0.000000 0.000000 0.837989
50  2.676508 -0.000001 0.000000  0.000000 0.000000 1.331228
51  6.831166 -0.870867 -0.599919  0.057678 0.229072 0.814100
52  3.657081 0.000001 -0.000002  -0.000000 -0.000000 0.799200
53  2.496796 -0.000002 0.000000  0.000000 -0.000000 1.177777
54  6.164458 -0.898141 -2.575021  -0.054493 0.129539 0.625646
55  2.805828 -0.000003 -0.000002  -0.000000 0.000000 0.395779
56  2.307441 0.000002 0.000000  -0.000000 0.000000 0.901796
57  0.000000 0.000000 0.000000  0.016281 -0.033035 -0.013638
58  -12.572548 -37.319748 -17.121521  0.296897 0.177992 0.112894
59  -1.260174 3.403357 4.928345  -0.000002 -0.424416 -3.141592
60  0.090547 0.325027 -2.629764  -0.000000 -0.000000 -0.000000
61  0.090549 8.845201 1.999915  -1.274048 -0.000000 0.000000
62  0.089594 5.423805 -2.381155  -0.000000 -0.000000 0.000000
63  -0.008312 0.334985 -0.633065  -0.000000 -0.000000 0.000000
64  -0.008313 0.281646 -0.636033  -0.000000 -0.000000 0.000000
65  -0.008313 0.281762 -0.633891  -0.000000 -0.000000 -1.570730
66  0.000001 0.277884 -0.657576  -0.000000 -0.000000 -1.570730
67  0.016056 0.067583 0.526089  -0.000000 -0.000000 -1.570730
68  0.016057 0.239570 -0.653646  -0.000000 -0.000000 -1.570730
69  0.016057 0.379273 -1.832205  -0.000000 -0.000000 -1.570730
70  0.048261 0.601978 -3.840483  -0.000000 -0.000000 -1.570730
71  0.090547 -12.795952 3.913129  1.570735 -0.000061 -1.570735
72  0.090549 1.635670 3.971695  -0.000000 -0.000000 0.000000
73  0.794129 2.468790 0.817013  -0.000000 -0.000000 0.000000
74  0.090425 2.105198 0.932174  -0.000000 -0.000000 0.000000
75  31.785774 17.215324 -23.649128  -0.362767 -2.988793 0.496840
76  -0.660496 13.114731 -3.730431  -0.000222 -0.017468 -1.817942
77  0.000000 0.000000 -0.000000  -1.570730 -0.000000 -0.000000
78  -14.706925 16.738480 -23.842108  0.459925 1.859166 -0.880542
79  12.784381 40.049168 -10.912659  0.977872 0.628987 -2.941413
end
