version 1
nodes
0 "blender_implicit" -1
1 "b_root" -1
2 "b_ch_middle" 1
3 "b_ch_spine1" 2
4 "b_ch_spine2" 3
5 "b_ch_l_clavical" 4
6 "b_ch_l_upperarm" 5
7 "b_ch_l_forearm" 6
8 "b_ch_l_forearm_twist1" 7
9 "b_ch_l_forearm_twist2" 7
10 "b_ch_l_forearm_twist3" 7
11 "b_ch_l_forearm_twist4" 7
12 "b_ch_l_forearm_twist5" 7
13 "b_ch_l_forearm_twist6" 7
14 "b_ch_l_forearm_twist7" 7
15 "b_ch_l_hand" 7
16 "b_ch_l_finger_00" 15
17 "b_ch_l_finger_01" 16
18 "b_ch_l_finger_02" 17
19 "b_ch_l_finger_40" 15
20 "b_ch_l_finger_41" 19
21 "b_ch_l_finger_42" 20
22 "b_ch_l_finger_20" 15
23 "b_ch_l_finger_21" 22
24 "b_ch_l_finger_22" 23
25 "b_ch_l_finger_30" 15
26 "b_ch_l_finger_31" 25
27 "b_ch_l_finger_32" 26
28 "b_ch_l_finger_10" 15
29 "b_ch_l_finger_11" 28
30 "b_ch_l_finger_12" 29
31 "b_ch_r_clavical" 4
32 "b_ch_r_upperarm" 31
33 "b_ch_r_forearm" 32
34 "b_ch_r_forearm_twist1" 33
35 "b_ch_r_forearm_twist2" 33
36 "b_ch_r_forearm_twist3" 33
37 "b_ch_r_forearm_twist4" 33
38 "b_ch_r_forearm_twist5" 33
39 "b_ch_r_forearm_twist6" 33
40 "b_ch_r_forearm_twist7" 33
41 "b_ch_r_hand" 33
42 "b_ch_r_finger_00" 41
43 "b_ch_r_finger_01" 42
44 "b_ch_r_finger_02" 43
45 "b_ch_r_finger_10" 41
46 "b_ch_r_finger_11" 45
47 "b_ch_r_finger_12" 46
48 "b_ch_r_finger_20" 41
49 "b_ch_r_finger_21" 48
50 "b_ch_r_finger_22" 49
51 "b_ch_r_finger_30" 41
52 "b_ch_r_finger_31" 51
53 "b_ch_r_finger_32" 52
54 "b_ch_r_finger_40" 41
55 "b_ch_r_finger_41" 54
56 "b_ch_r_finger_42" 55
57 "b_camera" 1
58 "b_wpn" 1
59 "b_wpn_eject" 58
60 "b_wpn_foregrip" 58
61 "b_wpn_hammer" 58
62 "b_wpn_mag" 58
63 "b_wpn_mag_b1" 62
64 "b_wpn_mag_b2" 62
65 "b_wpn_mag_b3" 62
66 "b_wpn_mag_b4" 62
67 "b_wpn_mag_b5" 62
68 "b_wpn_mag_b6" 62
69 "b_wpn_mag_b7" 62
70 "b_wpn_mag_follow" 62
71 "b_wpn_muzzle" 58
72 "b_wpn_slide" 58
73 "b_wpn_sliderelease" 58
74 "b_wpn_trigger" 58
75 "ik_hand_wpn_l" 58
76 "ik_hand_wpn_r" 58
77 "ik_hand_root" 1
78 "ik_hand_r" 77
79 "ik_hand_l" 77
end
skeleton
time 0
0  0 0 0  0 0 0
1  0.000000 0.000000 0.000000  0.000000 -0.000000 -0.000000
2  -0.000001 -0.000000 -52.527233  0.000000 -0.000000 -1.570730
3  -0.012811 0.000001 8.236240  -1.570102 -1.475785 -0.000632
4  16.088190 -1.542059 0.007518  -0.626211 0.000436 -0.095000
5  16.163168 -0.000518 3.830555  -1.405092 -0.286489 -2.105575
6  14.868259 0.000014 0.000001  -0.709258 0.836670 -2.116335
7  26.391956 0.000015 0.000000  -0.000000 0.000000 -1.355086
8  0.000004 -0.000003 0.000001  0.022218 0.000000 -0.000000
9  3.093514 -0.000002 0.000002  0.038456 0.000000 0.000000
10  6.187022 -0.000001 0.000002  0.064161 0.000000 -0.000000
11  9.280534 -0.000002 0.000000  0.091649 0.000000 -0.000000
12  12.374047 0.000001 0.000003  0.113223 0.000000 -0.000000
13  15.467553 -0.000004 0.000003  0.128327 -0.000000 -0.000000
14  18.561062 -0.000002 0.000002  0.148089 0.000000 -0.000000
15  21.654581 0.000000 0.000001  -2.837353 -0.217358 0.147031
16  1.410085 0.800478 -2.089134  1.945422 0.548032 0.092234
17  3.954696 0.000002 -0.000003  0.057526 -0.092163 0.121208
18  3.101578 0.000000 -0.000001  0.000000 0.000000 -0.368859
19  6.164553 -0.898130 2.575075  0.169525 -0.327906 -0.242586
20  2.805836 0.000003 -0.000001  -0.000000 -0.000000 0.743533
21  2.307455 0.000008 -0.000000  -0.101834 0.127493 0.666995
22  7.145157 -0.676363 -1.382337  0.202667 -0.371962 -0.230110
23  3.672211 -0.000001 -0.000000  0.000000 0.000000 0.898135
24  2.676539 0.000005 -0.000000  -0.000000 -0.000000 0.946253
25  6.831254 -0.870866 0.599992  0.206789 -0.328252 -0.230834
26  3.657069 -0.000003 -0.000001  -0.000000 0.000000 0.986716
27  2.496806 0.000001 -0.000001  -0.000000 0.000000 0.803244
28  7.183397 -0.532114 -3.267513  0.182246 -0.361218 -0.105522
29  3.511603 -0.000004 -0.000000  -0.000000 -0.000000 0.607332
30  2.199415 0.000005 0.000001  0.000000 -0.000000 0.487871
31  16.163095 0.000577 -3.830543  0.427892 0.982417 -2.779042
32  14.868268 -0.000015 -0.000005  -0.008475 -0.276301 -1.978392
33  26.391972 -0.000008 -0.000002  -0.000000 -0.000000 -1.266239
34  0.000001 -0.000002 0.000001  -0.022218 -0.000000 0.000000
35  3.093516 -0.000000 0.000000  -0.038456 0.000000 0.000000
36  6.187029 -0.000003 0.000003  -0.064161 0.000000 0.000000
37  9.280533 0.000000 0.000006  -0.091649 -0.000000 0.000000
38  12.374063 0.000002 0.000003  -0.106926 -0.000001 0.000001
39  15.467577 0.000002 0.000003  -0.128327 -0.000000 0.000000
40  18.561079 0.000003 0.000007  -0.148088 -0.000001 0.000001
41  21.654583 -0.000002 -0.000001  1.948098 0.216698 0.812011
42  1.410055 0.800544 2.089135  -2.578339 -0.606386 0.928435
43  3.954719 0.000004 0.000004  0.158747 0.230321 0.455414
44  3.101569 -0.000005 -0.000006  0.103343 0.083898 -0.248668
45  7.183433 -0.532065 3.267577  0.020057 0.133641 0.087384
46  3.511600 -0.000000 0.000001  0.000000 -0.000000 0.461057
47  2.199409 0.000000 -0.000001  0.000000 0.000000 0.870919
48  7.145155 -0.676304 1.382380  0.170125 0.278865 0.635965
49  3.672216 0.000000 0.000001  -0.082098 -0.079434 0.954901
50  2.676556 -0.000002 -0.000001  0.000000 0.000000 1.219319
51  6.831207 -0.870818 -0.599965  0.179031 0.365149 0.659706
52  3.657085 -0.000000 0.000003  -0.028034 -0.061971 0.969805
53  2.496822 -0.000009 0.000000  0.000000 -0.000000 0.893328
54  6.164483 -0.898103 -2.575055  0.023418 0.306913 0.364568
55  2.805851 -0.000001 -0.000001  -0.000000 0.000000 0.831913
56  2.307466 0.000000 -0.000001  -0.000000 0.000000 0.716417
57  0.000000 0.000000 0.000000  0.000000 0.000000 0.000000
58  -2.270715 -37.896801 -6.229733  -0.000000 0.610851 -0.000000
59  -1.260175 3.403351 4.928343  0.000111 -0.424416 3.141069
60  0.013645 -12.479187 -0.492761  0.000000 -0.000000 -0.000000
61  0.090549 8.849264 1.998111  -0.000000 -0.000000 -0.000000
62  0.090547 5.422810 -2.383387  -0.000000 -0.000000 -0.000000
63  0.001123 -1.491856 4.461293  0.000000 -0.000000 -0.000000
64  0.001122 -1.176815 3.172600  -0.000000 -0.000000 -0.000000
65  0.015103 -0.259083 2.887979  0.000000 -0.000000 -1.570797
66  0.015102 -0.091438 1.706880  0.000000 -0.000000 -1.570797
67  0.015102 0.068581 0.528320  0.000000 -0.000000 -1.570797
68  0.015102 0.240566 -0.651415  0.000000 -0.000000 -1.570797
69  0.015102 0.380268 -1.829973  -0.000000 -0.000001 -1.570797
70  0.048123 0.601242 -3.841653  -0.000000 -0.000001 -1.570797
71  0.090546 -12.795948 3.913126  1.570735 -0.000061 -1.570735
72  0.090548 1.635666 3.971694  -0.000000 -0.000000 -0.000000
73  0.794128 2.468792 0.817014  -0.000000 -0.000000 -0.000000
74  0.090548 2.105568 0.931313  -0.000000 -0.000000 0.000000
75  4.632981 9.248848 -6.836048  -0.431403 -2.774011 0.840388
76  -1.567114 11.626270 -4.097450  -0.053050 -0.413734 -1.726683
77  0.000000 0.000000 -0.000000  0.000000 -0.000000 -0.000000
78  -54.036781 -22.125372 -39.198509  -1.255994 0.603812 -2.058057
79  54.036812 -22.125313 -39.198486  -1.885370 0.603838 -1.083260
time 1
0  0 0 0  0 0 0
1  0.000000 0.000000 0.000000  0.000000 -0.000000 -0.000000
2  -0.000001 -0.000000 -52.527233  0.000000 -0.000000 -1.570730
3  -0.012811 0.000001 8.236240  -1.570102 -1.475785 -0.000632
4  16.088190 -1.542059 0.007518  -0.626211 0.000436 -0.095000
5  16.163168 -0.000518 3.830555  -1.405092 -0.286489 -2.105575
6  14.868259 0.000014 0.000001  -0.709258 0.836670 -2.116335
7  26.391956 0.000015 0.000000  -0.000000 0.000000 -1.355086
8  0.000004 -0.000003 0.000001  0.022218 0.000000 -0.000000
9  3.093514 -0.000002 0.000002  0.038456 0.000000 0.000000
10  6.187022 -0.000001 0.000002  0.064161 0.000000 -0.000000
11  9.280534 -0.000002 0.000000  0.091649 0.000000 -0.000000
12  12.374047 0.000001 0.000003  0.113223 0.000000 -0.000000
13  15.467553 -0.000004 0.000003  0.128327 -0.000000 -0.000000
14  18.561062 -0.000002 0.000002  0.148089 0.000000 -0.000000
15  21.654581 0.000000 0.000001  -2.837353 -0.217358 0.147031
16  1.410085 0.800478 -2.089134  1.945422 0.548032 0.092234
17  3.954696 0.000002 -0.000003  0.057526 -0.092163 0.121208
18  3.101578 0.000000 -0.000001  0.000000 0.000000 -0.368859
19  6.164553 -0.898130 2.575075  0.169525 -0.327906 -0.242586
20  2.805836 0.000003 -0.000001  -0.000000 -0.000000 0.743533
21  2.307455 0.000008 -0.000000  -0.101834 0.127493 0.666995
22  7.145157 -0.676363 -1.382337  0.202667 -0.371962 -0.230110
23  3.672211 -0.000001 -0.000000  0.000000 0.000000 0.898135
24  2.676539 0.000005 -0.000000  -0.000000 -0.000000 0.946253
25  6.831254 -0.870866 0.599992  0.206789 -0.328252 -0.230834
26  3.657069 -0.000003 -0.000001  -0.000000 0.000000 0.986716
27  2.496806 0.000001 -0.000001  -0.000000 0.000000 0.803244
28  7.183397 -0.532114 -3.267513  0.182246 -0.361218 -0.105522
29  3.511603 -0.000004 -0.000000  -0.000000 -0.000000 0.607332
30  2.199415 0.000005 0.000001  0.000000 -0.000000 0.487871
31  16.163095 0.000577 -3.830543  0.427892 0.982417 -2.779042
32  14.868268 -0.000015 -0.000005  -0.008475 -0.276301 -1.978392
33  26.391972 -0.000008 -0.000002  -0.000000 -0.000000 -1.266239
34  0.000001 -0.000002 0.000001  -0.022218 -0.000000 0.000000
35  3.093516 -0.000000 0.000000  -0.038456 0.000000 0.000000
36  6.187029 -0.000003 0.000003  -0.064161 0.000000 0.000000
37  9.280533 0.000000 0.000006  -0.091649 -0.000000 0.000000
38  12.374063 0.000002 0.000003  -0.106926 -0.000001 0.000001
39  15.467577 0.000002 0.000003  -0.128327 -0.000000 0.000000
40  18.561079 0.000003 0.000007  -0.148088 -0.000001 0.000001
41  21.654583 -0.000002 -0.000001  1.948098 0.216698 0.812011
42  1.410055 0.800544 2.089135  -2.578339 -0.606386 0.928435
43  3.954719 0.000004 0.000004  0.158747 0.230321 0.455414
44  3.101569 -0.000005 -0.000006  0.103343 0.083898 -0.248668
45  7.183433 -0.532065 3.267577  0.020057 0.133641 0.087384
46  3.511600 -0.000000 0.000001  0.000000 -0.000000 0.461057
47  2.199409 0.000000 -0.000001  0.000000 0.000000 0.870919
48  7.145155 -0.676304 1.382380  0.170125 0.278865 0.635965
49  3.672216 0.000000 0.000001  -0.082098 -0.079434 0.954901
50  2.676556 -0.000002 -0.000001  0.000000 0.000000 1.219319
51  6.831207 -0.870818 -0.599965  0.179031 0.365149 0.659706
52  3.657085 -0.000000 0.000003  -0.028034 -0.061971 0.969805
53  2.496822 -0.000009 0.000000  0.000000 -0.000000 0.893328
54  6.164483 -0.898103 -2.575055  0.023418 0.306913 0.364568
55  2.805851 -0.000001 -0.000001  -0.000000 0.000000 0.831913
56  2.307466 0.000000 -0.000001  -0.000000 0.000000 0.716417
57  0.000000 0.000000 0.000000  0.000000 0.000000 0.000000
58  -2.270715 -37.896801 -6.229733  -0.000000 0.610851 -0.000000
59  -1.260175 3.403351 4.928343  0.000111 -0.424416 3.141069
60  0.013645 -12.479187 -0.492761  0.000000 -0.000000 -0.000000
61  0.090549 8.849264 1.998111  -0.000000 -0.000000 -0.000000
62  0.090547 5.422810 -2.383387  -0.000000 -0.000000 -0.000000
63  0.001123 -1.491856 4.461293  0.000000 -0.000000 -0.000000
64  0.001122 -1.176815 3.172600  -0.000000 -0.000000 -0.000000
65  0.015103 -0.259083 2.887979  0.000000 -0.000000 -1.570797
66  0.015102 -0.091438 1.706880  0.000000 -0.000000 -1.570797
67  0.015102 0.068581 0.528320  0.000000 -0.000000 -1.570797
68  0.015102 0.240566 -0.651415  0.000000 -0.000000 -1.570797
69  0.015102 0.380268 -1.829973  -0.000000 -0.000001 -1.570797
70  0.048123 0.601242 -3.841653  -0.000000 -0.000001 -1.570797
71  0.090546 -12.795948 3.913126  1.570735 -0.000061 -1.570735
72  0.090548 1.635666 3.971694  -0.000000 -0.000000 -0.000000
73  0.794128 2.468792 0.817014  -0.000000 -0.000000 -0.000000
74  0.090548 2.105568 0.931313  -0.000000 -0.000000 0.000000
75  4.632981 9.248848 -6.836048  -0.431403 -2.774011 0.840388
76  -1.567114 11.626270 -4.097450  -0.053050 -0.413734 -1.726683
77  0.000000 0.000000 -0.000000  0.000000 -0.000000 -0.000000
78  -54.036781 -22.125372 -39.198509  -1.255994 0.603812 -2.058057
79  54.036812 -22.125313 -39.198486  -1.885370 0.603838 -1.083260
time 2
0  0 0 0  0 0 0
1  0.000000 0.000000 0.000000  0.000000 -0.000000 -0.000000
2  -0.000001 -0.000000 -52.527233  0.000000 -0.000000 -1.570730
3  -0.012811 0.000001 8.236240  -1.570102 -1.475785 -0.000632
4  16.088190 -1.542059 0.007518  -0.626211 0.000436 -0.095000
5  16.163168 -0.000518 3.830555  -1.405092 -0.286489 -2.105575
6  14.868259 0.000014 0.000001  -0.709258 0.836670 -2.116335
7  26.391956 0.000015 0.000000  -0.000000 0.000000 -1.355086
8  0.000004 -0.000003 0.000001  0.022218 0.000000 -0.000000
9  3.093514 -0.000002 0.000002  0.038456 0.000000 0.000000
10  6.187022 -0.000001 0.000002  0.064161 0.000000 -0.000000
11  9.280534 -0.000002 0.000000  0.091649 0.000000 -0.000000
12  12.374047 0.000001 0.000003  0.113223 0.000000 -0.000000
13  15.467553 -0.000004 0.000003  0.128327 -0.000000 -0.000000
14  18.561062 -0.000002 0.000002  0.148089 0.000000 -0.000000
15  21.654581 0.000000 0.000001  -2.837353 -0.217358 0.147031
16  1.410085 0.800478 -2.089134  1.945422 0.548032 0.092234
17  3.954696 0.000002 -0.000003  0.057526 -0.092163 0.121208
18  3.101578 0.000000 -0.000001  0.000000 0.000000 -0.368859
19  6.164553 -0.898130 2.575075  0.169525 -0.327906 -0.242586
20  2.805836 0.000003 -0.000001  -0.000000 -0.000000 0.743533
21  2.307455 0.000008 -0.000000  -0.101834 0.127493 0.666995
22  7.145157 -0.676363 -1.382337  0.202667 -0.371962 -0.230110
23  3.672211 -0.000001 -0.000000  0.000000 0.000000 0.898135
24  2.676539 0.000005 -0.000000  -0.000000 -0.000000 0.946253
25  6.831254 -0.870866 0.599992  0.206789 -0.328252 -0.230834
26  3.657069 -0.000003 -0.000001  -0.000000 0.000000 0.986716
27  2.496806 0.000001 -0.000001  -0.000000 0.000000 0.803244
28  7.183397 -0.532114 -3.267513  0.182246 -0.361218 -0.105522
29  3.511603 -0.000004 -0.000000  -0.000000 -0.000000 0.607332
30  2.199415 0.000005 0.000001  0.000000 -0.000000 0.487871
31  16.163095 0.000577 -3.830543  0.427892 0.982417 -2.779042
32  14.868268 -0.000015 -0.000005  -0.008475 -0.276301 -1.978392
33  26.391972 -0.000008 -0.000002  -0.000000 -0.000000 -1.266239
34  0.000001 -0.000002 0.000001  -0.022218 -0.000000 0.000000
35  3.093516 -0.000000 0.000000  -0.038456 0.000000 0.000000
36  6.187029 -0.000003 0.000003  -0.064161 0.000000 0.000000
37  9.280533 0.000000 0.000006  -0.091649 -0.000000 0.000000
38  12.374063 0.000002 0.000003  -0.106926 -0.000001 0.000001
39  15.467577 0.000002 0.000003  -0.128327 -0.000000 0.000000
40  18.561079 0.000003 0.000007  -0.148088 -0.000001 0.000001
41  21.654583 -0.000002 -0.000001  1.948098 0.216698 0.812011
42  1.410055 0.800544 2.089135  -2.578339 -0.606386 0.928435
43  3.954719 0.000004 0.000004  0.158747 0.230321 0.455414
44  3.101569 -0.000005 -0.000006  0.103343 0.083898 -0.248668
45  7.183433 -0.532065 3.267577  0.020057 0.133641 0.087384
46  3.511600 -0.000000 0.000001  0.000000 -0.000000 0.461057
47  2.199409 0.000000 -0.000001  0.000000 0.000000 0.870919
48  7.145155 -0.676304 1.382380  0.170125 0.278865 0.635965
49  3.672216 0.000000 0.000001  -0.082098 -0.079434 0.954901
50  2.676556 -0.000002 -0.000001  0.000000 0.000000 1.219319
51  6.831207 -0.870818 -0.599965  0.179031 0.365149 0.659706
52  3.657085 -0.000000 0.000003  -0.028034 -0.061971 0.969805
53  2.496822 -0.000009 0.000000  0.000000 -0.000000 0.893328
54  6.164483 -0.898103 -2.575055  0.023418 0.306913 0.364568
55  2.805851 -0.000001 -0.000001  -0.000000 0.000000 0.831913
56  2.307466 0.000000 -0.000001  -0.000000 0.000000 0.716417
57  0.000000 0.000000 0.000000  0.000000 0.000000 0.000000
58  -2.270715 -37.896801 -6.229733  -0.000000 0.610851 -0.000000
59  -1.260175 3.403351 4.928343  0.000111 -0.424416 3.141069
60  0.013645 -12.479187 -0.492761  0.000000 -0.000000 -0.000000
61  0.090549 8.849264 1.998111  -0.000000 -0.000000 -0.000000
62  0.090547 5.422810 -2.383387  -0.000000 -0.000000 -0.000000
63  0.001123 -1.491856 4.461293  0.000000 -0.000000 -0.000000
64  0.001122 -1.176815 3.172600  -0.000000 -0.000000 -0.000000
65  0.015103 -0.259083 2.887979  0.000000 -0.000000 -1.570797
66  0.015102 -0.091438 1.706880  0.000000 -0.000000 -1.570797
67  0.015102 0.068581 0.528320  0.000000 -0.000000 -1.570797
68  0.015102 0.240566 -0.651415  0.000000 -0.000000 -1.570797
69  0.015102 0.380268 -1.829973  -0.000000 -0.000001 -1.570797
70  0.048123 0.601242 -3.841653  -0.000000 -0.000001 -1.570797
71  0.090546 -12.795948 3.913126  1.570735 -0.000061 -1.570735
72  0.090548 1.635666 3.971694  -0.000000 -0.000000 -0.000000
73  0.794128 2.468792 0.817014  -0.000000 -0.000000 -0.000000
74  0.090548 2.105568 0.931313  -0.000000 -0.000000 0.000000
75  4.632981 9.248848 -6.836048  -0.431403 -2.774011 0.840388
76  -1.567114 11.626270 -4.097450  -0.053050 -0.413734 -1.726683
77  0.000000 0.000000 -0.000000  0.000000 -0.000000 -0.000000
78  -54.036781 -22.125372 -39.198509  -1.255994 0.603812 -2.058057
79  54.036812 -22.125313 -39.198486  -1.885370 0.603838 -1.083260
end
